M48
;DRILL file {KiCad 5.0.2+dfsg1-1} date Tue 12 Jan 2021 06:49:14 PM CET
;FORMAT={-:-/ absolute / inch / decimal}
FMAT,2
INCH,TZ
T1C0.0670
T2C0.1181
T3C0.1570
T4C0.1575
%
G90
G05
T1
X2.8612Y-5.7708
X3.2238Y-5.6018
X3.1782Y-6.4506
X3.5408Y-6.2816
X2.1815Y-6.0878
X2.5441Y-5.9188
X2.4984Y-6.7675
X2.861Y-6.5985
T2
X2.575Y-5.7975
X2.7475Y-5.7175
X3.1475Y-6.5675
X2.9675Y-6.6525
T3
X3.0425Y-5.6863
X3.3595Y-6.3661
X2.3628Y-6.0033
X2.6797Y-6.683
T4
X2.425Y-6.9025
X2.03Y-6.0525
X3.3Y-5.4575
X3.695Y-6.31
T0
M30
