M48
;DRILL file {KiCad 5.0.2+dfsg1-1} date Tue 12 Jan 2021 06:49:14 PM CET
;FORMAT={-:-/ absolute / inch / decimal}
FMAT,2
INCH,TZ
T1C0.0120
T2C0.0157
T3C0.0236
T4C0.0315
T5C0.0354
T6C0.0362
T7C0.0390
T8C0.0394
T9C0.0433
T10C0.0590
T11C0.0670
T12C0.0906
T13C0.1570
T14C0.1693
%
G90
G05
T1
X2.931Y-1.942
X2.9345Y-2.0545
X2.94Y-2.026
X2.942Y-1.971
X2.946Y-1.998
X2.95Y-2.09
X3.24Y-1.866
X3.262Y-1.814
X3.276Y-1.738
X3.318Y-1.84
X3.976Y-1.568
X7.108Y-2.17
X7.45Y-1.508
X7.784Y-2.024
T2
X7.2899Y-1.5713
X7.2899Y-1.6245
X7.3233Y-1.5713
X7.3233Y-1.6245
X7.3568Y-1.5713
X7.3568Y-1.6245
X7.3903Y-1.5713
X7.3903Y-1.6245
X7.4237Y-1.5713
X7.4237Y-1.6245
X7.4572Y-1.5713
X7.4572Y-1.6245
X7.4907Y-1.5713
X7.4907Y-1.6245
X7.5241Y-1.5713
X7.5241Y-1.6245
X3.0474Y-1.4983
X3.0474Y-1.5515
X3.0808Y-1.4983
X3.0808Y-1.5515
X3.1143Y-1.4983
X3.1143Y-1.5515
X3.1478Y-1.4983
X3.1478Y-1.5515
X3.1812Y-1.4983
X3.1812Y-1.5515
X3.2147Y-1.4983
X3.2147Y-1.5515
X3.2482Y-1.4983
X3.2482Y-1.5515
X3.2816Y-1.4983
X3.2816Y-1.5515
T4
X2.6777Y-1.8081
X2.6777Y-2.0049
T5
X6.0625Y-1.4225
X6.1625Y-1.4225
X5.4525Y-1.425
X5.5525Y-1.425
X5.8525Y-1.425
X5.9525Y-1.425
X6.2725Y-1.4225
X6.3725Y-1.4225
X5.65Y-1.42
X5.75Y-1.42
T6
X6.6967Y-1.8313
X6.7951Y-1.8313
X6.8739Y-1.8313
X6.9723Y-1.8313
T7
X1.9486Y-7.2447
X1.9908Y-7.3353
X2.2205Y-7.1179
X2.2627Y-7.2085
X5.7Y-4.2129
X5.7Y-4.3129
X6.Y-4.2129
X6.Y-4.3129
X6.45Y-2.838
X6.45Y-2.938
X6.75Y-2.838
X6.75Y-2.938
X6.45Y-4.3379
X6.45Y-4.4379
X6.75Y-4.3379
X6.75Y-4.4379
X5.7Y-5.7129
X5.7Y-5.8129
X6.Y-5.7129
X6.Y-5.8129
X1.9944Y-5.5683
X2.0366Y-5.6589
X2.2663Y-5.4415
X2.3085Y-5.5321
X5.7Y-2.7129
X5.7Y-2.8129
X6.Y-2.7129
X6.Y-2.8129
X3.05Y-4.4754
X3.05Y-4.7754
X3.15Y-4.4754
X3.15Y-4.7754
X4.2Y-5.7129
X4.2Y-5.8129
X4.5Y-5.7129
X4.5Y-5.8129
X5.7Y-4.9629
X5.7Y-5.0629
X6.Y-4.9629
X6.Y-5.0629
X7.3875Y-3.5879
X7.3875Y-3.6879
X7.6875Y-3.5879
X7.6875Y-3.6879
X4.95Y-2.65
X4.95Y-2.75
X5.25Y-2.65
X5.25Y-2.75
X4.95Y-3.4
X4.95Y-3.5
X5.25Y-3.4
X5.25Y-3.5
X4.2Y-4.9629
X4.2Y-5.0629
X4.5Y-4.9629
X4.5Y-5.0629
X1.3147Y-5.8852
X1.3569Y-5.9758
X1.5866Y-5.7584
X1.6288Y-5.849
X7.3875Y-4.3379
X7.3875Y-4.4379
X7.6875Y-4.3379
X7.6875Y-4.4379
X3.45Y-3.5129
X3.45Y-3.6129
X3.75Y-3.5129
X3.75Y-3.6129
X7.3875Y-5.0879
X7.3875Y-5.1879
X7.6875Y-5.0879
X7.6875Y-5.1879
X2.7Y-2.763
X2.7Y-2.863
X3.Y-2.763
X3.Y-2.863
X6.45Y-3.5879
X6.45Y-3.6879
X6.75Y-3.5879
X6.75Y-3.6879
X4.95Y-4.9
X4.95Y-5.
X5.25Y-4.9
X5.25Y-5.
X3.45Y-5.0129
X3.45Y-5.1129
X3.75Y-5.0129
X3.75Y-5.1129
X7.2Y-5.8379
X7.2Y-5.9379
X7.5Y-5.8379
X7.5Y-5.9379
X4.95Y-5.65
X4.95Y-5.75
X5.25Y-5.65
X5.25Y-5.75
X3.45Y-4.2629
X3.45Y-4.3629
X3.75Y-4.2629
X3.75Y-4.3629
X6.45Y-5.0879
X6.45Y-5.1879
X6.75Y-5.0879
X6.75Y-5.1879
X4.2Y-4.2129
X4.2Y-4.3129
X4.5Y-4.2129
X4.5Y-4.3129
X6.45Y-5.8379
X6.45Y-5.9379
X6.75Y-5.8379
X6.75Y-5.9379
X2.6391Y-6.1227
X2.7297Y-6.0805
X2.7659Y-6.3946
X2.8565Y-6.3524
X4.95Y-4.15
X4.95Y-4.25
X5.25Y-4.15
X5.25Y-4.25
X4.2Y-2.7129
X4.2Y-2.8129
X4.5Y-2.7129
X4.5Y-2.8129
X3.45Y-2.763
X3.45Y-2.863
X3.75Y-2.763
X3.75Y-2.863
X3.3188Y-5.8057
X3.4094Y-5.7635
X3.4456Y-6.0776
X3.5362Y-6.0354
X3.05Y-3.3504
X3.05Y-3.6504
X3.15Y-3.3504
X3.15Y-3.6504
X1.6316Y-6.5649
X1.6738Y-6.6555
X1.9035Y-6.4381
X1.9457Y-6.5287
X4.2Y-3.4629
X4.2Y-3.5629
X4.5Y-3.4629
X4.5Y-3.5629
X5.7Y-3.4629
X5.7Y-3.5629
X6.Y-3.4629
X6.Y-3.5629
X7.3875Y-2.838
X7.3875Y-2.938
X7.6875Y-2.838
X7.6875Y-2.938
T8
X3.8425Y-1.7875
X7.9678Y-2.1736
X7.9678Y-2.2736
X7.9678Y-2.3736
X3.8425Y-1.6775
T9
X3.9425Y-1.39
X3.9425Y-1.99
X4.0425Y-1.39
X4.0425Y-1.49
X4.0425Y-1.99
X4.1425Y-1.39
X4.1425Y-1.99
X4.2425Y-1.39
X4.2425Y-1.99
X4.3425Y-1.39
X4.3425Y-1.99
X4.4425Y-1.39
X4.4425Y-1.99
X4.5425Y-1.39
X4.5425Y-1.99
X4.6425Y-1.39
X4.6425Y-1.99
X4.7425Y-1.39
X4.7425Y-1.99
X4.8425Y-1.39
X4.8425Y-1.99
X4.9425Y-1.39
X4.9425Y-1.99
X5.0425Y-1.39
X5.0425Y-1.99
X5.1425Y-1.39
X5.1425Y-1.99
X5.2425Y-1.39
X5.2425Y-1.99
T10
X6.45Y-4.7879
X6.5Y-4.6879
X6.7Y-4.6879
X6.75Y-4.7879
X4.2Y-3.9129
X4.25Y-3.8129
X4.45Y-3.8129
X4.5Y-3.9129
X6.45Y-5.5379
X6.5Y-5.4379
X6.7Y-5.4379
X6.75Y-5.5379
X2.2977Y-6.3371
X2.3672Y-6.2495
X2.3822Y-6.5184
X2.494Y-6.5214
X4.95Y-3.85
X5.Y-3.75
X5.2Y-3.75
X5.25Y-3.85
X4.2Y-2.4129
X4.25Y-2.3129
X4.45Y-2.3129
X4.5Y-2.4129
X3.45Y-2.463
X3.5Y-2.363
X3.7Y-2.363
X3.75Y-2.463
X2.8643Y-5.6591
X2.8673Y-5.5473
X3.0486Y-5.4628
X3.1362Y-5.5323
X2.9774Y-6.0201
X3.0469Y-5.9325
X3.0619Y-6.2014
X3.1737Y-6.2044
X3.2658Y-6.5201
X3.3534Y-6.5896
X3.5347Y-6.5051
X3.5377Y-6.3933
X2.65Y-3.4004
X2.65Y-3.6004
X2.75Y-3.3504
X2.75Y-3.6504
X1.5048Y-6.293
X1.5078Y-6.1812
X1.6891Y-6.0967
X1.7767Y-6.1662
X4.2Y-3.1629
X4.25Y-3.0629
X4.45Y-3.0629
X4.5Y-3.1629
X5.7Y-3.1629
X5.75Y-3.0629
X5.95Y-3.0629
X6.Y-3.1629
X7.15Y-2.538
X7.15Y-2.738
X7.25Y-2.488
X7.25Y-2.788
X7.3875Y-2.538
X7.4375Y-2.438
X7.6375Y-2.438
X7.6875Y-2.538
X1.8218Y-6.9728
X1.8248Y-6.861
X2.0061Y-6.7765
X2.0937Y-6.846
X5.7Y-3.9129
X5.75Y-3.8129
X5.95Y-3.8129
X6.Y-3.9129
X6.45Y-2.538
X6.5Y-2.438
X6.7Y-2.438
X6.75Y-2.538
X6.45Y-4.0379
X6.5Y-3.9379
X6.7Y-3.9379
X6.75Y-4.0379
X5.7Y-5.4129
X5.75Y-5.3129
X5.95Y-5.3129
X6.Y-5.4129
X2.1846Y-5.9761
X2.1876Y-5.8643
X2.3689Y-5.7798
X2.4565Y-5.8493
X1.8676Y-5.2964
X1.8706Y-5.1846
X2.0519Y-5.1001
X2.1395Y-5.1696
X5.7Y-2.4129
X5.75Y-2.3129
X5.95Y-2.3129
X6.Y-2.4129
X2.586Y-6.837
X2.6736Y-6.9065
X2.8549Y-6.822
X2.8579Y-6.7102
X2.65Y-4.5254
X2.65Y-4.7254
X2.75Y-4.4754
X2.75Y-4.7754
X4.2Y-5.4129
X4.25Y-5.3129
X4.45Y-5.3129
X4.5Y-5.4129
X5.7Y-4.6629
X5.75Y-4.5629
X5.95Y-4.5629
X6.Y-4.6629
X7.15Y-3.2879
X7.15Y-3.4879
X7.25Y-3.2379
X7.25Y-3.5379
X7.3875Y-3.2879
X7.4375Y-3.1879
X7.6375Y-3.1879
X7.6875Y-3.2879
X4.95Y-2.35
X5.Y-2.25
X5.2Y-2.25
X5.25Y-2.35
X4.95Y-3.1
X5.Y-3.
X5.2Y-3.
X5.25Y-3.1
X4.2Y-4.6629
X4.25Y-4.5629
X4.45Y-4.5629
X4.5Y-4.6629
X1.1879Y-5.6133
X1.1909Y-5.5015
X1.3722Y-5.417
X1.4598Y-5.4865
X7.15Y-4.0379
X7.15Y-4.2379
X7.25Y-3.9879
X7.25Y-4.2879
X7.3875Y-4.0379
X7.4375Y-3.9379
X7.6375Y-3.9379
X7.6875Y-4.0379
X3.45Y-3.2129
X3.5Y-3.1129
X3.7Y-3.1129
X3.75Y-3.2129
X7.15Y-4.7879
X7.15Y-4.9879
X7.25Y-4.7379
X7.25Y-5.0379
X7.3875Y-4.7879
X7.4375Y-4.6879
X7.6375Y-4.6879
X7.6875Y-4.7879
X2.7Y-2.463
X2.75Y-2.363
X2.95Y-2.363
X3.Y-2.463
X6.45Y-3.2879
X6.5Y-3.1879
X6.7Y-3.1879
X6.75Y-3.2879
X4.95Y-4.6
X5.Y-4.5
X5.2Y-4.5
X5.25Y-4.6
X3.45Y-4.7129
X3.5Y-4.6129
X3.7Y-4.6129
X3.75Y-4.7129
X7.2Y-5.5379
X7.25Y-5.4379
X7.45Y-5.4379
X7.5Y-5.5379
X4.95Y-5.35
X5.Y-5.25
X5.2Y-5.25
X5.25Y-5.35
X3.45Y-3.9629
X3.5Y-3.8629
X3.7Y-3.8629
X3.75Y-3.9629
T11
X5.65Y-2.5129
X6.05Y-2.5129
X2.85Y-4.4254
X2.85Y-4.8254
X4.15Y-5.5129
X4.55Y-5.5129
X5.65Y-4.7629
X6.05Y-4.7629
X7.35Y-3.1879
X7.35Y-3.5879
X7.7375Y-3.3879
X4.9Y-2.45
X5.3Y-2.45
X4.9Y-3.2
X5.3Y-3.2
X4.15Y-4.7629
X4.55Y-4.7629
X1.1848Y-5.725
X1.5474Y-5.556
X7.35Y-3.9379
X7.35Y-4.3379
X7.7375Y-4.1379
X3.4Y-3.3129
X3.8Y-3.3129
X7.35Y-4.6879
X7.35Y-5.0879
X7.7375Y-4.8879
X2.65Y-2.563
X3.05Y-2.563
X6.4Y-3.3879
X6.8Y-3.3879
X4.9Y-4.7
X5.3Y-4.7
X3.4Y-4.8129
X3.8Y-4.8129
X7.15Y-5.6379
X7.55Y-5.6379
X4.9Y-5.45
X5.3Y-5.45
X3.4Y-4.0629
X3.8Y-4.0629
X6.4Y-4.8879
X6.8Y-4.8879
X4.15Y-4.0129
X4.55Y-4.0129
X6.4Y-5.6379
X6.8Y-5.6379
X2.4367Y-6.1619
X2.6057Y-6.5245
X4.9Y-3.95
X5.3Y-3.95
X4.15Y-2.5129
X4.55Y-2.5129
X3.4Y-2.563
X3.8Y-2.563
X3.1164Y-5.8449
X3.2854Y-6.2075
X2.85Y-3.3004
X2.85Y-3.7004
X1.5017Y-6.4047
X1.8643Y-6.2357
X4.15Y-3.2629
X4.55Y-3.2629
X5.65Y-3.2629
X6.05Y-3.2629
X7.35Y-2.438
X7.35Y-2.838
X7.7375Y-2.638
X1.8187Y-7.0845
X2.1813Y-6.9155
X5.65Y-4.0129
X6.05Y-4.0129
X6.4Y-2.638
X6.8Y-2.638
X6.4Y-4.1379
X6.8Y-4.1379
X5.65Y-5.5129
X6.05Y-5.5129
X1.8645Y-5.4081
X2.2271Y-5.2391
T12
X6.5758Y-1.7246
X7.0932Y-1.7246
T13
X2.0458Y-5.3236
X5.85Y-2.5129
X2.85Y-4.6254
X4.35Y-5.5129
X5.85Y-4.7629
X5.1Y-2.45
X5.1Y-3.2
X4.35Y-4.7629
X1.3661Y-5.6405
X3.6Y-3.3129
X2.85Y-2.563
X6.6Y-3.3879
X5.1Y-4.7
X3.6Y-4.8129
X7.35Y-5.6379
X5.1Y-5.45
X3.6Y-4.0629
X6.6Y-4.8879
X4.35Y-4.0129
X6.6Y-5.6379
X2.5212Y-6.3432
X5.1Y-3.95
X4.35Y-2.5129
X3.6Y-2.563
X3.2009Y-6.0262
X2.85Y-3.5004
X1.683Y-6.3202
X4.35Y-3.2629
X5.85Y-3.2629
X2.Y-7.
X5.85Y-4.0129
X6.6Y-2.638
X6.6Y-4.1379
X5.85Y-5.5129
T14
X7.882Y-1.622
X5.468Y-3.616
X2.9675Y-4.05
X3.81Y-5.45
X7.8925Y-5.545
X2.706Y-1.514
T3
X7.2367Y-1.4686G85X7.2367Y-1.4371
G05
X7.2367Y-1.6154G85X7.2367Y-1.5564
G05
X7.5773Y-1.4686G85X7.5773Y-1.4371
G05
X7.5773Y-1.6154G85X7.5773Y-1.5564
G05
X2.9942Y-1.3956G85X2.9942Y-1.3641
G05
X2.9942Y-1.5424G85X2.9942Y-1.4834
G05
X3.3348Y-1.3956G85X3.3348Y-1.3641
G05
X3.3348Y-1.5424G85X3.3348Y-1.4834
G05
T13
X7.3499Y-3.3879G85X7.5374Y-3.3879
G05
X7.3499Y-4.1379G85X7.5374Y-4.1379
G05
X7.3499Y-4.8879G85X7.5374Y-4.8879
G05
X7.3499Y-2.638G85X7.5374Y-2.638
G05
T0
M30
