G04 #@! TF.GenerationSoftware,KiCad,Pcbnew,(5.1.6)-1*
G04 #@! TF.CreationDate,2021-03-14T20:25:08+01:00*
G04 #@! TF.ProjectId,ErgoDOX_small,4572676f-444f-4585-9f73-6d616c6c2e6b,rev?*
G04 #@! TF.SameCoordinates,Original*
G04 #@! TF.FileFunction,Copper,L2,Bot*
G04 #@! TF.FilePolarity,Positive*
%FSLAX46Y46*%
G04 Gerber Fmt 4.6, Leading zero omitted, Abs format (unit mm)*
G04 Created by KiCad (PCBNEW (5.1.6)-1) date 2021-03-14 20:25:08*
%MOMM*%
%LPD*%
G01*
G04 APERTURE LIST*
G04 #@! TA.AperFunction,ComponentPad*
%ADD10R,1.700000X1.700000*%
G04 #@! TD*
G04 #@! TA.AperFunction,ComponentPad*
%ADD11C,1.600000*%
G04 #@! TD*
G04 #@! TA.AperFunction,ComponentPad*
%ADD12R,1.600000X1.600000*%
G04 #@! TD*
G04 #@! TA.AperFunction,ComponentPad*
%ADD13O,1.108000X2.216000*%
G04 #@! TD*
G04 #@! TA.AperFunction,ComponentPad*
%ADD14C,0.650000*%
G04 #@! TD*
G04 #@! TA.AperFunction,ComponentPad*
%ADD15O,1.700000X1.700000*%
G04 #@! TD*
G04 #@! TA.AperFunction,ComponentPad*
%ADD16C,1.500000*%
G04 #@! TD*
G04 #@! TA.AperFunction,ComponentPad*
%ADD17R,1.800000X1.800000*%
G04 #@! TD*
G04 #@! TA.AperFunction,ComponentPad*
%ADD18C,1.800000*%
G04 #@! TD*
G04 #@! TA.AperFunction,ComponentPad*
%ADD19C,3.316000*%
G04 #@! TD*
G04 #@! TA.AperFunction,ComponentPad*
%ADD20C,1.428000*%
G04 #@! TD*
G04 #@! TA.AperFunction,ViaPad*
%ADD21C,0.609600*%
G04 #@! TD*
G04 #@! TA.AperFunction,ViaPad*
%ADD22C,0.812800*%
G04 #@! TD*
G04 #@! TA.AperFunction,Conductor*
%ADD23C,0.304800*%
G04 #@! TD*
G04 #@! TA.AperFunction,Conductor*
%ADD24C,0.152400*%
G04 #@! TD*
G04 #@! TA.AperFunction,Conductor*
%ADD25C,0.406400*%
G04 #@! TD*
G04 #@! TA.AperFunction,Conductor*
%ADD26C,0.609600*%
G04 #@! TD*
G04 #@! TA.AperFunction,Conductor*
%ADD27C,0.508000*%
G04 #@! TD*
G04 #@! TA.AperFunction,Conductor*
%ADD28C,0.254000*%
G04 #@! TD*
G04 #@! TA.AperFunction,Conductor*
%ADD29C,0.203200*%
G04 #@! TD*
G04 APERTURE END LIST*
D10*
X63639700Y-61976000D03*
D11*
X107251500Y-55245000D03*
X107251500Y-70485000D03*
X104711500Y-55245000D03*
X102171500Y-55245000D03*
X99631500Y-55245000D03*
X97091500Y-55245000D03*
X94551500Y-55245000D03*
X92011500Y-55245000D03*
X89471500Y-55245000D03*
X86931500Y-55245000D03*
X84391500Y-55245000D03*
X81851500Y-55245000D03*
X79311500Y-55245000D03*
X76771500Y-55245000D03*
X74231500Y-55245000D03*
X76771500Y-57785000D03*
X104711500Y-70485000D03*
X102171500Y-70485000D03*
X99631500Y-70485000D03*
X97091500Y-70485000D03*
X94551500Y-70485000D03*
X92011500Y-70485000D03*
X89471500Y-70485000D03*
X86931500Y-70485000D03*
X84391500Y-70485000D03*
X81851500Y-70485000D03*
X79311500Y-70485000D03*
X76771500Y-70485000D03*
D12*
X74231500Y-70485000D03*
D10*
X97155000Y-74993500D03*
X94589600Y-74993500D03*
X92011500Y-74993500D03*
X102171500Y-74993500D03*
X86931500Y-74993500D03*
X84391500Y-75000000D03*
X79311500Y-75000000D03*
X116382800Y-75000000D03*
X113792000Y-75000000D03*
X111201200Y-75000000D03*
X107238800Y-75000000D03*
X99631500Y-74993500D03*
X89471500Y-74993500D03*
D13*
X115754800Y-32456400D03*
X107104800Y-32456400D03*
X107104800Y-35836400D03*
X115754800Y-35836400D03*
D14*
X114404800Y-35466400D03*
X113554800Y-35466400D03*
X112704800Y-35466400D03*
X111854800Y-35466400D03*
X111004800Y-35466400D03*
X110154800Y-35466400D03*
X109304800Y-35466400D03*
X108454800Y-35466400D03*
X108454800Y-36816400D03*
X109304800Y-36816400D03*
X110154800Y-36816400D03*
X111004800Y-36816400D03*
X111854800Y-36816400D03*
X112704800Y-36816400D03*
X113554800Y-36816400D03*
X114404800Y-36816400D03*
D10*
X63639700Y-64770000D03*
X132181600Y-63411100D03*
D15*
X132181600Y-65951100D03*
X132181600Y-68491100D03*
D16*
X63055500Y-56451500D03*
X63055500Y-51451500D03*
D17*
X131762500Y-46902737D03*
D18*
X131762500Y-49442737D03*
X131953000Y-34139237D03*
D17*
X131953000Y-31599237D03*
X131762500Y-41886237D03*
D18*
X131762500Y-44426237D03*
X131699000Y-54586237D03*
D17*
X131699000Y-52046237D03*
X131889500Y-36679237D03*
D18*
X131889500Y-39219237D03*
D19*
X102963000Y-40999000D03*
X89823000Y-40999000D03*
D20*
X95393000Y-43709000D03*
X97393000Y-43709000D03*
X92893000Y-43709000D03*
X99893000Y-43709000D03*
D14*
X82286500Y-36600500D03*
X81436500Y-36600500D03*
X80586500Y-36600500D03*
X79736500Y-36600500D03*
X78886500Y-36600500D03*
X78036500Y-36600500D03*
X77186500Y-36600500D03*
X76336500Y-36600500D03*
X76336500Y-35250500D03*
X77186500Y-35250500D03*
X78036500Y-35250500D03*
X78886500Y-35250500D03*
X79736500Y-35250500D03*
X80586500Y-35250500D03*
X81436500Y-35250500D03*
X82286500Y-35250500D03*
D13*
X83636500Y-35620500D03*
X74986500Y-35620500D03*
X74986500Y-32240500D03*
X83636500Y-32240500D03*
D21*
X126847600Y-62649100D03*
D22*
X96520000Y-45516800D03*
X108610400Y-43586400D03*
D21*
X79806800Y-42824400D03*
X78536800Y-40538400D03*
X74371200Y-40335200D03*
X77186500Y-40436800D03*
X82346800Y-37541200D03*
X81737200Y-38303200D03*
X76504800Y-37541200D03*
D22*
X91846400Y-51409600D03*
D21*
X110236000Y-64465200D03*
X110236000Y-58877200D03*
X108813600Y-52628800D03*
X110286800Y-43811434D03*
D23*
X114404800Y-36816400D02*
X114404800Y-35466400D01*
X108454800Y-36816400D02*
X108454800Y-35466400D01*
D24*
X76336500Y-36600500D02*
X76336500Y-35250500D01*
D25*
X114454622Y-38175841D02*
X114534000Y-38175841D01*
X113554800Y-36816400D02*
X113554800Y-37276019D01*
X109678182Y-34633399D02*
X113138639Y-34633399D01*
X109304800Y-35006781D02*
X109678182Y-34633399D01*
X113571799Y-35449401D02*
X113554800Y-35466400D01*
X113571799Y-35066559D02*
X113571799Y-35449401D01*
X113138639Y-34633399D02*
X113571799Y-35066559D01*
X113554800Y-37276019D02*
X114046000Y-37767219D01*
X114046000Y-37767219D02*
X114454622Y-38175841D01*
D24*
X81436500Y-35250500D02*
X81436500Y-36600500D01*
X77186500Y-35250500D02*
X77186500Y-36600500D01*
X77432882Y-34544499D02*
X81190118Y-34544499D01*
X81190118Y-34544499D02*
X81436500Y-34790881D01*
X77186500Y-34790881D02*
X77432882Y-34544499D01*
X77186500Y-35250500D02*
X77186500Y-34790881D01*
D25*
X82222891Y-34004490D02*
X81436500Y-34790881D01*
X81436500Y-34790881D02*
X81436500Y-35250500D01*
X109304800Y-35006781D02*
X108518409Y-34220390D01*
X109304800Y-35466400D02*
X109304800Y-35006781D01*
X77186500Y-37060119D02*
X77186500Y-36600500D01*
X77186500Y-51158630D02*
X77186500Y-40436800D01*
X74231500Y-54113630D02*
X77186500Y-51158630D01*
X74231500Y-55245000D02*
X74231500Y-54113630D01*
X77186500Y-40436800D02*
X77186500Y-37060119D01*
D26*
X130722000Y-63411100D02*
X132181600Y-63411100D01*
X80463791Y-63563501D02*
X130569599Y-63563501D01*
X74231500Y-57331210D02*
X80463791Y-63563501D01*
X130569599Y-63563501D02*
X130722000Y-63411100D01*
X74231500Y-55245000D02*
X74231500Y-57331210D01*
D27*
X99179001Y-42995001D02*
X99893000Y-43709000D01*
X90137690Y-33953690D02*
X99179001Y-42995001D01*
X82273691Y-33953690D02*
X90137690Y-33953690D01*
X82222891Y-34004490D02*
X82273691Y-33953690D01*
X108467609Y-34169590D02*
X108518409Y-34220390D01*
X106690240Y-34169590D02*
X108467609Y-34169590D01*
X106474340Y-33953690D02*
X106690240Y-34169590D01*
X90137690Y-33953690D02*
X106474340Y-33953690D01*
D28*
X80586500Y-37060119D02*
X81067581Y-37541200D01*
X80586500Y-36600500D02*
X80586500Y-37060119D01*
X81067581Y-37541200D02*
X82346800Y-37541200D01*
X82346800Y-37541200D02*
X82346800Y-37541200D01*
D24*
X79736500Y-35555618D02*
X79736500Y-35250500D01*
X78886500Y-36405618D02*
X79736500Y-35555618D01*
X78886500Y-36600500D02*
X78886500Y-36405618D01*
D28*
X81306148Y-38303200D02*
X81737200Y-38303200D01*
X80129581Y-38303200D02*
X81306148Y-38303200D01*
X78886500Y-37060119D02*
X80129581Y-38303200D01*
X78886500Y-36600500D02*
X78886500Y-37060119D01*
X72999699Y-65581829D02*
X72999699Y-41046301D01*
X76771500Y-70485000D02*
X76771500Y-69353630D01*
X76771500Y-69353630D02*
X72999699Y-65581829D01*
X72999699Y-41046301D02*
X76504800Y-37541200D01*
X76504800Y-37541200D02*
X76504800Y-37541200D01*
X90271499Y-54445001D02*
X90271499Y-52984501D01*
X89471500Y-55245000D02*
X90271499Y-54445001D01*
X90271499Y-52984501D02*
X91846400Y-51409600D01*
X91846400Y-51409600D02*
X91846400Y-51409600D01*
D29*
X111854800Y-36548874D02*
X111854800Y-36816400D01*
X111004800Y-35698874D02*
X111854800Y-36548874D01*
X111004800Y-35466400D02*
X111004800Y-35698874D01*
D28*
X104711500Y-70485000D02*
X110236000Y-64960500D01*
X110236000Y-64960500D02*
X110236000Y-64465200D01*
X110236000Y-64465200D02*
X110236000Y-64465200D01*
X110236000Y-58446148D02*
X108813600Y-57023748D01*
X110236000Y-58877200D02*
X110236000Y-58446148D01*
X108813600Y-57023748D02*
X108813600Y-52628800D01*
X108813600Y-52628800D02*
X108813600Y-52628800D01*
X110154800Y-37276019D02*
X110154800Y-36816400D01*
X110154800Y-43248382D02*
X110154800Y-37276019D01*
X110286800Y-43380382D02*
X110154800Y-43248382D01*
X110286800Y-43811434D02*
X110286800Y-43380382D01*
D24*
X97388000Y-43709000D02*
X97393000Y-43709000D01*
X97393000Y-43958000D02*
X97393000Y-43709000D01*
D28*
X129895600Y-47615637D02*
X130608500Y-46902737D01*
X129895600Y-49885600D02*
X129895600Y-47615637D01*
X128371600Y-51409600D02*
X129895600Y-49885600D01*
X95846900Y-51409600D02*
X128371600Y-51409600D01*
X130608500Y-46902737D02*
X131762500Y-46902737D01*
X92011500Y-55245000D02*
X95846900Y-51409600D01*
X86931500Y-55245000D02*
X91427300Y-50749200D01*
X91427300Y-50749200D02*
X128066800Y-50749200D01*
X128066800Y-50749200D02*
X129235200Y-49580800D01*
X130608500Y-41886237D02*
X131762500Y-41886237D01*
X129235200Y-43259537D02*
X130608500Y-41886237D01*
X129235200Y-49580800D02*
X129235200Y-43259537D01*
X84391500Y-55245000D02*
X89547700Y-50088800D01*
X89547700Y-50088800D02*
X127711200Y-50088800D01*
X127711200Y-50088800D02*
X128625600Y-49174400D01*
X130735500Y-36679237D02*
X131889500Y-36679237D01*
X128625600Y-38789137D02*
X130735500Y-36679237D01*
X128625600Y-49174400D02*
X128625600Y-38789137D01*
X128066790Y-48869610D02*
X128066790Y-34331447D01*
X127457200Y-49479200D02*
X128066790Y-48869610D01*
X130799000Y-31599237D02*
X131953000Y-31599237D01*
X128066790Y-34331447D02*
X130799000Y-31599237D01*
X87617300Y-49479200D02*
X127457200Y-49479200D01*
X81851500Y-55245000D02*
X87617300Y-49479200D01*
X97750263Y-52046237D02*
X131699000Y-52046237D01*
X94551500Y-55245000D02*
X97750263Y-52046237D01*
G36*
X74141683Y-30841682D02*
G01*
X73993100Y-31022731D01*
X73882692Y-31229288D01*
X73814704Y-31453415D01*
X73797500Y-31628089D01*
X73797500Y-32852910D01*
X73814704Y-33027584D01*
X73882692Y-33251711D01*
X73993099Y-33458268D01*
X74141682Y-33639318D01*
X74322731Y-33787901D01*
X74529288Y-33898308D01*
X74635412Y-33930500D01*
X74529289Y-33962692D01*
X74322732Y-34073099D01*
X74141683Y-34221682D01*
X73993100Y-34402731D01*
X73882692Y-34609288D01*
X73814704Y-34833415D01*
X73797500Y-35008089D01*
X73797500Y-36232910D01*
X73814704Y-36407584D01*
X73882692Y-36631711D01*
X73993099Y-36838268D01*
X74141682Y-37019318D01*
X74322731Y-37167901D01*
X74529288Y-37278308D01*
X74753415Y-37346296D01*
X74986500Y-37369253D01*
X75219584Y-37346296D01*
X75443711Y-37278308D01*
X75578771Y-37206117D01*
X75612424Y-37239770D01*
X75601116Y-37267071D01*
X75576240Y-37392129D01*
X72487348Y-40481022D01*
X72458278Y-40504879D01*
X72434421Y-40533949D01*
X72434420Y-40533950D01*
X72363054Y-40620909D01*
X72292298Y-40753286D01*
X72248726Y-40896923D01*
X72234013Y-41046301D01*
X72237700Y-41083734D01*
X72237699Y-65544406D01*
X72234013Y-65581829D01*
X72237699Y-65619252D01*
X72237699Y-65619254D01*
X72248725Y-65731206D01*
X72292297Y-65874843D01*
X72292298Y-65874844D01*
X72363054Y-66007221D01*
X72402682Y-66055507D01*
X72458277Y-66123251D01*
X72487353Y-66147113D01*
X75783672Y-69443432D01*
X75658143Y-69568961D01*
X75657312Y-69560518D01*
X75621002Y-69440820D01*
X75562037Y-69330506D01*
X75482685Y-69233815D01*
X75385994Y-69154463D01*
X75275680Y-69095498D01*
X75155982Y-69059188D01*
X75031500Y-69046928D01*
X74517250Y-69050000D01*
X74358500Y-69208750D01*
X74358500Y-70358000D01*
X74378500Y-70358000D01*
X74378500Y-70612000D01*
X74358500Y-70612000D01*
X74358500Y-71761250D01*
X74517250Y-71920000D01*
X75031500Y-71923072D01*
X75155982Y-71910812D01*
X75275680Y-71874502D01*
X75385994Y-71815537D01*
X75482685Y-71736185D01*
X75562037Y-71639494D01*
X75621002Y-71529180D01*
X75657312Y-71409482D01*
X75658143Y-71401039D01*
X75856741Y-71599637D01*
X76091773Y-71756680D01*
X76352926Y-71864853D01*
X76630165Y-71920000D01*
X76912835Y-71920000D01*
X77190074Y-71864853D01*
X77451227Y-71756680D01*
X77686259Y-71599637D01*
X77886137Y-71399759D01*
X78041500Y-71167241D01*
X78196863Y-71399759D01*
X78396741Y-71599637D01*
X78631773Y-71756680D01*
X78892926Y-71864853D01*
X79170165Y-71920000D01*
X79452835Y-71920000D01*
X79730074Y-71864853D01*
X79991227Y-71756680D01*
X80226259Y-71599637D01*
X80426137Y-71399759D01*
X80581500Y-71167241D01*
X80736863Y-71399759D01*
X80936741Y-71599637D01*
X81171773Y-71756680D01*
X81432926Y-71864853D01*
X81710165Y-71920000D01*
X81992835Y-71920000D01*
X82270074Y-71864853D01*
X82531227Y-71756680D01*
X82766259Y-71599637D01*
X82966137Y-71399759D01*
X83121500Y-71167241D01*
X83276863Y-71399759D01*
X83476741Y-71599637D01*
X83711773Y-71756680D01*
X83972926Y-71864853D01*
X84250165Y-71920000D01*
X84532835Y-71920000D01*
X84810074Y-71864853D01*
X85071227Y-71756680D01*
X85306259Y-71599637D01*
X85506137Y-71399759D01*
X85661500Y-71167241D01*
X85816863Y-71399759D01*
X86016741Y-71599637D01*
X86251773Y-71756680D01*
X86512926Y-71864853D01*
X86790165Y-71920000D01*
X87072835Y-71920000D01*
X87350074Y-71864853D01*
X87611227Y-71756680D01*
X87846259Y-71599637D01*
X88046137Y-71399759D01*
X88201500Y-71167241D01*
X88356863Y-71399759D01*
X88556741Y-71599637D01*
X88791773Y-71756680D01*
X89052926Y-71864853D01*
X89330165Y-71920000D01*
X89612835Y-71920000D01*
X89890074Y-71864853D01*
X90151227Y-71756680D01*
X90386259Y-71599637D01*
X90586137Y-71399759D01*
X90741500Y-71167241D01*
X90896863Y-71399759D01*
X91096741Y-71599637D01*
X91331773Y-71756680D01*
X91592926Y-71864853D01*
X91870165Y-71920000D01*
X92152835Y-71920000D01*
X92430074Y-71864853D01*
X92691227Y-71756680D01*
X92926259Y-71599637D01*
X93126137Y-71399759D01*
X93281500Y-71167241D01*
X93436863Y-71399759D01*
X93636741Y-71599637D01*
X93871773Y-71756680D01*
X94132926Y-71864853D01*
X94410165Y-71920000D01*
X94692835Y-71920000D01*
X94970074Y-71864853D01*
X95231227Y-71756680D01*
X95466259Y-71599637D01*
X95666137Y-71399759D01*
X95821500Y-71167241D01*
X95976863Y-71399759D01*
X96176741Y-71599637D01*
X96411773Y-71756680D01*
X96672926Y-71864853D01*
X96950165Y-71920000D01*
X97232835Y-71920000D01*
X97510074Y-71864853D01*
X97771227Y-71756680D01*
X98006259Y-71599637D01*
X98206137Y-71399759D01*
X98361500Y-71167241D01*
X98516863Y-71399759D01*
X98716741Y-71599637D01*
X98951773Y-71756680D01*
X99212926Y-71864853D01*
X99490165Y-71920000D01*
X99772835Y-71920000D01*
X100050074Y-71864853D01*
X100311227Y-71756680D01*
X100546259Y-71599637D01*
X100746137Y-71399759D01*
X100901500Y-71167241D01*
X101056863Y-71399759D01*
X101256741Y-71599637D01*
X101491773Y-71756680D01*
X101752926Y-71864853D01*
X102030165Y-71920000D01*
X102312835Y-71920000D01*
X102590074Y-71864853D01*
X102851227Y-71756680D01*
X103086259Y-71599637D01*
X103286137Y-71399759D01*
X103441500Y-71167241D01*
X103596863Y-71399759D01*
X103796741Y-71599637D01*
X104031773Y-71756680D01*
X104292926Y-71864853D01*
X104570165Y-71920000D01*
X104852835Y-71920000D01*
X105130074Y-71864853D01*
X105391227Y-71756680D01*
X105626259Y-71599637D01*
X105826137Y-71399759D01*
X105981500Y-71167241D01*
X106136863Y-71399759D01*
X106336741Y-71599637D01*
X106571773Y-71756680D01*
X106832926Y-71864853D01*
X107110165Y-71920000D01*
X107392835Y-71920000D01*
X107670074Y-71864853D01*
X107931227Y-71756680D01*
X108166259Y-71599637D01*
X108366137Y-71399759D01*
X108523180Y-71164727D01*
X108631353Y-70903574D01*
X108686500Y-70626335D01*
X108686500Y-70343665D01*
X108631353Y-70066426D01*
X108523180Y-69805273D01*
X108366137Y-69570241D01*
X108166259Y-69370363D01*
X107931227Y-69213320D01*
X107670074Y-69105147D01*
X107392835Y-69050000D01*
X107224130Y-69050000D01*
X110748353Y-65525778D01*
X110777422Y-65501922D01*
X110804772Y-65468596D01*
X110872645Y-65385893D01*
X110943401Y-65253516D01*
X110943402Y-65253515D01*
X110986974Y-65109878D01*
X110995868Y-65019571D01*
X111068840Y-64910362D01*
X111139684Y-64739329D01*
X111175800Y-64557762D01*
X111175800Y-64503301D01*
X130523442Y-64503301D01*
X130569599Y-64507847D01*
X130615756Y-64503301D01*
X130615766Y-64503301D01*
X130737850Y-64491277D01*
X130742098Y-64505280D01*
X130801063Y-64615594D01*
X130880415Y-64712285D01*
X130977106Y-64791637D01*
X131087420Y-64850602D01*
X131168066Y-64875066D01*
X131084012Y-64950831D01*
X130909959Y-65184180D01*
X130784775Y-65447001D01*
X130740124Y-65594210D01*
X130861445Y-65824100D01*
X132054600Y-65824100D01*
X132054600Y-65804100D01*
X132308600Y-65804100D01*
X132308600Y-65824100D01*
X132328600Y-65824100D01*
X132328600Y-66078100D01*
X132308600Y-66078100D01*
X132308600Y-66098100D01*
X132054600Y-66098100D01*
X132054600Y-66078100D01*
X130861445Y-66078100D01*
X130740124Y-66307990D01*
X130784775Y-66455199D01*
X130909959Y-66718020D01*
X131084012Y-66951369D01*
X131300245Y-67146278D01*
X131417134Y-67215905D01*
X131234968Y-67337625D01*
X131028125Y-67544468D01*
X130865610Y-67787689D01*
X130753668Y-68057942D01*
X130696600Y-68344840D01*
X130696600Y-68637360D01*
X130753668Y-68924258D01*
X130865610Y-69194511D01*
X131028125Y-69437732D01*
X131234968Y-69644575D01*
X131478189Y-69807090D01*
X131748442Y-69919032D01*
X132035340Y-69976100D01*
X132327860Y-69976100D01*
X132614758Y-69919032D01*
X132885011Y-69807090D01*
X133128232Y-69644575D01*
X133335075Y-69437732D01*
X133489701Y-69206318D01*
X133489701Y-79133700D01*
X60871100Y-79133700D01*
X60871100Y-75268672D01*
X63195400Y-75268672D01*
X63195400Y-75708928D01*
X63281290Y-76140725D01*
X63449769Y-76547469D01*
X63694362Y-76913529D01*
X64005671Y-77224838D01*
X64371731Y-77469431D01*
X64778475Y-77637910D01*
X65210272Y-77723800D01*
X65650528Y-77723800D01*
X66082325Y-77637910D01*
X66489069Y-77469431D01*
X66855129Y-77224838D01*
X67166438Y-76913529D01*
X67411031Y-76547469D01*
X67579510Y-76140725D01*
X67665400Y-75708928D01*
X67665400Y-75268672D01*
X67579510Y-74836875D01*
X67411031Y-74430131D01*
X67223854Y-74150000D01*
X77823428Y-74150000D01*
X77823428Y-75850000D01*
X77835688Y-75974482D01*
X77871998Y-76094180D01*
X77930963Y-76204494D01*
X78010315Y-76301185D01*
X78107006Y-76380537D01*
X78217320Y-76439502D01*
X78337018Y-76475812D01*
X78461500Y-76488072D01*
X80161500Y-76488072D01*
X80285982Y-76475812D01*
X80405680Y-76439502D01*
X80515994Y-76380537D01*
X80612685Y-76301185D01*
X80692037Y-76204494D01*
X80751002Y-76094180D01*
X80787312Y-75974482D01*
X80799572Y-75850000D01*
X80799572Y-74150000D01*
X82903428Y-74150000D01*
X82903428Y-75850000D01*
X82915688Y-75974482D01*
X82951998Y-76094180D01*
X83010963Y-76204494D01*
X83090315Y-76301185D01*
X83187006Y-76380537D01*
X83297320Y-76439502D01*
X83417018Y-76475812D01*
X83541500Y-76488072D01*
X85241500Y-76488072D01*
X85365982Y-76475812D01*
X85485680Y-76439502D01*
X85595994Y-76380537D01*
X85665460Y-76323528D01*
X85727006Y-76374037D01*
X85837320Y-76433002D01*
X85957018Y-76469312D01*
X86081500Y-76481572D01*
X87781500Y-76481572D01*
X87905982Y-76469312D01*
X88025680Y-76433002D01*
X88135994Y-76374037D01*
X88201500Y-76320278D01*
X88267006Y-76374037D01*
X88377320Y-76433002D01*
X88497018Y-76469312D01*
X88621500Y-76481572D01*
X90321500Y-76481572D01*
X90445982Y-76469312D01*
X90565680Y-76433002D01*
X90675994Y-76374037D01*
X90741500Y-76320278D01*
X90807006Y-76374037D01*
X90917320Y-76433002D01*
X91037018Y-76469312D01*
X91161500Y-76481572D01*
X92861500Y-76481572D01*
X92985982Y-76469312D01*
X93105680Y-76433002D01*
X93215994Y-76374037D01*
X93300550Y-76304644D01*
X93385106Y-76374037D01*
X93495420Y-76433002D01*
X93615118Y-76469312D01*
X93739600Y-76481572D01*
X95439600Y-76481572D01*
X95564082Y-76469312D01*
X95683780Y-76433002D01*
X95794094Y-76374037D01*
X95872300Y-76309855D01*
X95950506Y-76374037D01*
X96060820Y-76433002D01*
X96180518Y-76469312D01*
X96305000Y-76481572D01*
X98005000Y-76481572D01*
X98129482Y-76469312D01*
X98249180Y-76433002D01*
X98359494Y-76374037D01*
X98393250Y-76346334D01*
X98427006Y-76374037D01*
X98537320Y-76433002D01*
X98657018Y-76469312D01*
X98781500Y-76481572D01*
X100481500Y-76481572D01*
X100605982Y-76469312D01*
X100725680Y-76433002D01*
X100835994Y-76374037D01*
X100901500Y-76320278D01*
X100967006Y-76374037D01*
X101077320Y-76433002D01*
X101197018Y-76469312D01*
X101321500Y-76481572D01*
X103021500Y-76481572D01*
X103145982Y-76469312D01*
X103265680Y-76433002D01*
X103375994Y-76374037D01*
X103472685Y-76294685D01*
X103552037Y-76197994D01*
X103611002Y-76087680D01*
X103647312Y-75967982D01*
X103659572Y-75843500D01*
X103659572Y-74150000D01*
X105750728Y-74150000D01*
X105750728Y-75850000D01*
X105762988Y-75974482D01*
X105799298Y-76094180D01*
X105858263Y-76204494D01*
X105937615Y-76301185D01*
X106034306Y-76380537D01*
X106144620Y-76439502D01*
X106264318Y-76475812D01*
X106388800Y-76488072D01*
X108088800Y-76488072D01*
X108213282Y-76475812D01*
X108332980Y-76439502D01*
X108443294Y-76380537D01*
X108539985Y-76301185D01*
X108619337Y-76204494D01*
X108678302Y-76094180D01*
X108714612Y-75974482D01*
X108726872Y-75850000D01*
X108726872Y-74150000D01*
X109713128Y-74150000D01*
X109713128Y-75850000D01*
X109725388Y-75974482D01*
X109761698Y-76094180D01*
X109820663Y-76204494D01*
X109900015Y-76301185D01*
X109996706Y-76380537D01*
X110107020Y-76439502D01*
X110226718Y-76475812D01*
X110351200Y-76488072D01*
X112051200Y-76488072D01*
X112175682Y-76475812D01*
X112295380Y-76439502D01*
X112405694Y-76380537D01*
X112496600Y-76305933D01*
X112587506Y-76380537D01*
X112697820Y-76439502D01*
X112817518Y-76475812D01*
X112942000Y-76488072D01*
X114642000Y-76488072D01*
X114766482Y-76475812D01*
X114886180Y-76439502D01*
X114996494Y-76380537D01*
X115087400Y-76305933D01*
X115178306Y-76380537D01*
X115288620Y-76439502D01*
X115408318Y-76475812D01*
X115532800Y-76488072D01*
X117232800Y-76488072D01*
X117357282Y-76475812D01*
X117476980Y-76439502D01*
X117587294Y-76380537D01*
X117683985Y-76301185D01*
X117763337Y-76204494D01*
X117822302Y-76094180D01*
X117858612Y-75974482D01*
X117870872Y-75850000D01*
X117870872Y-75370272D01*
X123190200Y-75370272D01*
X123190200Y-75810528D01*
X123276090Y-76242325D01*
X123444569Y-76649069D01*
X123689162Y-77015129D01*
X124000471Y-77326438D01*
X124366531Y-77571031D01*
X124773275Y-77739510D01*
X125205072Y-77825400D01*
X125645328Y-77825400D01*
X126077125Y-77739510D01*
X126483869Y-77571031D01*
X126849929Y-77326438D01*
X127161238Y-77015129D01*
X127405831Y-76649069D01*
X127574310Y-76242325D01*
X127660200Y-75810528D01*
X127660200Y-75370272D01*
X127574310Y-74938475D01*
X127405831Y-74531731D01*
X127161238Y-74165671D01*
X126849929Y-73854362D01*
X126483869Y-73609769D01*
X126077125Y-73441290D01*
X125645328Y-73355400D01*
X125205072Y-73355400D01*
X124773275Y-73441290D01*
X124366531Y-73609769D01*
X124000471Y-73854362D01*
X123689162Y-74165671D01*
X123444569Y-74531731D01*
X123276090Y-74938475D01*
X123190200Y-75370272D01*
X117870872Y-75370272D01*
X117870872Y-74150000D01*
X117858612Y-74025518D01*
X117822302Y-73905820D01*
X117763337Y-73795506D01*
X117683985Y-73698815D01*
X117587294Y-73619463D01*
X117476980Y-73560498D01*
X117357282Y-73524188D01*
X117232800Y-73511928D01*
X115532800Y-73511928D01*
X115408318Y-73524188D01*
X115288620Y-73560498D01*
X115178306Y-73619463D01*
X115087400Y-73694067D01*
X114996494Y-73619463D01*
X114886180Y-73560498D01*
X114766482Y-73524188D01*
X114642000Y-73511928D01*
X112942000Y-73511928D01*
X112817518Y-73524188D01*
X112697820Y-73560498D01*
X112587506Y-73619463D01*
X112496600Y-73694067D01*
X112405694Y-73619463D01*
X112295380Y-73560498D01*
X112175682Y-73524188D01*
X112051200Y-73511928D01*
X110351200Y-73511928D01*
X110226718Y-73524188D01*
X110107020Y-73560498D01*
X109996706Y-73619463D01*
X109900015Y-73698815D01*
X109820663Y-73795506D01*
X109761698Y-73905820D01*
X109725388Y-74025518D01*
X109713128Y-74150000D01*
X108726872Y-74150000D01*
X108714612Y-74025518D01*
X108678302Y-73905820D01*
X108619337Y-73795506D01*
X108539985Y-73698815D01*
X108443294Y-73619463D01*
X108332980Y-73560498D01*
X108213282Y-73524188D01*
X108088800Y-73511928D01*
X106388800Y-73511928D01*
X106264318Y-73524188D01*
X106144620Y-73560498D01*
X106034306Y-73619463D01*
X105937615Y-73698815D01*
X105858263Y-73795506D01*
X105799298Y-73905820D01*
X105762988Y-74025518D01*
X105750728Y-74150000D01*
X103659572Y-74150000D01*
X103659572Y-74143500D01*
X103647312Y-74019018D01*
X103611002Y-73899320D01*
X103552037Y-73789006D01*
X103472685Y-73692315D01*
X103375994Y-73612963D01*
X103265680Y-73553998D01*
X103145982Y-73517688D01*
X103021500Y-73505428D01*
X101321500Y-73505428D01*
X101197018Y-73517688D01*
X101077320Y-73553998D01*
X100967006Y-73612963D01*
X100901500Y-73666722D01*
X100835994Y-73612963D01*
X100725680Y-73553998D01*
X100605982Y-73517688D01*
X100481500Y-73505428D01*
X98781500Y-73505428D01*
X98657018Y-73517688D01*
X98537320Y-73553998D01*
X98427006Y-73612963D01*
X98393250Y-73640666D01*
X98359494Y-73612963D01*
X98249180Y-73553998D01*
X98129482Y-73517688D01*
X98005000Y-73505428D01*
X96305000Y-73505428D01*
X96180518Y-73517688D01*
X96060820Y-73553998D01*
X95950506Y-73612963D01*
X95872300Y-73677145D01*
X95794094Y-73612963D01*
X95683780Y-73553998D01*
X95564082Y-73517688D01*
X95439600Y-73505428D01*
X93739600Y-73505428D01*
X93615118Y-73517688D01*
X93495420Y-73553998D01*
X93385106Y-73612963D01*
X93300550Y-73682356D01*
X93215994Y-73612963D01*
X93105680Y-73553998D01*
X92985982Y-73517688D01*
X92861500Y-73505428D01*
X91161500Y-73505428D01*
X91037018Y-73517688D01*
X90917320Y-73553998D01*
X90807006Y-73612963D01*
X90741500Y-73666722D01*
X90675994Y-73612963D01*
X90565680Y-73553998D01*
X90445982Y-73517688D01*
X90321500Y-73505428D01*
X88621500Y-73505428D01*
X88497018Y-73517688D01*
X88377320Y-73553998D01*
X88267006Y-73612963D01*
X88201500Y-73666722D01*
X88135994Y-73612963D01*
X88025680Y-73553998D01*
X87905982Y-73517688D01*
X87781500Y-73505428D01*
X86081500Y-73505428D01*
X85957018Y-73517688D01*
X85837320Y-73553998D01*
X85727006Y-73612963D01*
X85657540Y-73669972D01*
X85595994Y-73619463D01*
X85485680Y-73560498D01*
X85365982Y-73524188D01*
X85241500Y-73511928D01*
X83541500Y-73511928D01*
X83417018Y-73524188D01*
X83297320Y-73560498D01*
X83187006Y-73619463D01*
X83090315Y-73698815D01*
X83010963Y-73795506D01*
X82951998Y-73905820D01*
X82915688Y-74025518D01*
X82903428Y-74150000D01*
X80799572Y-74150000D01*
X80787312Y-74025518D01*
X80751002Y-73905820D01*
X80692037Y-73795506D01*
X80612685Y-73698815D01*
X80515994Y-73619463D01*
X80405680Y-73560498D01*
X80285982Y-73524188D01*
X80161500Y-73511928D01*
X78461500Y-73511928D01*
X78337018Y-73524188D01*
X78217320Y-73560498D01*
X78107006Y-73619463D01*
X78010315Y-73698815D01*
X77930963Y-73795506D01*
X77871998Y-73905820D01*
X77835688Y-74025518D01*
X77823428Y-74150000D01*
X67223854Y-74150000D01*
X67166438Y-74064071D01*
X66855129Y-73752762D01*
X66489069Y-73508169D01*
X66082325Y-73339690D01*
X65650528Y-73253800D01*
X65210272Y-73253800D01*
X64778475Y-73339690D01*
X64371731Y-73508169D01*
X64005671Y-73752762D01*
X63694362Y-74064071D01*
X63449769Y-74430131D01*
X63281290Y-74836875D01*
X63195400Y-75268672D01*
X60871100Y-75268672D01*
X60871100Y-71285000D01*
X72793428Y-71285000D01*
X72805688Y-71409482D01*
X72841998Y-71529180D01*
X72900963Y-71639494D01*
X72980315Y-71736185D01*
X73077006Y-71815537D01*
X73187320Y-71874502D01*
X73307018Y-71910812D01*
X73431500Y-71923072D01*
X73945750Y-71920000D01*
X74104500Y-71761250D01*
X74104500Y-70612000D01*
X72955250Y-70612000D01*
X72796500Y-70770750D01*
X72793428Y-71285000D01*
X60871100Y-71285000D01*
X60871100Y-69685000D01*
X72793428Y-69685000D01*
X72796500Y-70199250D01*
X72955250Y-70358000D01*
X74104500Y-70358000D01*
X74104500Y-69208750D01*
X73945750Y-69050000D01*
X73431500Y-69046928D01*
X73307018Y-69059188D01*
X73187320Y-69095498D01*
X73077006Y-69154463D01*
X72980315Y-69233815D01*
X72900963Y-69330506D01*
X72841998Y-69440820D01*
X72805688Y-69560518D01*
X72793428Y-69685000D01*
X60871100Y-69685000D01*
X60871100Y-61126000D01*
X62151628Y-61126000D01*
X62151628Y-62826000D01*
X62163888Y-62950482D01*
X62200198Y-63070180D01*
X62259163Y-63180494D01*
X62338515Y-63277185D01*
X62435206Y-63356537D01*
X62466006Y-63373000D01*
X62435206Y-63389463D01*
X62338515Y-63468815D01*
X62259163Y-63565506D01*
X62200198Y-63675820D01*
X62163888Y-63795518D01*
X62151628Y-63920000D01*
X62151628Y-65620000D01*
X62163888Y-65744482D01*
X62200198Y-65864180D01*
X62259163Y-65974494D01*
X62338515Y-66071185D01*
X62435206Y-66150537D01*
X62545520Y-66209502D01*
X62665218Y-66245812D01*
X62789700Y-66258072D01*
X64489700Y-66258072D01*
X64614182Y-66245812D01*
X64733880Y-66209502D01*
X64844194Y-66150537D01*
X64940885Y-66071185D01*
X65020237Y-65974494D01*
X65079202Y-65864180D01*
X65115512Y-65744482D01*
X65127772Y-65620000D01*
X65127772Y-63920000D01*
X65115512Y-63795518D01*
X65079202Y-63675820D01*
X65020237Y-63565506D01*
X64940885Y-63468815D01*
X64844194Y-63389463D01*
X64813394Y-63373000D01*
X64844194Y-63356537D01*
X64940885Y-63277185D01*
X65020237Y-63180494D01*
X65079202Y-63070180D01*
X65115512Y-62950482D01*
X65127772Y-62826000D01*
X65127772Y-61126000D01*
X65115512Y-61001518D01*
X65079202Y-60881820D01*
X65020237Y-60771506D01*
X64940885Y-60674815D01*
X64844194Y-60595463D01*
X64733880Y-60536498D01*
X64614182Y-60500188D01*
X64489700Y-60487928D01*
X62789700Y-60487928D01*
X62665218Y-60500188D01*
X62545520Y-60536498D01*
X62435206Y-60595463D01*
X62338515Y-60674815D01*
X62259163Y-60771506D01*
X62200198Y-60881820D01*
X62163888Y-61001518D01*
X62151628Y-61126000D01*
X60871100Y-61126000D01*
X60871100Y-56315089D01*
X61670500Y-56315089D01*
X61670500Y-56587911D01*
X61723725Y-56855489D01*
X61828129Y-57107543D01*
X61979701Y-57334386D01*
X62172614Y-57527299D01*
X62399457Y-57678871D01*
X62651511Y-57783275D01*
X62919089Y-57836500D01*
X63191911Y-57836500D01*
X63459489Y-57783275D01*
X63711543Y-57678871D01*
X63938386Y-57527299D01*
X64131299Y-57334386D01*
X64282871Y-57107543D01*
X64387275Y-56855489D01*
X64440500Y-56587911D01*
X64440500Y-56315089D01*
X64387275Y-56047511D01*
X64282871Y-55795457D01*
X64131299Y-55568614D01*
X63938386Y-55375701D01*
X63711543Y-55224129D01*
X63459489Y-55119725D01*
X63191911Y-55066500D01*
X62919089Y-55066500D01*
X62651511Y-55119725D01*
X62399457Y-55224129D01*
X62172614Y-55375701D01*
X61979701Y-55568614D01*
X61828129Y-55795457D01*
X61723725Y-56047511D01*
X61670500Y-56315089D01*
X60871100Y-56315089D01*
X60871100Y-51315089D01*
X61670500Y-51315089D01*
X61670500Y-51587911D01*
X61723725Y-51855489D01*
X61828129Y-52107543D01*
X61979701Y-52334386D01*
X62172614Y-52527299D01*
X62399457Y-52678871D01*
X62651511Y-52783275D01*
X62919089Y-52836500D01*
X63191911Y-52836500D01*
X63459489Y-52783275D01*
X63711543Y-52678871D01*
X63938386Y-52527299D01*
X64131299Y-52334386D01*
X64282871Y-52107543D01*
X64387275Y-51855489D01*
X64440500Y-51587911D01*
X64440500Y-51315089D01*
X64387275Y-51047511D01*
X64282871Y-50795457D01*
X64131299Y-50568614D01*
X63938386Y-50375701D01*
X63711543Y-50224129D01*
X63459489Y-50119725D01*
X63191911Y-50066500D01*
X62919089Y-50066500D01*
X62651511Y-50119725D01*
X62399457Y-50224129D01*
X62172614Y-50375701D01*
X61979701Y-50568614D01*
X61828129Y-50795457D01*
X61723725Y-51047511D01*
X61670500Y-51315089D01*
X60871100Y-51315089D01*
X60871100Y-30847735D01*
X74145371Y-30838656D01*
X74141683Y-30841682D01*
G37*
X74141683Y-30841682D02*
X73993100Y-31022731D01*
X73882692Y-31229288D01*
X73814704Y-31453415D01*
X73797500Y-31628089D01*
X73797500Y-32852910D01*
X73814704Y-33027584D01*
X73882692Y-33251711D01*
X73993099Y-33458268D01*
X74141682Y-33639318D01*
X74322731Y-33787901D01*
X74529288Y-33898308D01*
X74635412Y-33930500D01*
X74529289Y-33962692D01*
X74322732Y-34073099D01*
X74141683Y-34221682D01*
X73993100Y-34402731D01*
X73882692Y-34609288D01*
X73814704Y-34833415D01*
X73797500Y-35008089D01*
X73797500Y-36232910D01*
X73814704Y-36407584D01*
X73882692Y-36631711D01*
X73993099Y-36838268D01*
X74141682Y-37019318D01*
X74322731Y-37167901D01*
X74529288Y-37278308D01*
X74753415Y-37346296D01*
X74986500Y-37369253D01*
X75219584Y-37346296D01*
X75443711Y-37278308D01*
X75578771Y-37206117D01*
X75612424Y-37239770D01*
X75601116Y-37267071D01*
X75576240Y-37392129D01*
X72487348Y-40481022D01*
X72458278Y-40504879D01*
X72434421Y-40533949D01*
X72434420Y-40533950D01*
X72363054Y-40620909D01*
X72292298Y-40753286D01*
X72248726Y-40896923D01*
X72234013Y-41046301D01*
X72237700Y-41083734D01*
X72237699Y-65544406D01*
X72234013Y-65581829D01*
X72237699Y-65619252D01*
X72237699Y-65619254D01*
X72248725Y-65731206D01*
X72292297Y-65874843D01*
X72292298Y-65874844D01*
X72363054Y-66007221D01*
X72402682Y-66055507D01*
X72458277Y-66123251D01*
X72487353Y-66147113D01*
X75783672Y-69443432D01*
X75658143Y-69568961D01*
X75657312Y-69560518D01*
X75621002Y-69440820D01*
X75562037Y-69330506D01*
X75482685Y-69233815D01*
X75385994Y-69154463D01*
X75275680Y-69095498D01*
X75155982Y-69059188D01*
X75031500Y-69046928D01*
X74517250Y-69050000D01*
X74358500Y-69208750D01*
X74358500Y-70358000D01*
X74378500Y-70358000D01*
X74378500Y-70612000D01*
X74358500Y-70612000D01*
X74358500Y-71761250D01*
X74517250Y-71920000D01*
X75031500Y-71923072D01*
X75155982Y-71910812D01*
X75275680Y-71874502D01*
X75385994Y-71815537D01*
X75482685Y-71736185D01*
X75562037Y-71639494D01*
X75621002Y-71529180D01*
X75657312Y-71409482D01*
X75658143Y-71401039D01*
X75856741Y-71599637D01*
X76091773Y-71756680D01*
X76352926Y-71864853D01*
X76630165Y-71920000D01*
X76912835Y-71920000D01*
X77190074Y-71864853D01*
X77451227Y-71756680D01*
X77686259Y-71599637D01*
X77886137Y-71399759D01*
X78041500Y-71167241D01*
X78196863Y-71399759D01*
X78396741Y-71599637D01*
X78631773Y-71756680D01*
X78892926Y-71864853D01*
X79170165Y-71920000D01*
X79452835Y-71920000D01*
X79730074Y-71864853D01*
X79991227Y-71756680D01*
X80226259Y-71599637D01*
X80426137Y-71399759D01*
X80581500Y-71167241D01*
X80736863Y-71399759D01*
X80936741Y-71599637D01*
X81171773Y-71756680D01*
X81432926Y-71864853D01*
X81710165Y-71920000D01*
X81992835Y-71920000D01*
X82270074Y-71864853D01*
X82531227Y-71756680D01*
X82766259Y-71599637D01*
X82966137Y-71399759D01*
X83121500Y-71167241D01*
X83276863Y-71399759D01*
X83476741Y-71599637D01*
X83711773Y-71756680D01*
X83972926Y-71864853D01*
X84250165Y-71920000D01*
X84532835Y-71920000D01*
X84810074Y-71864853D01*
X85071227Y-71756680D01*
X85306259Y-71599637D01*
X85506137Y-71399759D01*
X85661500Y-71167241D01*
X85816863Y-71399759D01*
X86016741Y-71599637D01*
X86251773Y-71756680D01*
X86512926Y-71864853D01*
X86790165Y-71920000D01*
X87072835Y-71920000D01*
X87350074Y-71864853D01*
X87611227Y-71756680D01*
X87846259Y-71599637D01*
X88046137Y-71399759D01*
X88201500Y-71167241D01*
X88356863Y-71399759D01*
X88556741Y-71599637D01*
X88791773Y-71756680D01*
X89052926Y-71864853D01*
X89330165Y-71920000D01*
X89612835Y-71920000D01*
X89890074Y-71864853D01*
X90151227Y-71756680D01*
X90386259Y-71599637D01*
X90586137Y-71399759D01*
X90741500Y-71167241D01*
X90896863Y-71399759D01*
X91096741Y-71599637D01*
X91331773Y-71756680D01*
X91592926Y-71864853D01*
X91870165Y-71920000D01*
X92152835Y-71920000D01*
X92430074Y-71864853D01*
X92691227Y-71756680D01*
X92926259Y-71599637D01*
X93126137Y-71399759D01*
X93281500Y-71167241D01*
X93436863Y-71399759D01*
X93636741Y-71599637D01*
X93871773Y-71756680D01*
X94132926Y-71864853D01*
X94410165Y-71920000D01*
X94692835Y-71920000D01*
X94970074Y-71864853D01*
X95231227Y-71756680D01*
X95466259Y-71599637D01*
X95666137Y-71399759D01*
X95821500Y-71167241D01*
X95976863Y-71399759D01*
X96176741Y-71599637D01*
X96411773Y-71756680D01*
X96672926Y-71864853D01*
X96950165Y-71920000D01*
X97232835Y-71920000D01*
X97510074Y-71864853D01*
X97771227Y-71756680D01*
X98006259Y-71599637D01*
X98206137Y-71399759D01*
X98361500Y-71167241D01*
X98516863Y-71399759D01*
X98716741Y-71599637D01*
X98951773Y-71756680D01*
X99212926Y-71864853D01*
X99490165Y-71920000D01*
X99772835Y-71920000D01*
X100050074Y-71864853D01*
X100311227Y-71756680D01*
X100546259Y-71599637D01*
X100746137Y-71399759D01*
X100901500Y-71167241D01*
X101056863Y-71399759D01*
X101256741Y-71599637D01*
X101491773Y-71756680D01*
X101752926Y-71864853D01*
X102030165Y-71920000D01*
X102312835Y-71920000D01*
X102590074Y-71864853D01*
X102851227Y-71756680D01*
X103086259Y-71599637D01*
X103286137Y-71399759D01*
X103441500Y-71167241D01*
X103596863Y-71399759D01*
X103796741Y-71599637D01*
X104031773Y-71756680D01*
X104292926Y-71864853D01*
X104570165Y-71920000D01*
X104852835Y-71920000D01*
X105130074Y-71864853D01*
X105391227Y-71756680D01*
X105626259Y-71599637D01*
X105826137Y-71399759D01*
X105981500Y-71167241D01*
X106136863Y-71399759D01*
X106336741Y-71599637D01*
X106571773Y-71756680D01*
X106832926Y-71864853D01*
X107110165Y-71920000D01*
X107392835Y-71920000D01*
X107670074Y-71864853D01*
X107931227Y-71756680D01*
X108166259Y-71599637D01*
X108366137Y-71399759D01*
X108523180Y-71164727D01*
X108631353Y-70903574D01*
X108686500Y-70626335D01*
X108686500Y-70343665D01*
X108631353Y-70066426D01*
X108523180Y-69805273D01*
X108366137Y-69570241D01*
X108166259Y-69370363D01*
X107931227Y-69213320D01*
X107670074Y-69105147D01*
X107392835Y-69050000D01*
X107224130Y-69050000D01*
X110748353Y-65525778D01*
X110777422Y-65501922D01*
X110804772Y-65468596D01*
X110872645Y-65385893D01*
X110943401Y-65253516D01*
X110943402Y-65253515D01*
X110986974Y-65109878D01*
X110995868Y-65019571D01*
X111068840Y-64910362D01*
X111139684Y-64739329D01*
X111175800Y-64557762D01*
X111175800Y-64503301D01*
X130523442Y-64503301D01*
X130569599Y-64507847D01*
X130615756Y-64503301D01*
X130615766Y-64503301D01*
X130737850Y-64491277D01*
X130742098Y-64505280D01*
X130801063Y-64615594D01*
X130880415Y-64712285D01*
X130977106Y-64791637D01*
X131087420Y-64850602D01*
X131168066Y-64875066D01*
X131084012Y-64950831D01*
X130909959Y-65184180D01*
X130784775Y-65447001D01*
X130740124Y-65594210D01*
X130861445Y-65824100D01*
X132054600Y-65824100D01*
X132054600Y-65804100D01*
X132308600Y-65804100D01*
X132308600Y-65824100D01*
X132328600Y-65824100D01*
X132328600Y-66078100D01*
X132308600Y-66078100D01*
X132308600Y-66098100D01*
X132054600Y-66098100D01*
X132054600Y-66078100D01*
X130861445Y-66078100D01*
X130740124Y-66307990D01*
X130784775Y-66455199D01*
X130909959Y-66718020D01*
X131084012Y-66951369D01*
X131300245Y-67146278D01*
X131417134Y-67215905D01*
X131234968Y-67337625D01*
X131028125Y-67544468D01*
X130865610Y-67787689D01*
X130753668Y-68057942D01*
X130696600Y-68344840D01*
X130696600Y-68637360D01*
X130753668Y-68924258D01*
X130865610Y-69194511D01*
X131028125Y-69437732D01*
X131234968Y-69644575D01*
X131478189Y-69807090D01*
X131748442Y-69919032D01*
X132035340Y-69976100D01*
X132327860Y-69976100D01*
X132614758Y-69919032D01*
X132885011Y-69807090D01*
X133128232Y-69644575D01*
X133335075Y-69437732D01*
X133489701Y-69206318D01*
X133489701Y-79133700D01*
X60871100Y-79133700D01*
X60871100Y-75268672D01*
X63195400Y-75268672D01*
X63195400Y-75708928D01*
X63281290Y-76140725D01*
X63449769Y-76547469D01*
X63694362Y-76913529D01*
X64005671Y-77224838D01*
X64371731Y-77469431D01*
X64778475Y-77637910D01*
X65210272Y-77723800D01*
X65650528Y-77723800D01*
X66082325Y-77637910D01*
X66489069Y-77469431D01*
X66855129Y-77224838D01*
X67166438Y-76913529D01*
X67411031Y-76547469D01*
X67579510Y-76140725D01*
X67665400Y-75708928D01*
X67665400Y-75268672D01*
X67579510Y-74836875D01*
X67411031Y-74430131D01*
X67223854Y-74150000D01*
X77823428Y-74150000D01*
X77823428Y-75850000D01*
X77835688Y-75974482D01*
X77871998Y-76094180D01*
X77930963Y-76204494D01*
X78010315Y-76301185D01*
X78107006Y-76380537D01*
X78217320Y-76439502D01*
X78337018Y-76475812D01*
X78461500Y-76488072D01*
X80161500Y-76488072D01*
X80285982Y-76475812D01*
X80405680Y-76439502D01*
X80515994Y-76380537D01*
X80612685Y-76301185D01*
X80692037Y-76204494D01*
X80751002Y-76094180D01*
X80787312Y-75974482D01*
X80799572Y-75850000D01*
X80799572Y-74150000D01*
X82903428Y-74150000D01*
X82903428Y-75850000D01*
X82915688Y-75974482D01*
X82951998Y-76094180D01*
X83010963Y-76204494D01*
X83090315Y-76301185D01*
X83187006Y-76380537D01*
X83297320Y-76439502D01*
X83417018Y-76475812D01*
X83541500Y-76488072D01*
X85241500Y-76488072D01*
X85365982Y-76475812D01*
X85485680Y-76439502D01*
X85595994Y-76380537D01*
X85665460Y-76323528D01*
X85727006Y-76374037D01*
X85837320Y-76433002D01*
X85957018Y-76469312D01*
X86081500Y-76481572D01*
X87781500Y-76481572D01*
X87905982Y-76469312D01*
X88025680Y-76433002D01*
X88135994Y-76374037D01*
X88201500Y-76320278D01*
X88267006Y-76374037D01*
X88377320Y-76433002D01*
X88497018Y-76469312D01*
X88621500Y-76481572D01*
X90321500Y-76481572D01*
X90445982Y-76469312D01*
X90565680Y-76433002D01*
X90675994Y-76374037D01*
X90741500Y-76320278D01*
X90807006Y-76374037D01*
X90917320Y-76433002D01*
X91037018Y-76469312D01*
X91161500Y-76481572D01*
X92861500Y-76481572D01*
X92985982Y-76469312D01*
X93105680Y-76433002D01*
X93215994Y-76374037D01*
X93300550Y-76304644D01*
X93385106Y-76374037D01*
X93495420Y-76433002D01*
X93615118Y-76469312D01*
X93739600Y-76481572D01*
X95439600Y-76481572D01*
X95564082Y-76469312D01*
X95683780Y-76433002D01*
X95794094Y-76374037D01*
X95872300Y-76309855D01*
X95950506Y-76374037D01*
X96060820Y-76433002D01*
X96180518Y-76469312D01*
X96305000Y-76481572D01*
X98005000Y-76481572D01*
X98129482Y-76469312D01*
X98249180Y-76433002D01*
X98359494Y-76374037D01*
X98393250Y-76346334D01*
X98427006Y-76374037D01*
X98537320Y-76433002D01*
X98657018Y-76469312D01*
X98781500Y-76481572D01*
X100481500Y-76481572D01*
X100605982Y-76469312D01*
X100725680Y-76433002D01*
X100835994Y-76374037D01*
X100901500Y-76320278D01*
X100967006Y-76374037D01*
X101077320Y-76433002D01*
X101197018Y-76469312D01*
X101321500Y-76481572D01*
X103021500Y-76481572D01*
X103145982Y-76469312D01*
X103265680Y-76433002D01*
X103375994Y-76374037D01*
X103472685Y-76294685D01*
X103552037Y-76197994D01*
X103611002Y-76087680D01*
X103647312Y-75967982D01*
X103659572Y-75843500D01*
X103659572Y-74150000D01*
X105750728Y-74150000D01*
X105750728Y-75850000D01*
X105762988Y-75974482D01*
X105799298Y-76094180D01*
X105858263Y-76204494D01*
X105937615Y-76301185D01*
X106034306Y-76380537D01*
X106144620Y-76439502D01*
X106264318Y-76475812D01*
X106388800Y-76488072D01*
X108088800Y-76488072D01*
X108213282Y-76475812D01*
X108332980Y-76439502D01*
X108443294Y-76380537D01*
X108539985Y-76301185D01*
X108619337Y-76204494D01*
X108678302Y-76094180D01*
X108714612Y-75974482D01*
X108726872Y-75850000D01*
X108726872Y-74150000D01*
X109713128Y-74150000D01*
X109713128Y-75850000D01*
X109725388Y-75974482D01*
X109761698Y-76094180D01*
X109820663Y-76204494D01*
X109900015Y-76301185D01*
X109996706Y-76380537D01*
X110107020Y-76439502D01*
X110226718Y-76475812D01*
X110351200Y-76488072D01*
X112051200Y-76488072D01*
X112175682Y-76475812D01*
X112295380Y-76439502D01*
X112405694Y-76380537D01*
X112496600Y-76305933D01*
X112587506Y-76380537D01*
X112697820Y-76439502D01*
X112817518Y-76475812D01*
X112942000Y-76488072D01*
X114642000Y-76488072D01*
X114766482Y-76475812D01*
X114886180Y-76439502D01*
X114996494Y-76380537D01*
X115087400Y-76305933D01*
X115178306Y-76380537D01*
X115288620Y-76439502D01*
X115408318Y-76475812D01*
X115532800Y-76488072D01*
X117232800Y-76488072D01*
X117357282Y-76475812D01*
X117476980Y-76439502D01*
X117587294Y-76380537D01*
X117683985Y-76301185D01*
X117763337Y-76204494D01*
X117822302Y-76094180D01*
X117858612Y-75974482D01*
X117870872Y-75850000D01*
X117870872Y-75370272D01*
X123190200Y-75370272D01*
X123190200Y-75810528D01*
X123276090Y-76242325D01*
X123444569Y-76649069D01*
X123689162Y-77015129D01*
X124000471Y-77326438D01*
X124366531Y-77571031D01*
X124773275Y-77739510D01*
X125205072Y-77825400D01*
X125645328Y-77825400D01*
X126077125Y-77739510D01*
X126483869Y-77571031D01*
X126849929Y-77326438D01*
X127161238Y-77015129D01*
X127405831Y-76649069D01*
X127574310Y-76242325D01*
X127660200Y-75810528D01*
X127660200Y-75370272D01*
X127574310Y-74938475D01*
X127405831Y-74531731D01*
X127161238Y-74165671D01*
X126849929Y-73854362D01*
X126483869Y-73609769D01*
X126077125Y-73441290D01*
X125645328Y-73355400D01*
X125205072Y-73355400D01*
X124773275Y-73441290D01*
X124366531Y-73609769D01*
X124000471Y-73854362D01*
X123689162Y-74165671D01*
X123444569Y-74531731D01*
X123276090Y-74938475D01*
X123190200Y-75370272D01*
X117870872Y-75370272D01*
X117870872Y-74150000D01*
X117858612Y-74025518D01*
X117822302Y-73905820D01*
X117763337Y-73795506D01*
X117683985Y-73698815D01*
X117587294Y-73619463D01*
X117476980Y-73560498D01*
X117357282Y-73524188D01*
X117232800Y-73511928D01*
X115532800Y-73511928D01*
X115408318Y-73524188D01*
X115288620Y-73560498D01*
X115178306Y-73619463D01*
X115087400Y-73694067D01*
X114996494Y-73619463D01*
X114886180Y-73560498D01*
X114766482Y-73524188D01*
X114642000Y-73511928D01*
X112942000Y-73511928D01*
X112817518Y-73524188D01*
X112697820Y-73560498D01*
X112587506Y-73619463D01*
X112496600Y-73694067D01*
X112405694Y-73619463D01*
X112295380Y-73560498D01*
X112175682Y-73524188D01*
X112051200Y-73511928D01*
X110351200Y-73511928D01*
X110226718Y-73524188D01*
X110107020Y-73560498D01*
X109996706Y-73619463D01*
X109900015Y-73698815D01*
X109820663Y-73795506D01*
X109761698Y-73905820D01*
X109725388Y-74025518D01*
X109713128Y-74150000D01*
X108726872Y-74150000D01*
X108714612Y-74025518D01*
X108678302Y-73905820D01*
X108619337Y-73795506D01*
X108539985Y-73698815D01*
X108443294Y-73619463D01*
X108332980Y-73560498D01*
X108213282Y-73524188D01*
X108088800Y-73511928D01*
X106388800Y-73511928D01*
X106264318Y-73524188D01*
X106144620Y-73560498D01*
X106034306Y-73619463D01*
X105937615Y-73698815D01*
X105858263Y-73795506D01*
X105799298Y-73905820D01*
X105762988Y-74025518D01*
X105750728Y-74150000D01*
X103659572Y-74150000D01*
X103659572Y-74143500D01*
X103647312Y-74019018D01*
X103611002Y-73899320D01*
X103552037Y-73789006D01*
X103472685Y-73692315D01*
X103375994Y-73612963D01*
X103265680Y-73553998D01*
X103145982Y-73517688D01*
X103021500Y-73505428D01*
X101321500Y-73505428D01*
X101197018Y-73517688D01*
X101077320Y-73553998D01*
X100967006Y-73612963D01*
X100901500Y-73666722D01*
X100835994Y-73612963D01*
X100725680Y-73553998D01*
X100605982Y-73517688D01*
X100481500Y-73505428D01*
X98781500Y-73505428D01*
X98657018Y-73517688D01*
X98537320Y-73553998D01*
X98427006Y-73612963D01*
X98393250Y-73640666D01*
X98359494Y-73612963D01*
X98249180Y-73553998D01*
X98129482Y-73517688D01*
X98005000Y-73505428D01*
X96305000Y-73505428D01*
X96180518Y-73517688D01*
X96060820Y-73553998D01*
X95950506Y-73612963D01*
X95872300Y-73677145D01*
X95794094Y-73612963D01*
X95683780Y-73553998D01*
X95564082Y-73517688D01*
X95439600Y-73505428D01*
X93739600Y-73505428D01*
X93615118Y-73517688D01*
X93495420Y-73553998D01*
X93385106Y-73612963D01*
X93300550Y-73682356D01*
X93215994Y-73612963D01*
X93105680Y-73553998D01*
X92985982Y-73517688D01*
X92861500Y-73505428D01*
X91161500Y-73505428D01*
X91037018Y-73517688D01*
X90917320Y-73553998D01*
X90807006Y-73612963D01*
X90741500Y-73666722D01*
X90675994Y-73612963D01*
X90565680Y-73553998D01*
X90445982Y-73517688D01*
X90321500Y-73505428D01*
X88621500Y-73505428D01*
X88497018Y-73517688D01*
X88377320Y-73553998D01*
X88267006Y-73612963D01*
X88201500Y-73666722D01*
X88135994Y-73612963D01*
X88025680Y-73553998D01*
X87905982Y-73517688D01*
X87781500Y-73505428D01*
X86081500Y-73505428D01*
X85957018Y-73517688D01*
X85837320Y-73553998D01*
X85727006Y-73612963D01*
X85657540Y-73669972D01*
X85595994Y-73619463D01*
X85485680Y-73560498D01*
X85365982Y-73524188D01*
X85241500Y-73511928D01*
X83541500Y-73511928D01*
X83417018Y-73524188D01*
X83297320Y-73560498D01*
X83187006Y-73619463D01*
X83090315Y-73698815D01*
X83010963Y-73795506D01*
X82951998Y-73905820D01*
X82915688Y-74025518D01*
X82903428Y-74150000D01*
X80799572Y-74150000D01*
X80787312Y-74025518D01*
X80751002Y-73905820D01*
X80692037Y-73795506D01*
X80612685Y-73698815D01*
X80515994Y-73619463D01*
X80405680Y-73560498D01*
X80285982Y-73524188D01*
X80161500Y-73511928D01*
X78461500Y-73511928D01*
X78337018Y-73524188D01*
X78217320Y-73560498D01*
X78107006Y-73619463D01*
X78010315Y-73698815D01*
X77930963Y-73795506D01*
X77871998Y-73905820D01*
X77835688Y-74025518D01*
X77823428Y-74150000D01*
X67223854Y-74150000D01*
X67166438Y-74064071D01*
X66855129Y-73752762D01*
X66489069Y-73508169D01*
X66082325Y-73339690D01*
X65650528Y-73253800D01*
X65210272Y-73253800D01*
X64778475Y-73339690D01*
X64371731Y-73508169D01*
X64005671Y-73752762D01*
X63694362Y-74064071D01*
X63449769Y-74430131D01*
X63281290Y-74836875D01*
X63195400Y-75268672D01*
X60871100Y-75268672D01*
X60871100Y-71285000D01*
X72793428Y-71285000D01*
X72805688Y-71409482D01*
X72841998Y-71529180D01*
X72900963Y-71639494D01*
X72980315Y-71736185D01*
X73077006Y-71815537D01*
X73187320Y-71874502D01*
X73307018Y-71910812D01*
X73431500Y-71923072D01*
X73945750Y-71920000D01*
X74104500Y-71761250D01*
X74104500Y-70612000D01*
X72955250Y-70612000D01*
X72796500Y-70770750D01*
X72793428Y-71285000D01*
X60871100Y-71285000D01*
X60871100Y-69685000D01*
X72793428Y-69685000D01*
X72796500Y-70199250D01*
X72955250Y-70358000D01*
X74104500Y-70358000D01*
X74104500Y-69208750D01*
X73945750Y-69050000D01*
X73431500Y-69046928D01*
X73307018Y-69059188D01*
X73187320Y-69095498D01*
X73077006Y-69154463D01*
X72980315Y-69233815D01*
X72900963Y-69330506D01*
X72841998Y-69440820D01*
X72805688Y-69560518D01*
X72793428Y-69685000D01*
X60871100Y-69685000D01*
X60871100Y-61126000D01*
X62151628Y-61126000D01*
X62151628Y-62826000D01*
X62163888Y-62950482D01*
X62200198Y-63070180D01*
X62259163Y-63180494D01*
X62338515Y-63277185D01*
X62435206Y-63356537D01*
X62466006Y-63373000D01*
X62435206Y-63389463D01*
X62338515Y-63468815D01*
X62259163Y-63565506D01*
X62200198Y-63675820D01*
X62163888Y-63795518D01*
X62151628Y-63920000D01*
X62151628Y-65620000D01*
X62163888Y-65744482D01*
X62200198Y-65864180D01*
X62259163Y-65974494D01*
X62338515Y-66071185D01*
X62435206Y-66150537D01*
X62545520Y-66209502D01*
X62665218Y-66245812D01*
X62789700Y-66258072D01*
X64489700Y-66258072D01*
X64614182Y-66245812D01*
X64733880Y-66209502D01*
X64844194Y-66150537D01*
X64940885Y-66071185D01*
X65020237Y-65974494D01*
X65079202Y-65864180D01*
X65115512Y-65744482D01*
X65127772Y-65620000D01*
X65127772Y-63920000D01*
X65115512Y-63795518D01*
X65079202Y-63675820D01*
X65020237Y-63565506D01*
X64940885Y-63468815D01*
X64844194Y-63389463D01*
X64813394Y-63373000D01*
X64844194Y-63356537D01*
X64940885Y-63277185D01*
X65020237Y-63180494D01*
X65079202Y-63070180D01*
X65115512Y-62950482D01*
X65127772Y-62826000D01*
X65127772Y-61126000D01*
X65115512Y-61001518D01*
X65079202Y-60881820D01*
X65020237Y-60771506D01*
X64940885Y-60674815D01*
X64844194Y-60595463D01*
X64733880Y-60536498D01*
X64614182Y-60500188D01*
X64489700Y-60487928D01*
X62789700Y-60487928D01*
X62665218Y-60500188D01*
X62545520Y-60536498D01*
X62435206Y-60595463D01*
X62338515Y-60674815D01*
X62259163Y-60771506D01*
X62200198Y-60881820D01*
X62163888Y-61001518D01*
X62151628Y-61126000D01*
X60871100Y-61126000D01*
X60871100Y-56315089D01*
X61670500Y-56315089D01*
X61670500Y-56587911D01*
X61723725Y-56855489D01*
X61828129Y-57107543D01*
X61979701Y-57334386D01*
X62172614Y-57527299D01*
X62399457Y-57678871D01*
X62651511Y-57783275D01*
X62919089Y-57836500D01*
X63191911Y-57836500D01*
X63459489Y-57783275D01*
X63711543Y-57678871D01*
X63938386Y-57527299D01*
X64131299Y-57334386D01*
X64282871Y-57107543D01*
X64387275Y-56855489D01*
X64440500Y-56587911D01*
X64440500Y-56315089D01*
X64387275Y-56047511D01*
X64282871Y-55795457D01*
X64131299Y-55568614D01*
X63938386Y-55375701D01*
X63711543Y-55224129D01*
X63459489Y-55119725D01*
X63191911Y-55066500D01*
X62919089Y-55066500D01*
X62651511Y-55119725D01*
X62399457Y-55224129D01*
X62172614Y-55375701D01*
X61979701Y-55568614D01*
X61828129Y-55795457D01*
X61723725Y-56047511D01*
X61670500Y-56315089D01*
X60871100Y-56315089D01*
X60871100Y-51315089D01*
X61670500Y-51315089D01*
X61670500Y-51587911D01*
X61723725Y-51855489D01*
X61828129Y-52107543D01*
X61979701Y-52334386D01*
X62172614Y-52527299D01*
X62399457Y-52678871D01*
X62651511Y-52783275D01*
X62919089Y-52836500D01*
X63191911Y-52836500D01*
X63459489Y-52783275D01*
X63711543Y-52678871D01*
X63938386Y-52527299D01*
X64131299Y-52334386D01*
X64282871Y-52107543D01*
X64387275Y-51855489D01*
X64440500Y-51587911D01*
X64440500Y-51315089D01*
X64387275Y-51047511D01*
X64282871Y-50795457D01*
X64131299Y-50568614D01*
X63938386Y-50375701D01*
X63711543Y-50224129D01*
X63459489Y-50119725D01*
X63191911Y-50066500D01*
X62919089Y-50066500D01*
X62651511Y-50119725D01*
X62399457Y-50224129D01*
X62172614Y-50375701D01*
X61979701Y-50568614D01*
X61828129Y-50795457D01*
X61723725Y-51047511D01*
X61670500Y-51315089D01*
X60871100Y-51315089D01*
X60871100Y-30847735D01*
X74145371Y-30838656D01*
X74141683Y-30841682D01*
G36*
X130414928Y-30940506D02*
G01*
X130373608Y-30962592D01*
X130257578Y-31057815D01*
X130233721Y-31086885D01*
X127554439Y-33766168D01*
X127525369Y-33790025D01*
X127501512Y-33819095D01*
X127501511Y-33819096D01*
X127430145Y-33906055D01*
X127359389Y-34038432D01*
X127315817Y-34182069D01*
X127301104Y-34331447D01*
X127304791Y-34368880D01*
X127304790Y-48553979D01*
X127141570Y-48717200D01*
X87654723Y-48717200D01*
X87617300Y-48713514D01*
X87579877Y-48717200D01*
X87579874Y-48717200D01*
X87467922Y-48728226D01*
X87324285Y-48771798D01*
X87262664Y-48804735D01*
X87191907Y-48842555D01*
X87158940Y-48869611D01*
X87075878Y-48937778D01*
X87052016Y-48966854D01*
X82173027Y-53845843D01*
X81992835Y-53810000D01*
X81710165Y-53810000D01*
X81432926Y-53865147D01*
X81171773Y-53973320D01*
X80936741Y-54130363D01*
X80736863Y-54330241D01*
X80581500Y-54562759D01*
X80426137Y-54330241D01*
X80226259Y-54130363D01*
X79991227Y-53973320D01*
X79730074Y-53865147D01*
X79452835Y-53810000D01*
X79170165Y-53810000D01*
X78892926Y-53865147D01*
X78631773Y-53973320D01*
X78396741Y-54130363D01*
X78196863Y-54330241D01*
X78040585Y-54564128D01*
X78008171Y-54503486D01*
X77764202Y-54431903D01*
X76951105Y-55245000D01*
X77764202Y-56058097D01*
X78008171Y-55986514D01*
X78038694Y-55922008D01*
X78039820Y-55924727D01*
X78196863Y-56159759D01*
X78396741Y-56359637D01*
X78631773Y-56516680D01*
X78892926Y-56624853D01*
X79170165Y-56680000D01*
X79452835Y-56680000D01*
X79730074Y-56624853D01*
X79991227Y-56516680D01*
X80226259Y-56359637D01*
X80426137Y-56159759D01*
X80581500Y-55927241D01*
X80736863Y-56159759D01*
X80936741Y-56359637D01*
X81171773Y-56516680D01*
X81432926Y-56624853D01*
X81710165Y-56680000D01*
X81992835Y-56680000D01*
X82270074Y-56624853D01*
X82531227Y-56516680D01*
X82766259Y-56359637D01*
X82966137Y-56159759D01*
X83121500Y-55927241D01*
X83276863Y-56159759D01*
X83476741Y-56359637D01*
X83711773Y-56516680D01*
X83972926Y-56624853D01*
X84250165Y-56680000D01*
X84532835Y-56680000D01*
X84810074Y-56624853D01*
X85071227Y-56516680D01*
X85306259Y-56359637D01*
X85506137Y-56159759D01*
X85661500Y-55927241D01*
X85816863Y-56159759D01*
X86016741Y-56359637D01*
X86251773Y-56516680D01*
X86512926Y-56624853D01*
X86790165Y-56680000D01*
X87072835Y-56680000D01*
X87350074Y-56624853D01*
X87611227Y-56516680D01*
X87846259Y-56359637D01*
X88046137Y-56159759D01*
X88201500Y-55927241D01*
X88356863Y-56159759D01*
X88556741Y-56359637D01*
X88791773Y-56516680D01*
X89052926Y-56624853D01*
X89330165Y-56680000D01*
X89612835Y-56680000D01*
X89890074Y-56624853D01*
X90151227Y-56516680D01*
X90386259Y-56359637D01*
X90586137Y-56159759D01*
X90741500Y-55927241D01*
X90896863Y-56159759D01*
X91096741Y-56359637D01*
X91331773Y-56516680D01*
X91592926Y-56624853D01*
X91870165Y-56680000D01*
X92152835Y-56680000D01*
X92430074Y-56624853D01*
X92691227Y-56516680D01*
X92926259Y-56359637D01*
X93126137Y-56159759D01*
X93281500Y-55927241D01*
X93436863Y-56159759D01*
X93636741Y-56359637D01*
X93871773Y-56516680D01*
X94132926Y-56624853D01*
X94410165Y-56680000D01*
X94692835Y-56680000D01*
X94970074Y-56624853D01*
X95231227Y-56516680D01*
X95466259Y-56359637D01*
X95666137Y-56159759D01*
X95821500Y-55927241D01*
X95976863Y-56159759D01*
X96176741Y-56359637D01*
X96411773Y-56516680D01*
X96672926Y-56624853D01*
X96950165Y-56680000D01*
X97232835Y-56680000D01*
X97510074Y-56624853D01*
X97771227Y-56516680D01*
X98006259Y-56359637D01*
X98206137Y-56159759D01*
X98361500Y-55927241D01*
X98516863Y-56159759D01*
X98716741Y-56359637D01*
X98951773Y-56516680D01*
X99212926Y-56624853D01*
X99490165Y-56680000D01*
X99772835Y-56680000D01*
X100050074Y-56624853D01*
X100311227Y-56516680D01*
X100546259Y-56359637D01*
X100746137Y-56159759D01*
X100901500Y-55927241D01*
X101056863Y-56159759D01*
X101256741Y-56359637D01*
X101491773Y-56516680D01*
X101752926Y-56624853D01*
X102030165Y-56680000D01*
X102312835Y-56680000D01*
X102590074Y-56624853D01*
X102851227Y-56516680D01*
X103086259Y-56359637D01*
X103286137Y-56159759D01*
X103441500Y-55927241D01*
X103596863Y-56159759D01*
X103796741Y-56359637D01*
X104031773Y-56516680D01*
X104292926Y-56624853D01*
X104570165Y-56680000D01*
X104852835Y-56680000D01*
X105130074Y-56624853D01*
X105391227Y-56516680D01*
X105626259Y-56359637D01*
X105826137Y-56159759D01*
X105981500Y-55927241D01*
X106136863Y-56159759D01*
X106336741Y-56359637D01*
X106571773Y-56516680D01*
X106832926Y-56624853D01*
X107110165Y-56680000D01*
X107392835Y-56680000D01*
X107670074Y-56624853D01*
X107931227Y-56516680D01*
X108051600Y-56436249D01*
X108051600Y-56986325D01*
X108047914Y-57023748D01*
X108051600Y-57061171D01*
X108051600Y-57061173D01*
X108062626Y-57173125D01*
X108106198Y-57316762D01*
X108132744Y-57366426D01*
X108176955Y-57449140D01*
X108216583Y-57497426D01*
X108272178Y-57565170D01*
X108301254Y-57589032D01*
X109329492Y-58617270D01*
X109296200Y-58784638D01*
X109296200Y-58969762D01*
X109332316Y-59151329D01*
X109403160Y-59322362D01*
X109506010Y-59476287D01*
X109636913Y-59607190D01*
X109790838Y-59710040D01*
X109961871Y-59780884D01*
X110143438Y-59817000D01*
X110328562Y-59817000D01*
X110510129Y-59780884D01*
X110681162Y-59710040D01*
X110835087Y-59607190D01*
X110965990Y-59476287D01*
X111068840Y-59322362D01*
X111139684Y-59151329D01*
X111175800Y-58969762D01*
X111175800Y-58784638D01*
X111139684Y-58603071D01*
X111068840Y-58432038D01*
X110988447Y-58311721D01*
X110986974Y-58296770D01*
X110943402Y-58153133D01*
X110872645Y-58020756D01*
X110777422Y-57904726D01*
X110748352Y-57880869D01*
X109575600Y-56708118D01*
X109575600Y-53179981D01*
X109646440Y-53073962D01*
X109717284Y-52902929D01*
X109736119Y-52808237D01*
X130160928Y-52808237D01*
X130160928Y-52946237D01*
X130173188Y-53070719D01*
X130209498Y-53190417D01*
X130268463Y-53300731D01*
X130347815Y-53397422D01*
X130444506Y-53476774D01*
X130554820Y-53535739D01*
X130573127Y-53541293D01*
X130506688Y-53607732D01*
X130338701Y-53859142D01*
X130222989Y-54138494D01*
X130164000Y-54435053D01*
X130164000Y-54737421D01*
X130222989Y-55033980D01*
X130338701Y-55313332D01*
X130506688Y-55564742D01*
X130720495Y-55778549D01*
X130971905Y-55946536D01*
X131251257Y-56062248D01*
X131547816Y-56121237D01*
X131850184Y-56121237D01*
X132146743Y-56062248D01*
X132426095Y-55946536D01*
X132677505Y-55778549D01*
X132891312Y-55564742D01*
X133059299Y-55313332D01*
X133175011Y-55033980D01*
X133234000Y-54737421D01*
X133234000Y-54435053D01*
X133175011Y-54138494D01*
X133059299Y-53859142D01*
X132891312Y-53607732D01*
X132824873Y-53541293D01*
X132843180Y-53535739D01*
X132953494Y-53476774D01*
X133050185Y-53397422D01*
X133129537Y-53300731D01*
X133188502Y-53190417D01*
X133224812Y-53070719D01*
X133237072Y-52946237D01*
X133237072Y-51146237D01*
X133224812Y-51021755D01*
X133188502Y-50902057D01*
X133129537Y-50791743D01*
X133050185Y-50695052D01*
X132953494Y-50615700D01*
X132843180Y-50556735D01*
X132824873Y-50551181D01*
X132954812Y-50421242D01*
X133122799Y-50169832D01*
X133238511Y-49890480D01*
X133297500Y-49593921D01*
X133297500Y-49291553D01*
X133238511Y-48994994D01*
X133122799Y-48715642D01*
X132954812Y-48464232D01*
X132888373Y-48397793D01*
X132906680Y-48392239D01*
X133016994Y-48333274D01*
X133113685Y-48253922D01*
X133193037Y-48157231D01*
X133252002Y-48046917D01*
X133288312Y-47927219D01*
X133300572Y-47802737D01*
X133300572Y-46002737D01*
X133288312Y-45878255D01*
X133252002Y-45758557D01*
X133193037Y-45648243D01*
X133113685Y-45551552D01*
X133016994Y-45472200D01*
X132932512Y-45427042D01*
X132954812Y-45404742D01*
X133122799Y-45153332D01*
X133238511Y-44873980D01*
X133297500Y-44577421D01*
X133297500Y-44275053D01*
X133238511Y-43978494D01*
X133122799Y-43699142D01*
X132954812Y-43447732D01*
X132888373Y-43381293D01*
X132906680Y-43375739D01*
X133016994Y-43316774D01*
X133113685Y-43237422D01*
X133193037Y-43140731D01*
X133252002Y-43030417D01*
X133288312Y-42910719D01*
X133300572Y-42786237D01*
X133300572Y-40986237D01*
X133288312Y-40861755D01*
X133252002Y-40742057D01*
X133193037Y-40631743D01*
X133113685Y-40535052D01*
X133016994Y-40455700D01*
X132906680Y-40396735D01*
X132888373Y-40391181D01*
X133081812Y-40197742D01*
X133249799Y-39946332D01*
X133365511Y-39666980D01*
X133424500Y-39370421D01*
X133424500Y-39068053D01*
X133365511Y-38771494D01*
X133249799Y-38492142D01*
X133081812Y-38240732D01*
X133015373Y-38174293D01*
X133033680Y-38168739D01*
X133143994Y-38109774D01*
X133240685Y-38030422D01*
X133320037Y-37933731D01*
X133379002Y-37823417D01*
X133415312Y-37703719D01*
X133427572Y-37579237D01*
X133427572Y-35779237D01*
X133415312Y-35654755D01*
X133379002Y-35535057D01*
X133320037Y-35424743D01*
X133240685Y-35328052D01*
X133143994Y-35248700D01*
X133059512Y-35203542D01*
X133145312Y-35117742D01*
X133313299Y-34866332D01*
X133429011Y-34586980D01*
X133488000Y-34290421D01*
X133488000Y-33988053D01*
X133429011Y-33691494D01*
X133313299Y-33412142D01*
X133145312Y-33160732D01*
X133078873Y-33094293D01*
X133097180Y-33088739D01*
X133207494Y-33029774D01*
X133304185Y-32950422D01*
X133383537Y-32853731D01*
X133442502Y-32743417D01*
X133478812Y-32623719D01*
X133489700Y-32513167D01*
X133489701Y-62118342D01*
X133482785Y-62109915D01*
X133386094Y-62030563D01*
X133275780Y-61971598D01*
X133156082Y-61935288D01*
X133031600Y-61923028D01*
X131331600Y-61923028D01*
X131207118Y-61935288D01*
X131087420Y-61971598D01*
X130977106Y-62030563D01*
X130880415Y-62109915D01*
X130801063Y-62206606D01*
X130742098Y-62316920D01*
X130705788Y-62436618D01*
X130702632Y-62468661D01*
X130675833Y-62471300D01*
X130537767Y-62484898D01*
X130360614Y-62538637D01*
X130201471Y-62623701D01*
X80853069Y-62623701D01*
X77334427Y-59105060D01*
X77451227Y-59056680D01*
X77686259Y-58899637D01*
X77886137Y-58699759D01*
X78043180Y-58464727D01*
X78151353Y-58203574D01*
X78206500Y-57926335D01*
X78206500Y-57643665D01*
X78151353Y-57366426D01*
X78043180Y-57105273D01*
X77886137Y-56870241D01*
X77686259Y-56670363D01*
X77452372Y-56514085D01*
X77513014Y-56481671D01*
X77584597Y-56237702D01*
X76771500Y-55424605D01*
X75958403Y-56237702D01*
X76029986Y-56481671D01*
X76094492Y-56512194D01*
X76091773Y-56513320D01*
X75856741Y-56670363D01*
X75656863Y-56870241D01*
X75499820Y-57105273D01*
X75451440Y-57222074D01*
X75171300Y-56941934D01*
X75171300Y-56334596D01*
X75346137Y-56159759D01*
X75502415Y-55925872D01*
X75534829Y-55986514D01*
X75778798Y-56058097D01*
X76591895Y-55245000D01*
X75778798Y-54431903D01*
X75534829Y-54503486D01*
X75504306Y-54567992D01*
X75503180Y-54565273D01*
X75346137Y-54330241D01*
X75273210Y-54257314D01*
X75278226Y-54252298D01*
X75958403Y-54252298D01*
X76771500Y-55065395D01*
X77584597Y-54252298D01*
X77513014Y-54008329D01*
X77257504Y-53887429D01*
X76983316Y-53818700D01*
X76700988Y-53804783D01*
X76421370Y-53846213D01*
X76155208Y-53941397D01*
X76029986Y-54008329D01*
X75958403Y-54252298D01*
X75278226Y-54252298D01*
X77750089Y-51780435D01*
X77782064Y-51754194D01*
X77835568Y-51689000D01*
X77886809Y-51626562D01*
X77948471Y-51511200D01*
X77964642Y-51480947D01*
X78012571Y-51322946D01*
X78024700Y-51199800D01*
X78024700Y-51199794D01*
X78028754Y-51158631D01*
X78024700Y-51117468D01*
X78024700Y-44640273D01*
X92141332Y-44640273D01*
X92202491Y-44875470D01*
X92443326Y-44987768D01*
X92701441Y-45050924D01*
X92966919Y-45062511D01*
X93229555Y-45022082D01*
X93479258Y-44931193D01*
X93583509Y-44875470D01*
X93644668Y-44640273D01*
X92893000Y-43888605D01*
X92141332Y-44640273D01*
X78024700Y-44640273D01*
X78024700Y-43782919D01*
X91539489Y-43782919D01*
X91579918Y-44045555D01*
X91670807Y-44295258D01*
X91726530Y-44399509D01*
X91961727Y-44460668D01*
X92713395Y-43709000D01*
X91961727Y-42957332D01*
X91726530Y-43018491D01*
X91614232Y-43259326D01*
X91551076Y-43517441D01*
X91539489Y-43782919D01*
X78024700Y-43782919D01*
X78024700Y-40869022D01*
X78064407Y-40773159D01*
X87530000Y-40773159D01*
X87530000Y-41224841D01*
X87618119Y-41667843D01*
X87790970Y-42085143D01*
X88041910Y-42460702D01*
X88361298Y-42780090D01*
X88736857Y-43031030D01*
X89154157Y-43203881D01*
X89597159Y-43292000D01*
X90048841Y-43292000D01*
X90491843Y-43203881D01*
X90909143Y-43031030D01*
X91284702Y-42780090D01*
X91287065Y-42777727D01*
X92141332Y-42777727D01*
X92893000Y-43529395D01*
X93644668Y-42777727D01*
X93583509Y-42542530D01*
X93342674Y-42430232D01*
X93084559Y-42367076D01*
X92819081Y-42355489D01*
X92556445Y-42395918D01*
X92306742Y-42486807D01*
X92202491Y-42542530D01*
X92141332Y-42777727D01*
X91287065Y-42777727D01*
X91604090Y-42460702D01*
X91855030Y-42085143D01*
X92027881Y-41667843D01*
X92116000Y-41224841D01*
X92116000Y-40773159D01*
X92027881Y-40330157D01*
X91855030Y-39912857D01*
X91604090Y-39537298D01*
X91284702Y-39217910D01*
X90909143Y-38966970D01*
X90491843Y-38794119D01*
X90048841Y-38706000D01*
X89597159Y-38706000D01*
X89154157Y-38794119D01*
X88736857Y-38966970D01*
X88361298Y-39217910D01*
X88041910Y-39537298D01*
X87790970Y-39912857D01*
X87618119Y-40330157D01*
X87530000Y-40773159D01*
X78064407Y-40773159D01*
X78090184Y-40710929D01*
X78126300Y-40529362D01*
X78126300Y-40344238D01*
X78090184Y-40162671D01*
X78024700Y-40004578D01*
X78024700Y-37560500D01*
X78131052Y-37560500D01*
X78286089Y-37529662D01*
X78345079Y-37601541D01*
X78374149Y-37625398D01*
X79564302Y-38815552D01*
X79588159Y-38844622D01*
X79704189Y-38939845D01*
X79836566Y-39010602D01*
X79980203Y-39054174D01*
X80092155Y-39065200D01*
X80092157Y-39065200D01*
X80129580Y-39068886D01*
X80167003Y-39065200D01*
X81186019Y-39065200D01*
X81292038Y-39136040D01*
X81463071Y-39206884D01*
X81644638Y-39243000D01*
X81829762Y-39243000D01*
X82011329Y-39206884D01*
X82182362Y-39136040D01*
X82336287Y-39033190D01*
X82467190Y-38902287D01*
X82570040Y-38748362D01*
X82640884Y-38577329D01*
X82671386Y-38423984D01*
X82791962Y-38374040D01*
X82945887Y-38271190D01*
X83076790Y-38140287D01*
X83179640Y-37986362D01*
X83250484Y-37815329D01*
X83286600Y-37633762D01*
X83286600Y-37448638D01*
X83257434Y-37302013D01*
X83403415Y-37346296D01*
X83636500Y-37369253D01*
X83869584Y-37346296D01*
X84093711Y-37278308D01*
X84300268Y-37167901D01*
X84481318Y-37019318D01*
X84629901Y-36838269D01*
X84740308Y-36631712D01*
X84808296Y-36407585D01*
X84825500Y-36232911D01*
X84825500Y-35008089D01*
X84809210Y-34842690D01*
X89769455Y-34842690D01*
X97286764Y-42360000D01*
X97260135Y-42360000D01*
X96999511Y-42411842D01*
X96754009Y-42513532D01*
X96533063Y-42661163D01*
X96393000Y-42801226D01*
X96252937Y-42661163D01*
X96031991Y-42513532D01*
X95786489Y-42411842D01*
X95525865Y-42360000D01*
X95260135Y-42360000D01*
X94999511Y-42411842D01*
X94754009Y-42513532D01*
X94533063Y-42661163D01*
X94345163Y-42849063D01*
X94197532Y-43070009D01*
X94143489Y-43200481D01*
X94115193Y-43122742D01*
X94059470Y-43018491D01*
X93824273Y-42957332D01*
X93072605Y-43709000D01*
X93824273Y-44460668D01*
X94059470Y-44399509D01*
X94143884Y-44218474D01*
X94197532Y-44347991D01*
X94345163Y-44568937D01*
X94533063Y-44756837D01*
X94754009Y-44904468D01*
X94999511Y-45006158D01*
X95260135Y-45058000D01*
X95525865Y-45058000D01*
X95786489Y-45006158D01*
X96031991Y-44904468D01*
X96252937Y-44756837D01*
X96393000Y-44616774D01*
X96533063Y-44756837D01*
X96754009Y-44904468D01*
X96999511Y-45006158D01*
X97260135Y-45058000D01*
X97525865Y-45058000D01*
X97786489Y-45006158D01*
X98031991Y-44904468D01*
X98252937Y-44756837D01*
X98440837Y-44568937D01*
X98588468Y-44347991D01*
X98643000Y-44216339D01*
X98697532Y-44347991D01*
X98845163Y-44568937D01*
X99033063Y-44756837D01*
X99254009Y-44904468D01*
X99499511Y-45006158D01*
X99760135Y-45058000D01*
X100025865Y-45058000D01*
X100286489Y-45006158D01*
X100531991Y-44904468D01*
X100752937Y-44756837D01*
X100940837Y-44568937D01*
X101088468Y-44347991D01*
X101190158Y-44102489D01*
X101242000Y-43841865D01*
X101242000Y-43576135D01*
X101190158Y-43315511D01*
X101088468Y-43070009D01*
X100940837Y-42849063D01*
X100752937Y-42661163D01*
X100531991Y-42513532D01*
X100286489Y-42411842D01*
X100025865Y-42360000D01*
X99801236Y-42360000D01*
X98214395Y-40773159D01*
X100670000Y-40773159D01*
X100670000Y-41224841D01*
X100758119Y-41667843D01*
X100930970Y-42085143D01*
X101181910Y-42460702D01*
X101501298Y-42780090D01*
X101876857Y-43031030D01*
X102294157Y-43203881D01*
X102737159Y-43292000D01*
X103188841Y-43292000D01*
X103631843Y-43203881D01*
X104049143Y-43031030D01*
X104424702Y-42780090D01*
X104744090Y-42460702D01*
X104995030Y-42085143D01*
X105167881Y-41667843D01*
X105256000Y-41224841D01*
X105256000Y-40773159D01*
X105167881Y-40330157D01*
X104995030Y-39912857D01*
X104744090Y-39537298D01*
X104424702Y-39217910D01*
X104049143Y-38966970D01*
X103631843Y-38794119D01*
X103188841Y-38706000D01*
X102737159Y-38706000D01*
X102294157Y-38794119D01*
X101876857Y-38966970D01*
X101501298Y-39217910D01*
X101181910Y-39537298D01*
X100930970Y-39912857D01*
X100758119Y-40330157D01*
X100670000Y-40773159D01*
X98214395Y-40773159D01*
X92283925Y-34842690D01*
X105995683Y-34842690D01*
X105933004Y-35049315D01*
X105915800Y-35223989D01*
X105915800Y-36448810D01*
X105933004Y-36623484D01*
X106000992Y-36847611D01*
X106111399Y-37054168D01*
X106259982Y-37235218D01*
X106441031Y-37383801D01*
X106647588Y-37494208D01*
X106871715Y-37562196D01*
X107104800Y-37585153D01*
X107337884Y-37562196D01*
X107562011Y-37494208D01*
X107768568Y-37383801D01*
X107949618Y-37235218D01*
X108098201Y-37054169D01*
X108167988Y-36923607D01*
X108275195Y-36816400D01*
X108261053Y-36802258D01*
X108345629Y-36717681D01*
X108344800Y-36721848D01*
X108344800Y-36910952D01*
X108377161Y-37073644D01*
X107981869Y-37468936D01*
X107995477Y-37664670D01*
X108169792Y-37737981D01*
X108355060Y-37775875D01*
X108544161Y-37776897D01*
X108729828Y-37741008D01*
X108880262Y-37679647D01*
X109024778Y-37739508D01*
X109210248Y-37776400D01*
X109392801Y-37776400D01*
X109392800Y-43210959D01*
X109389114Y-43248382D01*
X109392800Y-43285805D01*
X109392800Y-43285807D01*
X109403826Y-43397759D01*
X109419506Y-43449450D01*
X109383116Y-43537305D01*
X109347000Y-43718872D01*
X109347000Y-43903996D01*
X109383116Y-44085563D01*
X109453960Y-44256596D01*
X109556810Y-44410521D01*
X109687713Y-44541424D01*
X109841638Y-44644274D01*
X110012671Y-44715118D01*
X110194238Y-44751234D01*
X110379362Y-44751234D01*
X110560929Y-44715118D01*
X110731962Y-44644274D01*
X110885887Y-44541424D01*
X111016790Y-44410521D01*
X111119640Y-44256596D01*
X111190484Y-44085563D01*
X111226600Y-43903996D01*
X111226600Y-43718872D01*
X111190484Y-43537305D01*
X111119640Y-43366272D01*
X111039247Y-43245955D01*
X111037774Y-43231004D01*
X110994202Y-43087367D01*
X110923445Y-42954990D01*
X110916800Y-42946893D01*
X110916800Y-37776400D01*
X111099352Y-37776400D01*
X111284822Y-37739508D01*
X111429800Y-37679456D01*
X111574778Y-37739508D01*
X111760248Y-37776400D01*
X111949352Y-37776400D01*
X112134822Y-37739508D01*
X112279800Y-37679456D01*
X112424778Y-37739508D01*
X112610248Y-37776400D01*
X112799352Y-37776400D01*
X112869646Y-37762418D01*
X112892979Y-37790848D01*
X112928570Y-37834215D01*
X112959237Y-37871583D01*
X112991213Y-37897825D01*
X113832811Y-38739423D01*
X113859058Y-38771405D01*
X113986690Y-38876150D01*
X114132305Y-38953983D01*
X114290306Y-39001912D01*
X114413452Y-39014041D01*
X114413459Y-39014041D01*
X114454622Y-39018095D01*
X114495785Y-39014041D01*
X114575170Y-39014041D01*
X114698316Y-39001912D01*
X114856317Y-38953983D01*
X115001932Y-38876150D01*
X115129564Y-38771405D01*
X115234309Y-38643773D01*
X115312142Y-38498158D01*
X115360071Y-38340157D01*
X115376255Y-38175841D01*
X115360071Y-38011525D01*
X115312142Y-37853524D01*
X115234309Y-37707909D01*
X115129564Y-37580277D01*
X115001932Y-37475532D01*
X114868253Y-37404079D01*
X114491627Y-37027453D01*
X114514800Y-36910952D01*
X114514800Y-36721848D01*
X114513971Y-36717681D01*
X114598548Y-36802258D01*
X114584405Y-36816400D01*
X114691614Y-36923609D01*
X114761399Y-37054168D01*
X114909982Y-37235218D01*
X115091031Y-37383801D01*
X115297588Y-37494208D01*
X115521715Y-37562196D01*
X115754800Y-37585153D01*
X115987884Y-37562196D01*
X116212011Y-37494208D01*
X116418568Y-37383801D01*
X116599618Y-37235218D01*
X116748201Y-37054169D01*
X116858608Y-36847612D01*
X116926596Y-36623485D01*
X116943800Y-36448811D01*
X116943800Y-35223989D01*
X116926596Y-35049315D01*
X116858608Y-34825188D01*
X116748201Y-34618631D01*
X116599618Y-34437582D01*
X116418569Y-34288999D01*
X116212012Y-34178592D01*
X116105888Y-34146400D01*
X116212011Y-34114208D01*
X116418568Y-34003801D01*
X116599618Y-33855218D01*
X116748201Y-33674169D01*
X116858608Y-33467612D01*
X116860834Y-33460272D01*
X118313400Y-33460272D01*
X118313400Y-33900528D01*
X118399290Y-34332325D01*
X118567769Y-34739069D01*
X118812362Y-35105129D01*
X119123671Y-35416438D01*
X119489731Y-35661031D01*
X119896475Y-35829510D01*
X120328272Y-35915400D01*
X120768528Y-35915400D01*
X121200325Y-35829510D01*
X121607069Y-35661031D01*
X121973129Y-35416438D01*
X122284438Y-35105129D01*
X122529031Y-34739069D01*
X122697510Y-34332325D01*
X122783400Y-33900528D01*
X122783400Y-33460272D01*
X122697510Y-33028475D01*
X122529031Y-32621731D01*
X122284438Y-32255671D01*
X121973129Y-31944362D01*
X121607069Y-31699769D01*
X121200325Y-31531290D01*
X120768528Y-31445400D01*
X120328272Y-31445400D01*
X119896475Y-31531290D01*
X119489731Y-31699769D01*
X119123671Y-31944362D01*
X118812362Y-32255671D01*
X118567769Y-32621731D01*
X118399290Y-33028475D01*
X118313400Y-33460272D01*
X116860834Y-33460272D01*
X116926596Y-33243485D01*
X116943800Y-33068811D01*
X116943800Y-31843989D01*
X116926596Y-31669315D01*
X116858608Y-31445188D01*
X116748201Y-31238631D01*
X116599618Y-31057582D01*
X116418569Y-30908999D01*
X116233108Y-30809868D01*
X130414928Y-30800168D01*
X130414928Y-30940506D01*
G37*
X130414928Y-30940506D02*
X130373608Y-30962592D01*
X130257578Y-31057815D01*
X130233721Y-31086885D01*
X127554439Y-33766168D01*
X127525369Y-33790025D01*
X127501512Y-33819095D01*
X127501511Y-33819096D01*
X127430145Y-33906055D01*
X127359389Y-34038432D01*
X127315817Y-34182069D01*
X127301104Y-34331447D01*
X127304791Y-34368880D01*
X127304790Y-48553979D01*
X127141570Y-48717200D01*
X87654723Y-48717200D01*
X87617300Y-48713514D01*
X87579877Y-48717200D01*
X87579874Y-48717200D01*
X87467922Y-48728226D01*
X87324285Y-48771798D01*
X87262664Y-48804735D01*
X87191907Y-48842555D01*
X87158940Y-48869611D01*
X87075878Y-48937778D01*
X87052016Y-48966854D01*
X82173027Y-53845843D01*
X81992835Y-53810000D01*
X81710165Y-53810000D01*
X81432926Y-53865147D01*
X81171773Y-53973320D01*
X80936741Y-54130363D01*
X80736863Y-54330241D01*
X80581500Y-54562759D01*
X80426137Y-54330241D01*
X80226259Y-54130363D01*
X79991227Y-53973320D01*
X79730074Y-53865147D01*
X79452835Y-53810000D01*
X79170165Y-53810000D01*
X78892926Y-53865147D01*
X78631773Y-53973320D01*
X78396741Y-54130363D01*
X78196863Y-54330241D01*
X78040585Y-54564128D01*
X78008171Y-54503486D01*
X77764202Y-54431903D01*
X76951105Y-55245000D01*
X77764202Y-56058097D01*
X78008171Y-55986514D01*
X78038694Y-55922008D01*
X78039820Y-55924727D01*
X78196863Y-56159759D01*
X78396741Y-56359637D01*
X78631773Y-56516680D01*
X78892926Y-56624853D01*
X79170165Y-56680000D01*
X79452835Y-56680000D01*
X79730074Y-56624853D01*
X79991227Y-56516680D01*
X80226259Y-56359637D01*
X80426137Y-56159759D01*
X80581500Y-55927241D01*
X80736863Y-56159759D01*
X80936741Y-56359637D01*
X81171773Y-56516680D01*
X81432926Y-56624853D01*
X81710165Y-56680000D01*
X81992835Y-56680000D01*
X82270074Y-56624853D01*
X82531227Y-56516680D01*
X82766259Y-56359637D01*
X82966137Y-56159759D01*
X83121500Y-55927241D01*
X83276863Y-56159759D01*
X83476741Y-56359637D01*
X83711773Y-56516680D01*
X83972926Y-56624853D01*
X84250165Y-56680000D01*
X84532835Y-56680000D01*
X84810074Y-56624853D01*
X85071227Y-56516680D01*
X85306259Y-56359637D01*
X85506137Y-56159759D01*
X85661500Y-55927241D01*
X85816863Y-56159759D01*
X86016741Y-56359637D01*
X86251773Y-56516680D01*
X86512926Y-56624853D01*
X86790165Y-56680000D01*
X87072835Y-56680000D01*
X87350074Y-56624853D01*
X87611227Y-56516680D01*
X87846259Y-56359637D01*
X88046137Y-56159759D01*
X88201500Y-55927241D01*
X88356863Y-56159759D01*
X88556741Y-56359637D01*
X88791773Y-56516680D01*
X89052926Y-56624853D01*
X89330165Y-56680000D01*
X89612835Y-56680000D01*
X89890074Y-56624853D01*
X90151227Y-56516680D01*
X90386259Y-56359637D01*
X90586137Y-56159759D01*
X90741500Y-55927241D01*
X90896863Y-56159759D01*
X91096741Y-56359637D01*
X91331773Y-56516680D01*
X91592926Y-56624853D01*
X91870165Y-56680000D01*
X92152835Y-56680000D01*
X92430074Y-56624853D01*
X92691227Y-56516680D01*
X92926259Y-56359637D01*
X93126137Y-56159759D01*
X93281500Y-55927241D01*
X93436863Y-56159759D01*
X93636741Y-56359637D01*
X93871773Y-56516680D01*
X94132926Y-56624853D01*
X94410165Y-56680000D01*
X94692835Y-56680000D01*
X94970074Y-56624853D01*
X95231227Y-56516680D01*
X95466259Y-56359637D01*
X95666137Y-56159759D01*
X95821500Y-55927241D01*
X95976863Y-56159759D01*
X96176741Y-56359637D01*
X96411773Y-56516680D01*
X96672926Y-56624853D01*
X96950165Y-56680000D01*
X97232835Y-56680000D01*
X97510074Y-56624853D01*
X97771227Y-56516680D01*
X98006259Y-56359637D01*
X98206137Y-56159759D01*
X98361500Y-55927241D01*
X98516863Y-56159759D01*
X98716741Y-56359637D01*
X98951773Y-56516680D01*
X99212926Y-56624853D01*
X99490165Y-56680000D01*
X99772835Y-56680000D01*
X100050074Y-56624853D01*
X100311227Y-56516680D01*
X100546259Y-56359637D01*
X100746137Y-56159759D01*
X100901500Y-55927241D01*
X101056863Y-56159759D01*
X101256741Y-56359637D01*
X101491773Y-56516680D01*
X101752926Y-56624853D01*
X102030165Y-56680000D01*
X102312835Y-56680000D01*
X102590074Y-56624853D01*
X102851227Y-56516680D01*
X103086259Y-56359637D01*
X103286137Y-56159759D01*
X103441500Y-55927241D01*
X103596863Y-56159759D01*
X103796741Y-56359637D01*
X104031773Y-56516680D01*
X104292926Y-56624853D01*
X104570165Y-56680000D01*
X104852835Y-56680000D01*
X105130074Y-56624853D01*
X105391227Y-56516680D01*
X105626259Y-56359637D01*
X105826137Y-56159759D01*
X105981500Y-55927241D01*
X106136863Y-56159759D01*
X106336741Y-56359637D01*
X106571773Y-56516680D01*
X106832926Y-56624853D01*
X107110165Y-56680000D01*
X107392835Y-56680000D01*
X107670074Y-56624853D01*
X107931227Y-56516680D01*
X108051600Y-56436249D01*
X108051600Y-56986325D01*
X108047914Y-57023748D01*
X108051600Y-57061171D01*
X108051600Y-57061173D01*
X108062626Y-57173125D01*
X108106198Y-57316762D01*
X108132744Y-57366426D01*
X108176955Y-57449140D01*
X108216583Y-57497426D01*
X108272178Y-57565170D01*
X108301254Y-57589032D01*
X109329492Y-58617270D01*
X109296200Y-58784638D01*
X109296200Y-58969762D01*
X109332316Y-59151329D01*
X109403160Y-59322362D01*
X109506010Y-59476287D01*
X109636913Y-59607190D01*
X109790838Y-59710040D01*
X109961871Y-59780884D01*
X110143438Y-59817000D01*
X110328562Y-59817000D01*
X110510129Y-59780884D01*
X110681162Y-59710040D01*
X110835087Y-59607190D01*
X110965990Y-59476287D01*
X111068840Y-59322362D01*
X111139684Y-59151329D01*
X111175800Y-58969762D01*
X111175800Y-58784638D01*
X111139684Y-58603071D01*
X111068840Y-58432038D01*
X110988447Y-58311721D01*
X110986974Y-58296770D01*
X110943402Y-58153133D01*
X110872645Y-58020756D01*
X110777422Y-57904726D01*
X110748352Y-57880869D01*
X109575600Y-56708118D01*
X109575600Y-53179981D01*
X109646440Y-53073962D01*
X109717284Y-52902929D01*
X109736119Y-52808237D01*
X130160928Y-52808237D01*
X130160928Y-52946237D01*
X130173188Y-53070719D01*
X130209498Y-53190417D01*
X130268463Y-53300731D01*
X130347815Y-53397422D01*
X130444506Y-53476774D01*
X130554820Y-53535739D01*
X130573127Y-53541293D01*
X130506688Y-53607732D01*
X130338701Y-53859142D01*
X130222989Y-54138494D01*
X130164000Y-54435053D01*
X130164000Y-54737421D01*
X130222989Y-55033980D01*
X130338701Y-55313332D01*
X130506688Y-55564742D01*
X130720495Y-55778549D01*
X130971905Y-55946536D01*
X131251257Y-56062248D01*
X131547816Y-56121237D01*
X131850184Y-56121237D01*
X132146743Y-56062248D01*
X132426095Y-55946536D01*
X132677505Y-55778549D01*
X132891312Y-55564742D01*
X133059299Y-55313332D01*
X133175011Y-55033980D01*
X133234000Y-54737421D01*
X133234000Y-54435053D01*
X133175011Y-54138494D01*
X133059299Y-53859142D01*
X132891312Y-53607732D01*
X132824873Y-53541293D01*
X132843180Y-53535739D01*
X132953494Y-53476774D01*
X133050185Y-53397422D01*
X133129537Y-53300731D01*
X133188502Y-53190417D01*
X133224812Y-53070719D01*
X133237072Y-52946237D01*
X133237072Y-51146237D01*
X133224812Y-51021755D01*
X133188502Y-50902057D01*
X133129537Y-50791743D01*
X133050185Y-50695052D01*
X132953494Y-50615700D01*
X132843180Y-50556735D01*
X132824873Y-50551181D01*
X132954812Y-50421242D01*
X133122799Y-50169832D01*
X133238511Y-49890480D01*
X133297500Y-49593921D01*
X133297500Y-49291553D01*
X133238511Y-48994994D01*
X133122799Y-48715642D01*
X132954812Y-48464232D01*
X132888373Y-48397793D01*
X132906680Y-48392239D01*
X133016994Y-48333274D01*
X133113685Y-48253922D01*
X133193037Y-48157231D01*
X133252002Y-48046917D01*
X133288312Y-47927219D01*
X133300572Y-47802737D01*
X133300572Y-46002737D01*
X133288312Y-45878255D01*
X133252002Y-45758557D01*
X133193037Y-45648243D01*
X133113685Y-45551552D01*
X133016994Y-45472200D01*
X132932512Y-45427042D01*
X132954812Y-45404742D01*
X133122799Y-45153332D01*
X133238511Y-44873980D01*
X133297500Y-44577421D01*
X133297500Y-44275053D01*
X133238511Y-43978494D01*
X133122799Y-43699142D01*
X132954812Y-43447732D01*
X132888373Y-43381293D01*
X132906680Y-43375739D01*
X133016994Y-43316774D01*
X133113685Y-43237422D01*
X133193037Y-43140731D01*
X133252002Y-43030417D01*
X133288312Y-42910719D01*
X133300572Y-42786237D01*
X133300572Y-40986237D01*
X133288312Y-40861755D01*
X133252002Y-40742057D01*
X133193037Y-40631743D01*
X133113685Y-40535052D01*
X133016994Y-40455700D01*
X132906680Y-40396735D01*
X132888373Y-40391181D01*
X133081812Y-40197742D01*
X133249799Y-39946332D01*
X133365511Y-39666980D01*
X133424500Y-39370421D01*
X133424500Y-39068053D01*
X133365511Y-38771494D01*
X133249799Y-38492142D01*
X133081812Y-38240732D01*
X133015373Y-38174293D01*
X133033680Y-38168739D01*
X133143994Y-38109774D01*
X133240685Y-38030422D01*
X133320037Y-37933731D01*
X133379002Y-37823417D01*
X133415312Y-37703719D01*
X133427572Y-37579237D01*
X133427572Y-35779237D01*
X133415312Y-35654755D01*
X133379002Y-35535057D01*
X133320037Y-35424743D01*
X133240685Y-35328052D01*
X133143994Y-35248700D01*
X133059512Y-35203542D01*
X133145312Y-35117742D01*
X133313299Y-34866332D01*
X133429011Y-34586980D01*
X133488000Y-34290421D01*
X133488000Y-33988053D01*
X133429011Y-33691494D01*
X133313299Y-33412142D01*
X133145312Y-33160732D01*
X133078873Y-33094293D01*
X133097180Y-33088739D01*
X133207494Y-33029774D01*
X133304185Y-32950422D01*
X133383537Y-32853731D01*
X133442502Y-32743417D01*
X133478812Y-32623719D01*
X133489700Y-32513167D01*
X133489701Y-62118342D01*
X133482785Y-62109915D01*
X133386094Y-62030563D01*
X133275780Y-61971598D01*
X133156082Y-61935288D01*
X133031600Y-61923028D01*
X131331600Y-61923028D01*
X131207118Y-61935288D01*
X131087420Y-61971598D01*
X130977106Y-62030563D01*
X130880415Y-62109915D01*
X130801063Y-62206606D01*
X130742098Y-62316920D01*
X130705788Y-62436618D01*
X130702632Y-62468661D01*
X130675833Y-62471300D01*
X130537767Y-62484898D01*
X130360614Y-62538637D01*
X130201471Y-62623701D01*
X80853069Y-62623701D01*
X77334427Y-59105060D01*
X77451227Y-59056680D01*
X77686259Y-58899637D01*
X77886137Y-58699759D01*
X78043180Y-58464727D01*
X78151353Y-58203574D01*
X78206500Y-57926335D01*
X78206500Y-57643665D01*
X78151353Y-57366426D01*
X78043180Y-57105273D01*
X77886137Y-56870241D01*
X77686259Y-56670363D01*
X77452372Y-56514085D01*
X77513014Y-56481671D01*
X77584597Y-56237702D01*
X76771500Y-55424605D01*
X75958403Y-56237702D01*
X76029986Y-56481671D01*
X76094492Y-56512194D01*
X76091773Y-56513320D01*
X75856741Y-56670363D01*
X75656863Y-56870241D01*
X75499820Y-57105273D01*
X75451440Y-57222074D01*
X75171300Y-56941934D01*
X75171300Y-56334596D01*
X75346137Y-56159759D01*
X75502415Y-55925872D01*
X75534829Y-55986514D01*
X75778798Y-56058097D01*
X76591895Y-55245000D01*
X75778798Y-54431903D01*
X75534829Y-54503486D01*
X75504306Y-54567992D01*
X75503180Y-54565273D01*
X75346137Y-54330241D01*
X75273210Y-54257314D01*
X75278226Y-54252298D01*
X75958403Y-54252298D01*
X76771500Y-55065395D01*
X77584597Y-54252298D01*
X77513014Y-54008329D01*
X77257504Y-53887429D01*
X76983316Y-53818700D01*
X76700988Y-53804783D01*
X76421370Y-53846213D01*
X76155208Y-53941397D01*
X76029986Y-54008329D01*
X75958403Y-54252298D01*
X75278226Y-54252298D01*
X77750089Y-51780435D01*
X77782064Y-51754194D01*
X77835568Y-51689000D01*
X77886809Y-51626562D01*
X77948471Y-51511200D01*
X77964642Y-51480947D01*
X78012571Y-51322946D01*
X78024700Y-51199800D01*
X78024700Y-51199794D01*
X78028754Y-51158631D01*
X78024700Y-51117468D01*
X78024700Y-44640273D01*
X92141332Y-44640273D01*
X92202491Y-44875470D01*
X92443326Y-44987768D01*
X92701441Y-45050924D01*
X92966919Y-45062511D01*
X93229555Y-45022082D01*
X93479258Y-44931193D01*
X93583509Y-44875470D01*
X93644668Y-44640273D01*
X92893000Y-43888605D01*
X92141332Y-44640273D01*
X78024700Y-44640273D01*
X78024700Y-43782919D01*
X91539489Y-43782919D01*
X91579918Y-44045555D01*
X91670807Y-44295258D01*
X91726530Y-44399509D01*
X91961727Y-44460668D01*
X92713395Y-43709000D01*
X91961727Y-42957332D01*
X91726530Y-43018491D01*
X91614232Y-43259326D01*
X91551076Y-43517441D01*
X91539489Y-43782919D01*
X78024700Y-43782919D01*
X78024700Y-40869022D01*
X78064407Y-40773159D01*
X87530000Y-40773159D01*
X87530000Y-41224841D01*
X87618119Y-41667843D01*
X87790970Y-42085143D01*
X88041910Y-42460702D01*
X88361298Y-42780090D01*
X88736857Y-43031030D01*
X89154157Y-43203881D01*
X89597159Y-43292000D01*
X90048841Y-43292000D01*
X90491843Y-43203881D01*
X90909143Y-43031030D01*
X91284702Y-42780090D01*
X91287065Y-42777727D01*
X92141332Y-42777727D01*
X92893000Y-43529395D01*
X93644668Y-42777727D01*
X93583509Y-42542530D01*
X93342674Y-42430232D01*
X93084559Y-42367076D01*
X92819081Y-42355489D01*
X92556445Y-42395918D01*
X92306742Y-42486807D01*
X92202491Y-42542530D01*
X92141332Y-42777727D01*
X91287065Y-42777727D01*
X91604090Y-42460702D01*
X91855030Y-42085143D01*
X92027881Y-41667843D01*
X92116000Y-41224841D01*
X92116000Y-40773159D01*
X92027881Y-40330157D01*
X91855030Y-39912857D01*
X91604090Y-39537298D01*
X91284702Y-39217910D01*
X90909143Y-38966970D01*
X90491843Y-38794119D01*
X90048841Y-38706000D01*
X89597159Y-38706000D01*
X89154157Y-38794119D01*
X88736857Y-38966970D01*
X88361298Y-39217910D01*
X88041910Y-39537298D01*
X87790970Y-39912857D01*
X87618119Y-40330157D01*
X87530000Y-40773159D01*
X78064407Y-40773159D01*
X78090184Y-40710929D01*
X78126300Y-40529362D01*
X78126300Y-40344238D01*
X78090184Y-40162671D01*
X78024700Y-40004578D01*
X78024700Y-37560500D01*
X78131052Y-37560500D01*
X78286089Y-37529662D01*
X78345079Y-37601541D01*
X78374149Y-37625398D01*
X79564302Y-38815552D01*
X79588159Y-38844622D01*
X79704189Y-38939845D01*
X79836566Y-39010602D01*
X79980203Y-39054174D01*
X80092155Y-39065200D01*
X80092157Y-39065200D01*
X80129580Y-39068886D01*
X80167003Y-39065200D01*
X81186019Y-39065200D01*
X81292038Y-39136040D01*
X81463071Y-39206884D01*
X81644638Y-39243000D01*
X81829762Y-39243000D01*
X82011329Y-39206884D01*
X82182362Y-39136040D01*
X82336287Y-39033190D01*
X82467190Y-38902287D01*
X82570040Y-38748362D01*
X82640884Y-38577329D01*
X82671386Y-38423984D01*
X82791962Y-38374040D01*
X82945887Y-38271190D01*
X83076790Y-38140287D01*
X83179640Y-37986362D01*
X83250484Y-37815329D01*
X83286600Y-37633762D01*
X83286600Y-37448638D01*
X83257434Y-37302013D01*
X83403415Y-37346296D01*
X83636500Y-37369253D01*
X83869584Y-37346296D01*
X84093711Y-37278308D01*
X84300268Y-37167901D01*
X84481318Y-37019318D01*
X84629901Y-36838269D01*
X84740308Y-36631712D01*
X84808296Y-36407585D01*
X84825500Y-36232911D01*
X84825500Y-35008089D01*
X84809210Y-34842690D01*
X89769455Y-34842690D01*
X97286764Y-42360000D01*
X97260135Y-42360000D01*
X96999511Y-42411842D01*
X96754009Y-42513532D01*
X96533063Y-42661163D01*
X96393000Y-42801226D01*
X96252937Y-42661163D01*
X96031991Y-42513532D01*
X95786489Y-42411842D01*
X95525865Y-42360000D01*
X95260135Y-42360000D01*
X94999511Y-42411842D01*
X94754009Y-42513532D01*
X94533063Y-42661163D01*
X94345163Y-42849063D01*
X94197532Y-43070009D01*
X94143489Y-43200481D01*
X94115193Y-43122742D01*
X94059470Y-43018491D01*
X93824273Y-42957332D01*
X93072605Y-43709000D01*
X93824273Y-44460668D01*
X94059470Y-44399509D01*
X94143884Y-44218474D01*
X94197532Y-44347991D01*
X94345163Y-44568937D01*
X94533063Y-44756837D01*
X94754009Y-44904468D01*
X94999511Y-45006158D01*
X95260135Y-45058000D01*
X95525865Y-45058000D01*
X95786489Y-45006158D01*
X96031991Y-44904468D01*
X96252937Y-44756837D01*
X96393000Y-44616774D01*
X96533063Y-44756837D01*
X96754009Y-44904468D01*
X96999511Y-45006158D01*
X97260135Y-45058000D01*
X97525865Y-45058000D01*
X97786489Y-45006158D01*
X98031991Y-44904468D01*
X98252937Y-44756837D01*
X98440837Y-44568937D01*
X98588468Y-44347991D01*
X98643000Y-44216339D01*
X98697532Y-44347991D01*
X98845163Y-44568937D01*
X99033063Y-44756837D01*
X99254009Y-44904468D01*
X99499511Y-45006158D01*
X99760135Y-45058000D01*
X100025865Y-45058000D01*
X100286489Y-45006158D01*
X100531991Y-44904468D01*
X100752937Y-44756837D01*
X100940837Y-44568937D01*
X101088468Y-44347991D01*
X101190158Y-44102489D01*
X101242000Y-43841865D01*
X101242000Y-43576135D01*
X101190158Y-43315511D01*
X101088468Y-43070009D01*
X100940837Y-42849063D01*
X100752937Y-42661163D01*
X100531991Y-42513532D01*
X100286489Y-42411842D01*
X100025865Y-42360000D01*
X99801236Y-42360000D01*
X98214395Y-40773159D01*
X100670000Y-40773159D01*
X100670000Y-41224841D01*
X100758119Y-41667843D01*
X100930970Y-42085143D01*
X101181910Y-42460702D01*
X101501298Y-42780090D01*
X101876857Y-43031030D01*
X102294157Y-43203881D01*
X102737159Y-43292000D01*
X103188841Y-43292000D01*
X103631843Y-43203881D01*
X104049143Y-43031030D01*
X104424702Y-42780090D01*
X104744090Y-42460702D01*
X104995030Y-42085143D01*
X105167881Y-41667843D01*
X105256000Y-41224841D01*
X105256000Y-40773159D01*
X105167881Y-40330157D01*
X104995030Y-39912857D01*
X104744090Y-39537298D01*
X104424702Y-39217910D01*
X104049143Y-38966970D01*
X103631843Y-38794119D01*
X103188841Y-38706000D01*
X102737159Y-38706000D01*
X102294157Y-38794119D01*
X101876857Y-38966970D01*
X101501298Y-39217910D01*
X101181910Y-39537298D01*
X100930970Y-39912857D01*
X100758119Y-40330157D01*
X100670000Y-40773159D01*
X98214395Y-40773159D01*
X92283925Y-34842690D01*
X105995683Y-34842690D01*
X105933004Y-35049315D01*
X105915800Y-35223989D01*
X105915800Y-36448810D01*
X105933004Y-36623484D01*
X106000992Y-36847611D01*
X106111399Y-37054168D01*
X106259982Y-37235218D01*
X106441031Y-37383801D01*
X106647588Y-37494208D01*
X106871715Y-37562196D01*
X107104800Y-37585153D01*
X107337884Y-37562196D01*
X107562011Y-37494208D01*
X107768568Y-37383801D01*
X107949618Y-37235218D01*
X108098201Y-37054169D01*
X108167988Y-36923607D01*
X108275195Y-36816400D01*
X108261053Y-36802258D01*
X108345629Y-36717681D01*
X108344800Y-36721848D01*
X108344800Y-36910952D01*
X108377161Y-37073644D01*
X107981869Y-37468936D01*
X107995477Y-37664670D01*
X108169792Y-37737981D01*
X108355060Y-37775875D01*
X108544161Y-37776897D01*
X108729828Y-37741008D01*
X108880262Y-37679647D01*
X109024778Y-37739508D01*
X109210248Y-37776400D01*
X109392801Y-37776400D01*
X109392800Y-43210959D01*
X109389114Y-43248382D01*
X109392800Y-43285805D01*
X109392800Y-43285807D01*
X109403826Y-43397759D01*
X109419506Y-43449450D01*
X109383116Y-43537305D01*
X109347000Y-43718872D01*
X109347000Y-43903996D01*
X109383116Y-44085563D01*
X109453960Y-44256596D01*
X109556810Y-44410521D01*
X109687713Y-44541424D01*
X109841638Y-44644274D01*
X110012671Y-44715118D01*
X110194238Y-44751234D01*
X110379362Y-44751234D01*
X110560929Y-44715118D01*
X110731962Y-44644274D01*
X110885887Y-44541424D01*
X111016790Y-44410521D01*
X111119640Y-44256596D01*
X111190484Y-44085563D01*
X111226600Y-43903996D01*
X111226600Y-43718872D01*
X111190484Y-43537305D01*
X111119640Y-43366272D01*
X111039247Y-43245955D01*
X111037774Y-43231004D01*
X110994202Y-43087367D01*
X110923445Y-42954990D01*
X110916800Y-42946893D01*
X110916800Y-37776400D01*
X111099352Y-37776400D01*
X111284822Y-37739508D01*
X111429800Y-37679456D01*
X111574778Y-37739508D01*
X111760248Y-37776400D01*
X111949352Y-37776400D01*
X112134822Y-37739508D01*
X112279800Y-37679456D01*
X112424778Y-37739508D01*
X112610248Y-37776400D01*
X112799352Y-37776400D01*
X112869646Y-37762418D01*
X112892979Y-37790848D01*
X112928570Y-37834215D01*
X112959237Y-37871583D01*
X112991213Y-37897825D01*
X113832811Y-38739423D01*
X113859058Y-38771405D01*
X113986690Y-38876150D01*
X114132305Y-38953983D01*
X114290306Y-39001912D01*
X114413452Y-39014041D01*
X114413459Y-39014041D01*
X114454622Y-39018095D01*
X114495785Y-39014041D01*
X114575170Y-39014041D01*
X114698316Y-39001912D01*
X114856317Y-38953983D01*
X115001932Y-38876150D01*
X115129564Y-38771405D01*
X115234309Y-38643773D01*
X115312142Y-38498158D01*
X115360071Y-38340157D01*
X115376255Y-38175841D01*
X115360071Y-38011525D01*
X115312142Y-37853524D01*
X115234309Y-37707909D01*
X115129564Y-37580277D01*
X115001932Y-37475532D01*
X114868253Y-37404079D01*
X114491627Y-37027453D01*
X114514800Y-36910952D01*
X114514800Y-36721848D01*
X114513971Y-36717681D01*
X114598548Y-36802258D01*
X114584405Y-36816400D01*
X114691614Y-36923609D01*
X114761399Y-37054168D01*
X114909982Y-37235218D01*
X115091031Y-37383801D01*
X115297588Y-37494208D01*
X115521715Y-37562196D01*
X115754800Y-37585153D01*
X115987884Y-37562196D01*
X116212011Y-37494208D01*
X116418568Y-37383801D01*
X116599618Y-37235218D01*
X116748201Y-37054169D01*
X116858608Y-36847612D01*
X116926596Y-36623485D01*
X116943800Y-36448811D01*
X116943800Y-35223989D01*
X116926596Y-35049315D01*
X116858608Y-34825188D01*
X116748201Y-34618631D01*
X116599618Y-34437582D01*
X116418569Y-34288999D01*
X116212012Y-34178592D01*
X116105888Y-34146400D01*
X116212011Y-34114208D01*
X116418568Y-34003801D01*
X116599618Y-33855218D01*
X116748201Y-33674169D01*
X116858608Y-33467612D01*
X116860834Y-33460272D01*
X118313400Y-33460272D01*
X118313400Y-33900528D01*
X118399290Y-34332325D01*
X118567769Y-34739069D01*
X118812362Y-35105129D01*
X119123671Y-35416438D01*
X119489731Y-35661031D01*
X119896475Y-35829510D01*
X120328272Y-35915400D01*
X120768528Y-35915400D01*
X121200325Y-35829510D01*
X121607069Y-35661031D01*
X121973129Y-35416438D01*
X122284438Y-35105129D01*
X122529031Y-34739069D01*
X122697510Y-34332325D01*
X122783400Y-33900528D01*
X122783400Y-33460272D01*
X122697510Y-33028475D01*
X122529031Y-32621731D01*
X122284438Y-32255671D01*
X121973129Y-31944362D01*
X121607069Y-31699769D01*
X121200325Y-31531290D01*
X120768528Y-31445400D01*
X120328272Y-31445400D01*
X119896475Y-31531290D01*
X119489731Y-31699769D01*
X119123671Y-31944362D01*
X118812362Y-32255671D01*
X118567769Y-32621731D01*
X118399290Y-33028475D01*
X118313400Y-33460272D01*
X116860834Y-33460272D01*
X116926596Y-33243485D01*
X116943800Y-33068811D01*
X116943800Y-31843989D01*
X116926596Y-31669315D01*
X116858608Y-31445188D01*
X116748201Y-31238631D01*
X116599618Y-31057582D01*
X116418569Y-30908999D01*
X116233108Y-30809868D01*
X130414928Y-30800168D01*
X130414928Y-30940506D01*
G36*
X76226500Y-36505948D02*
G01*
X76226500Y-36639244D01*
X76184677Y-36656567D01*
X76142753Y-36614643D01*
X76156895Y-36600500D01*
X76142753Y-36586358D01*
X76227329Y-36501781D01*
X76226500Y-36505948D01*
G37*
X76226500Y-36505948D02*
X76226500Y-36639244D01*
X76184677Y-36656567D01*
X76142753Y-36614643D01*
X76156895Y-36600500D01*
X76142753Y-36586358D01*
X76227329Y-36501781D01*
X76226500Y-36505948D01*
G36*
X82480248Y-36586358D02*
G01*
X82466105Y-36600500D01*
X82473869Y-36608264D01*
X82439362Y-36601400D01*
X82396500Y-36601400D01*
X82396500Y-36505948D01*
X82395671Y-36501781D01*
X82480248Y-36586358D01*
G37*
X82480248Y-36586358D02*
X82466105Y-36600500D01*
X82473869Y-36608264D01*
X82439362Y-36601400D01*
X82396500Y-36601400D01*
X82396500Y-36505948D01*
X82395671Y-36501781D01*
X82480248Y-36586358D01*
G36*
X108344800Y-35371848D02*
G01*
X108344800Y-35560952D01*
X108345629Y-35565119D01*
X108293800Y-35513290D01*
X108293800Y-35419510D01*
X108345629Y-35367681D01*
X108344800Y-35371848D01*
G37*
X108344800Y-35371848D02*
X108344800Y-35560952D01*
X108345629Y-35565119D01*
X108293800Y-35513290D01*
X108293800Y-35419510D01*
X108345629Y-35367681D01*
X108344800Y-35371848D01*
G36*
X114565800Y-35419510D02*
G01*
X114565800Y-35513290D01*
X114513971Y-35565119D01*
X114514800Y-35560952D01*
X114514800Y-35371848D01*
X114513971Y-35367681D01*
X114565800Y-35419510D01*
G37*
X114565800Y-35419510D02*
X114565800Y-35513290D01*
X114513971Y-35565119D01*
X114514800Y-35560952D01*
X114514800Y-35371848D01*
X114513971Y-35367681D01*
X114565800Y-35419510D01*
G36*
X76226500Y-35155948D02*
G01*
X76226500Y-35345052D01*
X76227329Y-35349219D01*
X76175500Y-35297390D01*
X76175500Y-35203610D01*
X76227329Y-35151781D01*
X76226500Y-35155948D01*
G37*
X76226500Y-35155948D02*
X76226500Y-35345052D01*
X76227329Y-35349219D01*
X76175500Y-35297390D01*
X76175500Y-35203610D01*
X76227329Y-35151781D01*
X76226500Y-35155948D01*
G36*
X82447500Y-35203610D02*
G01*
X82447500Y-35297390D01*
X82395671Y-35349219D01*
X82396500Y-35345052D01*
X82396500Y-35155948D01*
X82395671Y-35151781D01*
X82447500Y-35203610D01*
G37*
X82447500Y-35203610D02*
X82447500Y-35297390D01*
X82395671Y-35349219D01*
X82396500Y-35345052D01*
X82396500Y-35155948D01*
X82395671Y-35151781D01*
X82447500Y-35203610D01*
M02*
