G04 #@! TF.GenerationSoftware,KiCad,Pcbnew,(5.1.6)-1*
G04 #@! TF.CreationDate,2021-03-14T20:25:08+01:00*
G04 #@! TF.ProjectId,ErgoDOX_small,4572676f-444f-4585-9f73-6d616c6c2e6b,rev?*
G04 #@! TF.SameCoordinates,Original*
G04 #@! TF.FileFunction,OtherDrawing,Comment*
%FSLAX46Y46*%
G04 Gerber Fmt 4.6, Leading zero omitted, Abs format (unit mm)*
G04 Created by KiCad (PCBNEW (5.1.6)-1) date 2021-03-14 20:25:08*
%MOMM*%
%LPD*%
G01*
G04 APERTURE LIST*
%ADD10C,0.015000*%
G04 APERTURE END LIST*
D10*
X107808936Y-32264270D02*
X108418819Y-32492976D01*
X107808936Y-32721682D01*
X108799996Y-32797918D02*
X108799996Y-31997446D01*
X109104938Y-31997446D01*
X109181173Y-32035564D01*
X109219291Y-32073681D01*
X109257409Y-32149917D01*
X109257409Y-32264270D01*
X109219291Y-32340505D01*
X109181173Y-32378623D01*
X109104938Y-32416741D01*
X108799996Y-32416741D01*
X110057881Y-32721682D02*
X110019763Y-32759800D01*
X109905410Y-32797918D01*
X109829174Y-32797918D01*
X109714821Y-32759800D01*
X109638586Y-32683565D01*
X109600468Y-32607329D01*
X109562350Y-32454858D01*
X109562350Y-32340505D01*
X109600468Y-32188034D01*
X109638586Y-32111799D01*
X109714821Y-32035564D01*
X109829174Y-31997446D01*
X109905410Y-31997446D01*
X110019763Y-32035564D01*
X110057881Y-32073681D01*
X110667764Y-32378623D02*
X110782117Y-32416741D01*
X110820235Y-32454858D01*
X110858353Y-32531094D01*
X110858353Y-32645447D01*
X110820235Y-32721682D01*
X110782117Y-32759800D01*
X110705882Y-32797918D01*
X110400940Y-32797918D01*
X110400940Y-31997446D01*
X110667764Y-31997446D01*
X110744000Y-32035564D01*
X110782117Y-32073681D01*
X110820235Y-32149917D01*
X110820235Y-32226152D01*
X110782117Y-32302388D01*
X110744000Y-32340505D01*
X110667764Y-32378623D01*
X110400940Y-32378623D01*
X111010824Y-31839960D02*
X111735060Y-31839960D01*
X111201412Y-32378623D02*
X111468236Y-32378623D01*
X111582589Y-32797918D02*
X111201412Y-32797918D01*
X111201412Y-31997446D01*
X111582589Y-31997446D01*
X111735060Y-31839960D02*
X112459297Y-31839960D01*
X112268708Y-32797918D02*
X112268708Y-31997446D01*
X112268708Y-32759800D02*
X112192473Y-32797918D01*
X112040002Y-32797918D01*
X111963766Y-32759800D01*
X111925649Y-32721682D01*
X111887531Y-32645447D01*
X111887531Y-32416741D01*
X111925649Y-32340505D01*
X111963766Y-32302388D01*
X112040002Y-32264270D01*
X112192473Y-32264270D01*
X112268708Y-32302388D01*
X112459297Y-31839960D02*
X113183533Y-31839960D01*
X112992945Y-32264270D02*
X112992945Y-32912271D01*
X112954827Y-32988506D01*
X112916709Y-33026624D01*
X112840474Y-33064742D01*
X112726121Y-33064742D01*
X112649885Y-33026624D01*
X112992945Y-32759800D02*
X112916709Y-32797918D01*
X112764238Y-32797918D01*
X112688003Y-32759800D01*
X112649885Y-32721682D01*
X112611768Y-32645447D01*
X112611768Y-32416741D01*
X112649885Y-32340505D01*
X112688003Y-32302388D01*
X112764238Y-32264270D01*
X112916709Y-32264270D01*
X112992945Y-32302388D01*
X113183533Y-31839960D02*
X113869652Y-31839960D01*
X113679064Y-32759800D02*
X113602828Y-32797918D01*
X113450357Y-32797918D01*
X113374122Y-32759800D01*
X113336004Y-32683565D01*
X113336004Y-32378623D01*
X113374122Y-32302388D01*
X113450357Y-32264270D01*
X113602828Y-32264270D01*
X113679064Y-32302388D01*
X113717181Y-32378623D01*
X113717181Y-32454858D01*
X113336004Y-32531094D01*
X75246136Y-26485770D02*
X75856019Y-26714476D01*
X75246136Y-26943182D01*
X76237196Y-27019418D02*
X76237196Y-26218946D01*
X76542138Y-26218946D01*
X76618373Y-26257064D01*
X76656491Y-26295181D01*
X76694609Y-26371417D01*
X76694609Y-26485770D01*
X76656491Y-26562005D01*
X76618373Y-26600123D01*
X76542138Y-26638241D01*
X76237196Y-26638241D01*
X77495081Y-26943182D02*
X77456963Y-26981300D01*
X77342610Y-27019418D01*
X77266374Y-27019418D01*
X77152021Y-26981300D01*
X77075786Y-26905065D01*
X77037668Y-26828829D01*
X76999550Y-26676358D01*
X76999550Y-26562005D01*
X77037668Y-26409534D01*
X77075786Y-26333299D01*
X77152021Y-26257064D01*
X77266374Y-26218946D01*
X77342610Y-26218946D01*
X77456963Y-26257064D01*
X77495081Y-26295181D01*
X78104964Y-26600123D02*
X78219317Y-26638241D01*
X78257435Y-26676358D01*
X78295553Y-26752594D01*
X78295553Y-26866947D01*
X78257435Y-26943182D01*
X78219317Y-26981300D01*
X78143082Y-27019418D01*
X77838140Y-27019418D01*
X77838140Y-26218946D01*
X78104964Y-26218946D01*
X78181200Y-26257064D01*
X78219317Y-26295181D01*
X78257435Y-26371417D01*
X78257435Y-26447652D01*
X78219317Y-26523888D01*
X78181200Y-26562005D01*
X78104964Y-26600123D01*
X77838140Y-26600123D01*
X78448024Y-26061460D02*
X79172260Y-26061460D01*
X78638612Y-26600123D02*
X78905436Y-26600123D01*
X79019789Y-27019418D02*
X78638612Y-27019418D01*
X78638612Y-26218946D01*
X79019789Y-26218946D01*
X79172260Y-26061460D02*
X79896497Y-26061460D01*
X79705908Y-27019418D02*
X79705908Y-26218946D01*
X79705908Y-26981300D02*
X79629673Y-27019418D01*
X79477202Y-27019418D01*
X79400966Y-26981300D01*
X79362849Y-26943182D01*
X79324731Y-26866947D01*
X79324731Y-26638241D01*
X79362849Y-26562005D01*
X79400966Y-26523888D01*
X79477202Y-26485770D01*
X79629673Y-26485770D01*
X79705908Y-26523888D01*
X79896497Y-26061460D02*
X80620733Y-26061460D01*
X80430145Y-26485770D02*
X80430145Y-27133771D01*
X80392027Y-27210006D01*
X80353909Y-27248124D01*
X80277674Y-27286242D01*
X80163321Y-27286242D01*
X80087085Y-27248124D01*
X80430145Y-26981300D02*
X80353909Y-27019418D01*
X80201438Y-27019418D01*
X80125203Y-26981300D01*
X80087085Y-26943182D01*
X80048968Y-26866947D01*
X80048968Y-26638241D01*
X80087085Y-26562005D01*
X80125203Y-26523888D01*
X80201438Y-26485770D01*
X80353909Y-26485770D01*
X80430145Y-26523888D01*
X80620733Y-26061460D02*
X81306852Y-26061460D01*
X81116264Y-26981300D02*
X81040028Y-27019418D01*
X80887557Y-27019418D01*
X80811322Y-26981300D01*
X80773204Y-26905065D01*
X80773204Y-26600123D01*
X80811322Y-26523888D01*
X80887557Y-26485770D01*
X81040028Y-26485770D01*
X81116264Y-26523888D01*
X81154381Y-26600123D01*
X81154381Y-26676358D01*
X80773204Y-26752594D01*
M02*
