G04 #@! TF.GenerationSoftware,KiCad,Pcbnew,(5.1.6)-1*
G04 #@! TF.CreationDate,2021-03-14T20:17:39+01:00*
G04 #@! TF.ProjectId,ErgoDOX,4572676f-444f-4582-9e6b-696361645f70,rev?*
G04 #@! TF.SameCoordinates,Original*
G04 #@! TF.FileFunction,Legend,Top*
G04 #@! TF.FilePolarity,Positive*
%FSLAX46Y46*%
G04 Gerber Fmt 4.6, Leading zero omitted, Abs format (unit mm)*
G04 Created by KiCad (PCBNEW (5.1.6)-1) date 2021-03-14 20:17:39*
%MOMM*%
%LPD*%
G01*
G04 APERTURE LIST*
%ADD10C,0.304800*%
%ADD11C,0.120000*%
%ADD12C,0.150000*%
%ADD13C,0.100000*%
%ADD14C,0.200000*%
%ADD15C,0.015000*%
G04 APERTURE END LIST*
D10*
X115809485Y-45778057D02*
X115712723Y-45705485D01*
X115615961Y-45487771D01*
X115615961Y-45342628D01*
X115712723Y-45124914D01*
X115906247Y-44979771D01*
X116099771Y-44907200D01*
X116486819Y-44834628D01*
X116777104Y-44834628D01*
X117164152Y-44907200D01*
X117357676Y-44979771D01*
X117551200Y-45124914D01*
X117647961Y-45342628D01*
X117647961Y-45487771D01*
X117551200Y-45705485D01*
X117454438Y-45778057D01*
X116970628Y-47084342D02*
X115615961Y-47084342D01*
X116970628Y-46431200D02*
X115906247Y-46431200D01*
X115712723Y-46503771D01*
X115615961Y-46648914D01*
X115615961Y-46866628D01*
X115712723Y-47011771D01*
X115809485Y-47084342D01*
X115712723Y-47737485D02*
X115615961Y-47882628D01*
X115615961Y-48172914D01*
X115712723Y-48318057D01*
X115906247Y-48390628D01*
X116003009Y-48390628D01*
X116196533Y-48318057D01*
X116293295Y-48172914D01*
X116293295Y-47955200D01*
X116390057Y-47810057D01*
X116583580Y-47737485D01*
X116680342Y-47737485D01*
X116873866Y-47810057D01*
X116970628Y-47955200D01*
X116970628Y-48172914D01*
X116873866Y-48318057D01*
X116970628Y-48826057D02*
X116970628Y-49406628D01*
X117647961Y-49043771D02*
X115906247Y-49043771D01*
X115712723Y-49116342D01*
X115615961Y-49261485D01*
X115615961Y-49406628D01*
X115615961Y-50132342D02*
X115712723Y-49987200D01*
X115809485Y-49914628D01*
X116003009Y-49842057D01*
X116583580Y-49842057D01*
X116777104Y-49914628D01*
X116873866Y-49987200D01*
X116970628Y-50132342D01*
X116970628Y-50350057D01*
X116873866Y-50495200D01*
X116777104Y-50567771D01*
X116583580Y-50640342D01*
X116003009Y-50640342D01*
X115809485Y-50567771D01*
X115712723Y-50495200D01*
X115615961Y-50350057D01*
X115615961Y-50132342D01*
X115615961Y-51293485D02*
X116970628Y-51293485D01*
X116777104Y-51293485D02*
X116873866Y-51366057D01*
X116970628Y-51511200D01*
X116970628Y-51728914D01*
X116873866Y-51874057D01*
X116680342Y-51946628D01*
X115615961Y-51946628D01*
X116680342Y-51946628D02*
X116873866Y-52019200D01*
X116970628Y-52164342D01*
X116970628Y-52382057D01*
X116873866Y-52527200D01*
X116680342Y-52599771D01*
X115615961Y-52599771D01*
X115615961Y-54486628D02*
X117647961Y-54486628D01*
X115615961Y-55357485D02*
X116777104Y-54704342D01*
X117647961Y-55357485D02*
X116486819Y-54486628D01*
X115712723Y-56591200D02*
X115615961Y-56446057D01*
X115615961Y-56155771D01*
X115712723Y-56010628D01*
X115906247Y-55938057D01*
X116680342Y-55938057D01*
X116873866Y-56010628D01*
X116970628Y-56155771D01*
X116970628Y-56446057D01*
X116873866Y-56591200D01*
X116680342Y-56663771D01*
X116486819Y-56663771D01*
X116293295Y-55938057D01*
X116970628Y-57171771D02*
X115615961Y-57534628D01*
X116970628Y-57897485D02*
X115615961Y-57534628D01*
X115132152Y-57389485D01*
X115035390Y-57316914D01*
X114938628Y-57171771D01*
X115615961Y-58478057D02*
X117647961Y-58478057D01*
X116873866Y-58478057D02*
X116970628Y-58623200D01*
X116970628Y-58913485D01*
X116873866Y-59058628D01*
X116777104Y-59131200D01*
X116583580Y-59203771D01*
X116003009Y-59203771D01*
X115809485Y-59131200D01*
X115712723Y-59058628D01*
X115615961Y-58913485D01*
X115615961Y-58623200D01*
X115712723Y-58478057D01*
X115615961Y-60074628D02*
X115712723Y-59929485D01*
X115809485Y-59856914D01*
X116003009Y-59784342D01*
X116583580Y-59784342D01*
X116777104Y-59856914D01*
X116873866Y-59929485D01*
X116970628Y-60074628D01*
X116970628Y-60292342D01*
X116873866Y-60437485D01*
X116777104Y-60510057D01*
X116583580Y-60582628D01*
X116003009Y-60582628D01*
X115809485Y-60510057D01*
X115712723Y-60437485D01*
X115615961Y-60292342D01*
X115615961Y-60074628D01*
X115615961Y-61888914D02*
X116680342Y-61888914D01*
X116873866Y-61816342D01*
X116970628Y-61671200D01*
X116970628Y-61380914D01*
X116873866Y-61235771D01*
X115712723Y-61888914D02*
X115615961Y-61743771D01*
X115615961Y-61380914D01*
X115712723Y-61235771D01*
X115906247Y-61163200D01*
X116099771Y-61163200D01*
X116293295Y-61235771D01*
X116390057Y-61380914D01*
X116390057Y-61743771D01*
X116486819Y-61888914D01*
X115615961Y-62614628D02*
X116970628Y-62614628D01*
X116583580Y-62614628D02*
X116777104Y-62687200D01*
X116873866Y-62759771D01*
X116970628Y-62904914D01*
X116970628Y-63050057D01*
X115615961Y-64211200D02*
X117647961Y-64211200D01*
X115712723Y-64211200D02*
X115615961Y-64066057D01*
X115615961Y-63775771D01*
X115712723Y-63630628D01*
X115809485Y-63558057D01*
X116003009Y-63485485D01*
X116583580Y-63485485D01*
X116777104Y-63558057D01*
X116873866Y-63630628D01*
X116970628Y-63775771D01*
X116970628Y-64066057D01*
X116873866Y-64211200D01*
X117647961Y-65880342D02*
X115615961Y-66388342D01*
X117647961Y-66896342D01*
X115615961Y-68202628D02*
X115615961Y-67331771D01*
X115615961Y-67767200D02*
X117647961Y-67767200D01*
X117357676Y-67622057D01*
X117164152Y-67476914D01*
X117067390Y-67331771D01*
X115809485Y-68855771D02*
X115712723Y-68928342D01*
X115615961Y-68855771D01*
X115712723Y-68783200D01*
X115809485Y-68855771D01*
X115615961Y-68855771D01*
X115615961Y-70379771D02*
X115615961Y-69508914D01*
X115615961Y-69944342D02*
X117647961Y-69944342D01*
X117357676Y-69799200D01*
X117164152Y-69654057D01*
X117067390Y-69508914D01*
X112359923Y-54668057D02*
X112263161Y-54885771D01*
X112263161Y-55248628D01*
X112359923Y-55393771D01*
X112456685Y-55466342D01*
X112650209Y-55538914D01*
X112843733Y-55538914D01*
X113037257Y-55466342D01*
X113134019Y-55393771D01*
X113230780Y-55248628D01*
X113327542Y-54958342D01*
X113424304Y-54813200D01*
X113521066Y-54740628D01*
X113714590Y-54668057D01*
X113908114Y-54668057D01*
X114101638Y-54740628D01*
X114198400Y-54813200D01*
X114295161Y-54958342D01*
X114295161Y-55321200D01*
X114198400Y-55538914D01*
X112263161Y-56192057D02*
X113617828Y-56192057D01*
X113424304Y-56192057D02*
X113521066Y-56264628D01*
X113617828Y-56409771D01*
X113617828Y-56627485D01*
X113521066Y-56772628D01*
X113327542Y-56845200D01*
X112263161Y-56845200D01*
X113327542Y-56845200D02*
X113521066Y-56917771D01*
X113617828Y-57062914D01*
X113617828Y-57280628D01*
X113521066Y-57425771D01*
X113327542Y-57498342D01*
X112263161Y-57498342D01*
X112263161Y-58877200D02*
X113327542Y-58877200D01*
X113521066Y-58804628D01*
X113617828Y-58659485D01*
X113617828Y-58369200D01*
X113521066Y-58224057D01*
X112359923Y-58877200D02*
X112263161Y-58732057D01*
X112263161Y-58369200D01*
X112359923Y-58224057D01*
X112553447Y-58151485D01*
X112746971Y-58151485D01*
X112940495Y-58224057D01*
X113037257Y-58369200D01*
X113037257Y-58732057D01*
X113134019Y-58877200D01*
X112263161Y-59820628D02*
X112359923Y-59675485D01*
X112553447Y-59602914D01*
X114295161Y-59602914D01*
X112263161Y-60618914D02*
X112359923Y-60473771D01*
X112553447Y-60401200D01*
X114295161Y-60401200D01*
D11*
X72520280Y-73817525D02*
X72520280Y-75021653D01*
X74340280Y-73817525D02*
X74340280Y-75021653D01*
X75111080Y-73795125D02*
X75111080Y-74999253D01*
X76931080Y-73795125D02*
X76931080Y-74999253D01*
X98130000Y-48906000D02*
X98130000Y-46456000D01*
X94910000Y-47106000D02*
X94910000Y-48906000D01*
X73512000Y-41051564D02*
X73512000Y-39847436D01*
X75332000Y-41051564D02*
X75332000Y-39847436D01*
D12*
X66902175Y-50058866D02*
X66902175Y-51183866D01*
X76582175Y-50058866D02*
X76582175Y-45908866D01*
X66422175Y-50058866D02*
X66422175Y-45908866D01*
X76582175Y-50058866D02*
X76102175Y-50058866D01*
X76582175Y-45908866D02*
X76102175Y-45908866D01*
X66422175Y-45908866D02*
X66902175Y-45908866D01*
X66422175Y-50058866D02*
X66902175Y-50058866D01*
D11*
X63948000Y-60646000D02*
X65278000Y-60646000D01*
X63948000Y-61976000D02*
X63948000Y-60646000D01*
X63948000Y-63246000D02*
X66608000Y-63246000D01*
X66608000Y-63246000D02*
X66608000Y-63306000D01*
X63948000Y-63246000D02*
X63948000Y-63306000D01*
X63948000Y-63306000D02*
X66608000Y-63306000D01*
D13*
G36*
X97817500Y-60286000D02*
G01*
X97563500Y-60032000D01*
X97944500Y-59778000D01*
X98198500Y-60032000D01*
X97817500Y-60286000D01*
G37*
X97817500Y-60286000D02*
X97563500Y-60032000D01*
X97944500Y-59778000D01*
X98198500Y-60032000D01*
X97817500Y-60286000D01*
G36*
X96801500Y-61048000D02*
G01*
X96547500Y-60794000D01*
X96928500Y-60540000D01*
X97182500Y-60794000D01*
X96801500Y-61048000D01*
G37*
X96801500Y-61048000D02*
X96547500Y-60794000D01*
X96928500Y-60540000D01*
X97182500Y-60794000D01*
X96801500Y-61048000D01*
G36*
X97563500Y-61810000D02*
G01*
X97309500Y-61556000D01*
X97690500Y-61302000D01*
X97944500Y-61556000D01*
X97563500Y-61810000D01*
G37*
X97563500Y-61810000D02*
X97309500Y-61556000D01*
X97690500Y-61302000D01*
X97944500Y-61556000D01*
X97563500Y-61810000D01*
G36*
X97436500Y-59905000D02*
G01*
X97182500Y-59651000D01*
X97563500Y-59397000D01*
X97817500Y-59651000D01*
X97436500Y-59905000D01*
G37*
X97436500Y-59905000D02*
X97182500Y-59651000D01*
X97563500Y-59397000D01*
X97817500Y-59651000D01*
X97436500Y-59905000D01*
G36*
X97182500Y-61429000D02*
G01*
X96928500Y-61175000D01*
X97309500Y-60921000D01*
X97563500Y-61175000D01*
X97182500Y-61429000D01*
G37*
X97182500Y-61429000D02*
X96928500Y-61175000D01*
X97309500Y-60921000D01*
X97563500Y-61175000D01*
X97182500Y-61429000D01*
G36*
X97944500Y-59524000D02*
G01*
X97690500Y-59270000D01*
X98071500Y-59016000D01*
X98325500Y-59270000D01*
X97944500Y-59524000D01*
G37*
X97944500Y-59524000D02*
X97690500Y-59270000D01*
X98071500Y-59016000D01*
X98325500Y-59270000D01*
X97944500Y-59524000D01*
G36*
X97309500Y-60667000D02*
G01*
X97055500Y-60413000D01*
X97436500Y-60159000D01*
X97690500Y-60413000D01*
X97309500Y-60667000D01*
G37*
X97309500Y-60667000D02*
X97055500Y-60413000D01*
X97436500Y-60159000D01*
X97690500Y-60413000D01*
X97309500Y-60667000D01*
G36*
X96928500Y-60286000D02*
G01*
X96674500Y-60032000D01*
X97055500Y-59778000D01*
X97309500Y-60032000D01*
X96928500Y-60286000D01*
G37*
X96928500Y-60286000D02*
X96674500Y-60032000D01*
X97055500Y-59778000D01*
X97309500Y-60032000D01*
X96928500Y-60286000D01*
D12*
X72961500Y-71755000D02*
X72961500Y-53975000D01*
X108521500Y-71755000D02*
X72961500Y-71755000D01*
X108521500Y-53975000D02*
X108521500Y-71755000D01*
X72961500Y-53975000D02*
X108521500Y-53975000D01*
X103441500Y-60615000D02*
X105981500Y-60615000D01*
X103441500Y-65115000D02*
X103441500Y-60615000D01*
X105981500Y-65115000D02*
X103441500Y-65115000D01*
X105991500Y-60615000D02*
X105981500Y-65115000D01*
X78041500Y-66675000D02*
X72961500Y-66675000D01*
X78041500Y-59055000D02*
X72961500Y-59055000D01*
X78041500Y-66675000D02*
X78041500Y-59055000D01*
X71691500Y-59055000D02*
X72961500Y-59055000D01*
X71691500Y-66675000D02*
X71691500Y-59055000D01*
X72961500Y-66675000D02*
X71691500Y-66675000D01*
X102741500Y-62865000D02*
X97741500Y-57865000D01*
X97741500Y-57865000D02*
X92741500Y-62865000D01*
X92741500Y-62865000D02*
X97741500Y-67865000D01*
X97741500Y-67865000D02*
X102741500Y-62865000D01*
X103741500Y-62115000D02*
X103741500Y-63615000D01*
X105741500Y-63615000D02*
X105741500Y-62115000D01*
X105991500Y-61115000D02*
X105491500Y-60615000D01*
X105491500Y-60615000D02*
X103991500Y-60615000D01*
X103491500Y-61115000D02*
X103991500Y-60615000D01*
X105991500Y-64615000D02*
X105491500Y-65115000D01*
X103441500Y-65115000D02*
X103991500Y-65115000D01*
X103991500Y-65115000D02*
X103491500Y-64615000D01*
X103741500Y-62115000D02*
G75*
G02*
X105741500Y-62115000I1000000J0D01*
G01*
X105741500Y-63615000D02*
G75*
G02*
X103741500Y-63615000I-1000000J0D01*
G01*
D11*
X64353064Y-44492500D02*
X63148936Y-44492500D01*
X64353064Y-46312500D02*
X63148936Y-46312500D01*
X100795500Y-48230064D02*
X100795500Y-47025936D01*
X98975500Y-48230064D02*
X98975500Y-47025936D01*
X118712064Y-40661000D02*
X117507936Y-40661000D01*
X118712064Y-38841000D02*
X117507936Y-38841000D01*
X133040800Y-59999964D02*
X133040800Y-58795836D01*
X131220800Y-59999964D02*
X131220800Y-58795836D01*
X95825000Y-73663500D02*
X97155000Y-73663500D01*
X95825000Y-74993500D02*
X95825000Y-73663500D01*
X95825000Y-76263500D02*
X98485000Y-76263500D01*
X98485000Y-76263500D02*
X98485000Y-76323500D01*
X95825000Y-76263500D02*
X95825000Y-76323500D01*
X95825000Y-76323500D02*
X98485000Y-76323500D01*
X93259600Y-76323500D02*
X95919600Y-76323500D01*
X93259600Y-76263500D02*
X93259600Y-76323500D01*
X95919600Y-76263500D02*
X95919600Y-76323500D01*
X93259600Y-76263500D02*
X95919600Y-76263500D01*
X93259600Y-74993500D02*
X93259600Y-73663500D01*
X93259600Y-73663500D02*
X94589600Y-73663500D01*
X90681500Y-73663500D02*
X92011500Y-73663500D01*
X90681500Y-74993500D02*
X90681500Y-73663500D01*
X90681500Y-76263500D02*
X93341500Y-76263500D01*
X93341500Y-76263500D02*
X93341500Y-76323500D01*
X90681500Y-76263500D02*
X90681500Y-76323500D01*
X90681500Y-76323500D02*
X93341500Y-76323500D01*
X100841500Y-76323500D02*
X103501500Y-76323500D01*
X100841500Y-76263500D02*
X100841500Y-76323500D01*
X103501500Y-76263500D02*
X103501500Y-76323500D01*
X100841500Y-76263500D02*
X103501500Y-76263500D01*
X100841500Y-74993500D02*
X100841500Y-73663500D01*
X100841500Y-73663500D02*
X102171500Y-73663500D01*
X85601500Y-73663500D02*
X86931500Y-73663500D01*
X85601500Y-74993500D02*
X85601500Y-73663500D01*
X85601500Y-76263500D02*
X88261500Y-76263500D01*
X88261500Y-76263500D02*
X88261500Y-76323500D01*
X85601500Y-76263500D02*
X85601500Y-76323500D01*
X85601500Y-76323500D02*
X88261500Y-76323500D01*
X83061500Y-76330000D02*
X85721500Y-76330000D01*
X83061500Y-76270000D02*
X83061500Y-76330000D01*
X85721500Y-76270000D02*
X85721500Y-76330000D01*
X83061500Y-76270000D02*
X85721500Y-76270000D01*
X83061500Y-75000000D02*
X83061500Y-73670000D01*
X83061500Y-73670000D02*
X84391500Y-73670000D01*
X77981500Y-73670000D02*
X79311500Y-73670000D01*
X77981500Y-75000000D02*
X77981500Y-73670000D01*
X77981500Y-76270000D02*
X80641500Y-76270000D01*
X80641500Y-76270000D02*
X80641500Y-76330000D01*
X77981500Y-76270000D02*
X77981500Y-76330000D01*
X77981500Y-76330000D02*
X80641500Y-76330000D01*
X115052800Y-76330000D02*
X117712800Y-76330000D01*
X115052800Y-76270000D02*
X115052800Y-76330000D01*
X117712800Y-76270000D02*
X117712800Y-76330000D01*
X115052800Y-76270000D02*
X117712800Y-76270000D01*
X115052800Y-75000000D02*
X115052800Y-73670000D01*
X115052800Y-73670000D02*
X116382800Y-73670000D01*
X112462000Y-73670000D02*
X113792000Y-73670000D01*
X112462000Y-75000000D02*
X112462000Y-73670000D01*
X112462000Y-76270000D02*
X115122000Y-76270000D01*
X115122000Y-76270000D02*
X115122000Y-76330000D01*
X112462000Y-76270000D02*
X112462000Y-76330000D01*
X112462000Y-76330000D02*
X115122000Y-76330000D01*
X109871200Y-76330000D02*
X112531200Y-76330000D01*
X109871200Y-76270000D02*
X109871200Y-76330000D01*
X112531200Y-76270000D02*
X112531200Y-76330000D01*
X109871200Y-76270000D02*
X112531200Y-76270000D01*
X109871200Y-75000000D02*
X109871200Y-73670000D01*
X109871200Y-73670000D02*
X111201200Y-73670000D01*
X105908800Y-73670000D02*
X107238800Y-73670000D01*
X105908800Y-75000000D02*
X105908800Y-73670000D01*
X105908800Y-76270000D02*
X108568800Y-76270000D01*
X108568800Y-76270000D02*
X108568800Y-76330000D01*
X105908800Y-76270000D02*
X105908800Y-76330000D01*
X105908800Y-76330000D02*
X108568800Y-76330000D01*
X98301500Y-76323500D02*
X100961500Y-76323500D01*
X98301500Y-76263500D02*
X98301500Y-76323500D01*
X100961500Y-76263500D02*
X100961500Y-76323500D01*
X98301500Y-76263500D02*
X100961500Y-76263500D01*
X98301500Y-74993500D02*
X98301500Y-73663500D01*
X98301500Y-73663500D02*
X99631500Y-73663500D01*
X88141500Y-73663500D02*
X89471500Y-73663500D01*
X88141500Y-74993500D02*
X88141500Y-73663500D01*
X88141500Y-76263500D02*
X90801500Y-76263500D01*
X90801500Y-76263500D02*
X90801500Y-76323500D01*
X88141500Y-76263500D02*
X88141500Y-76323500D01*
X88141500Y-76323500D02*
X90801500Y-76323500D01*
D14*
X115904800Y-37376400D02*
X106954800Y-37376400D01*
X115904800Y-31066400D02*
X115904800Y-30716400D01*
X115904800Y-30716400D02*
X106954800Y-30716400D01*
X106954800Y-30716400D02*
X106954800Y-31066400D01*
D11*
X63948000Y-66100000D02*
X66608000Y-66100000D01*
X63948000Y-66040000D02*
X63948000Y-66100000D01*
X66608000Y-66040000D02*
X66608000Y-66100000D01*
X63948000Y-66040000D02*
X66608000Y-66040000D01*
X63948000Y-64770000D02*
X63948000Y-63440000D01*
X63948000Y-63440000D02*
X65278000Y-63440000D01*
X78582436Y-51011500D02*
X79786564Y-51011500D01*
X78582436Y-49191500D02*
X79786564Y-49191500D01*
X130851600Y-62081100D02*
X132181600Y-62081100D01*
X130851600Y-63411100D02*
X130851600Y-62081100D01*
X130851600Y-64681100D02*
X133511600Y-64681100D01*
X133511600Y-64681100D02*
X133511600Y-69821100D01*
X130851600Y-64681100D02*
X130851600Y-69821100D01*
X130851600Y-69821100D02*
X133511600Y-69821100D01*
X65755500Y-56451500D02*
X65755500Y-51451500D01*
X60355500Y-56451500D02*
X60355500Y-51451500D01*
X65755500Y-56451500D02*
G75*
G02*
X60355500Y-56451500I-2700000J0D01*
G01*
X65755500Y-51451500D02*
G75*
G03*
X60355500Y-51451500I-2700000J0D01*
G01*
X67830541Y-30503094D02*
X67830541Y-34388094D01*
X70100541Y-30503094D02*
X67830541Y-30503094D01*
X70100541Y-34388094D02*
X70100541Y-30503094D01*
X65417541Y-31188094D02*
X65417541Y-35073094D01*
X65417541Y-35073094D02*
X67687541Y-35073094D01*
X67687541Y-35073094D02*
X67687541Y-31188094D01*
X63004541Y-30503094D02*
X63004541Y-34388094D01*
X65274541Y-30503094D02*
X63004541Y-30503094D01*
X65274541Y-34388094D02*
X65274541Y-30503094D01*
X60528041Y-31188094D02*
X60528041Y-35073094D01*
X60528041Y-35073094D02*
X62798041Y-35073094D01*
X62798041Y-35073094D02*
X62798041Y-31188094D01*
X70239000Y-30481000D02*
X70239000Y-34366000D01*
X72509000Y-30481000D02*
X70239000Y-30481000D01*
X72509000Y-34366000D02*
X72509000Y-30481000D01*
X130682500Y-46612737D02*
X130526500Y-46612737D01*
X132998500Y-46612737D02*
X132842500Y-46612737D01*
X132841108Y-49845072D02*
G75*
G03*
X132998016Y-46612737I-1078608J1672335D01*
G01*
X130683892Y-49845072D02*
G75*
G02*
X130526984Y-46612737I1078608J1672335D01*
G01*
X132842337Y-49213867D02*
G75*
G03*
X132842500Y-47131776I-1079837J1041130D01*
G01*
X130682663Y-49213867D02*
G75*
G02*
X130682500Y-47131776I1079837J1041130D01*
G01*
X133189000Y-31309237D02*
X133033000Y-31309237D01*
X130873000Y-31309237D02*
X130717000Y-31309237D01*
X130873163Y-33910367D02*
G75*
G02*
X130873000Y-31828276I1079837J1041130D01*
G01*
X133032837Y-33910367D02*
G75*
G03*
X133033000Y-31828276I-1079837J1041130D01*
G01*
X130874392Y-34541572D02*
G75*
G02*
X130717484Y-31309237I1078608J1672335D01*
G01*
X133031608Y-34541572D02*
G75*
G03*
X133188516Y-31309237I-1078608J1672335D01*
G01*
X130682500Y-41596237D02*
X130526500Y-41596237D01*
X132998500Y-41596237D02*
X132842500Y-41596237D01*
X132841108Y-44828572D02*
G75*
G03*
X132998016Y-41596237I-1078608J1672335D01*
G01*
X130683892Y-44828572D02*
G75*
G02*
X130526984Y-41596237I1078608J1672335D01*
G01*
X132842337Y-44197367D02*
G75*
G03*
X132842500Y-42115276I-1079837J1041130D01*
G01*
X130682663Y-44197367D02*
G75*
G02*
X130682500Y-42115276I1079837J1041130D01*
G01*
X132935000Y-51756237D02*
X132779000Y-51756237D01*
X130619000Y-51756237D02*
X130463000Y-51756237D01*
X130619163Y-54357367D02*
G75*
G02*
X130619000Y-52275276I1079837J1041130D01*
G01*
X132778837Y-54357367D02*
G75*
G03*
X132779000Y-52275276I-1079837J1041130D01*
G01*
X130620392Y-54988572D02*
G75*
G02*
X130463484Y-51756237I1078608J1672335D01*
G01*
X132777608Y-54988572D02*
G75*
G03*
X132934516Y-51756237I-1078608J1672335D01*
G01*
X130809500Y-36389237D02*
X130653500Y-36389237D01*
X133125500Y-36389237D02*
X132969500Y-36389237D01*
X132968108Y-39621572D02*
G75*
G03*
X133125016Y-36389237I-1078608J1672335D01*
G01*
X130810892Y-39621572D02*
G75*
G02*
X130653984Y-36389237I1078608J1672335D01*
G01*
X132969337Y-38990367D02*
G75*
G03*
X132969500Y-36908276I-1079837J1041130D01*
G01*
X130809663Y-38990367D02*
G75*
G02*
X130809500Y-36908276I1079837J1041130D01*
G01*
D12*
X130035114Y-59993455D02*
X130035114Y-58618455D01*
X121160114Y-59993455D02*
X121160114Y-64143455D01*
X130060114Y-59993455D02*
X130060114Y-64143455D01*
X121160114Y-59993455D02*
X121275114Y-59993455D01*
X121160114Y-64143455D02*
X121275114Y-64143455D01*
X130060114Y-64143455D02*
X129945114Y-64143455D01*
X130060114Y-59993455D02*
X130035114Y-59993455D01*
D11*
X79212800Y-39689200D02*
X79212800Y-42139200D01*
X82432800Y-41489200D02*
X82432800Y-39689200D01*
X111134800Y-42022600D02*
X111134800Y-40222600D01*
X107914800Y-40222600D02*
X107914800Y-42672600D01*
X69871000Y-38770936D02*
X69871000Y-39975064D01*
X68051000Y-38770936D02*
X68051000Y-39975064D01*
X82973500Y-39469435D02*
X82973500Y-40673563D01*
X84793500Y-39469435D02*
X84793500Y-40673563D01*
X72284000Y-38767936D02*
X72284000Y-39972064D01*
X70464000Y-38767936D02*
X70464000Y-39972064D01*
X76623500Y-39847436D02*
X76623500Y-41051564D01*
X78443500Y-39847436D02*
X78443500Y-41051564D01*
X113838400Y-40215736D02*
X113838400Y-41419864D01*
X112018400Y-40215736D02*
X112018400Y-41419864D01*
X105566800Y-40215736D02*
X105566800Y-41419864D01*
X107386800Y-40215736D02*
X107386800Y-41419864D01*
X78582436Y-46778500D02*
X79786564Y-46778500D01*
X78582436Y-48598500D02*
X79786564Y-48598500D01*
X63225000Y-38767936D02*
X63225000Y-39972064D01*
X65045000Y-38767936D02*
X65045000Y-39972064D01*
X128872064Y-69401100D02*
X127667936Y-69401100D01*
X128872064Y-67581100D02*
X127667936Y-67581100D01*
X127500464Y-33227600D02*
X126296336Y-33227600D01*
X127500464Y-35047600D02*
X126296336Y-35047600D01*
X127500464Y-40127600D02*
X126296336Y-40127600D01*
X127500464Y-38307600D02*
X126296336Y-38307600D01*
X127472064Y-43489200D02*
X126267936Y-43489200D01*
X127472064Y-45309200D02*
X126267936Y-45309200D01*
X127472064Y-55456500D02*
X126267936Y-55456500D01*
X127472064Y-53636500D02*
X126267936Y-53636500D01*
X127472064Y-48518400D02*
X126267936Y-48518400D01*
X127472064Y-50338400D02*
X126267936Y-50338400D01*
D14*
X101293000Y-43599000D02*
G75*
G03*
X101293000Y-43599000I-100000J0D01*
G01*
X90043000Y-30619000D02*
X90043000Y-39019000D01*
X102743000Y-30619000D02*
X90043000Y-30619000D01*
X102743000Y-39019000D02*
X102743000Y-30619000D01*
X102743000Y-44819000D02*
X102743000Y-43019000D01*
X90043000Y-44819000D02*
X90043000Y-43019000D01*
X102743000Y-44819000D02*
X90043000Y-44819000D01*
X74836500Y-30500500D02*
X74836500Y-30850500D01*
X83786500Y-30500500D02*
X74836500Y-30500500D01*
X83786500Y-30850500D02*
X83786500Y-30500500D01*
X83786500Y-37160500D02*
X74836500Y-37160500D01*
D12*
X72155460Y-75395646D02*
X71679270Y-75728979D01*
X72155460Y-75967074D02*
X71155460Y-75967074D01*
X71155460Y-75586122D01*
X71203080Y-75490884D01*
X71250699Y-75443265D01*
X71345937Y-75395646D01*
X71488794Y-75395646D01*
X71584032Y-75443265D01*
X71631651Y-75490884D01*
X71679270Y-75586122D01*
X71679270Y-75967074D01*
X72155460Y-74443265D02*
X72155460Y-75014693D01*
X72155460Y-74728979D02*
X71155460Y-74728979D01*
X71298318Y-74824217D01*
X71393556Y-74919455D01*
X71441175Y-75014693D01*
X71155460Y-73586122D02*
X71155460Y-73776598D01*
X71203080Y-73871836D01*
X71250699Y-73919455D01*
X71393556Y-74014693D01*
X71584032Y-74062312D01*
X71964984Y-74062312D01*
X72060222Y-74014693D01*
X72107841Y-73967074D01*
X72155460Y-73871836D01*
X72155460Y-73681360D01*
X72107841Y-73586122D01*
X72060222Y-73538503D01*
X71964984Y-73490884D01*
X71726889Y-73490884D01*
X71631651Y-73538503D01*
X71584032Y-73586122D01*
X71536413Y-73681360D01*
X71536413Y-73871836D01*
X71584032Y-73967074D01*
X71631651Y-74014693D01*
X71726889Y-74062312D01*
X78293460Y-75040046D02*
X77817270Y-75373379D01*
X78293460Y-75611474D02*
X77293460Y-75611474D01*
X77293460Y-75230522D01*
X77341080Y-75135284D01*
X77388699Y-75087665D01*
X77483937Y-75040046D01*
X77626794Y-75040046D01*
X77722032Y-75087665D01*
X77769651Y-75135284D01*
X77817270Y-75230522D01*
X77817270Y-75611474D01*
X78293460Y-74087665D02*
X78293460Y-74659093D01*
X78293460Y-74373379D02*
X77293460Y-74373379D01*
X77436318Y-74468617D01*
X77531556Y-74563855D01*
X77579175Y-74659093D01*
X77293460Y-73182903D02*
X77293460Y-73659093D01*
X77769651Y-73706712D01*
X77722032Y-73659093D01*
X77674413Y-73563855D01*
X77674413Y-73325760D01*
X77722032Y-73230522D01*
X77769651Y-73182903D01*
X77864889Y-73135284D01*
X78102984Y-73135284D01*
X78198222Y-73182903D01*
X78245841Y-73230522D01*
X78293460Y-73325760D01*
X78293460Y-73563855D01*
X78245841Y-73659093D01*
X78198222Y-73706712D01*
X93559380Y-48704404D02*
X94368904Y-48704404D01*
X94464142Y-48656785D01*
X94511761Y-48609166D01*
X94559380Y-48513928D01*
X94559380Y-48323452D01*
X94511761Y-48228214D01*
X94464142Y-48180595D01*
X94368904Y-48132976D01*
X93559380Y-48132976D01*
X93559380Y-47752023D02*
X93559380Y-47132976D01*
X93940333Y-47466309D01*
X93940333Y-47323452D01*
X93987952Y-47228214D01*
X94035571Y-47180595D01*
X94130809Y-47132976D01*
X94368904Y-47132976D01*
X94464142Y-47180595D01*
X94511761Y-47228214D01*
X94559380Y-47323452D01*
X94559380Y-47609166D01*
X94511761Y-47704404D01*
X94464142Y-47752023D01*
X74715642Y-43664166D02*
X74763261Y-43711785D01*
X74810880Y-43854642D01*
X74810880Y-43949880D01*
X74763261Y-44092738D01*
X74668023Y-44187976D01*
X74572785Y-44235595D01*
X74382309Y-44283214D01*
X74239452Y-44283214D01*
X74048976Y-44235595D01*
X73953738Y-44187976D01*
X73858500Y-44092738D01*
X73810880Y-43949880D01*
X73810880Y-43854642D01*
X73858500Y-43711785D01*
X73906119Y-43664166D01*
X74810880Y-42711785D02*
X74810880Y-43283214D01*
X74810880Y-42997500D02*
X73810880Y-42997500D01*
X73953738Y-43092738D01*
X74048976Y-43187976D01*
X74096595Y-43283214D01*
X70891055Y-48682270D02*
X71700579Y-48682270D01*
X71795817Y-48634651D01*
X71843436Y-48587032D01*
X71891055Y-48491794D01*
X71891055Y-48301318D01*
X71843436Y-48206080D01*
X71795817Y-48158461D01*
X71700579Y-48110842D01*
X70891055Y-48110842D01*
X71224389Y-47206080D02*
X71891055Y-47206080D01*
X70843436Y-47444175D02*
X71557722Y-47682270D01*
X71557722Y-47063223D01*
X64668495Y-71741180D02*
X64668495Y-70741180D01*
X64668495Y-71217371D02*
X65239923Y-71217371D01*
X65239923Y-71741180D02*
X65239923Y-70741180D01*
X65668495Y-70836419D02*
X65716114Y-70788800D01*
X65811352Y-70741180D01*
X66049447Y-70741180D01*
X66144685Y-70788800D01*
X66192304Y-70836419D01*
X66239923Y-70931657D01*
X66239923Y-71026895D01*
X66192304Y-71169752D01*
X65620876Y-71741180D01*
X66239923Y-71741180D01*
X119227695Y-37739580D02*
X119227695Y-36739580D01*
X119227695Y-37215771D02*
X119799123Y-37215771D01*
X119799123Y-37739580D02*
X119799123Y-36739580D01*
X120180076Y-36739580D02*
X120799123Y-36739580D01*
X120465790Y-37120533D01*
X120608647Y-37120533D01*
X120703885Y-37168152D01*
X120751504Y-37215771D01*
X120799123Y-37311009D01*
X120799123Y-37549104D01*
X120751504Y-37644342D01*
X120703885Y-37691961D01*
X120608647Y-37739580D01*
X120322933Y-37739580D01*
X120227695Y-37691961D01*
X120180076Y-37644342D01*
X124663295Y-72242780D02*
X124663295Y-71242780D01*
X124663295Y-71718971D02*
X125234723Y-71718971D01*
X125234723Y-72242780D02*
X125234723Y-71242780D01*
X126234723Y-72242780D02*
X125663295Y-72242780D01*
X125949009Y-72242780D02*
X125949009Y-71242780D01*
X125853771Y-71385638D01*
X125758533Y-71480876D01*
X125663295Y-71528495D01*
X65452666Y-61364880D02*
X65452666Y-62079166D01*
X65405047Y-62222023D01*
X65309809Y-62317261D01*
X65166952Y-62364880D01*
X65071714Y-62364880D01*
X66357428Y-61364880D02*
X66166952Y-61364880D01*
X66071714Y-61412500D01*
X66024095Y-61460119D01*
X65928857Y-61602976D01*
X65881238Y-61793452D01*
X65881238Y-62174404D01*
X65928857Y-62269642D01*
X65976476Y-62317261D01*
X66071714Y-62364880D01*
X66262190Y-62364880D01*
X66357428Y-62317261D01*
X66405047Y-62269642D01*
X66452666Y-62174404D01*
X66452666Y-61936309D01*
X66405047Y-61841071D01*
X66357428Y-61793452D01*
X66262190Y-61745833D01*
X66071714Y-61745833D01*
X65976476Y-61793452D01*
X65928857Y-61841071D01*
X65881238Y-61936309D01*
X83464495Y-60082180D02*
X83464495Y-60891704D01*
X83512114Y-60986942D01*
X83559733Y-61034561D01*
X83654971Y-61082180D01*
X83845447Y-61082180D01*
X83940685Y-61034561D01*
X83988304Y-60986942D01*
X84035923Y-60891704D01*
X84035923Y-60082180D01*
X84988304Y-60082180D02*
X84512114Y-60082180D01*
X84464495Y-60558371D01*
X84512114Y-60510752D01*
X84607352Y-60463133D01*
X84845447Y-60463133D01*
X84940685Y-60510752D01*
X84988304Y-60558371D01*
X85035923Y-60653609D01*
X85035923Y-60891704D01*
X84988304Y-60986942D01*
X84940685Y-61034561D01*
X84845447Y-61082180D01*
X84607352Y-61082180D01*
X84512114Y-61034561D01*
X84464495Y-60986942D01*
X94008166Y-63241666D02*
X94008166Y-62541666D01*
X94241500Y-63041666D01*
X94474833Y-62541666D01*
X94474833Y-63241666D01*
X94808166Y-63241666D02*
X94808166Y-62541666D01*
X95208166Y-63241666D02*
X94908166Y-62841666D01*
X95208166Y-62541666D02*
X94808166Y-62941666D01*
X95841500Y-63241666D02*
X95508166Y-63241666D01*
X95508166Y-62541666D01*
X96041500Y-62608333D02*
X96074833Y-62575000D01*
X96141500Y-62541666D01*
X96308166Y-62541666D01*
X96374833Y-62575000D01*
X96408166Y-62608333D01*
X96441500Y-62675000D01*
X96441500Y-62741666D01*
X96408166Y-62841666D01*
X96008166Y-63241666D01*
X96441500Y-63241666D01*
X97041500Y-62541666D02*
X96908166Y-62541666D01*
X96841500Y-62575000D01*
X96808166Y-62608333D01*
X96741500Y-62708333D01*
X96708166Y-62841666D01*
X96708166Y-63108333D01*
X96741500Y-63175000D01*
X96774833Y-63208333D01*
X96841500Y-63241666D01*
X96974833Y-63241666D01*
X97041500Y-63208333D01*
X97074833Y-63175000D01*
X97108166Y-63108333D01*
X97108166Y-62941666D01*
X97074833Y-62875000D01*
X97041500Y-62841666D01*
X96974833Y-62808333D01*
X96841500Y-62808333D01*
X96774833Y-62841666D01*
X96741500Y-62875000D01*
X96708166Y-62941666D01*
X97341500Y-62541666D02*
X97808166Y-62541666D01*
X97341500Y-63241666D01*
X97808166Y-63241666D01*
X98374833Y-62541666D02*
X98241500Y-62541666D01*
X98174833Y-62575000D01*
X98141500Y-62608333D01*
X98074833Y-62708333D01*
X98041500Y-62841666D01*
X98041500Y-63108333D01*
X98074833Y-63175000D01*
X98108166Y-63208333D01*
X98174833Y-63241666D01*
X98308166Y-63241666D01*
X98374833Y-63208333D01*
X98408166Y-63175000D01*
X98441500Y-63108333D01*
X98441500Y-62941666D01*
X98408166Y-62875000D01*
X98374833Y-62841666D01*
X98308166Y-62808333D01*
X98174833Y-62808333D01*
X98108166Y-62841666D01*
X98074833Y-62875000D01*
X98041500Y-62941666D01*
X99041500Y-62775000D02*
X99041500Y-63241666D01*
X98874833Y-62508333D02*
X98708166Y-63008333D01*
X99141500Y-63008333D01*
X99308166Y-62541666D02*
X99541500Y-63241666D01*
X99774833Y-62541666D01*
X100241500Y-62875000D02*
X100008166Y-62875000D01*
X100008166Y-63241666D02*
X100008166Y-62541666D01*
X100341500Y-62541666D01*
X100508166Y-62541666D02*
X100908166Y-62541666D01*
X100708166Y-63241666D02*
X100708166Y-62541666D01*
X101441500Y-62775000D02*
X101441500Y-63241666D01*
X101274833Y-62508333D02*
X101108166Y-63008333D01*
X101541500Y-63008333D01*
X66733933Y-44845242D02*
X66686314Y-44892861D01*
X66543457Y-44940480D01*
X66448219Y-44940480D01*
X66305361Y-44892861D01*
X66210123Y-44797623D01*
X66162504Y-44702385D01*
X66114885Y-44511909D01*
X66114885Y-44369052D01*
X66162504Y-44178576D01*
X66210123Y-44083338D01*
X66305361Y-43988100D01*
X66448219Y-43940480D01*
X66543457Y-43940480D01*
X66686314Y-43988100D01*
X66733933Y-44035719D01*
X67067266Y-43940480D02*
X67686314Y-43940480D01*
X67352980Y-44321433D01*
X67495838Y-44321433D01*
X67591076Y-44369052D01*
X67638695Y-44416671D01*
X67686314Y-44511909D01*
X67686314Y-44750004D01*
X67638695Y-44845242D01*
X67591076Y-44892861D01*
X67495838Y-44940480D01*
X67210123Y-44940480D01*
X67114885Y-44892861D01*
X67067266Y-44845242D01*
X102084142Y-47791666D02*
X102131761Y-47839285D01*
X102179380Y-47982142D01*
X102179380Y-48077380D01*
X102131761Y-48220238D01*
X102036523Y-48315476D01*
X101941285Y-48363095D01*
X101750809Y-48410714D01*
X101607952Y-48410714D01*
X101417476Y-48363095D01*
X101322238Y-48315476D01*
X101227000Y-48220238D01*
X101179380Y-48077380D01*
X101179380Y-47982142D01*
X101227000Y-47839285D01*
X101274619Y-47791666D01*
X101179380Y-46886904D02*
X101179380Y-47363095D01*
X101655571Y-47410714D01*
X101607952Y-47363095D01*
X101560333Y-47267857D01*
X101560333Y-47029761D01*
X101607952Y-46934523D01*
X101655571Y-46886904D01*
X101750809Y-46839285D01*
X101988904Y-46839285D01*
X102084142Y-46886904D01*
X102131761Y-46934523D01*
X102179380Y-47029761D01*
X102179380Y-47267857D01*
X102131761Y-47363095D01*
X102084142Y-47410714D01*
X117943333Y-41928142D02*
X117895714Y-41975761D01*
X117752857Y-42023380D01*
X117657619Y-42023380D01*
X117514761Y-41975761D01*
X117419523Y-41880523D01*
X117371904Y-41785285D01*
X117324285Y-41594809D01*
X117324285Y-41451952D01*
X117371904Y-41261476D01*
X117419523Y-41166238D01*
X117514761Y-41071000D01*
X117657619Y-41023380D01*
X117752857Y-41023380D01*
X117895714Y-41071000D01*
X117943333Y-41118619D01*
X118800476Y-41023380D02*
X118610000Y-41023380D01*
X118514761Y-41071000D01*
X118467142Y-41118619D01*
X118371904Y-41261476D01*
X118324285Y-41451952D01*
X118324285Y-41832904D01*
X118371904Y-41928142D01*
X118419523Y-41975761D01*
X118514761Y-42023380D01*
X118705238Y-42023380D01*
X118800476Y-41975761D01*
X118848095Y-41928142D01*
X118895714Y-41832904D01*
X118895714Y-41594809D01*
X118848095Y-41499571D01*
X118800476Y-41451952D01*
X118705238Y-41404333D01*
X118514761Y-41404333D01*
X118419523Y-41451952D01*
X118371904Y-41499571D01*
X118324285Y-41594809D01*
X130667942Y-59564566D02*
X130715561Y-59612185D01*
X130763180Y-59755042D01*
X130763180Y-59850280D01*
X130715561Y-59993138D01*
X130620323Y-60088376D01*
X130525085Y-60135995D01*
X130334609Y-60183614D01*
X130191752Y-60183614D01*
X130001276Y-60135995D01*
X129906038Y-60088376D01*
X129810800Y-59993138D01*
X129763180Y-59850280D01*
X129763180Y-59755042D01*
X129810800Y-59612185D01*
X129858419Y-59564566D01*
X129763180Y-59231233D02*
X129763180Y-58564566D01*
X130763180Y-58993138D01*
X96821666Y-72115880D02*
X96821666Y-72830166D01*
X96774047Y-72973023D01*
X96678809Y-73068261D01*
X96535952Y-73115880D01*
X96440714Y-73115880D01*
X97202619Y-72115880D02*
X97869285Y-72115880D01*
X97440714Y-73115880D01*
X94256266Y-72115880D02*
X94256266Y-72830166D01*
X94208647Y-72973023D01*
X94113409Y-73068261D01*
X93970552Y-73115880D01*
X93875314Y-73115880D01*
X94875314Y-72544452D02*
X94780076Y-72496833D01*
X94732457Y-72449214D01*
X94684838Y-72353976D01*
X94684838Y-72306357D01*
X94732457Y-72211119D01*
X94780076Y-72163500D01*
X94875314Y-72115880D01*
X95065790Y-72115880D01*
X95161028Y-72163500D01*
X95208647Y-72211119D01*
X95256266Y-72306357D01*
X95256266Y-72353976D01*
X95208647Y-72449214D01*
X95161028Y-72496833D01*
X95065790Y-72544452D01*
X94875314Y-72544452D01*
X94780076Y-72592071D01*
X94732457Y-72639690D01*
X94684838Y-72734928D01*
X94684838Y-72925404D01*
X94732457Y-73020642D01*
X94780076Y-73068261D01*
X94875314Y-73115880D01*
X95065790Y-73115880D01*
X95161028Y-73068261D01*
X95208647Y-73020642D01*
X95256266Y-72925404D01*
X95256266Y-72734928D01*
X95208647Y-72639690D01*
X95161028Y-72592071D01*
X95065790Y-72544452D01*
X91678166Y-72115880D02*
X91678166Y-72830166D01*
X91630547Y-72973023D01*
X91535309Y-73068261D01*
X91392452Y-73115880D01*
X91297214Y-73115880D01*
X92201976Y-73115880D02*
X92392452Y-73115880D01*
X92487690Y-73068261D01*
X92535309Y-73020642D01*
X92630547Y-72877785D01*
X92678166Y-72687309D01*
X92678166Y-72306357D01*
X92630547Y-72211119D01*
X92582928Y-72163500D01*
X92487690Y-72115880D01*
X92297214Y-72115880D01*
X92201976Y-72163500D01*
X92154357Y-72211119D01*
X92106738Y-72306357D01*
X92106738Y-72544452D01*
X92154357Y-72639690D01*
X92201976Y-72687309D01*
X92297214Y-72734928D01*
X92487690Y-72734928D01*
X92582928Y-72687309D01*
X92630547Y-72639690D01*
X92678166Y-72544452D01*
X101361976Y-72115880D02*
X101361976Y-72830166D01*
X101314357Y-72973023D01*
X101219119Y-73068261D01*
X101076261Y-73115880D01*
X100981023Y-73115880D01*
X102361976Y-73115880D02*
X101790547Y-73115880D01*
X102076261Y-73115880D02*
X102076261Y-72115880D01*
X101981023Y-72258738D01*
X101885785Y-72353976D01*
X101790547Y-72401595D01*
X102838166Y-73115880D02*
X103028642Y-73115880D01*
X103123880Y-73068261D01*
X103171500Y-73020642D01*
X103266738Y-72877785D01*
X103314357Y-72687309D01*
X103314357Y-72306357D01*
X103266738Y-72211119D01*
X103219119Y-72163500D01*
X103123880Y-72115880D01*
X102933404Y-72115880D01*
X102838166Y-72163500D01*
X102790547Y-72211119D01*
X102742928Y-72306357D01*
X102742928Y-72544452D01*
X102790547Y-72639690D01*
X102838166Y-72687309D01*
X102933404Y-72734928D01*
X103123880Y-72734928D01*
X103219119Y-72687309D01*
X103266738Y-72639690D01*
X103314357Y-72544452D01*
X86121976Y-72115880D02*
X86121976Y-72830166D01*
X86074357Y-72973023D01*
X85979119Y-73068261D01*
X85836261Y-73115880D01*
X85741023Y-73115880D01*
X87121976Y-73115880D02*
X86550547Y-73115880D01*
X86836261Y-73115880D02*
X86836261Y-72115880D01*
X86741023Y-72258738D01*
X86645785Y-72353976D01*
X86550547Y-72401595D01*
X88074357Y-73115880D02*
X87502928Y-73115880D01*
X87788642Y-73115880D02*
X87788642Y-72115880D01*
X87693404Y-72258738D01*
X87598166Y-72353976D01*
X87502928Y-72401595D01*
X83581976Y-72122380D02*
X83581976Y-72836666D01*
X83534357Y-72979523D01*
X83439119Y-73074761D01*
X83296261Y-73122380D01*
X83201023Y-73122380D01*
X84581976Y-73122380D02*
X84010547Y-73122380D01*
X84296261Y-73122380D02*
X84296261Y-72122380D01*
X84201023Y-72265238D01*
X84105785Y-72360476D01*
X84010547Y-72408095D01*
X84962928Y-72217619D02*
X85010547Y-72170000D01*
X85105785Y-72122380D01*
X85343880Y-72122380D01*
X85439119Y-72170000D01*
X85486738Y-72217619D01*
X85534357Y-72312857D01*
X85534357Y-72408095D01*
X85486738Y-72550952D01*
X84915309Y-73122380D01*
X85534357Y-73122380D01*
X78501976Y-72229880D02*
X78501976Y-72944166D01*
X78454357Y-73087023D01*
X78359119Y-73182261D01*
X78216261Y-73229880D01*
X78121023Y-73229880D01*
X79501976Y-73229880D02*
X78930547Y-73229880D01*
X79216261Y-73229880D02*
X79216261Y-72229880D01*
X79121023Y-72372738D01*
X79025785Y-72467976D01*
X78930547Y-72515595D01*
X79835309Y-72229880D02*
X80454357Y-72229880D01*
X80121023Y-72610833D01*
X80263880Y-72610833D01*
X80359119Y-72658452D01*
X80406738Y-72706071D01*
X80454357Y-72801309D01*
X80454357Y-73039404D01*
X80406738Y-73134642D01*
X80359119Y-73182261D01*
X80263880Y-73229880D01*
X79978166Y-73229880D01*
X79882928Y-73182261D01*
X79835309Y-73134642D01*
X115573276Y-72122380D02*
X115573276Y-72836666D01*
X115525657Y-72979523D01*
X115430419Y-73074761D01*
X115287561Y-73122380D01*
X115192323Y-73122380D01*
X116573276Y-73122380D02*
X116001847Y-73122380D01*
X116287561Y-73122380D02*
X116287561Y-72122380D01*
X116192323Y-72265238D01*
X116097085Y-72360476D01*
X116001847Y-72408095D01*
X117430419Y-72455714D02*
X117430419Y-73122380D01*
X117192323Y-72074761D02*
X116954228Y-72789047D01*
X117573276Y-72789047D01*
X112982476Y-72122380D02*
X112982476Y-72836666D01*
X112934857Y-72979523D01*
X112839619Y-73074761D01*
X112696761Y-73122380D01*
X112601523Y-73122380D01*
X113982476Y-73122380D02*
X113411047Y-73122380D01*
X113696761Y-73122380D02*
X113696761Y-72122380D01*
X113601523Y-72265238D01*
X113506285Y-72360476D01*
X113411047Y-72408095D01*
X114887238Y-72122380D02*
X114411047Y-72122380D01*
X114363428Y-72598571D01*
X114411047Y-72550952D01*
X114506285Y-72503333D01*
X114744380Y-72503333D01*
X114839619Y-72550952D01*
X114887238Y-72598571D01*
X114934857Y-72693809D01*
X114934857Y-72931904D01*
X114887238Y-73027142D01*
X114839619Y-73074761D01*
X114744380Y-73122380D01*
X114506285Y-73122380D01*
X114411047Y-73074761D01*
X114363428Y-73027142D01*
X110391676Y-72122380D02*
X110391676Y-72836666D01*
X110344057Y-72979523D01*
X110248819Y-73074761D01*
X110105961Y-73122380D01*
X110010723Y-73122380D01*
X111391676Y-73122380D02*
X110820247Y-73122380D01*
X111105961Y-73122380D02*
X111105961Y-72122380D01*
X111010723Y-72265238D01*
X110915485Y-72360476D01*
X110820247Y-72408095D01*
X112248819Y-72122380D02*
X112058342Y-72122380D01*
X111963104Y-72170000D01*
X111915485Y-72217619D01*
X111820247Y-72360476D01*
X111772628Y-72550952D01*
X111772628Y-72931904D01*
X111820247Y-73027142D01*
X111867866Y-73074761D01*
X111963104Y-73122380D01*
X112153580Y-73122380D01*
X112248819Y-73074761D01*
X112296438Y-73027142D01*
X112344057Y-72931904D01*
X112344057Y-72693809D01*
X112296438Y-72598571D01*
X112248819Y-72550952D01*
X112153580Y-72503333D01*
X111963104Y-72503333D01*
X111867866Y-72550952D01*
X111820247Y-72598571D01*
X111772628Y-72693809D01*
X106429276Y-72122380D02*
X106429276Y-72836666D01*
X106381657Y-72979523D01*
X106286419Y-73074761D01*
X106143561Y-73122380D01*
X106048323Y-73122380D01*
X107429276Y-73122380D02*
X106857847Y-73122380D01*
X107143561Y-73122380D02*
X107143561Y-72122380D01*
X107048323Y-72265238D01*
X106953085Y-72360476D01*
X106857847Y-72408095D01*
X107762609Y-72122380D02*
X108429276Y-72122380D01*
X108000704Y-73122380D01*
X98821976Y-72115880D02*
X98821976Y-72830166D01*
X98774357Y-72973023D01*
X98679119Y-73068261D01*
X98536261Y-73115880D01*
X98441023Y-73115880D01*
X99821976Y-73115880D02*
X99250547Y-73115880D01*
X99536261Y-73115880D02*
X99536261Y-72115880D01*
X99441023Y-72258738D01*
X99345785Y-72353976D01*
X99250547Y-72401595D01*
X100393404Y-72544452D02*
X100298166Y-72496833D01*
X100250547Y-72449214D01*
X100202928Y-72353976D01*
X100202928Y-72306357D01*
X100250547Y-72211119D01*
X100298166Y-72163500D01*
X100393404Y-72115880D01*
X100583880Y-72115880D01*
X100679119Y-72163500D01*
X100726738Y-72211119D01*
X100774357Y-72306357D01*
X100774357Y-72353976D01*
X100726738Y-72449214D01*
X100679119Y-72496833D01*
X100583880Y-72544452D01*
X100393404Y-72544452D01*
X100298166Y-72592071D01*
X100250547Y-72639690D01*
X100202928Y-72734928D01*
X100202928Y-72925404D01*
X100250547Y-73020642D01*
X100298166Y-73068261D01*
X100393404Y-73115880D01*
X100583880Y-73115880D01*
X100679119Y-73068261D01*
X100726738Y-73020642D01*
X100774357Y-72925404D01*
X100774357Y-72734928D01*
X100726738Y-72639690D01*
X100679119Y-72592071D01*
X100583880Y-72544452D01*
X88661976Y-72115880D02*
X88661976Y-72830166D01*
X88614357Y-72973023D01*
X88519119Y-73068261D01*
X88376261Y-73115880D01*
X88281023Y-73115880D01*
X89661976Y-73115880D02*
X89090547Y-73115880D01*
X89376261Y-73115880D02*
X89376261Y-72115880D01*
X89281023Y-72258738D01*
X89185785Y-72353976D01*
X89090547Y-72401595D01*
X90281023Y-72115880D02*
X90376261Y-72115880D01*
X90471500Y-72163500D01*
X90519119Y-72211119D01*
X90566738Y-72306357D01*
X90614357Y-72496833D01*
X90614357Y-72734928D01*
X90566738Y-72925404D01*
X90519119Y-73020642D01*
X90471500Y-73068261D01*
X90376261Y-73115880D01*
X90281023Y-73115880D01*
X90185785Y-73068261D01*
X90138166Y-73020642D01*
X90090547Y-72925404D01*
X90042928Y-72734928D01*
X90042928Y-72496833D01*
X90090547Y-72306357D01*
X90138166Y-72211119D01*
X90185785Y-72163500D01*
X90281023Y-72115880D01*
D15*
X110791616Y-32345298D02*
X110791616Y-33059691D01*
X110743990Y-33202570D01*
X110648738Y-33297822D01*
X110505859Y-33345448D01*
X110410607Y-33345448D01*
X111220252Y-32440551D02*
X111267878Y-32392925D01*
X111363130Y-32345298D01*
X111601261Y-32345298D01*
X111696514Y-32392925D01*
X111744140Y-32440551D01*
X111791766Y-32535803D01*
X111791766Y-32631055D01*
X111744140Y-32773934D01*
X111172626Y-33345448D01*
X111791766Y-33345448D01*
D12*
X65325666Y-64222380D02*
X65325666Y-64936666D01*
X65278047Y-65079523D01*
X65182809Y-65174761D01*
X65039952Y-65222380D01*
X64944714Y-65222380D01*
X66278047Y-64222380D02*
X65801857Y-64222380D01*
X65754238Y-64698571D01*
X65801857Y-64650952D01*
X65897095Y-64603333D01*
X66135190Y-64603333D01*
X66230428Y-64650952D01*
X66278047Y-64698571D01*
X66325666Y-64793809D01*
X66325666Y-65031904D01*
X66278047Y-65127142D01*
X66230428Y-65174761D01*
X66135190Y-65222380D01*
X65897095Y-65222380D01*
X65801857Y-65174761D01*
X65754238Y-65127142D01*
X82523033Y-50560242D02*
X82475414Y-50607861D01*
X82332557Y-50655480D01*
X82237319Y-50655480D01*
X82094461Y-50607861D01*
X81999223Y-50512623D01*
X81951604Y-50417385D01*
X81903985Y-50226909D01*
X81903985Y-50084052D01*
X81951604Y-49893576D01*
X81999223Y-49798338D01*
X82094461Y-49703100D01*
X82237319Y-49655480D01*
X82332557Y-49655480D01*
X82475414Y-49703100D01*
X82523033Y-49750719D01*
X82903985Y-49750719D02*
X82951604Y-49703100D01*
X83046842Y-49655480D01*
X83284938Y-49655480D01*
X83380176Y-49703100D01*
X83427795Y-49750719D01*
X83475414Y-49845957D01*
X83475414Y-49941195D01*
X83427795Y-50084052D01*
X82856366Y-50655480D01*
X83475414Y-50655480D01*
X129618652Y-63228225D02*
X129618652Y-63942511D01*
X129571033Y-64085368D01*
X129475795Y-64180606D01*
X129332938Y-64228225D01*
X129237700Y-64228225D01*
X130523414Y-63561559D02*
X130523414Y-64228225D01*
X130285319Y-63180606D02*
X130047224Y-63894892D01*
X130666271Y-63894892D01*
X65285880Y-55844795D02*
X65285880Y-56416223D01*
X65285880Y-56130509D02*
X64285880Y-56130509D01*
X64428738Y-56225747D01*
X64523976Y-56320985D01*
X64571595Y-56416223D01*
X64381119Y-55463842D02*
X64333500Y-55416223D01*
X64285880Y-55320985D01*
X64285880Y-55082890D01*
X64333500Y-54987652D01*
X64381119Y-54940033D01*
X64476357Y-54892414D01*
X64571595Y-54892414D01*
X64714452Y-54940033D01*
X65285880Y-55511461D01*
X65285880Y-54892414D01*
X65285880Y-54463842D02*
X64285880Y-54463842D01*
X65000166Y-54130509D01*
X64285880Y-53797176D01*
X65285880Y-53797176D01*
X65285880Y-53320985D02*
X64285880Y-53320985D01*
X64762071Y-53320985D02*
X64762071Y-52749557D01*
X65285880Y-52749557D02*
X64285880Y-52749557D01*
X64285880Y-52368604D02*
X64285880Y-51701938D01*
X65285880Y-52368604D01*
X65285880Y-51701938D01*
X65285880Y-50797176D02*
X65285880Y-51368604D01*
X65285880Y-51082890D02*
X64285880Y-51082890D01*
X64428738Y-51178128D01*
X64523976Y-51273366D01*
X64571595Y-51368604D01*
X69286380Y-36806095D02*
X68286380Y-36806095D01*
X68286380Y-36568000D01*
X68334000Y-36425142D01*
X68429238Y-36329904D01*
X68524476Y-36282285D01*
X68714952Y-36234666D01*
X68857809Y-36234666D01*
X69048285Y-36282285D01*
X69143523Y-36329904D01*
X69238761Y-36425142D01*
X69286380Y-36568000D01*
X69286380Y-36806095D01*
X69286380Y-35282285D02*
X69286380Y-35853714D01*
X69286380Y-35568000D02*
X68286380Y-35568000D01*
X68429238Y-35663238D01*
X68524476Y-35758476D01*
X68572095Y-35853714D01*
X67254380Y-36806095D02*
X66254380Y-36806095D01*
X66254380Y-36568000D01*
X66302000Y-36425142D01*
X66397238Y-36329904D01*
X66492476Y-36282285D01*
X66682952Y-36234666D01*
X66825809Y-36234666D01*
X67016285Y-36282285D01*
X67111523Y-36329904D01*
X67206761Y-36425142D01*
X67254380Y-36568000D01*
X67254380Y-36806095D01*
X66349619Y-35853714D02*
X66302000Y-35806095D01*
X66254380Y-35710857D01*
X66254380Y-35472761D01*
X66302000Y-35377523D01*
X66349619Y-35329904D01*
X66444857Y-35282285D01*
X66540095Y-35282285D01*
X66682952Y-35329904D01*
X67254380Y-35901333D01*
X67254380Y-35282285D01*
X64714380Y-36806095D02*
X63714380Y-36806095D01*
X63714380Y-36568000D01*
X63762000Y-36425142D01*
X63857238Y-36329904D01*
X63952476Y-36282285D01*
X64142952Y-36234666D01*
X64285809Y-36234666D01*
X64476285Y-36282285D01*
X64571523Y-36329904D01*
X64666761Y-36425142D01*
X64714380Y-36568000D01*
X64714380Y-36806095D01*
X63714380Y-35901333D02*
X63714380Y-35282285D01*
X64095333Y-35615619D01*
X64095333Y-35472761D01*
X64142952Y-35377523D01*
X64190571Y-35329904D01*
X64285809Y-35282285D01*
X64523904Y-35282285D01*
X64619142Y-35329904D01*
X64666761Y-35377523D01*
X64714380Y-35472761D01*
X64714380Y-35758476D01*
X64666761Y-35853714D01*
X64619142Y-35901333D01*
X62053883Y-36806095D02*
X61053883Y-36806095D01*
X61053883Y-36568000D01*
X61101503Y-36425142D01*
X61196741Y-36329904D01*
X61291979Y-36282285D01*
X61482455Y-36234666D01*
X61625312Y-36234666D01*
X61815788Y-36282285D01*
X61911026Y-36329904D01*
X62006264Y-36425142D01*
X62053883Y-36568000D01*
X62053883Y-36806095D01*
X61387217Y-35377523D02*
X62053883Y-35377523D01*
X61006264Y-35615619D02*
X61720550Y-35853714D01*
X61720550Y-35234666D01*
X71826380Y-36806095D02*
X70826380Y-36806095D01*
X70826380Y-36568000D01*
X70874000Y-36425142D01*
X70969238Y-36329904D01*
X71064476Y-36282285D01*
X71254952Y-36234666D01*
X71397809Y-36234666D01*
X71588285Y-36282285D01*
X71683523Y-36329904D01*
X71778761Y-36425142D01*
X71826380Y-36568000D01*
X71826380Y-36806095D01*
X70826380Y-35329904D02*
X70826380Y-35806095D01*
X71302571Y-35853714D01*
X71254952Y-35806095D01*
X71207333Y-35710857D01*
X71207333Y-35472761D01*
X71254952Y-35377523D01*
X71302571Y-35329904D01*
X71397809Y-35282285D01*
X71635904Y-35282285D01*
X71731142Y-35329904D01*
X71778761Y-35377523D01*
X71826380Y-35472761D01*
X71826380Y-35710857D01*
X71778761Y-35806095D01*
X71731142Y-35853714D01*
X125677752Y-47340780D02*
X125201561Y-47340780D01*
X125201561Y-46340780D01*
X126011085Y-46816971D02*
X126344419Y-46816971D01*
X126487276Y-47340780D02*
X126011085Y-47340780D01*
X126011085Y-46340780D01*
X126487276Y-46340780D01*
X126915847Y-47340780D02*
X126915847Y-46340780D01*
X127153942Y-46340780D01*
X127296800Y-46388400D01*
X127392038Y-46483638D01*
X127439657Y-46578876D01*
X127487276Y-46769352D01*
X127487276Y-46912209D01*
X127439657Y-47102685D01*
X127392038Y-47197923D01*
X127296800Y-47293161D01*
X127153942Y-47340780D01*
X126915847Y-47340780D01*
X128344419Y-46674114D02*
X128344419Y-47340780D01*
X128106323Y-46293161D02*
X127868228Y-47007447D01*
X128487276Y-47007447D01*
X125728552Y-32100780D02*
X125252361Y-32100780D01*
X125252361Y-31100780D01*
X126061885Y-31576971D02*
X126395219Y-31576971D01*
X126538076Y-32100780D02*
X126061885Y-32100780D01*
X126061885Y-31100780D01*
X126538076Y-31100780D01*
X126966647Y-32100780D02*
X126966647Y-31100780D01*
X127204742Y-31100780D01*
X127347600Y-31148400D01*
X127442838Y-31243638D01*
X127490457Y-31338876D01*
X127538076Y-31529352D01*
X127538076Y-31672209D01*
X127490457Y-31862685D01*
X127442838Y-31957923D01*
X127347600Y-32053161D01*
X127204742Y-32100780D01*
X126966647Y-32100780D01*
X128490457Y-32100780D02*
X127919028Y-32100780D01*
X128204742Y-32100780D02*
X128204742Y-31100780D01*
X128109504Y-31243638D01*
X128014266Y-31338876D01*
X127919028Y-31386495D01*
X125880952Y-42209980D02*
X125404761Y-42209980D01*
X125404761Y-41209980D01*
X126214285Y-41686171D02*
X126547619Y-41686171D01*
X126690476Y-42209980D02*
X126214285Y-42209980D01*
X126214285Y-41209980D01*
X126690476Y-41209980D01*
X127119047Y-42209980D02*
X127119047Y-41209980D01*
X127357142Y-41209980D01*
X127500000Y-41257600D01*
X127595238Y-41352838D01*
X127642857Y-41448076D01*
X127690476Y-41638552D01*
X127690476Y-41781409D01*
X127642857Y-41971885D01*
X127595238Y-42067123D01*
X127500000Y-42162361D01*
X127357142Y-42209980D01*
X127119047Y-42209980D01*
X128023809Y-41209980D02*
X128642857Y-41209980D01*
X128309523Y-41590933D01*
X128452380Y-41590933D01*
X128547619Y-41638552D01*
X128595238Y-41686171D01*
X128642857Y-41781409D01*
X128642857Y-42019504D01*
X128595238Y-42114742D01*
X128547619Y-42162361D01*
X128452380Y-42209980D01*
X128166666Y-42209980D01*
X128071428Y-42162361D01*
X128023809Y-42114742D01*
X126261952Y-52522380D02*
X125785761Y-52522380D01*
X125785761Y-51522380D01*
X126595285Y-51998571D02*
X126928619Y-51998571D01*
X127071476Y-52522380D02*
X126595285Y-52522380D01*
X126595285Y-51522380D01*
X127071476Y-51522380D01*
X127500047Y-52522380D02*
X127500047Y-51522380D01*
X127738142Y-51522380D01*
X127881000Y-51570000D01*
X127976238Y-51665238D01*
X128023857Y-51760476D01*
X128071476Y-51950952D01*
X128071476Y-52093809D01*
X128023857Y-52284285D01*
X127976238Y-52379523D01*
X127881000Y-52474761D01*
X127738142Y-52522380D01*
X127500047Y-52522380D01*
X128976238Y-51522380D02*
X128500047Y-51522380D01*
X128452428Y-51998571D01*
X128500047Y-51950952D01*
X128595285Y-51903333D01*
X128833380Y-51903333D01*
X128928619Y-51950952D01*
X128976238Y-51998571D01*
X129023857Y-52093809D01*
X129023857Y-52331904D01*
X128976238Y-52427142D01*
X128928619Y-52474761D01*
X128833380Y-52522380D01*
X128595285Y-52522380D01*
X128500047Y-52474761D01*
X128452428Y-52427142D01*
X125626952Y-37129980D02*
X125150761Y-37129980D01*
X125150761Y-36129980D01*
X125960285Y-36606171D02*
X126293619Y-36606171D01*
X126436476Y-37129980D02*
X125960285Y-37129980D01*
X125960285Y-36129980D01*
X126436476Y-36129980D01*
X126865047Y-37129980D02*
X126865047Y-36129980D01*
X127103142Y-36129980D01*
X127246000Y-36177600D01*
X127341238Y-36272838D01*
X127388857Y-36368076D01*
X127436476Y-36558552D01*
X127436476Y-36701409D01*
X127388857Y-36891885D01*
X127341238Y-36987123D01*
X127246000Y-37082361D01*
X127103142Y-37129980D01*
X126865047Y-37129980D01*
X127817428Y-36225219D02*
X127865047Y-36177600D01*
X127960285Y-36129980D01*
X128198380Y-36129980D01*
X128293619Y-36177600D01*
X128341238Y-36225219D01*
X128388857Y-36320457D01*
X128388857Y-36415695D01*
X128341238Y-36558552D01*
X127769809Y-37129980D01*
X128388857Y-37129980D01*
X118679980Y-63157004D02*
X119489504Y-63157004D01*
X119584742Y-63109385D01*
X119632361Y-63061766D01*
X119679980Y-62966528D01*
X119679980Y-62776052D01*
X119632361Y-62680814D01*
X119584742Y-62633195D01*
X119489504Y-62585576D01*
X118679980Y-62585576D01*
X118679980Y-61680814D02*
X118679980Y-61871290D01*
X118727600Y-61966528D01*
X118775219Y-62014147D01*
X118918076Y-62109385D01*
X119108552Y-62157004D01*
X119489504Y-62157004D01*
X119584742Y-62109385D01*
X119632361Y-62061766D01*
X119679980Y-61966528D01*
X119679980Y-61776052D01*
X119632361Y-61680814D01*
X119584742Y-61633195D01*
X119489504Y-61585576D01*
X119251409Y-61585576D01*
X119156171Y-61633195D01*
X119108552Y-61680814D01*
X119060933Y-61776052D01*
X119060933Y-61966528D01*
X119108552Y-62061766D01*
X119156171Y-62109385D01*
X119251409Y-62157004D01*
X80148180Y-44061104D02*
X80957704Y-44061104D01*
X81052942Y-44013485D01*
X81100561Y-43965866D01*
X81148180Y-43870628D01*
X81148180Y-43680152D01*
X81100561Y-43584914D01*
X81052942Y-43537295D01*
X80957704Y-43489676D01*
X80148180Y-43489676D01*
X81148180Y-42489676D02*
X81148180Y-43061104D01*
X81148180Y-42775390D02*
X80148180Y-42775390D01*
X80291038Y-42870628D01*
X80386276Y-42965866D01*
X80433895Y-43061104D01*
X109027980Y-44780104D02*
X109837504Y-44780104D01*
X109932742Y-44732485D01*
X109980361Y-44684866D01*
X110027980Y-44589628D01*
X110027980Y-44399152D01*
X109980361Y-44303914D01*
X109932742Y-44256295D01*
X109837504Y-44208676D01*
X109027980Y-44208676D01*
X109123219Y-43780104D02*
X109075600Y-43732485D01*
X109027980Y-43637247D01*
X109027980Y-43399152D01*
X109075600Y-43303914D01*
X109123219Y-43256295D01*
X109218457Y-43208676D01*
X109313695Y-43208676D01*
X109456552Y-43256295D01*
X110027980Y-43827723D01*
X110027980Y-43208676D01*
X67889380Y-39285666D02*
X67413190Y-39619000D01*
X67889380Y-39857095D02*
X66889380Y-39857095D01*
X66889380Y-39476142D01*
X66937000Y-39380904D01*
X66984619Y-39333285D01*
X67079857Y-39285666D01*
X67222714Y-39285666D01*
X67317952Y-39333285D01*
X67365571Y-39380904D01*
X67413190Y-39476142D01*
X67413190Y-39857095D01*
X66889380Y-38428523D02*
X66889380Y-38619000D01*
X66937000Y-38714238D01*
X66984619Y-38761857D01*
X67127476Y-38857095D01*
X67317952Y-38904714D01*
X67698904Y-38904714D01*
X67794142Y-38857095D01*
X67841761Y-38809476D01*
X67889380Y-38714238D01*
X67889380Y-38523761D01*
X67841761Y-38428523D01*
X67794142Y-38380904D01*
X67698904Y-38333285D01*
X67460809Y-38333285D01*
X67365571Y-38380904D01*
X67317952Y-38428523D01*
X67270333Y-38523761D01*
X67270333Y-38714238D01*
X67317952Y-38809476D01*
X67365571Y-38857095D01*
X67460809Y-38904714D01*
X86155880Y-41124166D02*
X85679690Y-41457500D01*
X86155880Y-41695595D02*
X85155880Y-41695595D01*
X85155880Y-41314642D01*
X85203500Y-41219404D01*
X85251119Y-41171785D01*
X85346357Y-41124166D01*
X85489214Y-41124166D01*
X85584452Y-41171785D01*
X85632071Y-41219404D01*
X85679690Y-41314642D01*
X85679690Y-41695595D01*
X86155880Y-40171785D02*
X86155880Y-40743214D01*
X86155880Y-40457500D02*
X85155880Y-40457500D01*
X85298738Y-40552738D01*
X85393976Y-40647976D01*
X85441595Y-40743214D01*
X73731380Y-38266666D02*
X73255190Y-38600000D01*
X73731380Y-38838095D02*
X72731380Y-38838095D01*
X72731380Y-38457142D01*
X72779000Y-38361904D01*
X72826619Y-38314285D01*
X72921857Y-38266666D01*
X73064714Y-38266666D01*
X73159952Y-38314285D01*
X73207571Y-38361904D01*
X73255190Y-38457142D01*
X73255190Y-38838095D01*
X73159952Y-37695238D02*
X73112333Y-37790476D01*
X73064714Y-37838095D01*
X72969476Y-37885714D01*
X72921857Y-37885714D01*
X72826619Y-37838095D01*
X72779000Y-37790476D01*
X72731380Y-37695238D01*
X72731380Y-37504761D01*
X72779000Y-37409523D01*
X72826619Y-37361904D01*
X72921857Y-37314285D01*
X72969476Y-37314285D01*
X73064714Y-37361904D01*
X73112333Y-37409523D01*
X73159952Y-37504761D01*
X73159952Y-37695238D01*
X73207571Y-37790476D01*
X73255190Y-37838095D01*
X73350428Y-37885714D01*
X73540904Y-37885714D01*
X73636142Y-37838095D01*
X73683761Y-37790476D01*
X73731380Y-37695238D01*
X73731380Y-37504761D01*
X73683761Y-37409523D01*
X73636142Y-37361904D01*
X73540904Y-37314285D01*
X73350428Y-37314285D01*
X73255190Y-37361904D01*
X73207571Y-37409523D01*
X73159952Y-37504761D01*
X78112880Y-43918166D02*
X77636690Y-44251500D01*
X78112880Y-44489595D02*
X77112880Y-44489595D01*
X77112880Y-44108642D01*
X77160500Y-44013404D01*
X77208119Y-43965785D01*
X77303357Y-43918166D01*
X77446214Y-43918166D01*
X77541452Y-43965785D01*
X77589071Y-44013404D01*
X77636690Y-44108642D01*
X77636690Y-44489595D01*
X77208119Y-43537214D02*
X77160500Y-43489595D01*
X77112880Y-43394357D01*
X77112880Y-43156261D01*
X77160500Y-43061023D01*
X77208119Y-43013404D01*
X77303357Y-42965785D01*
X77398595Y-42965785D01*
X77541452Y-43013404D01*
X78112880Y-43584833D01*
X78112880Y-42965785D01*
X113380780Y-44337266D02*
X112904590Y-44670600D01*
X113380780Y-44908695D02*
X112380780Y-44908695D01*
X112380780Y-44527742D01*
X112428400Y-44432504D01*
X112476019Y-44384885D01*
X112571257Y-44337266D01*
X112714114Y-44337266D01*
X112809352Y-44384885D01*
X112856971Y-44432504D01*
X112904590Y-44527742D01*
X112904590Y-44908695D01*
X112380780Y-44003933D02*
X112380780Y-43384885D01*
X112761733Y-43718219D01*
X112761733Y-43575361D01*
X112809352Y-43480123D01*
X112856971Y-43432504D01*
X112952209Y-43384885D01*
X113190304Y-43384885D01*
X113285542Y-43432504D01*
X113333161Y-43480123D01*
X113380780Y-43575361D01*
X113380780Y-43861076D01*
X113333161Y-43956314D01*
X113285542Y-44003933D01*
X106776780Y-44184866D02*
X106300590Y-44518200D01*
X106776780Y-44756295D02*
X105776780Y-44756295D01*
X105776780Y-44375342D01*
X105824400Y-44280104D01*
X105872019Y-44232485D01*
X105967257Y-44184866D01*
X106110114Y-44184866D01*
X106205352Y-44232485D01*
X106252971Y-44280104D01*
X106300590Y-44375342D01*
X106300590Y-44756295D01*
X106110114Y-43327723D02*
X106776780Y-43327723D01*
X105729161Y-43565819D02*
X106443447Y-43803914D01*
X106443447Y-43184866D01*
X78763833Y-46362880D02*
X78430500Y-45886690D01*
X78192404Y-46362880D02*
X78192404Y-45362880D01*
X78573357Y-45362880D01*
X78668595Y-45410500D01*
X78716214Y-45458119D01*
X78763833Y-45553357D01*
X78763833Y-45696214D01*
X78716214Y-45791452D01*
X78668595Y-45839071D01*
X78573357Y-45886690D01*
X78192404Y-45886690D01*
X79668595Y-45362880D02*
X79192404Y-45362880D01*
X79144785Y-45839071D01*
X79192404Y-45791452D01*
X79287642Y-45743833D01*
X79525738Y-45743833D01*
X79620976Y-45791452D01*
X79668595Y-45839071D01*
X79716214Y-45934309D01*
X79716214Y-46172404D01*
X79668595Y-46267642D01*
X79620976Y-46315261D01*
X79525738Y-46362880D01*
X79287642Y-46362880D01*
X79192404Y-46315261D01*
X79144785Y-46267642D01*
X62862142Y-38266666D02*
X62385952Y-38600000D01*
X62862142Y-38838095D02*
X61862142Y-38838095D01*
X61862142Y-38457142D01*
X61909762Y-38361904D01*
X61957381Y-38314285D01*
X62052619Y-38266666D01*
X62195476Y-38266666D01*
X62290714Y-38314285D01*
X62338333Y-38361904D01*
X62385952Y-38457142D01*
X62385952Y-38838095D01*
X61862142Y-37933333D02*
X61862142Y-37266666D01*
X62862142Y-37695238D01*
X128255733Y-67216280D02*
X127922400Y-66740090D01*
X127684304Y-67216280D02*
X127684304Y-66216280D01*
X128065257Y-66216280D01*
X128160495Y-66263900D01*
X128208114Y-66311519D01*
X128255733Y-66406757D01*
X128255733Y-66549614D01*
X128208114Y-66644852D01*
X128160495Y-66692471D01*
X128065257Y-66740090D01*
X127684304Y-66740090D01*
X128731923Y-67216280D02*
X128922400Y-67216280D01*
X129017638Y-67168661D01*
X129065257Y-67121042D01*
X129160495Y-66978185D01*
X129208114Y-66787709D01*
X129208114Y-66406757D01*
X129160495Y-66311519D01*
X129112876Y-66263900D01*
X129017638Y-66216280D01*
X128827161Y-66216280D01*
X128731923Y-66263900D01*
X128684304Y-66311519D01*
X128636685Y-66406757D01*
X128636685Y-66644852D01*
X128684304Y-66740090D01*
X128731923Y-66787709D01*
X128827161Y-66835328D01*
X129017638Y-66835328D01*
X129112876Y-66787709D01*
X129160495Y-66740090D01*
X129208114Y-66644852D01*
X123105942Y-33218380D02*
X122772609Y-32742190D01*
X122534514Y-33218380D02*
X122534514Y-32218380D01*
X122915466Y-32218380D01*
X123010704Y-32266000D01*
X123058323Y-32313619D01*
X123105942Y-32408857D01*
X123105942Y-32551714D01*
X123058323Y-32646952D01*
X123010704Y-32694571D01*
X122915466Y-32742190D01*
X122534514Y-32742190D01*
X124058323Y-33218380D02*
X123486895Y-33218380D01*
X123772609Y-33218380D02*
X123772609Y-32218380D01*
X123677371Y-32361238D01*
X123582133Y-32456476D01*
X123486895Y-32504095D01*
X124677371Y-32218380D02*
X124772609Y-32218380D01*
X124867847Y-32266000D01*
X124915466Y-32313619D01*
X124963085Y-32408857D01*
X125010704Y-32599333D01*
X125010704Y-32837428D01*
X124963085Y-33027904D01*
X124915466Y-33123142D01*
X124867847Y-33170761D01*
X124772609Y-33218380D01*
X124677371Y-33218380D01*
X124582133Y-33170761D01*
X124534514Y-33123142D01*
X124486895Y-33027904D01*
X124439276Y-32837428D01*
X124439276Y-32599333D01*
X124486895Y-32408857D01*
X124534514Y-32313619D01*
X124582133Y-32266000D01*
X124677371Y-32218380D01*
X122445542Y-39669980D02*
X122112209Y-39193790D01*
X121874114Y-39669980D02*
X121874114Y-38669980D01*
X122255066Y-38669980D01*
X122350304Y-38717600D01*
X122397923Y-38765219D01*
X122445542Y-38860457D01*
X122445542Y-39003314D01*
X122397923Y-39098552D01*
X122350304Y-39146171D01*
X122255066Y-39193790D01*
X121874114Y-39193790D01*
X123397923Y-39669980D02*
X122826495Y-39669980D01*
X123112209Y-39669980D02*
X123112209Y-38669980D01*
X123016971Y-38812838D01*
X122921733Y-38908076D01*
X122826495Y-38955695D01*
X124350304Y-39669980D02*
X123778876Y-39669980D01*
X124064590Y-39669980D02*
X124064590Y-38669980D01*
X123969352Y-38812838D01*
X123874114Y-38908076D01*
X123778876Y-38955695D01*
X122137742Y-44837243D02*
X121804409Y-44361053D01*
X121566314Y-44837243D02*
X121566314Y-43837243D01*
X121947266Y-43837243D01*
X122042504Y-43884863D01*
X122090123Y-43932482D01*
X122137742Y-44027720D01*
X122137742Y-44170577D01*
X122090123Y-44265815D01*
X122042504Y-44313434D01*
X121947266Y-44361053D01*
X121566314Y-44361053D01*
X123090123Y-44837243D02*
X122518695Y-44837243D01*
X122804409Y-44837243D02*
X122804409Y-43837243D01*
X122709171Y-43980101D01*
X122613933Y-44075339D01*
X122518695Y-44122958D01*
X123471076Y-43932482D02*
X123518695Y-43884863D01*
X123613933Y-43837243D01*
X123852028Y-43837243D01*
X123947266Y-43884863D01*
X123994885Y-43932482D01*
X124042504Y-44027720D01*
X124042504Y-44122958D01*
X123994885Y-44265815D01*
X123423457Y-44837243D01*
X124042504Y-44837243D01*
X122226642Y-54998880D02*
X121893309Y-54522690D01*
X121655214Y-54998880D02*
X121655214Y-53998880D01*
X122036166Y-53998880D01*
X122131404Y-54046500D01*
X122179023Y-54094119D01*
X122226642Y-54189357D01*
X122226642Y-54332214D01*
X122179023Y-54427452D01*
X122131404Y-54475071D01*
X122036166Y-54522690D01*
X121655214Y-54522690D01*
X123179023Y-54998880D02*
X122607595Y-54998880D01*
X122893309Y-54998880D02*
X122893309Y-53998880D01*
X122798071Y-54141738D01*
X122702833Y-54236976D01*
X122607595Y-54284595D01*
X124036166Y-54332214D02*
X124036166Y-54998880D01*
X123798071Y-53951261D02*
X123559976Y-54665547D01*
X124179023Y-54665547D01*
X122467942Y-49880780D02*
X122134609Y-49404590D01*
X121896514Y-49880780D02*
X121896514Y-48880780D01*
X122277466Y-48880780D01*
X122372704Y-48928400D01*
X122420323Y-48976019D01*
X122467942Y-49071257D01*
X122467942Y-49214114D01*
X122420323Y-49309352D01*
X122372704Y-49356971D01*
X122277466Y-49404590D01*
X121896514Y-49404590D01*
X123420323Y-49880780D02*
X122848895Y-49880780D01*
X123134609Y-49880780D02*
X123134609Y-48880780D01*
X123039371Y-49023638D01*
X122944133Y-49118876D01*
X122848895Y-49166495D01*
X123753657Y-48880780D02*
X124372704Y-48880780D01*
X124039371Y-49261733D01*
X124182228Y-49261733D01*
X124277466Y-49309352D01*
X124325085Y-49356971D01*
X124372704Y-49452209D01*
X124372704Y-49690304D01*
X124325085Y-49785542D01*
X124277466Y-49833161D01*
X124182228Y-49880780D01*
X123896514Y-49880780D01*
X123801276Y-49833161D01*
X123753657Y-49785542D01*
D15*
X96186666Y-37298380D02*
X96186666Y-38012666D01*
X96139047Y-38155523D01*
X96043809Y-38250761D01*
X95900952Y-38298380D01*
X95805714Y-38298380D01*
X96567619Y-37298380D02*
X97186666Y-37298380D01*
X96853333Y-37679333D01*
X96996190Y-37679333D01*
X97091428Y-37726952D01*
X97139047Y-37774571D01*
X97186666Y-37869809D01*
X97186666Y-38107904D01*
X97139047Y-38203142D01*
X97091428Y-38250761D01*
X96996190Y-38298380D01*
X96710476Y-38298380D01*
X96615238Y-38250761D01*
X96567619Y-38203142D01*
X80075541Y-38543213D02*
X80075541Y-39257606D01*
X80027915Y-39400485D01*
X79932663Y-39495737D01*
X79789784Y-39543363D01*
X79694532Y-39543363D01*
X81075691Y-39543363D02*
X80504177Y-39543363D01*
X80789934Y-39543363D02*
X80789934Y-38543213D01*
X80694682Y-38686092D01*
X80599429Y-38781344D01*
X80504177Y-38828970D01*
M02*
