G04 #@! TF.GenerationSoftware,KiCad,Pcbnew,5.0.2+dfsg1-1*
G04 #@! TF.CreationDate,2021-01-13T15:08:11+01:00*
G04 #@! TF.ProjectId,ErgoDOX,4572676f-444f-4582-9e6b-696361645f70,rev?*
G04 #@! TF.SameCoordinates,Original*
G04 #@! TF.FileFunction,Soldermask,Bot*
G04 #@! TF.FilePolarity,Negative*
%FSLAX46Y46*%
G04 Gerber Fmt 4.6, Leading zero omitted, Abs format (unit mm)*
G04 Created by KiCad (PCBNEW 5.0.2+dfsg1-1) date Wed 13 Jan 2021 03:08:11 PM CET*
%MOMM*%
%LPD*%
G01*
G04 APERTURE LIST*
%ADD10C,0.150000*%
G04 APERTURE END LIST*
D10*
G36*
X203254059Y-56213639D02*
X203254062Y-56213640D01*
X203254063Y-56213640D01*
X203452592Y-56273863D01*
X203452594Y-56273864D01*
X203452597Y-56273865D01*
X203635558Y-56371659D01*
X203795928Y-56503272D01*
X203927541Y-56663642D01*
X204025335Y-56846603D01*
X204085561Y-57045141D01*
X204105895Y-57251600D01*
X204085561Y-57458059D01*
X204025335Y-57656597D01*
X203927541Y-57839558D01*
X203795928Y-57999928D01*
X203635558Y-58131541D01*
X203452597Y-58229335D01*
X203452594Y-58229336D01*
X203452592Y-58229337D01*
X203254063Y-58289560D01*
X203254062Y-58289560D01*
X203254059Y-58289561D01*
X203099334Y-58304800D01*
X202995866Y-58304800D01*
X202841141Y-58289561D01*
X202841138Y-58289560D01*
X202841137Y-58289560D01*
X202642608Y-58229337D01*
X202642606Y-58229336D01*
X202642603Y-58229335D01*
X202459642Y-58131541D01*
X202299272Y-57999928D01*
X202167659Y-57839558D01*
X202069865Y-57656597D01*
X202009639Y-57458059D01*
X201989305Y-57251600D01*
X202009639Y-57045141D01*
X202069865Y-56846603D01*
X202167659Y-56663642D01*
X202299272Y-56503272D01*
X202459642Y-56371659D01*
X202642603Y-56273865D01*
X202642606Y-56273864D01*
X202642608Y-56273863D01*
X202841137Y-56213640D01*
X202841138Y-56213640D01*
X202841141Y-56213639D01*
X202995866Y-56198400D01*
X203099334Y-56198400D01*
X203254059Y-56213639D01*
X203254059Y-56213639D01*
G37*
G36*
X188452960Y-52327983D02*
X188900894Y-52417082D01*
X189392846Y-52620855D01*
X189835590Y-52916687D01*
X190212113Y-53293210D01*
X190507945Y-53735954D01*
X190711718Y-54227906D01*
X190766862Y-54505137D01*
X190815600Y-54750157D01*
X190815600Y-55282643D01*
X190812235Y-55299558D01*
X190711718Y-55804894D01*
X190507945Y-56296846D01*
X190212113Y-56739590D01*
X189835590Y-57116113D01*
X189392846Y-57411945D01*
X188900894Y-57615718D01*
X188452960Y-57704817D01*
X188378643Y-57719600D01*
X187846157Y-57719600D01*
X187771840Y-57704817D01*
X187323906Y-57615718D01*
X186831954Y-57411945D01*
X186389210Y-57116113D01*
X186012687Y-56739590D01*
X185716855Y-56296846D01*
X185513082Y-55804894D01*
X185412565Y-55299558D01*
X185409200Y-55282643D01*
X185409200Y-54750157D01*
X185457938Y-54505137D01*
X185513082Y-54227906D01*
X185716855Y-53735954D01*
X186012687Y-53293210D01*
X186389210Y-52916687D01*
X186831954Y-52620855D01*
X187323906Y-52417082D01*
X187771840Y-52327983D01*
X187846157Y-52313200D01*
X188378643Y-52313200D01*
X188452960Y-52327983D01*
X188452960Y-52327983D01*
G37*
G36*
X167423200Y-57695200D02*
X165316800Y-57695200D01*
X165316800Y-55588800D01*
X167423200Y-55588800D01*
X167423200Y-57695200D01*
X167423200Y-57695200D01*
G37*
G36*
X164578400Y-57695200D02*
X162472000Y-57695200D01*
X162472000Y-55588800D01*
X164578400Y-55588800D01*
X164578400Y-57695200D01*
X164578400Y-57695200D01*
G37*
G36*
X161733600Y-57695200D02*
X159627200Y-57695200D01*
X159627200Y-55588800D01*
X161733600Y-55588800D01*
X161733600Y-57695200D01*
X161733600Y-57695200D01*
G37*
G36*
X158888800Y-57695200D02*
X156782400Y-57695200D01*
X156782400Y-55588800D01*
X158888800Y-55588800D01*
X158888800Y-57695200D01*
X158888800Y-57695200D01*
G37*
G36*
X180072400Y-57695200D02*
X177966000Y-57695200D01*
X177966000Y-55588800D01*
X180072400Y-55588800D01*
X180072400Y-57695200D01*
X180072400Y-57695200D01*
G37*
G36*
X177176800Y-57695200D02*
X175070400Y-57695200D01*
X175070400Y-55588800D01*
X177176800Y-55588800D01*
X177176800Y-57695200D01*
X177176800Y-57695200D01*
G37*
G36*
X170268000Y-57695200D02*
X168161600Y-57695200D01*
X168161600Y-55588800D01*
X170268000Y-55588800D01*
X170268000Y-57695200D01*
X170268000Y-57695200D01*
G37*
G36*
X203254059Y-53673639D02*
X203254062Y-53673640D01*
X203254063Y-53673640D01*
X203452592Y-53733863D01*
X203452594Y-53733864D01*
X203452597Y-53733865D01*
X203635558Y-53831659D01*
X203795928Y-53963272D01*
X203927541Y-54123642D01*
X204025335Y-54306603D01*
X204085561Y-54505141D01*
X204105895Y-54711600D01*
X204085561Y-54918059D01*
X204025335Y-55116597D01*
X203927541Y-55299558D01*
X203795928Y-55459928D01*
X203635558Y-55591541D01*
X203452597Y-55689335D01*
X203452594Y-55689336D01*
X203452592Y-55689337D01*
X203254063Y-55749560D01*
X203254062Y-55749560D01*
X203254059Y-55749561D01*
X203099334Y-55764800D01*
X202995866Y-55764800D01*
X202841141Y-55749561D01*
X202841138Y-55749560D01*
X202841137Y-55749560D01*
X202642608Y-55689337D01*
X202642606Y-55689336D01*
X202642603Y-55689335D01*
X202459642Y-55591541D01*
X202299272Y-55459928D01*
X202167659Y-55299558D01*
X202069865Y-55116597D01*
X202009639Y-54918059D01*
X201989305Y-54711600D01*
X202009639Y-54505141D01*
X202069865Y-54306603D01*
X202167659Y-54123642D01*
X202299272Y-53963272D01*
X202459642Y-53831659D01*
X202642603Y-53733865D01*
X202642606Y-53733864D01*
X202642608Y-53733863D01*
X202841137Y-53673640D01*
X202841138Y-53673640D01*
X202841141Y-53673639D01*
X202995866Y-53658400D01*
X203099334Y-53658400D01*
X203254059Y-53673639D01*
X203254059Y-53673639D01*
G37*
G36*
X101281600Y-54799600D02*
X99175200Y-54799600D01*
X99175200Y-52693200D01*
X101281600Y-52693200D01*
X101281600Y-54799600D01*
X101281600Y-54799600D01*
G37*
G36*
X119468000Y-54799600D02*
X117361600Y-54799600D01*
X117361600Y-52693200D01*
X119468000Y-52693200D01*
X119468000Y-54799600D01*
X119468000Y-54799600D01*
G37*
G36*
X113829200Y-54799600D02*
X111722800Y-54799600D01*
X111722800Y-52693200D01*
X113829200Y-52693200D01*
X113829200Y-54799600D01*
X113829200Y-54799600D01*
G37*
G36*
X108647600Y-54799600D02*
X106541200Y-54799600D01*
X106541200Y-52693200D01*
X108647600Y-52693200D01*
X108647600Y-54799600D01*
X108647600Y-54799600D01*
G37*
G36*
X122312800Y-54799600D02*
X120206400Y-54799600D01*
X120206400Y-52693200D01*
X122312800Y-52693200D01*
X122312800Y-54799600D01*
X122312800Y-54799600D01*
G37*
G36*
X116674000Y-54799600D02*
X114567600Y-54799600D01*
X114567600Y-52693200D01*
X116674000Y-52693200D01*
X116674000Y-54799600D01*
X116674000Y-54799600D01*
G37*
G36*
X204100800Y-53224800D02*
X201994400Y-53224800D01*
X201994400Y-51118400D01*
X204100800Y-51118400D01*
X204100800Y-53224800D01*
X204100800Y-53224800D01*
G37*
G36*
X68198888Y-49990153D02*
X68290966Y-50008469D01*
X68464437Y-50080323D01*
X68620558Y-50184639D01*
X68753327Y-50317408D01*
X68857643Y-50473529D01*
X68929497Y-50647000D01*
X68966128Y-50831156D01*
X68966128Y-51018920D01*
X68929497Y-51203076D01*
X68857643Y-51376547D01*
X68753327Y-51532668D01*
X68620558Y-51665437D01*
X68464437Y-51769753D01*
X68290966Y-51841607D01*
X68198888Y-51859922D01*
X68106811Y-51878238D01*
X67919045Y-51878238D01*
X67826968Y-51859922D01*
X67734890Y-51841607D01*
X67561419Y-51769753D01*
X67405298Y-51665437D01*
X67272529Y-51532668D01*
X67168213Y-51376547D01*
X67096359Y-51203076D01*
X67059728Y-51018920D01*
X67059728Y-50831156D01*
X67096359Y-50647000D01*
X67168213Y-50473529D01*
X67272529Y-50317408D01*
X67405298Y-50184639D01*
X67561419Y-50080323D01*
X67734890Y-50008469D01*
X67826968Y-49990154D01*
X67919045Y-49971838D01*
X68106811Y-49971838D01*
X68198888Y-49990153D01*
X68198888Y-49990153D01*
G37*
G36*
X101142700Y-51549200D02*
X99136300Y-51549200D01*
X99136300Y-49542800D01*
X101142700Y-49542800D01*
X101142700Y-51549200D01*
X101142700Y-51549200D01*
G37*
G36*
X102875215Y-49562076D02*
X102972123Y-49581352D01*
X103047746Y-49612676D01*
X103154692Y-49656975D01*
X103319006Y-49766766D01*
X103458734Y-49906494D01*
X103568525Y-50070808D01*
X103644148Y-50253378D01*
X103682700Y-50447192D01*
X103682700Y-50644808D01*
X103644148Y-50838622D01*
X103568525Y-51021192D01*
X103458734Y-51185506D01*
X103319006Y-51325234D01*
X103154692Y-51435025D01*
X103047746Y-51479324D01*
X102972123Y-51510648D01*
X102875215Y-51529924D01*
X102778308Y-51549200D01*
X102580692Y-51549200D01*
X102483785Y-51529924D01*
X102386877Y-51510648D01*
X102311254Y-51479324D01*
X102204308Y-51435025D01*
X102039994Y-51325234D01*
X101900266Y-51185506D01*
X101790475Y-51021192D01*
X101714852Y-50838622D01*
X101676300Y-50644808D01*
X101676300Y-50447192D01*
X101714852Y-50253378D01*
X101790475Y-50070808D01*
X101900266Y-49906494D01*
X102039994Y-49766766D01*
X102204308Y-49656975D01*
X102311254Y-49612676D01*
X102386877Y-49581352D01*
X102483785Y-49562076D01*
X102580692Y-49542800D01*
X102778308Y-49542800D01*
X102875215Y-49562076D01*
X102875215Y-49562076D01*
G37*
G36*
X105415215Y-49562076D02*
X105512123Y-49581352D01*
X105587746Y-49612676D01*
X105694692Y-49656975D01*
X105859006Y-49766766D01*
X105998734Y-49906494D01*
X106108525Y-50070808D01*
X106184148Y-50253378D01*
X106222700Y-50447192D01*
X106222700Y-50644808D01*
X106184148Y-50838622D01*
X106108525Y-51021192D01*
X105998734Y-51185506D01*
X105859006Y-51325234D01*
X105694692Y-51435025D01*
X105587746Y-51479324D01*
X105512123Y-51510648D01*
X105415215Y-51529924D01*
X105318308Y-51549200D01*
X105120692Y-51549200D01*
X105023785Y-51529924D01*
X104926877Y-51510648D01*
X104851254Y-51479324D01*
X104744308Y-51435025D01*
X104579994Y-51325234D01*
X104440266Y-51185506D01*
X104330475Y-51021192D01*
X104254852Y-50838622D01*
X104216300Y-50644808D01*
X104216300Y-50447192D01*
X104254852Y-50253378D01*
X104330475Y-50070808D01*
X104440266Y-49906494D01*
X104579994Y-49766766D01*
X104744308Y-49656975D01*
X104851254Y-49612676D01*
X104926877Y-49581352D01*
X105023785Y-49562076D01*
X105120692Y-49542800D01*
X105318308Y-49542800D01*
X105415215Y-49562076D01*
X105415215Y-49562076D01*
G37*
G36*
X107955215Y-49562076D02*
X108052123Y-49581352D01*
X108127746Y-49612676D01*
X108234692Y-49656975D01*
X108399006Y-49766766D01*
X108538734Y-49906494D01*
X108648525Y-50070808D01*
X108724148Y-50253378D01*
X108762700Y-50447192D01*
X108762700Y-50644808D01*
X108724148Y-50838622D01*
X108648525Y-51021192D01*
X108538734Y-51185506D01*
X108399006Y-51325234D01*
X108234692Y-51435025D01*
X108127746Y-51479324D01*
X108052123Y-51510648D01*
X107955215Y-51529924D01*
X107858308Y-51549200D01*
X107660692Y-51549200D01*
X107563785Y-51529924D01*
X107466877Y-51510648D01*
X107391254Y-51479324D01*
X107284308Y-51435025D01*
X107119994Y-51325234D01*
X106980266Y-51185506D01*
X106870475Y-51021192D01*
X106794852Y-50838622D01*
X106756300Y-50644808D01*
X106756300Y-50447192D01*
X106794852Y-50253378D01*
X106870475Y-50070808D01*
X106980266Y-49906494D01*
X107119994Y-49766766D01*
X107284308Y-49656975D01*
X107391254Y-49612676D01*
X107466877Y-49581352D01*
X107563785Y-49562076D01*
X107660692Y-49542800D01*
X107858308Y-49542800D01*
X107955215Y-49562076D01*
X107955215Y-49562076D01*
G37*
G36*
X113035215Y-49562076D02*
X113132123Y-49581352D01*
X113207746Y-49612676D01*
X113314692Y-49656975D01*
X113479006Y-49766766D01*
X113618734Y-49906494D01*
X113728525Y-50070808D01*
X113804148Y-50253378D01*
X113842700Y-50447192D01*
X113842700Y-50644808D01*
X113804148Y-50838622D01*
X113728525Y-51021192D01*
X113618734Y-51185506D01*
X113479006Y-51325234D01*
X113314692Y-51435025D01*
X113207746Y-51479324D01*
X113132123Y-51510648D01*
X113035215Y-51529924D01*
X112938308Y-51549200D01*
X112740692Y-51549200D01*
X112643785Y-51529924D01*
X112546877Y-51510648D01*
X112471254Y-51479324D01*
X112364308Y-51435025D01*
X112199994Y-51325234D01*
X112060266Y-51185506D01*
X111950475Y-51021192D01*
X111874852Y-50838622D01*
X111836300Y-50644808D01*
X111836300Y-50447192D01*
X111874852Y-50253378D01*
X111950475Y-50070808D01*
X112060266Y-49906494D01*
X112199994Y-49766766D01*
X112364308Y-49656975D01*
X112471254Y-49612676D01*
X112546877Y-49581352D01*
X112643785Y-49562076D01*
X112740692Y-49542800D01*
X112938308Y-49542800D01*
X113035215Y-49562076D01*
X113035215Y-49562076D01*
G37*
G36*
X110495215Y-49562076D02*
X110592123Y-49581352D01*
X110667746Y-49612676D01*
X110774692Y-49656975D01*
X110939006Y-49766766D01*
X111078734Y-49906494D01*
X111188525Y-50070808D01*
X111264148Y-50253378D01*
X111302700Y-50447192D01*
X111302700Y-50644808D01*
X111264148Y-50838622D01*
X111188525Y-51021192D01*
X111078734Y-51185506D01*
X110939006Y-51325234D01*
X110774692Y-51435025D01*
X110667746Y-51479324D01*
X110592123Y-51510648D01*
X110495215Y-51529924D01*
X110398308Y-51549200D01*
X110200692Y-51549200D01*
X110103785Y-51529924D01*
X110006877Y-51510648D01*
X109931254Y-51479324D01*
X109824308Y-51435025D01*
X109659994Y-51325234D01*
X109520266Y-51185506D01*
X109410475Y-51021192D01*
X109334852Y-50838622D01*
X109296300Y-50644808D01*
X109296300Y-50447192D01*
X109334852Y-50253378D01*
X109410475Y-50070808D01*
X109520266Y-49906494D01*
X109659994Y-49766766D01*
X109824308Y-49656975D01*
X109931254Y-49612676D01*
X110006877Y-49581352D01*
X110103785Y-49562076D01*
X110200692Y-49542800D01*
X110398308Y-49542800D01*
X110495215Y-49562076D01*
X110495215Y-49562076D01*
G37*
G36*
X115575215Y-49562076D02*
X115672123Y-49581352D01*
X115747746Y-49612676D01*
X115854692Y-49656975D01*
X116019006Y-49766766D01*
X116158734Y-49906494D01*
X116268525Y-50070808D01*
X116344148Y-50253378D01*
X116382700Y-50447192D01*
X116382700Y-50644808D01*
X116344148Y-50838622D01*
X116268525Y-51021192D01*
X116158734Y-51185506D01*
X116019006Y-51325234D01*
X115854692Y-51435025D01*
X115747746Y-51479324D01*
X115672123Y-51510648D01*
X115575215Y-51529924D01*
X115478308Y-51549200D01*
X115280692Y-51549200D01*
X115183785Y-51529924D01*
X115086877Y-51510648D01*
X115011254Y-51479324D01*
X114904308Y-51435025D01*
X114739994Y-51325234D01*
X114600266Y-51185506D01*
X114490475Y-51021192D01*
X114414852Y-50838622D01*
X114376300Y-50644808D01*
X114376300Y-50447192D01*
X114414852Y-50253378D01*
X114490475Y-50070808D01*
X114600266Y-49906494D01*
X114739994Y-49766766D01*
X114904308Y-49656975D01*
X115011254Y-49612676D01*
X115086877Y-49581352D01*
X115183785Y-49562076D01*
X115280692Y-49542800D01*
X115478308Y-49542800D01*
X115575215Y-49562076D01*
X115575215Y-49562076D01*
G37*
G36*
X120655215Y-49562076D02*
X120752123Y-49581352D01*
X120827746Y-49612676D01*
X120934692Y-49656975D01*
X121099006Y-49766766D01*
X121238734Y-49906494D01*
X121348525Y-50070808D01*
X121424148Y-50253378D01*
X121462700Y-50447192D01*
X121462700Y-50644808D01*
X121424148Y-50838622D01*
X121348525Y-51021192D01*
X121238734Y-51185506D01*
X121099006Y-51325234D01*
X120934692Y-51435025D01*
X120827746Y-51479324D01*
X120752123Y-51510648D01*
X120655215Y-51529924D01*
X120558308Y-51549200D01*
X120360692Y-51549200D01*
X120263785Y-51529924D01*
X120166877Y-51510648D01*
X120091254Y-51479324D01*
X119984308Y-51435025D01*
X119819994Y-51325234D01*
X119680266Y-51185506D01*
X119570475Y-51021192D01*
X119494852Y-50838622D01*
X119456300Y-50644808D01*
X119456300Y-50447192D01*
X119494852Y-50253378D01*
X119570475Y-50070808D01*
X119680266Y-49906494D01*
X119819994Y-49766766D01*
X119984308Y-49656975D01*
X120091254Y-49612676D01*
X120166877Y-49581352D01*
X120263785Y-49562076D01*
X120360692Y-49542800D01*
X120558308Y-49542800D01*
X120655215Y-49562076D01*
X120655215Y-49562076D01*
G37*
G36*
X123195215Y-49562076D02*
X123292123Y-49581352D01*
X123367746Y-49612676D01*
X123474692Y-49656975D01*
X123639006Y-49766766D01*
X123778734Y-49906494D01*
X123888525Y-50070808D01*
X123964148Y-50253378D01*
X124002700Y-50447192D01*
X124002700Y-50644808D01*
X123964148Y-50838622D01*
X123888525Y-51021192D01*
X123778734Y-51185506D01*
X123639006Y-51325234D01*
X123474692Y-51435025D01*
X123367746Y-51479324D01*
X123292123Y-51510648D01*
X123195215Y-51529924D01*
X123098308Y-51549200D01*
X122900692Y-51549200D01*
X122803785Y-51529924D01*
X122706877Y-51510648D01*
X122631254Y-51479324D01*
X122524308Y-51435025D01*
X122359994Y-51325234D01*
X122220266Y-51185506D01*
X122110475Y-51021192D01*
X122034852Y-50838622D01*
X121996300Y-50644808D01*
X121996300Y-50447192D01*
X122034852Y-50253378D01*
X122110475Y-50070808D01*
X122220266Y-49906494D01*
X122359994Y-49766766D01*
X122524308Y-49656975D01*
X122631254Y-49612676D01*
X122706877Y-49581352D01*
X122803785Y-49562076D01*
X122900692Y-49542800D01*
X123098308Y-49542800D01*
X123195215Y-49562076D01*
X123195215Y-49562076D01*
G37*
G36*
X125735215Y-49562076D02*
X125832123Y-49581352D01*
X125907746Y-49612676D01*
X126014692Y-49656975D01*
X126179006Y-49766766D01*
X126318734Y-49906494D01*
X126428525Y-50070808D01*
X126504148Y-50253378D01*
X126542700Y-50447192D01*
X126542700Y-50644808D01*
X126504148Y-50838622D01*
X126428525Y-51021192D01*
X126318734Y-51185506D01*
X126179006Y-51325234D01*
X126014692Y-51435025D01*
X125907746Y-51479324D01*
X125832123Y-51510648D01*
X125735215Y-51529924D01*
X125638308Y-51549200D01*
X125440692Y-51549200D01*
X125343785Y-51529924D01*
X125246877Y-51510648D01*
X125171254Y-51479324D01*
X125064308Y-51435025D01*
X124899994Y-51325234D01*
X124760266Y-51185506D01*
X124650475Y-51021192D01*
X124574852Y-50838622D01*
X124536300Y-50644808D01*
X124536300Y-50447192D01*
X124574852Y-50253378D01*
X124650475Y-50070808D01*
X124760266Y-49906494D01*
X124899994Y-49766766D01*
X125064308Y-49656975D01*
X125171254Y-49612676D01*
X125246877Y-49581352D01*
X125343785Y-49562076D01*
X125440692Y-49542800D01*
X125638308Y-49542800D01*
X125735215Y-49562076D01*
X125735215Y-49562076D01*
G37*
G36*
X133355215Y-49562076D02*
X133452123Y-49581352D01*
X133527746Y-49612676D01*
X133634692Y-49656975D01*
X133799006Y-49766766D01*
X133938734Y-49906494D01*
X134048525Y-50070808D01*
X134124148Y-50253378D01*
X134162700Y-50447192D01*
X134162700Y-50644808D01*
X134124148Y-50838622D01*
X134048525Y-51021192D01*
X133938734Y-51185506D01*
X133799006Y-51325234D01*
X133634692Y-51435025D01*
X133527746Y-51479324D01*
X133452123Y-51510648D01*
X133355215Y-51529924D01*
X133258308Y-51549200D01*
X133060692Y-51549200D01*
X132963785Y-51529924D01*
X132866877Y-51510648D01*
X132791254Y-51479324D01*
X132684308Y-51435025D01*
X132519994Y-51325234D01*
X132380266Y-51185506D01*
X132270475Y-51021192D01*
X132194852Y-50838622D01*
X132156300Y-50644808D01*
X132156300Y-50447192D01*
X132194852Y-50253378D01*
X132270475Y-50070808D01*
X132380266Y-49906494D01*
X132519994Y-49766766D01*
X132684308Y-49656975D01*
X132791254Y-49612676D01*
X132866877Y-49581352D01*
X132963785Y-49562076D01*
X133060692Y-49542800D01*
X133258308Y-49542800D01*
X133355215Y-49562076D01*
X133355215Y-49562076D01*
G37*
G36*
X128275215Y-49562076D02*
X128372123Y-49581352D01*
X128447746Y-49612676D01*
X128554692Y-49656975D01*
X128719006Y-49766766D01*
X128858734Y-49906494D01*
X128968525Y-50070808D01*
X129044148Y-50253378D01*
X129082700Y-50447192D01*
X129082700Y-50644808D01*
X129044148Y-50838622D01*
X128968525Y-51021192D01*
X128858734Y-51185506D01*
X128719006Y-51325234D01*
X128554692Y-51435025D01*
X128447746Y-51479324D01*
X128372123Y-51510648D01*
X128275215Y-51529924D01*
X128178308Y-51549200D01*
X127980692Y-51549200D01*
X127883785Y-51529924D01*
X127786877Y-51510648D01*
X127711254Y-51479324D01*
X127604308Y-51435025D01*
X127439994Y-51325234D01*
X127300266Y-51185506D01*
X127190475Y-51021192D01*
X127114852Y-50838622D01*
X127076300Y-50644808D01*
X127076300Y-50447192D01*
X127114852Y-50253378D01*
X127190475Y-50070808D01*
X127300266Y-49906494D01*
X127439994Y-49766766D01*
X127604308Y-49656975D01*
X127711254Y-49612676D01*
X127786877Y-49581352D01*
X127883785Y-49562076D01*
X127980692Y-49542800D01*
X128178308Y-49542800D01*
X128275215Y-49562076D01*
X128275215Y-49562076D01*
G37*
G36*
X118115215Y-49562076D02*
X118212123Y-49581352D01*
X118287746Y-49612676D01*
X118394692Y-49656975D01*
X118559006Y-49766766D01*
X118698734Y-49906494D01*
X118808525Y-50070808D01*
X118884148Y-50253378D01*
X118922700Y-50447192D01*
X118922700Y-50644808D01*
X118884148Y-50838622D01*
X118808525Y-51021192D01*
X118698734Y-51185506D01*
X118559006Y-51325234D01*
X118394692Y-51435025D01*
X118287746Y-51479324D01*
X118212123Y-51510648D01*
X118115215Y-51529924D01*
X118018308Y-51549200D01*
X117820692Y-51549200D01*
X117723785Y-51529924D01*
X117626877Y-51510648D01*
X117551254Y-51479324D01*
X117444308Y-51435025D01*
X117279994Y-51325234D01*
X117140266Y-51185506D01*
X117030475Y-51021192D01*
X116954852Y-50838622D01*
X116916300Y-50644808D01*
X116916300Y-50447192D01*
X116954852Y-50253378D01*
X117030475Y-50070808D01*
X117140266Y-49906494D01*
X117279994Y-49766766D01*
X117444308Y-49656975D01*
X117551254Y-49612676D01*
X117626877Y-49581352D01*
X117723785Y-49562076D01*
X117820692Y-49542800D01*
X118018308Y-49542800D01*
X118115215Y-49562076D01*
X118115215Y-49562076D01*
G37*
G36*
X130815215Y-49562076D02*
X130912123Y-49581352D01*
X130987746Y-49612676D01*
X131094692Y-49656975D01*
X131259006Y-49766766D01*
X131398734Y-49906494D01*
X131508525Y-50070808D01*
X131584148Y-50253378D01*
X131622700Y-50447192D01*
X131622700Y-50644808D01*
X131584148Y-50838622D01*
X131508525Y-51021192D01*
X131398734Y-51185506D01*
X131259006Y-51325234D01*
X131094692Y-51435025D01*
X130987746Y-51479324D01*
X130912123Y-51510648D01*
X130815215Y-51529924D01*
X130718308Y-51549200D01*
X130520692Y-51549200D01*
X130423785Y-51529924D01*
X130326877Y-51510648D01*
X130251254Y-51479324D01*
X130144308Y-51435025D01*
X129979994Y-51325234D01*
X129840266Y-51185506D01*
X129730475Y-51021192D01*
X129654852Y-50838622D01*
X129616300Y-50644808D01*
X129616300Y-50447192D01*
X129654852Y-50253378D01*
X129730475Y-50070808D01*
X129840266Y-49906494D01*
X129979994Y-49766766D01*
X130144308Y-49656975D01*
X130251254Y-49612676D01*
X130326877Y-49581352D01*
X130423785Y-49562076D01*
X130520692Y-49542800D01*
X130718308Y-49542800D01*
X130815215Y-49562076D01*
X130815215Y-49562076D01*
G37*
G36*
X170363837Y-45633747D02*
X170530756Y-45702887D01*
X170680984Y-45803266D01*
X170808734Y-45931016D01*
X170909113Y-46081244D01*
X170978253Y-46248163D01*
X171013500Y-46425362D01*
X171013500Y-46606038D01*
X170978253Y-46783237D01*
X170909113Y-46950156D01*
X170808734Y-47100384D01*
X170680984Y-47228134D01*
X170530756Y-47328513D01*
X170363837Y-47397653D01*
X170186638Y-47432900D01*
X170005962Y-47432900D01*
X169828763Y-47397653D01*
X169661844Y-47328513D01*
X169511616Y-47228134D01*
X169383866Y-47100384D01*
X169283487Y-46950156D01*
X169214347Y-46783237D01*
X169179100Y-46606038D01*
X169179100Y-46425362D01*
X169214347Y-46248163D01*
X169283487Y-46081244D01*
X169383866Y-45931016D01*
X169511616Y-45803266D01*
X169661844Y-45702887D01*
X169828763Y-45633747D01*
X170005962Y-45598500D01*
X170186638Y-45598500D01*
X170363837Y-45633747D01*
X170363837Y-45633747D01*
G37*
G36*
X172863837Y-45633747D02*
X173030756Y-45702887D01*
X173180984Y-45803266D01*
X173308734Y-45931016D01*
X173409113Y-46081244D01*
X173480815Y-46254348D01*
X173492366Y-46275959D01*
X173507912Y-46294901D01*
X173526854Y-46310447D01*
X173548465Y-46321998D01*
X173571914Y-46329111D01*
X173596300Y-46331513D01*
X173620686Y-46329111D01*
X173644135Y-46321998D01*
X173665746Y-46310447D01*
X173684688Y-46294901D01*
X173700234Y-46275959D01*
X173711785Y-46254348D01*
X173783487Y-46081244D01*
X173883866Y-45931016D01*
X174011616Y-45803266D01*
X174161844Y-45702887D01*
X174328763Y-45633747D01*
X174505962Y-45598500D01*
X174686638Y-45598500D01*
X174863837Y-45633747D01*
X175030756Y-45702887D01*
X175180984Y-45803266D01*
X175308734Y-45931016D01*
X175409113Y-46081244D01*
X175478253Y-46248163D01*
X175513500Y-46425362D01*
X175513500Y-46606038D01*
X175478253Y-46783237D01*
X175409113Y-46950156D01*
X175308734Y-47100384D01*
X175180984Y-47228134D01*
X175030756Y-47328513D01*
X174863837Y-47397653D01*
X174686638Y-47432900D01*
X174505962Y-47432900D01*
X174328763Y-47397653D01*
X174161844Y-47328513D01*
X174011616Y-47228134D01*
X173883866Y-47100384D01*
X173783487Y-46950156D01*
X173711785Y-46777052D01*
X173700234Y-46755441D01*
X173684688Y-46736499D01*
X173665746Y-46720953D01*
X173644135Y-46709402D01*
X173620686Y-46702289D01*
X173596300Y-46699887D01*
X173571914Y-46702289D01*
X173548465Y-46709402D01*
X173526854Y-46720953D01*
X173507912Y-46736499D01*
X173492366Y-46755441D01*
X173480815Y-46777052D01*
X173409113Y-46950156D01*
X173308734Y-47100384D01*
X173180984Y-47228134D01*
X173030756Y-47328513D01*
X172863837Y-47397653D01*
X172686638Y-47432900D01*
X172505962Y-47432900D01*
X172328763Y-47397653D01*
X172161844Y-47328513D01*
X172011616Y-47228134D01*
X171883866Y-47100384D01*
X171783487Y-46950156D01*
X171714347Y-46783237D01*
X171679100Y-46606038D01*
X171679100Y-46425362D01*
X171714347Y-46248163D01*
X171783487Y-46081244D01*
X171883866Y-45931016D01*
X172011616Y-45803266D01*
X172161844Y-45702887D01*
X172328763Y-45633747D01*
X172505962Y-45598500D01*
X172686638Y-45598500D01*
X172863837Y-45633747D01*
X172863837Y-45633747D01*
G37*
G36*
X177363837Y-45633747D02*
X177530756Y-45702887D01*
X177680984Y-45803266D01*
X177808734Y-45931016D01*
X177909113Y-46081244D01*
X177978253Y-46248163D01*
X178013500Y-46425362D01*
X178013500Y-46606038D01*
X177978253Y-46783237D01*
X177909113Y-46950156D01*
X177808734Y-47100384D01*
X177680984Y-47228134D01*
X177530756Y-47328513D01*
X177363837Y-47397653D01*
X177186638Y-47432900D01*
X177005962Y-47432900D01*
X176828763Y-47397653D01*
X176661844Y-47328513D01*
X176511616Y-47228134D01*
X176383866Y-47100384D01*
X176283487Y-46950156D01*
X176214347Y-46783237D01*
X176179100Y-46606038D01*
X176179100Y-46425362D01*
X176214347Y-46248163D01*
X176283487Y-46081244D01*
X176383866Y-45931016D01*
X176511616Y-45803266D01*
X176661844Y-45702887D01*
X176828763Y-45633747D01*
X177005962Y-45598500D01*
X177186638Y-45598500D01*
X177363837Y-45633747D01*
X177363837Y-45633747D01*
G37*
G36*
X68198888Y-44990154D02*
X68290966Y-45008469D01*
X68464437Y-45080323D01*
X68620558Y-45184639D01*
X68753327Y-45317408D01*
X68857643Y-45473529D01*
X68929497Y-45647000D01*
X68966128Y-45831156D01*
X68966128Y-46018920D01*
X68929497Y-46203076D01*
X68857643Y-46376547D01*
X68753327Y-46532668D01*
X68620558Y-46665437D01*
X68464437Y-46769753D01*
X68290966Y-46841607D01*
X68198888Y-46859922D01*
X68106811Y-46878238D01*
X67919045Y-46878238D01*
X67826968Y-46859922D01*
X67734890Y-46841607D01*
X67561419Y-46769753D01*
X67405298Y-46665437D01*
X67272529Y-46532668D01*
X67168213Y-46376547D01*
X67096359Y-46203076D01*
X67059728Y-46018920D01*
X67059728Y-45831156D01*
X67096359Y-45647000D01*
X67168213Y-45473529D01*
X67272529Y-45317408D01*
X67405298Y-45184639D01*
X67561419Y-45080323D01*
X67734890Y-45008469D01*
X67826968Y-44990153D01*
X67919045Y-44971838D01*
X68106811Y-44971838D01*
X68198888Y-44990154D01*
X68198888Y-44990154D01*
G37*
G36*
X98652700Y-46455700D02*
X96546300Y-46455700D01*
X96546300Y-44349300D01*
X98652700Y-44349300D01*
X98652700Y-46455700D01*
X98652700Y-46455700D01*
G37*
G36*
X180394668Y-41953462D02*
X180709192Y-42016024D01*
X181047909Y-42156326D01*
X181352746Y-42360011D01*
X181611989Y-42619254D01*
X181815674Y-42924091D01*
X181955976Y-43262808D01*
X182027500Y-43622388D01*
X182027500Y-43989012D01*
X181955976Y-44348592D01*
X181815674Y-44687309D01*
X181611989Y-44992146D01*
X181352746Y-45251389D01*
X181047909Y-45455074D01*
X180709192Y-45595376D01*
X180449657Y-45647000D01*
X180349614Y-45666900D01*
X179982986Y-45666900D01*
X179882943Y-45647000D01*
X179623408Y-45595376D01*
X179284691Y-45455074D01*
X178979854Y-45251389D01*
X178720611Y-44992146D01*
X178516926Y-44687309D01*
X178376624Y-44348592D01*
X178305100Y-43989012D01*
X178305100Y-43622388D01*
X178376624Y-43262808D01*
X178516926Y-42924091D01*
X178720611Y-42619254D01*
X178979854Y-42360011D01*
X179284691Y-42156326D01*
X179623408Y-42016024D01*
X179937932Y-41953462D01*
X179982986Y-41944500D01*
X180349614Y-41944500D01*
X180394668Y-41953462D01*
X180394668Y-41953462D01*
G37*
G36*
X167254668Y-41953462D02*
X167569192Y-42016024D01*
X167907909Y-42156326D01*
X168212746Y-42360011D01*
X168471989Y-42619254D01*
X168675674Y-42924091D01*
X168815976Y-43262808D01*
X168887500Y-43622388D01*
X168887500Y-43989012D01*
X168815976Y-44348592D01*
X168675674Y-44687309D01*
X168471989Y-44992146D01*
X168212746Y-45251389D01*
X167907909Y-45455074D01*
X167569192Y-45595376D01*
X167309657Y-45647000D01*
X167209614Y-45666900D01*
X166842986Y-45666900D01*
X166742943Y-45647000D01*
X166483408Y-45595376D01*
X166144691Y-45455074D01*
X165839854Y-45251389D01*
X165580611Y-44992146D01*
X165376926Y-44687309D01*
X165236624Y-44348592D01*
X165165100Y-43989012D01*
X165165100Y-43622388D01*
X165236624Y-43262808D01*
X165376926Y-42924091D01*
X165580611Y-42619254D01*
X165839854Y-42360011D01*
X166144691Y-42156326D01*
X166483408Y-42016024D01*
X166797932Y-41953462D01*
X166842986Y-41944500D01*
X167209614Y-41944500D01*
X167254668Y-41953462D01*
X167254668Y-41953462D01*
G37*
G36*
X98652700Y-43661700D02*
X96546300Y-43661700D01*
X96546300Y-41555300D01*
X98652700Y-41555300D01*
X98652700Y-43661700D01*
X98652700Y-43661700D01*
G37*
G36*
X70045934Y-34125455D02*
X70865464Y-34464915D01*
X71603026Y-34957738D01*
X72230262Y-35584974D01*
X72723085Y-36322536D01*
X73062545Y-37142066D01*
X73235600Y-38012072D01*
X73235600Y-38899128D01*
X73062545Y-39769134D01*
X72723085Y-40588664D01*
X72230262Y-41326226D01*
X71603026Y-41953462D01*
X70865464Y-42446285D01*
X70045934Y-42785745D01*
X69175928Y-42958800D01*
X68288872Y-42958800D01*
X67418866Y-42785745D01*
X66599336Y-42446285D01*
X65861774Y-41953462D01*
X65234538Y-41326226D01*
X64741715Y-40588664D01*
X64402255Y-39769134D01*
X64229200Y-38899128D01*
X64229200Y-38012072D01*
X64402255Y-37142066D01*
X64741715Y-36322536D01*
X65234538Y-35584974D01*
X65861774Y-34957738D01*
X66599336Y-34464915D01*
X67418866Y-34125455D01*
X68288872Y-33952400D01*
X69175928Y-33952400D01*
X70045934Y-34125455D01*
X70045934Y-34125455D01*
G37*
G36*
X201160734Y-33668255D02*
X201980264Y-34007715D01*
X202717826Y-34500538D01*
X203345062Y-35127774D01*
X203837885Y-35865336D01*
X204177345Y-36684866D01*
X204350400Y-37554872D01*
X204350400Y-38441928D01*
X204177345Y-39311934D01*
X203837885Y-40131464D01*
X203345062Y-40869026D01*
X202717826Y-41496262D01*
X201980264Y-41989085D01*
X201160734Y-42328545D01*
X200290728Y-42501600D01*
X199403672Y-42501600D01*
X198533666Y-42328545D01*
X197714136Y-41989085D01*
X196976574Y-41496262D01*
X196349338Y-40869026D01*
X195856515Y-40131464D01*
X195517055Y-39311934D01*
X195344000Y-38441928D01*
X195344000Y-37554872D01*
X195517055Y-36684866D01*
X195856515Y-35865336D01*
X196349338Y-35127774D01*
X196976574Y-34500538D01*
X197714136Y-34007715D01*
X198533666Y-33668255D01*
X199403672Y-33495200D01*
X200290728Y-33495200D01*
X201160734Y-33668255D01*
X201160734Y-33668255D01*
G37*
G36*
X192611235Y-38981156D02*
X192753971Y-39024454D01*
X192870465Y-39086723D01*
X192885513Y-39094766D01*
X192915547Y-39119414D01*
X193000812Y-39189388D01*
X193068911Y-39272369D01*
X193095434Y-39304687D01*
X193095435Y-39304689D01*
X193165746Y-39436229D01*
X193209044Y-39578965D01*
X193220000Y-39690206D01*
X193220000Y-40872594D01*
X193209044Y-40983835D01*
X193165746Y-41126571D01*
X193121484Y-41209377D01*
X193095434Y-41258113D01*
X193071176Y-41287671D01*
X193000810Y-41373414D01*
X192885513Y-41468034D01*
X192753970Y-41538346D01*
X192611234Y-41581644D01*
X192462800Y-41596263D01*
X192314365Y-41581644D01*
X192171629Y-41538346D01*
X192040089Y-41468035D01*
X192040087Y-41468034D01*
X192004931Y-41439182D01*
X191924786Y-41373410D01*
X191854425Y-41287673D01*
X191837098Y-41270345D01*
X191816724Y-41256731D01*
X191794085Y-41247354D01*
X191770051Y-41242573D01*
X191745547Y-41242573D01*
X191721513Y-41247353D01*
X191698874Y-41256730D01*
X191678500Y-41270344D01*
X191661172Y-41287671D01*
X191647558Y-41308045D01*
X191638181Y-41330684D01*
X191635200Y-41342584D01*
X191620702Y-41415471D01*
X191580886Y-41511596D01*
X191523078Y-41598111D01*
X191449511Y-41671678D01*
X191362996Y-41729486D01*
X191266871Y-41769302D01*
X191164825Y-41789600D01*
X191060775Y-41789600D01*
X190958729Y-41769302D01*
X190862604Y-41729486D01*
X190775974Y-41671601D01*
X190757246Y-41656231D01*
X190735635Y-41644680D01*
X190712186Y-41637567D01*
X190687800Y-41635165D01*
X190663414Y-41637567D01*
X190639965Y-41644680D01*
X190618354Y-41656231D01*
X190599626Y-41671601D01*
X190512996Y-41729486D01*
X190416871Y-41769302D01*
X190314825Y-41789600D01*
X190210775Y-41789600D01*
X190108729Y-41769302D01*
X190012604Y-41729486D01*
X189925974Y-41671601D01*
X189907246Y-41656231D01*
X189885635Y-41644680D01*
X189862186Y-41637567D01*
X189837800Y-41635165D01*
X189813414Y-41637567D01*
X189789965Y-41644680D01*
X189768354Y-41656231D01*
X189749626Y-41671601D01*
X189662996Y-41729486D01*
X189566871Y-41769302D01*
X189464825Y-41789600D01*
X189360775Y-41789600D01*
X189258729Y-41769302D01*
X189162604Y-41729486D01*
X189075974Y-41671601D01*
X189057246Y-41656231D01*
X189035635Y-41644680D01*
X189012186Y-41637567D01*
X188987800Y-41635165D01*
X188963414Y-41637567D01*
X188939965Y-41644680D01*
X188918354Y-41656231D01*
X188899626Y-41671601D01*
X188812996Y-41729486D01*
X188716871Y-41769302D01*
X188614825Y-41789600D01*
X188510775Y-41789600D01*
X188408729Y-41769302D01*
X188312604Y-41729486D01*
X188225974Y-41671601D01*
X188207246Y-41656231D01*
X188185635Y-41644680D01*
X188162186Y-41637567D01*
X188137800Y-41635165D01*
X188113414Y-41637567D01*
X188089965Y-41644680D01*
X188068354Y-41656231D01*
X188049626Y-41671601D01*
X187962996Y-41729486D01*
X187866871Y-41769302D01*
X187764825Y-41789600D01*
X187660775Y-41789600D01*
X187558729Y-41769302D01*
X187462604Y-41729486D01*
X187375974Y-41671601D01*
X187357246Y-41656231D01*
X187335635Y-41644680D01*
X187312186Y-41637567D01*
X187287800Y-41635165D01*
X187263414Y-41637567D01*
X187239965Y-41644680D01*
X187218354Y-41656231D01*
X187199626Y-41671601D01*
X187112996Y-41729486D01*
X187016871Y-41769302D01*
X186914825Y-41789600D01*
X186810775Y-41789600D01*
X186708729Y-41769302D01*
X186612604Y-41729486D01*
X186525974Y-41671601D01*
X186507246Y-41656231D01*
X186485635Y-41644680D01*
X186462186Y-41637567D01*
X186437800Y-41635165D01*
X186413414Y-41637567D01*
X186389965Y-41644680D01*
X186368354Y-41656231D01*
X186349626Y-41671601D01*
X186262996Y-41729486D01*
X186166871Y-41769302D01*
X186064825Y-41789600D01*
X185960775Y-41789600D01*
X185858729Y-41769302D01*
X185762604Y-41729486D01*
X185675974Y-41671601D01*
X185657246Y-41656231D01*
X185635635Y-41644680D01*
X185612186Y-41637567D01*
X185587800Y-41635165D01*
X185563414Y-41637567D01*
X185539965Y-41644680D01*
X185518354Y-41656231D01*
X185499626Y-41671601D01*
X185412996Y-41729486D01*
X185316871Y-41769302D01*
X185214825Y-41789600D01*
X185110775Y-41789600D01*
X185008729Y-41769302D01*
X184912604Y-41729486D01*
X184826089Y-41671678D01*
X184752522Y-41598111D01*
X184694714Y-41511596D01*
X184654898Y-41415471D01*
X184640400Y-41342584D01*
X184633287Y-41319135D01*
X184621736Y-41297524D01*
X184606190Y-41278582D01*
X184587248Y-41263037D01*
X184565637Y-41251486D01*
X184542188Y-41244373D01*
X184517802Y-41241971D01*
X184493415Y-41244373D01*
X184469966Y-41251486D01*
X184448355Y-41263037D01*
X184429413Y-41278583D01*
X184421175Y-41287673D01*
X184350812Y-41373412D01*
X184235513Y-41468034D01*
X184103970Y-41538346D01*
X183961234Y-41581644D01*
X183812800Y-41596263D01*
X183664365Y-41581644D01*
X183521629Y-41538346D01*
X183390089Y-41468035D01*
X183390087Y-41468034D01*
X183354931Y-41439182D01*
X183274786Y-41373410D01*
X183180166Y-41258113D01*
X183109854Y-41126570D01*
X183066556Y-40983834D01*
X183055600Y-40872593D01*
X183055600Y-40367365D01*
X184570000Y-40367365D01*
X184570000Y-40805435D01*
X184572402Y-40829821D01*
X184579515Y-40853270D01*
X184591066Y-40874881D01*
X184606612Y-40893823D01*
X184625554Y-40909369D01*
X184647165Y-40920920D01*
X184670614Y-40928033D01*
X184695000Y-40930435D01*
X184719386Y-40928033D01*
X184742835Y-40920920D01*
X184764446Y-40909369D01*
X184783388Y-40893823D01*
X184826089Y-40851122D01*
X184912604Y-40793314D01*
X185008729Y-40753498D01*
X185110775Y-40733200D01*
X185214825Y-40733200D01*
X185316871Y-40753498D01*
X185412996Y-40793314D01*
X185499626Y-40851199D01*
X185518354Y-40866569D01*
X185539965Y-40878120D01*
X185563414Y-40885233D01*
X185587800Y-40887635D01*
X185612186Y-40885233D01*
X185635635Y-40878120D01*
X185657246Y-40866569D01*
X185675974Y-40851199D01*
X185762604Y-40793314D01*
X185858729Y-40753498D01*
X185960775Y-40733200D01*
X186064825Y-40733200D01*
X186166871Y-40753498D01*
X186262996Y-40793314D01*
X186349626Y-40851199D01*
X186368354Y-40866569D01*
X186389965Y-40878120D01*
X186413414Y-40885233D01*
X186437800Y-40887635D01*
X186462186Y-40885233D01*
X186485635Y-40878120D01*
X186507246Y-40866569D01*
X186525974Y-40851199D01*
X186612604Y-40793314D01*
X186708729Y-40753498D01*
X186810775Y-40733200D01*
X186914825Y-40733200D01*
X187016871Y-40753498D01*
X187112996Y-40793314D01*
X187199626Y-40851199D01*
X187218354Y-40866569D01*
X187239965Y-40878120D01*
X187263414Y-40885233D01*
X187287800Y-40887635D01*
X187312186Y-40885233D01*
X187335635Y-40878120D01*
X187357246Y-40866569D01*
X187375974Y-40851199D01*
X187462604Y-40793314D01*
X187558729Y-40753498D01*
X187660775Y-40733200D01*
X187764825Y-40733200D01*
X187866871Y-40753498D01*
X187962996Y-40793314D01*
X188049626Y-40851199D01*
X188068354Y-40866569D01*
X188089965Y-40878120D01*
X188113414Y-40885233D01*
X188137800Y-40887635D01*
X188162186Y-40885233D01*
X188185635Y-40878120D01*
X188207246Y-40866569D01*
X188225974Y-40851199D01*
X188312604Y-40793314D01*
X188408729Y-40753498D01*
X188510775Y-40733200D01*
X188614825Y-40733200D01*
X188716871Y-40753498D01*
X188812996Y-40793314D01*
X188899626Y-40851199D01*
X188918354Y-40866569D01*
X188939965Y-40878120D01*
X188963414Y-40885233D01*
X188987800Y-40887635D01*
X189012186Y-40885233D01*
X189035635Y-40878120D01*
X189057246Y-40866569D01*
X189075974Y-40851199D01*
X189162604Y-40793314D01*
X189258729Y-40753498D01*
X189360775Y-40733200D01*
X189464825Y-40733200D01*
X189566871Y-40753498D01*
X189662996Y-40793314D01*
X189749626Y-40851199D01*
X189768354Y-40866569D01*
X189789965Y-40878120D01*
X189813414Y-40885233D01*
X189837800Y-40887635D01*
X189862186Y-40885233D01*
X189885635Y-40878120D01*
X189907246Y-40866569D01*
X189925974Y-40851199D01*
X190012604Y-40793314D01*
X190108729Y-40753498D01*
X190210775Y-40733200D01*
X190314825Y-40733200D01*
X190416871Y-40753498D01*
X190512996Y-40793314D01*
X190599626Y-40851199D01*
X190618354Y-40866569D01*
X190639965Y-40878120D01*
X190663414Y-40885233D01*
X190687800Y-40887635D01*
X190712186Y-40885233D01*
X190735635Y-40878120D01*
X190757246Y-40866569D01*
X190775974Y-40851199D01*
X190862604Y-40793314D01*
X190958729Y-40753498D01*
X191060775Y-40733200D01*
X191164825Y-40733200D01*
X191266871Y-40753498D01*
X191362996Y-40793314D01*
X191449511Y-40851122D01*
X191492212Y-40893823D01*
X191511154Y-40909369D01*
X191532765Y-40920920D01*
X191556214Y-40928033D01*
X191580600Y-40930435D01*
X191604986Y-40928033D01*
X191628435Y-40920920D01*
X191650046Y-40909369D01*
X191668988Y-40893823D01*
X191684534Y-40874881D01*
X191696085Y-40853270D01*
X191703198Y-40829821D01*
X191705600Y-40805435D01*
X191705600Y-40367365D01*
X191703198Y-40342979D01*
X191696085Y-40319530D01*
X191684534Y-40297919D01*
X191668988Y-40278977D01*
X191650046Y-40263431D01*
X191628435Y-40251880D01*
X191604986Y-40244767D01*
X191580600Y-40242365D01*
X191556214Y-40244767D01*
X191532765Y-40251880D01*
X191511154Y-40263431D01*
X191492212Y-40278977D01*
X191449511Y-40321678D01*
X191362996Y-40379486D01*
X191266871Y-40419302D01*
X191164825Y-40439600D01*
X191060775Y-40439600D01*
X190958729Y-40419302D01*
X190862604Y-40379486D01*
X190775974Y-40321601D01*
X190757246Y-40306231D01*
X190735635Y-40294680D01*
X190712186Y-40287567D01*
X190687800Y-40285165D01*
X190663414Y-40287567D01*
X190639965Y-40294680D01*
X190618354Y-40306231D01*
X190599626Y-40321601D01*
X190512996Y-40379486D01*
X190416871Y-40419302D01*
X190314825Y-40439600D01*
X190210775Y-40439600D01*
X190108729Y-40419302D01*
X190012604Y-40379486D01*
X189925974Y-40321601D01*
X189907246Y-40306231D01*
X189885635Y-40294680D01*
X189862186Y-40287567D01*
X189837800Y-40285165D01*
X189813414Y-40287567D01*
X189789965Y-40294680D01*
X189768354Y-40306231D01*
X189749626Y-40321601D01*
X189662996Y-40379486D01*
X189566871Y-40419302D01*
X189464825Y-40439600D01*
X189360775Y-40439600D01*
X189258729Y-40419302D01*
X189162604Y-40379486D01*
X189075974Y-40321601D01*
X189057246Y-40306231D01*
X189035635Y-40294680D01*
X189012186Y-40287567D01*
X188987800Y-40285165D01*
X188963414Y-40287567D01*
X188939965Y-40294680D01*
X188918354Y-40306231D01*
X188899626Y-40321601D01*
X188812996Y-40379486D01*
X188716871Y-40419302D01*
X188614825Y-40439600D01*
X188510775Y-40439600D01*
X188408729Y-40419302D01*
X188312604Y-40379486D01*
X188225974Y-40321601D01*
X188207246Y-40306231D01*
X188185635Y-40294680D01*
X188162186Y-40287567D01*
X188137800Y-40285165D01*
X188113414Y-40287567D01*
X188089965Y-40294680D01*
X188068354Y-40306231D01*
X188049626Y-40321601D01*
X187962996Y-40379486D01*
X187866871Y-40419302D01*
X187764825Y-40439600D01*
X187660775Y-40439600D01*
X187558729Y-40419302D01*
X187462604Y-40379486D01*
X187375974Y-40321601D01*
X187357246Y-40306231D01*
X187335635Y-40294680D01*
X187312186Y-40287567D01*
X187287800Y-40285165D01*
X187263414Y-40287567D01*
X187239965Y-40294680D01*
X187218354Y-40306231D01*
X187199626Y-40321601D01*
X187112996Y-40379486D01*
X187016871Y-40419302D01*
X186914825Y-40439600D01*
X186810775Y-40439600D01*
X186708729Y-40419302D01*
X186612604Y-40379486D01*
X186525974Y-40321601D01*
X186507246Y-40306231D01*
X186485635Y-40294680D01*
X186462186Y-40287567D01*
X186437800Y-40285165D01*
X186413414Y-40287567D01*
X186389965Y-40294680D01*
X186368354Y-40306231D01*
X186349626Y-40321601D01*
X186262996Y-40379486D01*
X186166871Y-40419302D01*
X186064825Y-40439600D01*
X185960775Y-40439600D01*
X185858729Y-40419302D01*
X185762604Y-40379486D01*
X185675974Y-40321601D01*
X185657246Y-40306231D01*
X185635635Y-40294680D01*
X185612186Y-40287567D01*
X185587800Y-40285165D01*
X185563414Y-40287567D01*
X185539965Y-40294680D01*
X185518354Y-40306231D01*
X185499626Y-40321601D01*
X185412996Y-40379486D01*
X185316871Y-40419302D01*
X185214825Y-40439600D01*
X185110775Y-40439600D01*
X185008729Y-40419302D01*
X184912604Y-40379486D01*
X184826089Y-40321678D01*
X184783388Y-40278977D01*
X184764446Y-40263431D01*
X184742835Y-40251880D01*
X184719386Y-40244767D01*
X184695000Y-40242365D01*
X184670614Y-40244767D01*
X184647165Y-40251880D01*
X184625554Y-40263431D01*
X184606612Y-40278977D01*
X184591066Y-40297919D01*
X184579515Y-40319530D01*
X184572402Y-40342979D01*
X184570000Y-40367365D01*
X183055600Y-40367365D01*
X183055601Y-39690206D01*
X183066557Y-39578965D01*
X183109855Y-39436229D01*
X183180166Y-39304689D01*
X183180167Y-39304687D01*
X183206690Y-39272369D01*
X183274789Y-39189388D01*
X183360054Y-39119414D01*
X183390088Y-39094766D01*
X183405136Y-39086723D01*
X183521630Y-39024454D01*
X183664366Y-38981156D01*
X183812800Y-38966537D01*
X183961235Y-38981156D01*
X184103971Y-39024454D01*
X184220465Y-39086723D01*
X184235513Y-39094766D01*
X184265547Y-39119414D01*
X184350812Y-39189388D01*
X184418911Y-39272369D01*
X184445434Y-39304687D01*
X184445435Y-39304689D01*
X184498472Y-39403912D01*
X184515746Y-39436230D01*
X184535430Y-39501120D01*
X184542541Y-39524562D01*
X184551919Y-39547201D01*
X184565533Y-39567575D01*
X184582860Y-39584902D01*
X184603234Y-39598516D01*
X184625873Y-39607894D01*
X184649907Y-39612674D01*
X184674411Y-39612674D01*
X184698445Y-39607894D01*
X184721084Y-39598516D01*
X184750547Y-39576664D01*
X184826089Y-39501122D01*
X184912604Y-39443314D01*
X185008729Y-39403498D01*
X185110775Y-39383200D01*
X185214825Y-39383200D01*
X185316871Y-39403498D01*
X185412996Y-39443314D01*
X185499626Y-39501199D01*
X185518354Y-39516569D01*
X185539965Y-39528120D01*
X185563414Y-39535233D01*
X185587800Y-39537635D01*
X185612186Y-39535233D01*
X185635635Y-39528120D01*
X185657246Y-39516569D01*
X185675974Y-39501199D01*
X185762604Y-39443314D01*
X185858729Y-39403498D01*
X185960775Y-39383200D01*
X186064825Y-39383200D01*
X186166871Y-39403498D01*
X186262996Y-39443314D01*
X186349626Y-39501199D01*
X186368354Y-39516569D01*
X186389965Y-39528120D01*
X186413414Y-39535233D01*
X186437800Y-39537635D01*
X186462186Y-39535233D01*
X186485635Y-39528120D01*
X186507246Y-39516569D01*
X186525974Y-39501199D01*
X186612604Y-39443314D01*
X186708729Y-39403498D01*
X186810775Y-39383200D01*
X186914825Y-39383200D01*
X187016871Y-39403498D01*
X187112996Y-39443314D01*
X187199626Y-39501199D01*
X187218354Y-39516569D01*
X187239965Y-39528120D01*
X187263414Y-39535233D01*
X187287800Y-39537635D01*
X187312186Y-39535233D01*
X187335635Y-39528120D01*
X187357246Y-39516569D01*
X187375974Y-39501199D01*
X187462604Y-39443314D01*
X187558729Y-39403498D01*
X187660775Y-39383200D01*
X187764825Y-39383200D01*
X187866871Y-39403498D01*
X187962996Y-39443314D01*
X188049626Y-39501199D01*
X188068354Y-39516569D01*
X188089965Y-39528120D01*
X188113414Y-39535233D01*
X188137800Y-39537635D01*
X188162186Y-39535233D01*
X188185635Y-39528120D01*
X188207246Y-39516569D01*
X188225974Y-39501199D01*
X188312604Y-39443314D01*
X188408729Y-39403498D01*
X188510775Y-39383200D01*
X188614825Y-39383200D01*
X188716871Y-39403498D01*
X188812996Y-39443314D01*
X188899626Y-39501199D01*
X188918354Y-39516569D01*
X188939965Y-39528120D01*
X188963414Y-39535233D01*
X188987800Y-39537635D01*
X189012186Y-39535233D01*
X189035635Y-39528120D01*
X189057246Y-39516569D01*
X189075974Y-39501199D01*
X189162604Y-39443314D01*
X189258729Y-39403498D01*
X189360775Y-39383200D01*
X189464825Y-39383200D01*
X189566871Y-39403498D01*
X189662996Y-39443314D01*
X189749626Y-39501199D01*
X189768354Y-39516569D01*
X189789965Y-39528120D01*
X189813414Y-39535233D01*
X189837800Y-39537635D01*
X189862186Y-39535233D01*
X189885635Y-39528120D01*
X189907246Y-39516569D01*
X189925974Y-39501199D01*
X190012604Y-39443314D01*
X190108729Y-39403498D01*
X190210775Y-39383200D01*
X190314825Y-39383200D01*
X190416871Y-39403498D01*
X190512996Y-39443314D01*
X190599626Y-39501199D01*
X190618354Y-39516569D01*
X190639965Y-39528120D01*
X190663414Y-39535233D01*
X190687800Y-39537635D01*
X190712186Y-39535233D01*
X190735635Y-39528120D01*
X190757246Y-39516569D01*
X190775974Y-39501199D01*
X190862604Y-39443314D01*
X190958729Y-39403498D01*
X191060775Y-39383200D01*
X191164825Y-39383200D01*
X191266871Y-39403498D01*
X191362996Y-39443314D01*
X191449511Y-39501122D01*
X191525054Y-39576665D01*
X191543996Y-39592211D01*
X191565607Y-39603762D01*
X191589056Y-39610875D01*
X191613442Y-39613277D01*
X191637828Y-39610875D01*
X191661277Y-39603762D01*
X191682888Y-39592211D01*
X191701830Y-39576665D01*
X191717376Y-39557723D01*
X191728927Y-39536112D01*
X191733060Y-39524562D01*
X191759855Y-39436229D01*
X191830166Y-39304689D01*
X191830167Y-39304687D01*
X191856690Y-39272369D01*
X191924789Y-39189388D01*
X192010054Y-39119414D01*
X192040088Y-39094766D01*
X192055136Y-39086723D01*
X192171630Y-39024454D01*
X192314366Y-38981156D01*
X192462800Y-38966537D01*
X192611235Y-38981156D01*
X192611235Y-38981156D01*
G37*
G36*
X84851735Y-37126956D02*
X84994471Y-37170254D01*
X85110965Y-37232523D01*
X85126013Y-37240566D01*
X85156047Y-37265214D01*
X85241312Y-37335188D01*
X85311286Y-37420453D01*
X85335934Y-37450487D01*
X85335935Y-37450489D01*
X85406246Y-37582029D01*
X85449544Y-37724765D01*
X85460500Y-37836006D01*
X85460500Y-39018394D01*
X85449544Y-39129635D01*
X85406246Y-39272371D01*
X85385098Y-39311935D01*
X85335934Y-39403913D01*
X85311676Y-39433471D01*
X85241310Y-39519214D01*
X85126013Y-39613834D01*
X84994470Y-39684146D01*
X84851734Y-39727444D01*
X84703300Y-39742063D01*
X84554865Y-39727444D01*
X84412129Y-39684146D01*
X84280589Y-39613835D01*
X84280587Y-39613834D01*
X84238097Y-39578963D01*
X84165286Y-39519210D01*
X84094925Y-39433473D01*
X84077598Y-39416145D01*
X84057224Y-39402531D01*
X84034585Y-39393154D01*
X84010551Y-39388373D01*
X83986047Y-39388373D01*
X83962013Y-39393153D01*
X83939374Y-39402530D01*
X83919000Y-39416144D01*
X83901672Y-39433471D01*
X83888058Y-39453845D01*
X83878681Y-39476484D01*
X83875700Y-39488384D01*
X83861202Y-39561271D01*
X83821386Y-39657396D01*
X83763578Y-39743911D01*
X83690011Y-39817478D01*
X83603496Y-39875286D01*
X83507371Y-39915102D01*
X83405325Y-39935400D01*
X83301275Y-39935400D01*
X83199229Y-39915102D01*
X83103104Y-39875286D01*
X83016474Y-39817401D01*
X82997746Y-39802031D01*
X82976135Y-39790480D01*
X82952686Y-39783367D01*
X82928300Y-39780965D01*
X82903914Y-39783367D01*
X82880465Y-39790480D01*
X82858854Y-39802031D01*
X82840126Y-39817401D01*
X82753496Y-39875286D01*
X82657371Y-39915102D01*
X82555325Y-39935400D01*
X82451275Y-39935400D01*
X82349229Y-39915102D01*
X82253104Y-39875286D01*
X82166474Y-39817401D01*
X82147746Y-39802031D01*
X82126135Y-39790480D01*
X82102686Y-39783367D01*
X82078300Y-39780965D01*
X82053914Y-39783367D01*
X82030465Y-39790480D01*
X82008854Y-39802031D01*
X81990126Y-39817401D01*
X81903496Y-39875286D01*
X81807371Y-39915102D01*
X81705325Y-39935400D01*
X81601275Y-39935400D01*
X81499229Y-39915102D01*
X81403104Y-39875286D01*
X81316474Y-39817401D01*
X81297746Y-39802031D01*
X81276135Y-39790480D01*
X81252686Y-39783367D01*
X81228300Y-39780965D01*
X81203914Y-39783367D01*
X81180465Y-39790480D01*
X81158854Y-39802031D01*
X81140126Y-39817401D01*
X81053496Y-39875286D01*
X80957371Y-39915102D01*
X80855325Y-39935400D01*
X80751275Y-39935400D01*
X80649229Y-39915102D01*
X80553104Y-39875286D01*
X80466474Y-39817401D01*
X80447746Y-39802031D01*
X80426135Y-39790480D01*
X80402686Y-39783367D01*
X80378300Y-39780965D01*
X80353914Y-39783367D01*
X80330465Y-39790480D01*
X80308854Y-39802031D01*
X80290126Y-39817401D01*
X80203496Y-39875286D01*
X80107371Y-39915102D01*
X80005325Y-39935400D01*
X79901275Y-39935400D01*
X79799229Y-39915102D01*
X79703104Y-39875286D01*
X79616474Y-39817401D01*
X79597746Y-39802031D01*
X79576135Y-39790480D01*
X79552686Y-39783367D01*
X79528300Y-39780965D01*
X79503914Y-39783367D01*
X79480465Y-39790480D01*
X79458854Y-39802031D01*
X79440126Y-39817401D01*
X79353496Y-39875286D01*
X79257371Y-39915102D01*
X79155325Y-39935400D01*
X79051275Y-39935400D01*
X78949229Y-39915102D01*
X78853104Y-39875286D01*
X78766474Y-39817401D01*
X78747746Y-39802031D01*
X78726135Y-39790480D01*
X78702686Y-39783367D01*
X78678300Y-39780965D01*
X78653914Y-39783367D01*
X78630465Y-39790480D01*
X78608854Y-39802031D01*
X78590126Y-39817401D01*
X78503496Y-39875286D01*
X78407371Y-39915102D01*
X78305325Y-39935400D01*
X78201275Y-39935400D01*
X78099229Y-39915102D01*
X78003104Y-39875286D01*
X77916474Y-39817401D01*
X77897746Y-39802031D01*
X77876135Y-39790480D01*
X77852686Y-39783367D01*
X77828300Y-39780965D01*
X77803914Y-39783367D01*
X77780465Y-39790480D01*
X77758854Y-39802031D01*
X77740126Y-39817401D01*
X77653496Y-39875286D01*
X77557371Y-39915102D01*
X77455325Y-39935400D01*
X77351275Y-39935400D01*
X77249229Y-39915102D01*
X77153104Y-39875286D01*
X77066589Y-39817478D01*
X76993022Y-39743911D01*
X76935214Y-39657396D01*
X76895398Y-39561271D01*
X76880900Y-39488384D01*
X76873787Y-39464935D01*
X76862236Y-39443324D01*
X76846690Y-39424382D01*
X76827748Y-39408837D01*
X76806137Y-39397286D01*
X76782688Y-39390173D01*
X76758302Y-39387771D01*
X76733915Y-39390173D01*
X76710466Y-39397286D01*
X76688855Y-39408837D01*
X76669913Y-39424383D01*
X76661675Y-39433473D01*
X76591312Y-39519212D01*
X76476013Y-39613834D01*
X76344470Y-39684146D01*
X76201734Y-39727444D01*
X76053300Y-39742063D01*
X75904865Y-39727444D01*
X75762129Y-39684146D01*
X75630589Y-39613835D01*
X75630587Y-39613834D01*
X75588097Y-39578963D01*
X75515286Y-39519210D01*
X75420666Y-39403913D01*
X75350354Y-39272370D01*
X75307056Y-39129634D01*
X75296100Y-39018393D01*
X75296100Y-38513165D01*
X76810500Y-38513165D01*
X76810500Y-38951235D01*
X76812902Y-38975621D01*
X76820015Y-38999070D01*
X76831566Y-39020681D01*
X76847112Y-39039623D01*
X76866054Y-39055169D01*
X76887665Y-39066720D01*
X76911114Y-39073833D01*
X76935500Y-39076235D01*
X76959886Y-39073833D01*
X76983335Y-39066720D01*
X77004946Y-39055169D01*
X77023888Y-39039623D01*
X77066589Y-38996922D01*
X77153104Y-38939114D01*
X77249229Y-38899298D01*
X77351275Y-38879000D01*
X77455325Y-38879000D01*
X77557371Y-38899298D01*
X77653496Y-38939114D01*
X77740126Y-38996999D01*
X77758854Y-39012369D01*
X77780465Y-39023920D01*
X77803914Y-39031033D01*
X77828300Y-39033435D01*
X77852686Y-39031033D01*
X77876135Y-39023920D01*
X77897746Y-39012369D01*
X77916474Y-38996999D01*
X78003104Y-38939114D01*
X78099229Y-38899298D01*
X78201275Y-38879000D01*
X78305325Y-38879000D01*
X78407371Y-38899298D01*
X78503496Y-38939114D01*
X78590126Y-38996999D01*
X78608854Y-39012369D01*
X78630465Y-39023920D01*
X78653914Y-39031033D01*
X78678300Y-39033435D01*
X78702686Y-39031033D01*
X78726135Y-39023920D01*
X78747746Y-39012369D01*
X78766474Y-38996999D01*
X78853104Y-38939114D01*
X78949229Y-38899298D01*
X79051275Y-38879000D01*
X79155325Y-38879000D01*
X79257371Y-38899298D01*
X79353496Y-38939114D01*
X79440126Y-38996999D01*
X79458854Y-39012369D01*
X79480465Y-39023920D01*
X79503914Y-39031033D01*
X79528300Y-39033435D01*
X79552686Y-39031033D01*
X79576135Y-39023920D01*
X79597746Y-39012369D01*
X79616474Y-38996999D01*
X79703104Y-38939114D01*
X79799229Y-38899298D01*
X79901275Y-38879000D01*
X80005325Y-38879000D01*
X80107371Y-38899298D01*
X80203496Y-38939114D01*
X80290126Y-38996999D01*
X80308854Y-39012369D01*
X80330465Y-39023920D01*
X80353914Y-39031033D01*
X80378300Y-39033435D01*
X80402686Y-39031033D01*
X80426135Y-39023920D01*
X80447746Y-39012369D01*
X80466474Y-38996999D01*
X80553104Y-38939114D01*
X80649229Y-38899298D01*
X80751275Y-38879000D01*
X80855325Y-38879000D01*
X80957371Y-38899298D01*
X81053496Y-38939114D01*
X81140126Y-38996999D01*
X81158854Y-39012369D01*
X81180465Y-39023920D01*
X81203914Y-39031033D01*
X81228300Y-39033435D01*
X81252686Y-39031033D01*
X81276135Y-39023920D01*
X81297746Y-39012369D01*
X81316474Y-38996999D01*
X81403104Y-38939114D01*
X81499229Y-38899298D01*
X81601275Y-38879000D01*
X81705325Y-38879000D01*
X81807371Y-38899298D01*
X81903496Y-38939114D01*
X81990126Y-38996999D01*
X82008854Y-39012369D01*
X82030465Y-39023920D01*
X82053914Y-39031033D01*
X82078300Y-39033435D01*
X82102686Y-39031033D01*
X82126135Y-39023920D01*
X82147746Y-39012369D01*
X82166474Y-38996999D01*
X82253104Y-38939114D01*
X82349229Y-38899298D01*
X82451275Y-38879000D01*
X82555325Y-38879000D01*
X82657371Y-38899298D01*
X82753496Y-38939114D01*
X82840126Y-38996999D01*
X82858854Y-39012369D01*
X82880465Y-39023920D01*
X82903914Y-39031033D01*
X82928300Y-39033435D01*
X82952686Y-39031033D01*
X82976135Y-39023920D01*
X82997746Y-39012369D01*
X83016474Y-38996999D01*
X83103104Y-38939114D01*
X83199229Y-38899298D01*
X83301275Y-38879000D01*
X83405325Y-38879000D01*
X83507371Y-38899298D01*
X83603496Y-38939114D01*
X83690011Y-38996922D01*
X83732712Y-39039623D01*
X83751654Y-39055169D01*
X83773265Y-39066720D01*
X83796714Y-39073833D01*
X83821100Y-39076235D01*
X83845486Y-39073833D01*
X83868935Y-39066720D01*
X83890546Y-39055169D01*
X83909488Y-39039623D01*
X83925034Y-39020681D01*
X83936585Y-38999070D01*
X83943698Y-38975621D01*
X83946100Y-38951235D01*
X83946100Y-38513165D01*
X83943698Y-38488779D01*
X83936585Y-38465330D01*
X83925034Y-38443719D01*
X83909488Y-38424777D01*
X83890546Y-38409231D01*
X83868935Y-38397680D01*
X83845486Y-38390567D01*
X83821100Y-38388165D01*
X83796714Y-38390567D01*
X83773265Y-38397680D01*
X83751654Y-38409231D01*
X83732712Y-38424777D01*
X83690011Y-38467478D01*
X83603496Y-38525286D01*
X83507371Y-38565102D01*
X83405325Y-38585400D01*
X83301275Y-38585400D01*
X83199229Y-38565102D01*
X83103104Y-38525286D01*
X83016474Y-38467401D01*
X82997746Y-38452031D01*
X82976135Y-38440480D01*
X82952686Y-38433367D01*
X82928300Y-38430965D01*
X82903914Y-38433367D01*
X82880465Y-38440480D01*
X82858854Y-38452031D01*
X82840126Y-38467401D01*
X82753496Y-38525286D01*
X82657371Y-38565102D01*
X82555325Y-38585400D01*
X82451275Y-38585400D01*
X82349229Y-38565102D01*
X82253104Y-38525286D01*
X82166474Y-38467401D01*
X82147746Y-38452031D01*
X82126135Y-38440480D01*
X82102686Y-38433367D01*
X82078300Y-38430965D01*
X82053914Y-38433367D01*
X82030465Y-38440480D01*
X82008854Y-38452031D01*
X81990126Y-38467401D01*
X81903496Y-38525286D01*
X81807371Y-38565102D01*
X81705325Y-38585400D01*
X81601275Y-38585400D01*
X81499229Y-38565102D01*
X81403104Y-38525286D01*
X81316474Y-38467401D01*
X81297746Y-38452031D01*
X81276135Y-38440480D01*
X81252686Y-38433367D01*
X81228300Y-38430965D01*
X81203914Y-38433367D01*
X81180465Y-38440480D01*
X81158854Y-38452031D01*
X81140126Y-38467401D01*
X81053496Y-38525286D01*
X80957371Y-38565102D01*
X80855325Y-38585400D01*
X80751275Y-38585400D01*
X80649229Y-38565102D01*
X80553104Y-38525286D01*
X80466474Y-38467401D01*
X80447746Y-38452031D01*
X80426135Y-38440480D01*
X80402686Y-38433367D01*
X80378300Y-38430965D01*
X80353914Y-38433367D01*
X80330465Y-38440480D01*
X80308854Y-38452031D01*
X80290126Y-38467401D01*
X80203496Y-38525286D01*
X80107371Y-38565102D01*
X80005325Y-38585400D01*
X79901275Y-38585400D01*
X79799229Y-38565102D01*
X79703104Y-38525286D01*
X79616474Y-38467401D01*
X79597746Y-38452031D01*
X79576135Y-38440480D01*
X79552686Y-38433367D01*
X79528300Y-38430965D01*
X79503914Y-38433367D01*
X79480465Y-38440480D01*
X79458854Y-38452031D01*
X79440126Y-38467401D01*
X79353496Y-38525286D01*
X79257371Y-38565102D01*
X79155325Y-38585400D01*
X79051275Y-38585400D01*
X78949229Y-38565102D01*
X78853104Y-38525286D01*
X78766474Y-38467401D01*
X78747746Y-38452031D01*
X78726135Y-38440480D01*
X78702686Y-38433367D01*
X78678300Y-38430965D01*
X78653914Y-38433367D01*
X78630465Y-38440480D01*
X78608854Y-38452031D01*
X78590126Y-38467401D01*
X78503496Y-38525286D01*
X78407371Y-38565102D01*
X78305325Y-38585400D01*
X78201275Y-38585400D01*
X78099229Y-38565102D01*
X78003104Y-38525286D01*
X77916474Y-38467401D01*
X77897746Y-38452031D01*
X77876135Y-38440480D01*
X77852686Y-38433367D01*
X77828300Y-38430965D01*
X77803914Y-38433367D01*
X77780465Y-38440480D01*
X77758854Y-38452031D01*
X77740126Y-38467401D01*
X77653496Y-38525286D01*
X77557371Y-38565102D01*
X77455325Y-38585400D01*
X77351275Y-38585400D01*
X77249229Y-38565102D01*
X77153104Y-38525286D01*
X77066589Y-38467478D01*
X77023888Y-38424777D01*
X77004946Y-38409231D01*
X76983335Y-38397680D01*
X76959886Y-38390567D01*
X76935500Y-38388165D01*
X76911114Y-38390567D01*
X76887665Y-38397680D01*
X76866054Y-38409231D01*
X76847112Y-38424777D01*
X76831566Y-38443719D01*
X76820015Y-38465330D01*
X76812902Y-38488779D01*
X76810500Y-38513165D01*
X75296100Y-38513165D01*
X75296101Y-37836006D01*
X75307057Y-37724765D01*
X75350355Y-37582029D01*
X75420666Y-37450489D01*
X75420667Y-37450487D01*
X75445315Y-37420453D01*
X75515289Y-37335188D01*
X75600554Y-37265214D01*
X75630588Y-37240566D01*
X75645636Y-37232523D01*
X75762130Y-37170254D01*
X75904866Y-37126956D01*
X76053300Y-37112337D01*
X76201735Y-37126956D01*
X76344471Y-37170254D01*
X76460965Y-37232523D01*
X76476013Y-37240566D01*
X76506047Y-37265214D01*
X76591312Y-37335188D01*
X76661286Y-37420453D01*
X76685934Y-37450487D01*
X76685935Y-37450489D01*
X76740931Y-37553377D01*
X76756246Y-37582030D01*
X76762861Y-37603837D01*
X76783041Y-37670362D01*
X76792419Y-37693001D01*
X76806033Y-37713375D01*
X76823360Y-37730702D01*
X76843734Y-37744316D01*
X76866373Y-37753694D01*
X76890407Y-37758474D01*
X76914911Y-37758474D01*
X76938945Y-37753694D01*
X76961584Y-37744316D01*
X76991047Y-37722464D01*
X77066589Y-37646922D01*
X77153104Y-37589114D01*
X77249229Y-37549298D01*
X77351275Y-37529000D01*
X77455325Y-37529000D01*
X77557371Y-37549298D01*
X77653496Y-37589114D01*
X77740126Y-37646999D01*
X77758854Y-37662369D01*
X77780465Y-37673920D01*
X77803914Y-37681033D01*
X77828300Y-37683435D01*
X77852686Y-37681033D01*
X77876135Y-37673920D01*
X77897746Y-37662369D01*
X77916474Y-37646999D01*
X78003104Y-37589114D01*
X78099229Y-37549298D01*
X78201275Y-37529000D01*
X78305325Y-37529000D01*
X78407371Y-37549298D01*
X78503496Y-37589114D01*
X78590126Y-37646999D01*
X78608854Y-37662369D01*
X78630465Y-37673920D01*
X78653914Y-37681033D01*
X78678300Y-37683435D01*
X78702686Y-37681033D01*
X78726135Y-37673920D01*
X78747746Y-37662369D01*
X78766474Y-37646999D01*
X78853104Y-37589114D01*
X78949229Y-37549298D01*
X79051275Y-37529000D01*
X79155325Y-37529000D01*
X79257371Y-37549298D01*
X79353496Y-37589114D01*
X79440126Y-37646999D01*
X79458854Y-37662369D01*
X79480465Y-37673920D01*
X79503914Y-37681033D01*
X79528300Y-37683435D01*
X79552686Y-37681033D01*
X79576135Y-37673920D01*
X79597746Y-37662369D01*
X79616474Y-37646999D01*
X79703104Y-37589114D01*
X79799229Y-37549298D01*
X79901275Y-37529000D01*
X80005325Y-37529000D01*
X80107371Y-37549298D01*
X80203496Y-37589114D01*
X80290126Y-37646999D01*
X80308854Y-37662369D01*
X80330465Y-37673920D01*
X80353914Y-37681033D01*
X80378300Y-37683435D01*
X80402686Y-37681033D01*
X80426135Y-37673920D01*
X80447746Y-37662369D01*
X80466474Y-37646999D01*
X80553104Y-37589114D01*
X80649229Y-37549298D01*
X80751275Y-37529000D01*
X80855325Y-37529000D01*
X80957371Y-37549298D01*
X81053496Y-37589114D01*
X81140126Y-37646999D01*
X81158854Y-37662369D01*
X81180465Y-37673920D01*
X81203914Y-37681033D01*
X81228300Y-37683435D01*
X81252686Y-37681033D01*
X81276135Y-37673920D01*
X81297746Y-37662369D01*
X81316474Y-37646999D01*
X81403104Y-37589114D01*
X81499229Y-37549298D01*
X81601275Y-37529000D01*
X81705325Y-37529000D01*
X81807371Y-37549298D01*
X81903496Y-37589114D01*
X81990126Y-37646999D01*
X82008854Y-37662369D01*
X82030465Y-37673920D01*
X82053914Y-37681033D01*
X82078300Y-37683435D01*
X82102686Y-37681033D01*
X82126135Y-37673920D01*
X82147746Y-37662369D01*
X82166474Y-37646999D01*
X82253104Y-37589114D01*
X82349229Y-37549298D01*
X82451275Y-37529000D01*
X82555325Y-37529000D01*
X82657371Y-37549298D01*
X82753496Y-37589114D01*
X82840126Y-37646999D01*
X82858854Y-37662369D01*
X82880465Y-37673920D01*
X82903914Y-37681033D01*
X82928300Y-37683435D01*
X82952686Y-37681033D01*
X82976135Y-37673920D01*
X82997746Y-37662369D01*
X83016474Y-37646999D01*
X83103104Y-37589114D01*
X83199229Y-37549298D01*
X83301275Y-37529000D01*
X83405325Y-37529000D01*
X83507371Y-37549298D01*
X83603496Y-37589114D01*
X83690011Y-37646922D01*
X83765554Y-37722465D01*
X83784496Y-37738011D01*
X83806107Y-37749562D01*
X83829556Y-37756675D01*
X83853942Y-37759077D01*
X83878328Y-37756675D01*
X83901777Y-37749562D01*
X83923388Y-37738011D01*
X83942330Y-37722465D01*
X83957876Y-37703523D01*
X83969427Y-37681912D01*
X83973560Y-37670362D01*
X84000355Y-37582029D01*
X84070666Y-37450489D01*
X84070667Y-37450487D01*
X84095315Y-37420453D01*
X84165289Y-37335188D01*
X84250554Y-37265214D01*
X84280588Y-37240566D01*
X84295636Y-37232523D01*
X84412130Y-37170254D01*
X84554866Y-37126956D01*
X84703300Y-37112337D01*
X84851735Y-37126956D01*
X84851735Y-37126956D01*
G37*
G36*
X102875215Y-36862076D02*
X102972123Y-36881352D01*
X103012915Y-36898249D01*
X103154692Y-36956975D01*
X103319006Y-37066766D01*
X103458734Y-37206494D01*
X103568525Y-37370808D01*
X103601529Y-37450487D01*
X103634051Y-37529000D01*
X103644148Y-37553378D01*
X103682700Y-37747192D01*
X103682700Y-37944808D01*
X103644148Y-38138622D01*
X103568525Y-38321192D01*
X103458734Y-38485506D01*
X103319006Y-38625234D01*
X103154692Y-38735025D01*
X103047746Y-38779324D01*
X102972123Y-38810648D01*
X102875215Y-38829924D01*
X102778308Y-38849200D01*
X102580692Y-38849200D01*
X102483785Y-38829924D01*
X102386877Y-38810648D01*
X102311254Y-38779324D01*
X102204308Y-38735025D01*
X102039994Y-38625234D01*
X101900266Y-38485506D01*
X101790475Y-38321192D01*
X101714852Y-38138622D01*
X101676300Y-37944808D01*
X101676300Y-37747192D01*
X101714852Y-37553378D01*
X101724950Y-37529000D01*
X101757471Y-37450487D01*
X101790475Y-37370808D01*
X101900266Y-37206494D01*
X102039994Y-37066766D01*
X102204308Y-36956975D01*
X102346085Y-36898249D01*
X102386877Y-36881352D01*
X102483785Y-36862076D01*
X102580692Y-36842800D01*
X102778308Y-36842800D01*
X102875215Y-36862076D01*
X102875215Y-36862076D01*
G37*
G36*
X183961235Y-35601156D02*
X184103971Y-35644454D01*
X184156326Y-35672439D01*
X184235513Y-35714766D01*
X184265547Y-35739414D01*
X184350812Y-35809388D01*
X184403187Y-35873209D01*
X184445434Y-35924687D01*
X184445435Y-35924689D01*
X184515746Y-36056229D01*
X184559044Y-36198965D01*
X184570000Y-36310206D01*
X184570000Y-37492594D01*
X184559044Y-37603835D01*
X184515746Y-37746571D01*
X184509061Y-37759077D01*
X184445434Y-37878113D01*
X184424903Y-37903130D01*
X184350810Y-37993414D01*
X184235513Y-38088034D01*
X184103970Y-38158346D01*
X183961234Y-38201644D01*
X183812800Y-38216263D01*
X183664365Y-38201644D01*
X183521629Y-38158346D01*
X183390089Y-38088035D01*
X183390087Y-38088034D01*
X183354931Y-38059182D01*
X183274786Y-37993410D01*
X183180166Y-37878113D01*
X183109854Y-37746570D01*
X183066556Y-37603834D01*
X183055600Y-37492593D01*
X183055601Y-36310206D01*
X183066557Y-36198965D01*
X183109855Y-36056229D01*
X183180166Y-35924689D01*
X183180167Y-35924687D01*
X183222414Y-35873209D01*
X183274789Y-35809388D01*
X183360054Y-35739414D01*
X183390088Y-35714766D01*
X183469275Y-35672439D01*
X183521630Y-35644454D01*
X183664366Y-35601156D01*
X183812800Y-35586537D01*
X183961235Y-35601156D01*
X183961235Y-35601156D01*
G37*
G36*
X192611235Y-35601156D02*
X192753971Y-35644454D01*
X192806326Y-35672439D01*
X192885513Y-35714766D01*
X192915547Y-35739414D01*
X193000812Y-35809388D01*
X193053187Y-35873209D01*
X193095434Y-35924687D01*
X193095435Y-35924689D01*
X193165746Y-36056229D01*
X193209044Y-36198965D01*
X193220000Y-36310206D01*
X193220000Y-37492594D01*
X193209044Y-37603835D01*
X193165746Y-37746571D01*
X193159061Y-37759077D01*
X193095434Y-37878113D01*
X193074903Y-37903130D01*
X193000810Y-37993414D01*
X192885513Y-38088034D01*
X192753970Y-38158346D01*
X192611234Y-38201644D01*
X192462800Y-38216263D01*
X192314365Y-38201644D01*
X192171629Y-38158346D01*
X192040089Y-38088035D01*
X192040087Y-38088034D01*
X192004931Y-38059182D01*
X191924786Y-37993410D01*
X191830166Y-37878113D01*
X191759854Y-37746570D01*
X191716556Y-37603834D01*
X191705600Y-37492593D01*
X191705601Y-36310206D01*
X191716557Y-36198965D01*
X191759855Y-36056229D01*
X191830166Y-35924689D01*
X191830167Y-35924687D01*
X191872414Y-35873209D01*
X191924789Y-35809388D01*
X192010054Y-35739414D01*
X192040088Y-35714766D01*
X192119275Y-35672439D01*
X192171630Y-35644454D01*
X192314366Y-35601156D01*
X192462800Y-35586537D01*
X192611235Y-35601156D01*
X192611235Y-35601156D01*
G37*
G36*
X141248724Y-35112998D02*
X141355292Y-35134195D01*
X141438453Y-35168642D01*
X141556060Y-35217356D01*
X141736751Y-35338090D01*
X141890410Y-35491749D01*
X142011144Y-35672440D01*
X142043120Y-35749637D01*
X142094305Y-35873208D01*
X142098117Y-35892371D01*
X142136700Y-36086343D01*
X142136700Y-36303657D01*
X142094305Y-36516791D01*
X142011144Y-36717560D01*
X141890410Y-36898251D01*
X141736751Y-37051910D01*
X141556060Y-37172644D01*
X141474331Y-37206497D01*
X141355292Y-37255805D01*
X141248724Y-37277002D01*
X141142157Y-37298200D01*
X140924843Y-37298200D01*
X140818276Y-37277002D01*
X140711708Y-37255805D01*
X140592669Y-37206497D01*
X140510940Y-37172644D01*
X140330249Y-37051910D01*
X140176590Y-36898251D01*
X140055856Y-36717560D01*
X139972695Y-36516791D01*
X139930300Y-36303657D01*
X139930300Y-36086343D01*
X139968883Y-35892371D01*
X139972695Y-35873208D01*
X140023880Y-35749637D01*
X140055856Y-35672440D01*
X140176590Y-35491749D01*
X140330249Y-35338090D01*
X140510940Y-35217356D01*
X140628547Y-35168642D01*
X140711708Y-35134195D01*
X140818276Y-35112997D01*
X140924843Y-35091800D01*
X141142157Y-35091800D01*
X141248724Y-35112998D01*
X141248724Y-35112998D01*
G37*
G36*
X149756700Y-37298200D02*
X147550300Y-37298200D01*
X147550300Y-35091800D01*
X149756700Y-35091800D01*
X149756700Y-37298200D01*
X149756700Y-37298200D01*
G37*
G36*
X139596700Y-37298200D02*
X137390300Y-37298200D01*
X137390300Y-35091800D01*
X139596700Y-35091800D01*
X139596700Y-37298200D01*
X139596700Y-37298200D01*
G37*
G36*
X151408724Y-35112998D02*
X151515292Y-35134195D01*
X151598453Y-35168642D01*
X151716060Y-35217356D01*
X151896751Y-35338090D01*
X152050410Y-35491749D01*
X152171144Y-35672440D01*
X152203120Y-35749637D01*
X152254305Y-35873208D01*
X152258117Y-35892371D01*
X152296700Y-36086343D01*
X152296700Y-36303657D01*
X152254305Y-36516791D01*
X152171144Y-36717560D01*
X152050410Y-36898251D01*
X151896751Y-37051910D01*
X151716060Y-37172644D01*
X151634331Y-37206497D01*
X151515292Y-37255805D01*
X151408724Y-37277002D01*
X151302157Y-37298200D01*
X151084843Y-37298200D01*
X150978276Y-37277002D01*
X150871708Y-37255805D01*
X150752669Y-37206497D01*
X150670940Y-37172644D01*
X150490249Y-37051910D01*
X150336590Y-36898251D01*
X150215856Y-36717560D01*
X150132695Y-36516791D01*
X150090300Y-36303657D01*
X150090300Y-36086343D01*
X150128883Y-35892371D01*
X150132695Y-35873208D01*
X150183880Y-35749637D01*
X150215856Y-35672440D01*
X150336590Y-35491749D01*
X150490249Y-35338090D01*
X150670940Y-35217356D01*
X150788547Y-35168642D01*
X150871708Y-35134195D01*
X150978276Y-35112997D01*
X151084843Y-35091800D01*
X151302157Y-35091800D01*
X151408724Y-35112998D01*
X151408724Y-35112998D01*
G37*
G36*
X156742724Y-35049497D02*
X156849292Y-35070695D01*
X156932453Y-35105142D01*
X157050060Y-35153856D01*
X157230751Y-35274590D01*
X157384410Y-35428249D01*
X157505144Y-35608940D01*
X157517344Y-35638394D01*
X157588305Y-35809708D01*
X157609503Y-35916276D01*
X157630700Y-36022843D01*
X157630700Y-36240157D01*
X157588305Y-36453291D01*
X157505144Y-36654060D01*
X157384410Y-36834751D01*
X157230751Y-36988410D01*
X157050060Y-37109144D01*
X156970581Y-37142065D01*
X156849292Y-37192305D01*
X156777958Y-37206494D01*
X156636157Y-37234700D01*
X156418843Y-37234700D01*
X156277042Y-37206494D01*
X156205708Y-37192305D01*
X156084419Y-37142065D01*
X156004940Y-37109144D01*
X155824249Y-36988410D01*
X155670590Y-36834751D01*
X155549856Y-36654060D01*
X155466695Y-36453291D01*
X155424300Y-36240157D01*
X155424300Y-36022843D01*
X155445497Y-35916276D01*
X155466695Y-35809708D01*
X155537656Y-35638394D01*
X155549856Y-35608940D01*
X155670590Y-35428249D01*
X155824249Y-35274590D01*
X156004940Y-35153856D01*
X156122547Y-35105142D01*
X156205708Y-35070695D01*
X156312276Y-35049497D01*
X156418843Y-35028300D01*
X156636157Y-35028300D01*
X156742724Y-35049497D01*
X156742724Y-35049497D01*
G37*
G36*
X160424700Y-37234700D02*
X158218300Y-37234700D01*
X158218300Y-35028300D01*
X160424700Y-35028300D01*
X160424700Y-37234700D01*
X160424700Y-37234700D01*
G37*
G36*
X162076724Y-35049497D02*
X162183292Y-35070695D01*
X162266453Y-35105142D01*
X162384060Y-35153856D01*
X162564751Y-35274590D01*
X162718410Y-35428249D01*
X162839144Y-35608940D01*
X162851344Y-35638394D01*
X162922305Y-35809708D01*
X162943503Y-35916276D01*
X162964700Y-36022843D01*
X162964700Y-36240157D01*
X162922305Y-36453291D01*
X162839144Y-36654060D01*
X162718410Y-36834751D01*
X162564751Y-36988410D01*
X162384060Y-37109144D01*
X162304581Y-37142065D01*
X162183292Y-37192305D01*
X162111958Y-37206494D01*
X161970157Y-37234700D01*
X161752843Y-37234700D01*
X161611042Y-37206494D01*
X161539708Y-37192305D01*
X161418419Y-37142065D01*
X161338940Y-37109144D01*
X161158249Y-36988410D01*
X161004590Y-36834751D01*
X160883856Y-36654060D01*
X160800695Y-36453291D01*
X160758300Y-36240157D01*
X160758300Y-36022843D01*
X160779497Y-35916276D01*
X160800695Y-35809708D01*
X160871656Y-35638394D01*
X160883856Y-35608940D01*
X161004590Y-35428249D01*
X161158249Y-35274590D01*
X161338940Y-35153856D01*
X161456547Y-35105142D01*
X161539708Y-35070695D01*
X161646276Y-35049497D01*
X161752843Y-35028300D01*
X161970157Y-35028300D01*
X162076724Y-35049497D01*
X162076724Y-35049497D01*
G37*
G36*
X155090700Y-37234700D02*
X152884300Y-37234700D01*
X152884300Y-35028300D01*
X155090700Y-35028300D01*
X155090700Y-37234700D01*
X155090700Y-37234700D01*
G37*
G36*
X146265224Y-34985998D02*
X146371792Y-35007195D01*
X146454953Y-35041642D01*
X146572560Y-35090356D01*
X146753251Y-35211090D01*
X146906910Y-35364749D01*
X147027644Y-35545440D01*
X147053946Y-35608939D01*
X147110805Y-35746208D01*
X147111487Y-35749636D01*
X147153200Y-35959343D01*
X147153200Y-36176657D01*
X147140569Y-36240156D01*
X147116321Y-36362063D01*
X147110805Y-36389791D01*
X147027644Y-36590560D01*
X146906910Y-36771251D01*
X146753251Y-36924910D01*
X146572560Y-37045644D01*
X146454953Y-37094358D01*
X146371792Y-37128805D01*
X146265224Y-37150002D01*
X146158657Y-37171200D01*
X145941343Y-37171200D01*
X145834776Y-37150003D01*
X145728208Y-37128805D01*
X145645047Y-37094358D01*
X145527440Y-37045644D01*
X145346749Y-36924910D01*
X145193090Y-36771251D01*
X145072356Y-36590560D01*
X144989195Y-36389791D01*
X144983680Y-36362063D01*
X144959431Y-36240156D01*
X144946800Y-36176657D01*
X144946800Y-35959343D01*
X144988513Y-35749636D01*
X144989195Y-35746208D01*
X145046054Y-35608939D01*
X145072356Y-35545440D01*
X145193090Y-35364749D01*
X145346749Y-35211090D01*
X145527440Y-35090356D01*
X145645047Y-35041642D01*
X145728208Y-35007195D01*
X145834776Y-34985997D01*
X145941343Y-34964800D01*
X146158657Y-34964800D01*
X146265224Y-34985998D01*
X146265224Y-34985998D01*
G37*
G36*
X144613200Y-37171200D02*
X142406800Y-37171200D01*
X142406800Y-34964800D01*
X144613200Y-34964800D01*
X144613200Y-37171200D01*
X144613200Y-37171200D01*
G37*
G36*
X84851735Y-33746956D02*
X84994471Y-33790254D01*
X85110965Y-33852523D01*
X85126013Y-33860566D01*
X85156047Y-33885214D01*
X85241312Y-33955188D01*
X85311286Y-34040453D01*
X85335934Y-34070487D01*
X85335935Y-34070489D01*
X85406246Y-34202029D01*
X85449544Y-34344765D01*
X85460500Y-34456006D01*
X85460500Y-35638394D01*
X85449544Y-35749635D01*
X85406246Y-35892371D01*
X85377844Y-35945506D01*
X85335934Y-36023913D01*
X85309413Y-36056229D01*
X85241310Y-36139214D01*
X85126013Y-36233834D01*
X84994470Y-36304146D01*
X84851734Y-36347444D01*
X84703300Y-36362063D01*
X84554865Y-36347444D01*
X84412129Y-36304146D01*
X84292416Y-36240157D01*
X84280587Y-36233834D01*
X84233297Y-36195024D01*
X84165286Y-36139210D01*
X84070666Y-36023913D01*
X84000354Y-35892370D01*
X83957056Y-35749634D01*
X83946100Y-35638393D01*
X83946101Y-34456006D01*
X83957057Y-34344765D01*
X84000355Y-34202029D01*
X84070666Y-34070489D01*
X84070667Y-34070487D01*
X84095315Y-34040453D01*
X84165289Y-33955188D01*
X84250554Y-33885214D01*
X84280588Y-33860566D01*
X84295636Y-33852523D01*
X84412130Y-33790254D01*
X84554866Y-33746956D01*
X84703300Y-33732337D01*
X84851735Y-33746956D01*
X84851735Y-33746956D01*
G37*
G36*
X76201735Y-33746956D02*
X76344471Y-33790254D01*
X76460965Y-33852523D01*
X76476013Y-33860566D01*
X76506047Y-33885214D01*
X76591312Y-33955188D01*
X76661286Y-34040453D01*
X76685934Y-34070487D01*
X76685935Y-34070489D01*
X76756246Y-34202029D01*
X76799544Y-34344765D01*
X76810500Y-34456006D01*
X76810500Y-35638394D01*
X76799544Y-35749635D01*
X76756246Y-35892371D01*
X76727844Y-35945506D01*
X76685934Y-36023913D01*
X76659413Y-36056229D01*
X76591310Y-36139214D01*
X76476013Y-36233834D01*
X76344470Y-36304146D01*
X76201734Y-36347444D01*
X76053300Y-36362063D01*
X75904865Y-36347444D01*
X75762129Y-36304146D01*
X75642416Y-36240157D01*
X75630587Y-36233834D01*
X75583297Y-36195024D01*
X75515286Y-36139210D01*
X75420666Y-36023913D01*
X75350354Y-35892370D01*
X75307056Y-35749634D01*
X75296100Y-35638393D01*
X75296101Y-34456006D01*
X75307057Y-34344765D01*
X75350355Y-34202029D01*
X75420666Y-34070489D01*
X75420667Y-34070487D01*
X75445315Y-34040453D01*
X75515289Y-33955188D01*
X75600554Y-33885214D01*
X75630588Y-33860566D01*
X75645636Y-33852523D01*
X75762130Y-33790254D01*
X75904866Y-33746956D01*
X76053300Y-33732337D01*
X76201735Y-33746956D01*
X76201735Y-33746956D01*
G37*
G36*
X125735215Y-34322076D02*
X125832123Y-34341352D01*
X125907746Y-34372676D01*
X126014692Y-34416975D01*
X126179006Y-34526766D01*
X126318734Y-34666494D01*
X126428525Y-34830808D01*
X126472824Y-34937754D01*
X126504148Y-35013377D01*
X126542700Y-35207193D01*
X126542700Y-35404807D01*
X126504148Y-35598623D01*
X126487674Y-35638394D01*
X126428525Y-35781192D01*
X126318734Y-35945506D01*
X126179006Y-36085234D01*
X126014692Y-36195025D01*
X125920999Y-36233834D01*
X125832123Y-36270648D01*
X125735215Y-36289924D01*
X125638308Y-36309200D01*
X125440692Y-36309200D01*
X125343785Y-36289924D01*
X125246877Y-36270648D01*
X125158001Y-36233834D01*
X125064308Y-36195025D01*
X124899994Y-36085234D01*
X124760266Y-35945506D01*
X124650475Y-35781192D01*
X124591326Y-35638394D01*
X124574852Y-35598623D01*
X124536300Y-35404807D01*
X124536300Y-35207193D01*
X124574852Y-35013377D01*
X124606177Y-34937754D01*
X124650475Y-34830808D01*
X124760266Y-34666494D01*
X124899994Y-34526766D01*
X125064308Y-34416975D01*
X125171254Y-34372676D01*
X125246877Y-34341352D01*
X125343785Y-34322076D01*
X125440692Y-34302800D01*
X125638308Y-34302800D01*
X125735215Y-34322076D01*
X125735215Y-34322076D01*
G37*
G36*
X128275215Y-34322076D02*
X128372123Y-34341352D01*
X128447746Y-34372676D01*
X128554692Y-34416975D01*
X128719006Y-34526766D01*
X128858734Y-34666494D01*
X128968525Y-34830808D01*
X129012824Y-34937754D01*
X129044148Y-35013377D01*
X129082700Y-35207193D01*
X129082700Y-35404807D01*
X129044148Y-35598623D01*
X129027674Y-35638394D01*
X128968525Y-35781192D01*
X128858734Y-35945506D01*
X128719006Y-36085234D01*
X128554692Y-36195025D01*
X128460999Y-36233834D01*
X128372123Y-36270648D01*
X128275215Y-36289924D01*
X128178308Y-36309200D01*
X127980692Y-36309200D01*
X127883785Y-36289924D01*
X127786877Y-36270648D01*
X127698001Y-36233834D01*
X127604308Y-36195025D01*
X127439994Y-36085234D01*
X127300266Y-35945506D01*
X127190475Y-35781192D01*
X127131326Y-35638394D01*
X127114852Y-35598623D01*
X127076300Y-35404807D01*
X127076300Y-35207193D01*
X127114852Y-35013377D01*
X127146177Y-34937754D01*
X127190475Y-34830808D01*
X127300266Y-34666494D01*
X127439994Y-34526766D01*
X127604308Y-34416975D01*
X127711254Y-34372676D01*
X127786877Y-34341352D01*
X127883785Y-34322076D01*
X127980692Y-34302800D01*
X128178308Y-34302800D01*
X128275215Y-34322076D01*
X128275215Y-34322076D01*
G37*
G36*
X130815215Y-34322076D02*
X130912123Y-34341352D01*
X130987746Y-34372676D01*
X131094692Y-34416975D01*
X131259006Y-34526766D01*
X131398734Y-34666494D01*
X131508525Y-34830808D01*
X131552824Y-34937754D01*
X131584148Y-35013377D01*
X131622700Y-35207193D01*
X131622700Y-35404807D01*
X131584148Y-35598623D01*
X131567674Y-35638394D01*
X131508525Y-35781192D01*
X131398734Y-35945506D01*
X131259006Y-36085234D01*
X131094692Y-36195025D01*
X131000999Y-36233834D01*
X130912123Y-36270648D01*
X130815215Y-36289924D01*
X130718308Y-36309200D01*
X130520692Y-36309200D01*
X130423785Y-36289924D01*
X130326877Y-36270648D01*
X130238001Y-36233834D01*
X130144308Y-36195025D01*
X129979994Y-36085234D01*
X129840266Y-35945506D01*
X129730475Y-35781192D01*
X129671326Y-35638394D01*
X129654852Y-35598623D01*
X129616300Y-35404807D01*
X129616300Y-35207193D01*
X129654852Y-35013377D01*
X129686177Y-34937754D01*
X129730475Y-34830808D01*
X129840266Y-34666494D01*
X129979994Y-34526766D01*
X130144308Y-34416975D01*
X130251254Y-34372676D01*
X130326877Y-34341352D01*
X130423785Y-34322076D01*
X130520692Y-34302800D01*
X130718308Y-34302800D01*
X130815215Y-34322076D01*
X130815215Y-34322076D01*
G37*
G36*
X133355215Y-34322076D02*
X133452123Y-34341352D01*
X133527746Y-34372676D01*
X133634692Y-34416975D01*
X133799006Y-34526766D01*
X133938734Y-34666494D01*
X134048525Y-34830808D01*
X134092824Y-34937754D01*
X134124148Y-35013377D01*
X134162700Y-35207193D01*
X134162700Y-35404807D01*
X134124148Y-35598623D01*
X134107674Y-35638394D01*
X134048525Y-35781192D01*
X133938734Y-35945506D01*
X133799006Y-36085234D01*
X133634692Y-36195025D01*
X133540999Y-36233834D01*
X133452123Y-36270648D01*
X133355215Y-36289924D01*
X133258308Y-36309200D01*
X133060692Y-36309200D01*
X132963785Y-36289924D01*
X132866877Y-36270648D01*
X132778001Y-36233834D01*
X132684308Y-36195025D01*
X132519994Y-36085234D01*
X132380266Y-35945506D01*
X132270475Y-35781192D01*
X132211326Y-35638394D01*
X132194852Y-35598623D01*
X132156300Y-35404807D01*
X132156300Y-35207193D01*
X132194852Y-35013377D01*
X132226177Y-34937754D01*
X132270475Y-34830808D01*
X132380266Y-34666494D01*
X132519994Y-34526766D01*
X132684308Y-34416975D01*
X132791254Y-34372676D01*
X132866877Y-34341352D01*
X132963785Y-34322076D01*
X133060692Y-34302800D01*
X133258308Y-34302800D01*
X133355215Y-34322076D01*
X133355215Y-34322076D01*
G37*
G36*
X120655215Y-34322076D02*
X120752123Y-34341352D01*
X120827746Y-34372676D01*
X120934692Y-34416975D01*
X121099006Y-34526766D01*
X121238734Y-34666494D01*
X121348525Y-34830808D01*
X121392824Y-34937754D01*
X121424148Y-35013377D01*
X121462700Y-35207193D01*
X121462700Y-35404807D01*
X121424148Y-35598623D01*
X121407674Y-35638394D01*
X121348525Y-35781192D01*
X121238734Y-35945506D01*
X121099006Y-36085234D01*
X120934692Y-36195025D01*
X120840999Y-36233834D01*
X120752123Y-36270648D01*
X120655215Y-36289924D01*
X120558308Y-36309200D01*
X120360692Y-36309200D01*
X120263785Y-36289924D01*
X120166877Y-36270648D01*
X120078001Y-36233834D01*
X119984308Y-36195025D01*
X119819994Y-36085234D01*
X119680266Y-35945506D01*
X119570475Y-35781192D01*
X119511326Y-35638394D01*
X119494852Y-35598623D01*
X119456300Y-35404807D01*
X119456300Y-35207193D01*
X119494852Y-35013377D01*
X119526176Y-34937754D01*
X119570475Y-34830808D01*
X119680266Y-34666494D01*
X119819994Y-34526766D01*
X119984308Y-34416975D01*
X120091254Y-34372676D01*
X120166877Y-34341352D01*
X120263785Y-34322076D01*
X120360692Y-34302800D01*
X120558308Y-34302800D01*
X120655215Y-34322076D01*
X120655215Y-34322076D01*
G37*
G36*
X118115215Y-34322076D02*
X118212123Y-34341352D01*
X118287746Y-34372676D01*
X118394692Y-34416975D01*
X118559006Y-34526766D01*
X118698734Y-34666494D01*
X118808525Y-34830808D01*
X118852824Y-34937754D01*
X118884148Y-35013377D01*
X118922700Y-35207193D01*
X118922700Y-35404807D01*
X118884148Y-35598623D01*
X118867674Y-35638394D01*
X118808525Y-35781192D01*
X118698734Y-35945506D01*
X118559006Y-36085234D01*
X118394692Y-36195025D01*
X118300999Y-36233834D01*
X118212123Y-36270648D01*
X118115215Y-36289924D01*
X118018308Y-36309200D01*
X117820692Y-36309200D01*
X117723785Y-36289924D01*
X117626877Y-36270648D01*
X117538001Y-36233834D01*
X117444308Y-36195025D01*
X117279994Y-36085234D01*
X117140266Y-35945506D01*
X117030475Y-35781192D01*
X116971326Y-35638394D01*
X116954852Y-35598623D01*
X116916300Y-35404807D01*
X116916300Y-35207193D01*
X116954852Y-35013377D01*
X116986176Y-34937754D01*
X117030475Y-34830808D01*
X117140266Y-34666494D01*
X117279994Y-34526766D01*
X117444308Y-34416975D01*
X117551254Y-34372676D01*
X117626877Y-34341352D01*
X117723785Y-34322076D01*
X117820692Y-34302800D01*
X118018308Y-34302800D01*
X118115215Y-34322076D01*
X118115215Y-34322076D01*
G37*
G36*
X115575215Y-34322076D02*
X115672123Y-34341352D01*
X115747746Y-34372676D01*
X115854692Y-34416975D01*
X116019006Y-34526766D01*
X116158734Y-34666494D01*
X116268525Y-34830808D01*
X116312824Y-34937754D01*
X116344148Y-35013377D01*
X116382700Y-35207193D01*
X116382700Y-35404807D01*
X116344148Y-35598623D01*
X116327674Y-35638394D01*
X116268525Y-35781192D01*
X116158734Y-35945506D01*
X116019006Y-36085234D01*
X115854692Y-36195025D01*
X115760999Y-36233834D01*
X115672123Y-36270648D01*
X115575215Y-36289924D01*
X115478308Y-36309200D01*
X115280692Y-36309200D01*
X115183785Y-36289924D01*
X115086877Y-36270648D01*
X114998001Y-36233834D01*
X114904308Y-36195025D01*
X114739994Y-36085234D01*
X114600266Y-35945506D01*
X114490475Y-35781192D01*
X114431326Y-35638394D01*
X114414852Y-35598623D01*
X114376300Y-35404807D01*
X114376300Y-35207193D01*
X114414852Y-35013377D01*
X114446176Y-34937754D01*
X114490475Y-34830808D01*
X114600266Y-34666494D01*
X114739994Y-34526766D01*
X114904308Y-34416975D01*
X115011254Y-34372676D01*
X115086877Y-34341352D01*
X115183785Y-34322076D01*
X115280692Y-34302800D01*
X115478308Y-34302800D01*
X115575215Y-34322076D01*
X115575215Y-34322076D01*
G37*
G36*
X113035215Y-34322076D02*
X113132123Y-34341352D01*
X113207746Y-34372676D01*
X113314692Y-34416975D01*
X113479006Y-34526766D01*
X113618734Y-34666494D01*
X113728525Y-34830808D01*
X113772824Y-34937754D01*
X113804148Y-35013377D01*
X113842700Y-35207193D01*
X113842700Y-35404807D01*
X113804148Y-35598623D01*
X113787674Y-35638394D01*
X113728525Y-35781192D01*
X113618734Y-35945506D01*
X113479006Y-36085234D01*
X113314692Y-36195025D01*
X113220999Y-36233834D01*
X113132123Y-36270648D01*
X113035215Y-36289924D01*
X112938308Y-36309200D01*
X112740692Y-36309200D01*
X112643785Y-36289924D01*
X112546877Y-36270648D01*
X112458001Y-36233834D01*
X112364308Y-36195025D01*
X112199994Y-36085234D01*
X112060266Y-35945506D01*
X111950475Y-35781192D01*
X111891326Y-35638394D01*
X111874852Y-35598623D01*
X111836300Y-35404807D01*
X111836300Y-35207193D01*
X111874852Y-35013377D01*
X111906176Y-34937754D01*
X111950475Y-34830808D01*
X112060266Y-34666494D01*
X112199994Y-34526766D01*
X112364308Y-34416975D01*
X112471254Y-34372676D01*
X112546877Y-34341352D01*
X112643785Y-34322076D01*
X112740692Y-34302800D01*
X112938308Y-34302800D01*
X113035215Y-34322076D01*
X113035215Y-34322076D01*
G37*
G36*
X110495215Y-34322076D02*
X110592123Y-34341352D01*
X110667746Y-34372676D01*
X110774692Y-34416975D01*
X110939006Y-34526766D01*
X111078734Y-34666494D01*
X111188525Y-34830808D01*
X111232824Y-34937754D01*
X111264148Y-35013377D01*
X111302700Y-35207193D01*
X111302700Y-35404807D01*
X111264148Y-35598623D01*
X111247674Y-35638394D01*
X111188525Y-35781192D01*
X111078734Y-35945506D01*
X110939006Y-36085234D01*
X110774692Y-36195025D01*
X110680999Y-36233834D01*
X110592123Y-36270648D01*
X110495215Y-36289924D01*
X110398308Y-36309200D01*
X110200692Y-36309200D01*
X110103785Y-36289924D01*
X110006877Y-36270648D01*
X109918001Y-36233834D01*
X109824308Y-36195025D01*
X109659994Y-36085234D01*
X109520266Y-35945506D01*
X109410475Y-35781192D01*
X109351326Y-35638394D01*
X109334852Y-35598623D01*
X109296300Y-35404807D01*
X109296300Y-35207193D01*
X109334852Y-35013377D01*
X109366176Y-34937754D01*
X109410475Y-34830808D01*
X109520266Y-34666494D01*
X109659994Y-34526766D01*
X109824308Y-34416975D01*
X109931254Y-34372676D01*
X110006877Y-34341352D01*
X110103785Y-34322076D01*
X110200692Y-34302800D01*
X110398308Y-34302800D01*
X110495215Y-34322076D01*
X110495215Y-34322076D01*
G37*
G36*
X107955215Y-34322076D02*
X108052123Y-34341352D01*
X108127746Y-34372676D01*
X108234692Y-34416975D01*
X108399006Y-34526766D01*
X108538734Y-34666494D01*
X108648525Y-34830808D01*
X108692824Y-34937754D01*
X108724148Y-35013377D01*
X108762700Y-35207193D01*
X108762700Y-35404807D01*
X108724148Y-35598623D01*
X108707674Y-35638394D01*
X108648525Y-35781192D01*
X108538734Y-35945506D01*
X108399006Y-36085234D01*
X108234692Y-36195025D01*
X108140999Y-36233834D01*
X108052123Y-36270648D01*
X107955215Y-36289924D01*
X107858308Y-36309200D01*
X107660692Y-36309200D01*
X107563785Y-36289924D01*
X107466877Y-36270648D01*
X107378001Y-36233834D01*
X107284308Y-36195025D01*
X107119994Y-36085234D01*
X106980266Y-35945506D01*
X106870475Y-35781192D01*
X106811326Y-35638394D01*
X106794852Y-35598623D01*
X106756300Y-35404807D01*
X106756300Y-35207193D01*
X106794852Y-35013377D01*
X106826176Y-34937754D01*
X106870475Y-34830808D01*
X106980266Y-34666494D01*
X107119994Y-34526766D01*
X107284308Y-34416975D01*
X107391254Y-34372676D01*
X107466877Y-34341352D01*
X107563785Y-34322076D01*
X107660692Y-34302800D01*
X107858308Y-34302800D01*
X107955215Y-34322076D01*
X107955215Y-34322076D01*
G37*
G36*
X105415215Y-34322076D02*
X105512123Y-34341352D01*
X105587746Y-34372676D01*
X105694692Y-34416975D01*
X105859006Y-34526766D01*
X105998734Y-34666494D01*
X106108525Y-34830808D01*
X106152824Y-34937754D01*
X106184148Y-35013377D01*
X106222700Y-35207193D01*
X106222700Y-35404807D01*
X106184148Y-35598623D01*
X106167674Y-35638394D01*
X106108525Y-35781192D01*
X105998734Y-35945506D01*
X105859006Y-36085234D01*
X105694692Y-36195025D01*
X105600999Y-36233834D01*
X105512123Y-36270648D01*
X105415215Y-36289924D01*
X105318308Y-36309200D01*
X105120692Y-36309200D01*
X105023785Y-36289924D01*
X104926877Y-36270648D01*
X104838001Y-36233834D01*
X104744308Y-36195025D01*
X104579994Y-36085234D01*
X104440266Y-35945506D01*
X104330475Y-35781192D01*
X104271326Y-35638394D01*
X104254852Y-35598623D01*
X104216300Y-35404807D01*
X104216300Y-35207193D01*
X104254852Y-35013377D01*
X104286176Y-34937754D01*
X104330475Y-34830808D01*
X104440266Y-34666494D01*
X104579994Y-34526766D01*
X104744308Y-34416975D01*
X104851254Y-34372676D01*
X104926877Y-34341352D01*
X105023785Y-34322076D01*
X105120692Y-34302800D01*
X105318308Y-34302800D01*
X105415215Y-34322076D01*
X105415215Y-34322076D01*
G37*
G36*
X102875215Y-34322076D02*
X102972123Y-34341352D01*
X103047746Y-34372676D01*
X103154692Y-34416975D01*
X103319006Y-34526766D01*
X103458734Y-34666494D01*
X103568525Y-34830808D01*
X103612824Y-34937754D01*
X103644148Y-35013377D01*
X103682700Y-35207193D01*
X103682700Y-35404807D01*
X103644148Y-35598623D01*
X103627674Y-35638394D01*
X103568525Y-35781192D01*
X103458734Y-35945506D01*
X103319006Y-36085234D01*
X103154692Y-36195025D01*
X103060999Y-36233834D01*
X102972123Y-36270648D01*
X102875215Y-36289924D01*
X102778308Y-36309200D01*
X102580692Y-36309200D01*
X102483785Y-36289924D01*
X102386877Y-36270648D01*
X102298001Y-36233834D01*
X102204308Y-36195025D01*
X102039994Y-36085234D01*
X101900266Y-35945506D01*
X101790475Y-35781192D01*
X101731326Y-35638394D01*
X101714852Y-35598623D01*
X101676300Y-35404807D01*
X101676300Y-35207193D01*
X101714852Y-35013377D01*
X101746176Y-34937754D01*
X101790475Y-34830808D01*
X101900266Y-34666494D01*
X102039994Y-34526766D01*
X102204308Y-34416975D01*
X102311254Y-34372676D01*
X102386877Y-34341352D01*
X102483785Y-34322076D01*
X102580692Y-34302800D01*
X102778308Y-34302800D01*
X102875215Y-34322076D01*
X102875215Y-34322076D01*
G37*
G36*
X100335215Y-34322076D02*
X100432123Y-34341352D01*
X100507746Y-34372676D01*
X100614692Y-34416975D01*
X100779006Y-34526766D01*
X100918734Y-34666494D01*
X101028525Y-34830808D01*
X101072824Y-34937754D01*
X101104148Y-35013377D01*
X101142700Y-35207193D01*
X101142700Y-35404807D01*
X101104148Y-35598623D01*
X101087674Y-35638394D01*
X101028525Y-35781192D01*
X100918734Y-35945506D01*
X100779006Y-36085234D01*
X100614692Y-36195025D01*
X100520999Y-36233834D01*
X100432123Y-36270648D01*
X100335215Y-36289924D01*
X100238308Y-36309200D01*
X100040692Y-36309200D01*
X99943785Y-36289924D01*
X99846877Y-36270648D01*
X99758001Y-36233834D01*
X99664308Y-36195025D01*
X99499994Y-36085234D01*
X99360266Y-35945506D01*
X99250475Y-35781192D01*
X99191326Y-35638394D01*
X99174852Y-35598623D01*
X99136300Y-35404807D01*
X99136300Y-35207193D01*
X99174852Y-35013377D01*
X99206176Y-34937754D01*
X99250475Y-34830808D01*
X99360266Y-34666494D01*
X99499994Y-34526766D01*
X99664308Y-34416975D01*
X99771254Y-34372676D01*
X99846877Y-34341352D01*
X99943785Y-34322076D01*
X100040692Y-34302800D01*
X100238308Y-34302800D01*
X100335215Y-34322076D01*
X100335215Y-34322076D01*
G37*
G36*
X123195215Y-34322076D02*
X123292123Y-34341352D01*
X123367746Y-34372676D01*
X123474692Y-34416975D01*
X123639006Y-34526766D01*
X123778734Y-34666494D01*
X123888525Y-34830808D01*
X123932824Y-34937754D01*
X123964148Y-35013377D01*
X124002700Y-35207193D01*
X124002700Y-35404807D01*
X123964148Y-35598623D01*
X123947674Y-35638394D01*
X123888525Y-35781192D01*
X123778734Y-35945506D01*
X123639006Y-36085234D01*
X123474692Y-36195025D01*
X123380999Y-36233834D01*
X123292123Y-36270648D01*
X123195215Y-36289924D01*
X123098308Y-36309200D01*
X122900692Y-36309200D01*
X122803785Y-36289924D01*
X122706877Y-36270648D01*
X122618001Y-36233834D01*
X122524308Y-36195025D01*
X122359994Y-36085234D01*
X122220266Y-35945506D01*
X122110475Y-35781192D01*
X122051326Y-35638394D01*
X122034852Y-35598623D01*
X121996300Y-35404807D01*
X121996300Y-35207193D01*
X122034852Y-35013377D01*
X122066177Y-34937754D01*
X122110475Y-34830808D01*
X122220266Y-34666494D01*
X122359994Y-34526766D01*
X122524308Y-34416975D01*
X122631254Y-34372676D01*
X122706877Y-34341352D01*
X122803785Y-34322076D01*
X122900692Y-34302800D01*
X123098308Y-34302800D01*
X123195215Y-34322076D01*
X123195215Y-34322076D01*
G37*
M02*
