G04 #@! TF.GenerationSoftware,KiCad,Pcbnew,(5.1.6)-1*
G04 #@! TF.CreationDate,2021-03-14T20:17:39+01:00*
G04 #@! TF.ProjectId,ErgoDOX,4572676f-444f-4582-9e6b-696361645f70,rev?*
G04 #@! TF.SameCoordinates,Original*
G04 #@! TF.FileFunction,Paste,Top*
G04 #@! TF.FilePolarity,Positive*
%FSLAX46Y46*%
G04 Gerber Fmt 4.6, Leading zero omitted, Abs format (unit mm)*
G04 Created by KiCad (PCBNEW (5.1.6)-1) date 2021-03-14 20:17:39*
%MOMM*%
%LPD*%
G01*
G04 APERTURE LIST*
%ADD10R,0.650000X1.060000*%
%ADD11R,0.400000X1.200000*%
%ADD12R,0.600000X1.500000*%
G04 APERTURE END LIST*
G36*
G01*
X72805280Y-72394589D02*
X74055280Y-72394589D01*
G75*
G02*
X74305280Y-72644589I0J-250000D01*
G01*
X74305280Y-73394589D01*
G75*
G02*
X74055280Y-73644589I-250000J0D01*
G01*
X72805280Y-73644589D01*
G75*
G02*
X72555280Y-73394589I0J250000D01*
G01*
X72555280Y-72644589D01*
G75*
G02*
X72805280Y-72394589I250000J0D01*
G01*
G37*
G36*
G01*
X72805280Y-75194589D02*
X74055280Y-75194589D01*
G75*
G02*
X74305280Y-75444589I0J-250000D01*
G01*
X74305280Y-76194589D01*
G75*
G02*
X74055280Y-76444589I-250000J0D01*
G01*
X72805280Y-76444589D01*
G75*
G02*
X72555280Y-76194589I0J250000D01*
G01*
X72555280Y-75444589D01*
G75*
G02*
X72805280Y-75194589I250000J0D01*
G01*
G37*
G36*
G01*
X75396080Y-72372189D02*
X76646080Y-72372189D01*
G75*
G02*
X76896080Y-72622189I0J-250000D01*
G01*
X76896080Y-73372189D01*
G75*
G02*
X76646080Y-73622189I-250000J0D01*
G01*
X75396080Y-73622189D01*
G75*
G02*
X75146080Y-73372189I0J250000D01*
G01*
X75146080Y-72622189D01*
G75*
G02*
X75396080Y-72372189I250000J0D01*
G01*
G37*
G36*
G01*
X75396080Y-75172189D02*
X76646080Y-75172189D01*
G75*
G02*
X76896080Y-75422189I0J-250000D01*
G01*
X76896080Y-76172189D01*
G75*
G02*
X76646080Y-76422189I-250000J0D01*
G01*
X75396080Y-76422189D01*
G75*
G02*
X75146080Y-76172189I0J250000D01*
G01*
X75146080Y-75422189D01*
G75*
G02*
X75396080Y-75172189I250000J0D01*
G01*
G37*
D10*
X97470000Y-46906000D03*
X96520000Y-46906000D03*
X95570000Y-46906000D03*
X95570000Y-49106000D03*
X97470000Y-49106000D03*
X96520000Y-49106000D03*
G36*
G01*
X75047000Y-39674500D02*
X73797000Y-39674500D01*
G75*
G02*
X73547000Y-39424500I0J250000D01*
G01*
X73547000Y-38674500D01*
G75*
G02*
X73797000Y-38424500I250000J0D01*
G01*
X75047000Y-38424500D01*
G75*
G02*
X75297000Y-38674500I0J-250000D01*
G01*
X75297000Y-39424500D01*
G75*
G02*
X75047000Y-39674500I-250000J0D01*
G01*
G37*
G36*
G01*
X75047000Y-42474500D02*
X73797000Y-42474500D01*
G75*
G02*
X73547000Y-42224500I0J250000D01*
G01*
X73547000Y-41474500D01*
G75*
G02*
X73797000Y-41224500I250000J0D01*
G01*
X75047000Y-41224500D01*
G75*
G02*
X75297000Y-41474500I0J-250000D01*
G01*
X75297000Y-42224500D01*
G75*
G02*
X75047000Y-42474500I-250000J0D01*
G01*
G37*
D11*
X67374675Y-50583866D03*
X68009675Y-50583866D03*
X68644675Y-50583866D03*
X69279675Y-50583866D03*
X69914675Y-50583866D03*
X70549675Y-50583866D03*
X71184675Y-50583866D03*
X71819675Y-50583866D03*
X72454675Y-50583866D03*
X73089675Y-50583866D03*
X73724675Y-50583866D03*
X74359675Y-50583866D03*
X74994675Y-50583866D03*
X75629675Y-50583866D03*
X75629675Y-45383866D03*
X74994675Y-45383866D03*
X74359675Y-45383866D03*
X73724675Y-45383866D03*
X73089675Y-45383866D03*
X72454675Y-45383866D03*
X71819675Y-45383866D03*
X71184675Y-45383866D03*
X70549675Y-45383866D03*
X69914675Y-45383866D03*
X69279675Y-45383866D03*
X68644675Y-45383866D03*
X68009675Y-45383866D03*
X67374675Y-45383866D03*
G36*
G01*
X65776000Y-44777500D02*
X65776000Y-46027500D01*
G75*
G02*
X65526000Y-46277500I-250000J0D01*
G01*
X64776000Y-46277500D01*
G75*
G02*
X64526000Y-46027500I0J250000D01*
G01*
X64526000Y-44777500D01*
G75*
G02*
X64776000Y-44527500I250000J0D01*
G01*
X65526000Y-44527500D01*
G75*
G02*
X65776000Y-44777500I0J-250000D01*
G01*
G37*
G36*
G01*
X62976000Y-44777500D02*
X62976000Y-46027500D01*
G75*
G02*
X62726000Y-46277500I-250000J0D01*
G01*
X61976000Y-46277500D01*
G75*
G02*
X61726000Y-46027500I0J250000D01*
G01*
X61726000Y-44777500D01*
G75*
G02*
X61976000Y-44527500I250000J0D01*
G01*
X62726000Y-44527500D01*
G75*
G02*
X62976000Y-44777500I0J-250000D01*
G01*
G37*
G36*
G01*
X100510500Y-49653000D02*
X99260500Y-49653000D01*
G75*
G02*
X99010500Y-49403000I0J250000D01*
G01*
X99010500Y-48653000D01*
G75*
G02*
X99260500Y-48403000I250000J0D01*
G01*
X100510500Y-48403000D01*
G75*
G02*
X100760500Y-48653000I0J-250000D01*
G01*
X100760500Y-49403000D01*
G75*
G02*
X100510500Y-49653000I-250000J0D01*
G01*
G37*
G36*
G01*
X100510500Y-46853000D02*
X99260500Y-46853000D01*
G75*
G02*
X99010500Y-46603000I0J250000D01*
G01*
X99010500Y-45853000D01*
G75*
G02*
X99260500Y-45603000I250000J0D01*
G01*
X100510500Y-45603000D01*
G75*
G02*
X100760500Y-45853000I0J-250000D01*
G01*
X100760500Y-46603000D01*
G75*
G02*
X100510500Y-46853000I-250000J0D01*
G01*
G37*
G36*
G01*
X117335000Y-39126000D02*
X117335000Y-40376000D01*
G75*
G02*
X117085000Y-40626000I-250000J0D01*
G01*
X116335000Y-40626000D01*
G75*
G02*
X116085000Y-40376000I0J250000D01*
G01*
X116085000Y-39126000D01*
G75*
G02*
X116335000Y-38876000I250000J0D01*
G01*
X117085000Y-38876000D01*
G75*
G02*
X117335000Y-39126000I0J-250000D01*
G01*
G37*
G36*
G01*
X120135000Y-39126000D02*
X120135000Y-40376000D01*
G75*
G02*
X119885000Y-40626000I-250000J0D01*
G01*
X119135000Y-40626000D01*
G75*
G02*
X118885000Y-40376000I0J250000D01*
G01*
X118885000Y-39126000D01*
G75*
G02*
X119135000Y-38876000I250000J0D01*
G01*
X119885000Y-38876000D01*
G75*
G02*
X120135000Y-39126000I0J-250000D01*
G01*
G37*
G36*
G01*
X132755800Y-61422900D02*
X131505800Y-61422900D01*
G75*
G02*
X131255800Y-61172900I0J250000D01*
G01*
X131255800Y-60422900D01*
G75*
G02*
X131505800Y-60172900I250000J0D01*
G01*
X132755800Y-60172900D01*
G75*
G02*
X133005800Y-60422900I0J-250000D01*
G01*
X133005800Y-61172900D01*
G75*
G02*
X132755800Y-61422900I-250000J0D01*
G01*
G37*
G36*
G01*
X132755800Y-58622900D02*
X131505800Y-58622900D01*
G75*
G02*
X131255800Y-58372900I0J250000D01*
G01*
X131255800Y-57622900D01*
G75*
G02*
X131505800Y-57372900I250000J0D01*
G01*
X132755800Y-57372900D01*
G75*
G02*
X133005800Y-57622900I0J-250000D01*
G01*
X133005800Y-58372900D01*
G75*
G02*
X132755800Y-58622900I-250000J0D01*
G01*
G37*
G36*
G01*
X77159500Y-50726500D02*
X77159500Y-49476500D01*
G75*
G02*
X77409500Y-49226500I250000J0D01*
G01*
X78159500Y-49226500D01*
G75*
G02*
X78409500Y-49476500I0J-250000D01*
G01*
X78409500Y-50726500D01*
G75*
G02*
X78159500Y-50976500I-250000J0D01*
G01*
X77409500Y-50976500D01*
G75*
G02*
X77159500Y-50726500I0J250000D01*
G01*
G37*
G36*
G01*
X79959500Y-50726500D02*
X79959500Y-49476500D01*
G75*
G02*
X80209500Y-49226500I250000J0D01*
G01*
X80959500Y-49226500D01*
G75*
G02*
X81209500Y-49476500I0J-250000D01*
G01*
X81209500Y-50726500D01*
G75*
G02*
X80959500Y-50976500I-250000J0D01*
G01*
X80209500Y-50976500D01*
G75*
G02*
X79959500Y-50726500I0J250000D01*
G01*
G37*
G36*
G01*
X68340541Y-30763094D02*
X69590541Y-30763094D01*
G75*
G02*
X69840541Y-31013094I0J-250000D01*
G01*
X69840541Y-31763094D01*
G75*
G02*
X69590541Y-32013094I-250000J0D01*
G01*
X68340541Y-32013094D01*
G75*
G02*
X68090541Y-31763094I0J250000D01*
G01*
X68090541Y-31013094D01*
G75*
G02*
X68340541Y-30763094I250000J0D01*
G01*
G37*
G36*
G01*
X68340541Y-33563094D02*
X69590541Y-33563094D01*
G75*
G02*
X69840541Y-33813094I0J-250000D01*
G01*
X69840541Y-34563094D01*
G75*
G02*
X69590541Y-34813094I-250000J0D01*
G01*
X68340541Y-34813094D01*
G75*
G02*
X68090541Y-34563094I0J250000D01*
G01*
X68090541Y-33813094D01*
G75*
G02*
X68340541Y-33563094I250000J0D01*
G01*
G37*
G36*
G01*
X67177541Y-32013094D02*
X65927541Y-32013094D01*
G75*
G02*
X65677541Y-31763094I0J250000D01*
G01*
X65677541Y-31013094D01*
G75*
G02*
X65927541Y-30763094I250000J0D01*
G01*
X67177541Y-30763094D01*
G75*
G02*
X67427541Y-31013094I0J-250000D01*
G01*
X67427541Y-31763094D01*
G75*
G02*
X67177541Y-32013094I-250000J0D01*
G01*
G37*
G36*
G01*
X67177541Y-34813094D02*
X65927541Y-34813094D01*
G75*
G02*
X65677541Y-34563094I0J250000D01*
G01*
X65677541Y-33813094D01*
G75*
G02*
X65927541Y-33563094I250000J0D01*
G01*
X67177541Y-33563094D01*
G75*
G02*
X67427541Y-33813094I0J-250000D01*
G01*
X67427541Y-34563094D01*
G75*
G02*
X67177541Y-34813094I-250000J0D01*
G01*
G37*
G36*
G01*
X63514541Y-30763094D02*
X64764541Y-30763094D01*
G75*
G02*
X65014541Y-31013094I0J-250000D01*
G01*
X65014541Y-31763094D01*
G75*
G02*
X64764541Y-32013094I-250000J0D01*
G01*
X63514541Y-32013094D01*
G75*
G02*
X63264541Y-31763094I0J250000D01*
G01*
X63264541Y-31013094D01*
G75*
G02*
X63514541Y-30763094I250000J0D01*
G01*
G37*
G36*
G01*
X63514541Y-33563094D02*
X64764541Y-33563094D01*
G75*
G02*
X65014541Y-33813094I0J-250000D01*
G01*
X65014541Y-34563094D01*
G75*
G02*
X64764541Y-34813094I-250000J0D01*
G01*
X63514541Y-34813094D01*
G75*
G02*
X63264541Y-34563094I0J250000D01*
G01*
X63264541Y-33813094D01*
G75*
G02*
X63514541Y-33563094I250000J0D01*
G01*
G37*
G36*
G01*
X62288041Y-32013094D02*
X61038041Y-32013094D01*
G75*
G02*
X60788041Y-31763094I0J250000D01*
G01*
X60788041Y-31013094D01*
G75*
G02*
X61038041Y-30763094I250000J0D01*
G01*
X62288041Y-30763094D01*
G75*
G02*
X62538041Y-31013094I0J-250000D01*
G01*
X62538041Y-31763094D01*
G75*
G02*
X62288041Y-32013094I-250000J0D01*
G01*
G37*
G36*
G01*
X62288041Y-34813094D02*
X61038041Y-34813094D01*
G75*
G02*
X60788041Y-34563094I0J250000D01*
G01*
X60788041Y-33813094D01*
G75*
G02*
X61038041Y-33563094I250000J0D01*
G01*
X62288041Y-33563094D01*
G75*
G02*
X62538041Y-33813094I0J-250000D01*
G01*
X62538041Y-34563094D01*
G75*
G02*
X62288041Y-34813094I-250000J0D01*
G01*
G37*
G36*
G01*
X70749000Y-30741000D02*
X71999000Y-30741000D01*
G75*
G02*
X72249000Y-30991000I0J-250000D01*
G01*
X72249000Y-31741000D01*
G75*
G02*
X71999000Y-31991000I-250000J0D01*
G01*
X70749000Y-31991000D01*
G75*
G02*
X70499000Y-31741000I0J250000D01*
G01*
X70499000Y-30991000D01*
G75*
G02*
X70749000Y-30741000I250000J0D01*
G01*
G37*
G36*
G01*
X70749000Y-33541000D02*
X71999000Y-33541000D01*
G75*
G02*
X72249000Y-33791000I0J-250000D01*
G01*
X72249000Y-34541000D01*
G75*
G02*
X71999000Y-34791000I-250000J0D01*
G01*
X70749000Y-34791000D01*
G75*
G02*
X70499000Y-34541000I0J250000D01*
G01*
X70499000Y-33791000D01*
G75*
G02*
X70749000Y-33541000I250000J0D01*
G01*
G37*
D12*
X129420114Y-59368455D03*
X128150114Y-59368455D03*
X126880114Y-59368455D03*
X125610114Y-59368455D03*
X124340114Y-59368455D03*
X123070114Y-59368455D03*
X121800114Y-59368455D03*
X121800114Y-64768455D03*
X123070114Y-64768455D03*
X124340114Y-64768455D03*
X125610114Y-64768455D03*
X126880114Y-64768455D03*
X128150114Y-64768455D03*
X129420114Y-64768455D03*
D10*
X79872800Y-41689200D03*
X80822800Y-41689200D03*
X81772800Y-41689200D03*
X81772800Y-39489200D03*
X79872800Y-39489200D03*
X80822800Y-39489200D03*
X109524800Y-40022600D03*
X108574800Y-40022600D03*
X110474800Y-40022600D03*
X110474800Y-42222600D03*
X109524800Y-42222600D03*
X108574800Y-42222600D03*
G36*
G01*
X68336000Y-40148000D02*
X69586000Y-40148000D01*
G75*
G02*
X69836000Y-40398000I0J-250000D01*
G01*
X69836000Y-41148000D01*
G75*
G02*
X69586000Y-41398000I-250000J0D01*
G01*
X68336000Y-41398000D01*
G75*
G02*
X68086000Y-41148000I0J250000D01*
G01*
X68086000Y-40398000D01*
G75*
G02*
X68336000Y-40148000I250000J0D01*
G01*
G37*
G36*
G01*
X68336000Y-37348000D02*
X69586000Y-37348000D01*
G75*
G02*
X69836000Y-37598000I0J-250000D01*
G01*
X69836000Y-38348000D01*
G75*
G02*
X69586000Y-38598000I-250000J0D01*
G01*
X68336000Y-38598000D01*
G75*
G02*
X68086000Y-38348000I0J250000D01*
G01*
X68086000Y-37598000D01*
G75*
G02*
X68336000Y-37348000I250000J0D01*
G01*
G37*
G36*
G01*
X83258500Y-38046500D02*
X84508500Y-38046500D01*
G75*
G02*
X84758500Y-38296500I0J-250000D01*
G01*
X84758500Y-39046500D01*
G75*
G02*
X84508500Y-39296500I-250000J0D01*
G01*
X83258500Y-39296500D01*
G75*
G02*
X83008500Y-39046500I0J250000D01*
G01*
X83008500Y-38296500D01*
G75*
G02*
X83258500Y-38046500I250000J0D01*
G01*
G37*
G36*
G01*
X83258500Y-40846498D02*
X84508500Y-40846498D01*
G75*
G02*
X84758500Y-41096498I0J-250000D01*
G01*
X84758500Y-41846498D01*
G75*
G02*
X84508500Y-42096498I-250000J0D01*
G01*
X83258500Y-42096498D01*
G75*
G02*
X83008500Y-41846498I0J250000D01*
G01*
X83008500Y-41096498D01*
G75*
G02*
X83258500Y-40846498I250000J0D01*
G01*
G37*
G36*
G01*
X70749000Y-40145000D02*
X71999000Y-40145000D01*
G75*
G02*
X72249000Y-40395000I0J-250000D01*
G01*
X72249000Y-41145000D01*
G75*
G02*
X71999000Y-41395000I-250000J0D01*
G01*
X70749000Y-41395000D01*
G75*
G02*
X70499000Y-41145000I0J250000D01*
G01*
X70499000Y-40395000D01*
G75*
G02*
X70749000Y-40145000I250000J0D01*
G01*
G37*
G36*
G01*
X70749000Y-37345000D02*
X71999000Y-37345000D01*
G75*
G02*
X72249000Y-37595000I0J-250000D01*
G01*
X72249000Y-38345000D01*
G75*
G02*
X71999000Y-38595000I-250000J0D01*
G01*
X70749000Y-38595000D01*
G75*
G02*
X70499000Y-38345000I0J250000D01*
G01*
X70499000Y-37595000D01*
G75*
G02*
X70749000Y-37345000I250000J0D01*
G01*
G37*
G36*
G01*
X76908500Y-38424501D02*
X78158500Y-38424501D01*
G75*
G02*
X78408500Y-38674501I0J-250000D01*
G01*
X78408500Y-39424501D01*
G75*
G02*
X78158500Y-39674501I-250000J0D01*
G01*
X76908500Y-39674501D01*
G75*
G02*
X76658500Y-39424501I0J250000D01*
G01*
X76658500Y-38674501D01*
G75*
G02*
X76908500Y-38424501I250000J0D01*
G01*
G37*
G36*
G01*
X76908500Y-41224499D02*
X78158500Y-41224499D01*
G75*
G02*
X78408500Y-41474499I0J-250000D01*
G01*
X78408500Y-42224499D01*
G75*
G02*
X78158500Y-42474499I-250000J0D01*
G01*
X76908500Y-42474499D01*
G75*
G02*
X76658500Y-42224499I0J250000D01*
G01*
X76658500Y-41474499D01*
G75*
G02*
X76908500Y-41224499I250000J0D01*
G01*
G37*
G36*
G01*
X112303400Y-41592800D02*
X113553400Y-41592800D01*
G75*
G02*
X113803400Y-41842800I0J-250000D01*
G01*
X113803400Y-42592800D01*
G75*
G02*
X113553400Y-42842800I-250000J0D01*
G01*
X112303400Y-42842800D01*
G75*
G02*
X112053400Y-42592800I0J250000D01*
G01*
X112053400Y-41842800D01*
G75*
G02*
X112303400Y-41592800I250000J0D01*
G01*
G37*
G36*
G01*
X112303400Y-38792800D02*
X113553400Y-38792800D01*
G75*
G02*
X113803400Y-39042800I0J-250000D01*
G01*
X113803400Y-39792800D01*
G75*
G02*
X113553400Y-40042800I-250000J0D01*
G01*
X112303400Y-40042800D01*
G75*
G02*
X112053400Y-39792800I0J250000D01*
G01*
X112053400Y-39042800D01*
G75*
G02*
X112303400Y-38792800I250000J0D01*
G01*
G37*
G36*
G01*
X105851800Y-38792800D02*
X107101800Y-38792800D01*
G75*
G02*
X107351800Y-39042800I0J-250000D01*
G01*
X107351800Y-39792800D01*
G75*
G02*
X107101800Y-40042800I-250000J0D01*
G01*
X105851800Y-40042800D01*
G75*
G02*
X105601800Y-39792800I0J250000D01*
G01*
X105601800Y-39042800D01*
G75*
G02*
X105851800Y-38792800I250000J0D01*
G01*
G37*
G36*
G01*
X105851800Y-41592800D02*
X107101800Y-41592800D01*
G75*
G02*
X107351800Y-41842800I0J-250000D01*
G01*
X107351800Y-42592800D01*
G75*
G02*
X107101800Y-42842800I-250000J0D01*
G01*
X105851800Y-42842800D01*
G75*
G02*
X105601800Y-42592800I0J250000D01*
G01*
X105601800Y-41842800D01*
G75*
G02*
X105851800Y-41592800I250000J0D01*
G01*
G37*
G36*
G01*
X79959500Y-48313500D02*
X79959500Y-47063500D01*
G75*
G02*
X80209500Y-46813500I250000J0D01*
G01*
X80959500Y-46813500D01*
G75*
G02*
X81209500Y-47063500I0J-250000D01*
G01*
X81209500Y-48313500D01*
G75*
G02*
X80959500Y-48563500I-250000J0D01*
G01*
X80209500Y-48563500D01*
G75*
G02*
X79959500Y-48313500I0J250000D01*
G01*
G37*
G36*
G01*
X77159500Y-48313500D02*
X77159500Y-47063500D01*
G75*
G02*
X77409500Y-46813500I250000J0D01*
G01*
X78159500Y-46813500D01*
G75*
G02*
X78409500Y-47063500I0J-250000D01*
G01*
X78409500Y-48313500D01*
G75*
G02*
X78159500Y-48563500I-250000J0D01*
G01*
X77409500Y-48563500D01*
G75*
G02*
X77159500Y-48313500I0J250000D01*
G01*
G37*
G36*
G01*
X63510000Y-37345000D02*
X64760000Y-37345000D01*
G75*
G02*
X65010000Y-37595000I0J-250000D01*
G01*
X65010000Y-38345000D01*
G75*
G02*
X64760000Y-38595000I-250000J0D01*
G01*
X63510000Y-38595000D01*
G75*
G02*
X63260000Y-38345000I0J250000D01*
G01*
X63260000Y-37595000D01*
G75*
G02*
X63510000Y-37345000I250000J0D01*
G01*
G37*
G36*
G01*
X63510000Y-40145000D02*
X64760000Y-40145000D01*
G75*
G02*
X65010000Y-40395000I0J-250000D01*
G01*
X65010000Y-41145000D01*
G75*
G02*
X64760000Y-41395000I-250000J0D01*
G01*
X63510000Y-41395000D01*
G75*
G02*
X63260000Y-41145000I0J250000D01*
G01*
X63260000Y-40395000D01*
G75*
G02*
X63510000Y-40145000I250000J0D01*
G01*
G37*
G36*
G01*
X127495000Y-67866100D02*
X127495000Y-69116100D01*
G75*
G02*
X127245000Y-69366100I-250000J0D01*
G01*
X126495000Y-69366100D01*
G75*
G02*
X126245000Y-69116100I0J250000D01*
G01*
X126245000Y-67866100D01*
G75*
G02*
X126495000Y-67616100I250000J0D01*
G01*
X127245000Y-67616100D01*
G75*
G02*
X127495000Y-67866100I0J-250000D01*
G01*
G37*
G36*
G01*
X130295000Y-67866100D02*
X130295000Y-69116100D01*
G75*
G02*
X130045000Y-69366100I-250000J0D01*
G01*
X129295000Y-69366100D01*
G75*
G02*
X129045000Y-69116100I0J250000D01*
G01*
X129045000Y-67866100D01*
G75*
G02*
X129295000Y-67616100I250000J0D01*
G01*
X130045000Y-67616100D01*
G75*
G02*
X130295000Y-67866100I0J-250000D01*
G01*
G37*
G36*
G01*
X128923400Y-33512600D02*
X128923400Y-34762600D01*
G75*
G02*
X128673400Y-35012600I-250000J0D01*
G01*
X127923400Y-35012600D01*
G75*
G02*
X127673400Y-34762600I0J250000D01*
G01*
X127673400Y-33512600D01*
G75*
G02*
X127923400Y-33262600I250000J0D01*
G01*
X128673400Y-33262600D01*
G75*
G02*
X128923400Y-33512600I0J-250000D01*
G01*
G37*
G36*
G01*
X126123400Y-33512600D02*
X126123400Y-34762600D01*
G75*
G02*
X125873400Y-35012600I-250000J0D01*
G01*
X125123400Y-35012600D01*
G75*
G02*
X124873400Y-34762600I0J250000D01*
G01*
X124873400Y-33512600D01*
G75*
G02*
X125123400Y-33262600I250000J0D01*
G01*
X125873400Y-33262600D01*
G75*
G02*
X126123400Y-33512600I0J-250000D01*
G01*
G37*
G36*
G01*
X126123400Y-38592600D02*
X126123400Y-39842600D01*
G75*
G02*
X125873400Y-40092600I-250000J0D01*
G01*
X125123400Y-40092600D01*
G75*
G02*
X124873400Y-39842600I0J250000D01*
G01*
X124873400Y-38592600D01*
G75*
G02*
X125123400Y-38342600I250000J0D01*
G01*
X125873400Y-38342600D01*
G75*
G02*
X126123400Y-38592600I0J-250000D01*
G01*
G37*
G36*
G01*
X128923400Y-38592600D02*
X128923400Y-39842600D01*
G75*
G02*
X128673400Y-40092600I-250000J0D01*
G01*
X127923400Y-40092600D01*
G75*
G02*
X127673400Y-39842600I0J250000D01*
G01*
X127673400Y-38592600D01*
G75*
G02*
X127923400Y-38342600I250000J0D01*
G01*
X128673400Y-38342600D01*
G75*
G02*
X128923400Y-38592600I0J-250000D01*
G01*
G37*
G36*
G01*
X128895000Y-43774200D02*
X128895000Y-45024200D01*
G75*
G02*
X128645000Y-45274200I-250000J0D01*
G01*
X127895000Y-45274200D01*
G75*
G02*
X127645000Y-45024200I0J250000D01*
G01*
X127645000Y-43774200D01*
G75*
G02*
X127895000Y-43524200I250000J0D01*
G01*
X128645000Y-43524200D01*
G75*
G02*
X128895000Y-43774200I0J-250000D01*
G01*
G37*
G36*
G01*
X126095000Y-43774200D02*
X126095000Y-45024200D01*
G75*
G02*
X125845000Y-45274200I-250000J0D01*
G01*
X125095000Y-45274200D01*
G75*
G02*
X124845000Y-45024200I0J250000D01*
G01*
X124845000Y-43774200D01*
G75*
G02*
X125095000Y-43524200I250000J0D01*
G01*
X125845000Y-43524200D01*
G75*
G02*
X126095000Y-43774200I0J-250000D01*
G01*
G37*
G36*
G01*
X126095000Y-53921500D02*
X126095000Y-55171500D01*
G75*
G02*
X125845000Y-55421500I-250000J0D01*
G01*
X125095000Y-55421500D01*
G75*
G02*
X124845000Y-55171500I0J250000D01*
G01*
X124845000Y-53921500D01*
G75*
G02*
X125095000Y-53671500I250000J0D01*
G01*
X125845000Y-53671500D01*
G75*
G02*
X126095000Y-53921500I0J-250000D01*
G01*
G37*
G36*
G01*
X128895000Y-53921500D02*
X128895000Y-55171500D01*
G75*
G02*
X128645000Y-55421500I-250000J0D01*
G01*
X127895000Y-55421500D01*
G75*
G02*
X127645000Y-55171500I0J250000D01*
G01*
X127645000Y-53921500D01*
G75*
G02*
X127895000Y-53671500I250000J0D01*
G01*
X128645000Y-53671500D01*
G75*
G02*
X128895000Y-53921500I0J-250000D01*
G01*
G37*
G36*
G01*
X128895000Y-48803400D02*
X128895000Y-50053400D01*
G75*
G02*
X128645000Y-50303400I-250000J0D01*
G01*
X127895000Y-50303400D01*
G75*
G02*
X127645000Y-50053400I0J250000D01*
G01*
X127645000Y-48803400D01*
G75*
G02*
X127895000Y-48553400I250000J0D01*
G01*
X128645000Y-48553400D01*
G75*
G02*
X128895000Y-48803400I0J-250000D01*
G01*
G37*
G36*
G01*
X126095000Y-48803400D02*
X126095000Y-50053400D01*
G75*
G02*
X125845000Y-50303400I-250000J0D01*
G01*
X125095000Y-50303400D01*
G75*
G02*
X124845000Y-50053400I0J250000D01*
G01*
X124845000Y-48803400D01*
G75*
G02*
X125095000Y-48553400I250000J0D01*
G01*
X125845000Y-48553400D01*
G75*
G02*
X126095000Y-48803400I0J-250000D01*
G01*
G37*
M02*
