G04 #@! TF.GenerationSoftware,KiCad,Pcbnew,5.0.2+dfsg1-1*
G04 #@! TF.CreationDate,2021-01-13T15:08:11+01:00*
G04 #@! TF.ProjectId,ErgoDOX,4572676f-444f-4582-9e6b-696361645f70,rev?*
G04 #@! TF.SameCoordinates,Original*
G04 #@! TF.FileFunction,Copper,L2,Bot*
G04 #@! TF.FilePolarity,Positive*
%FSLAX46Y46*%
G04 Gerber Fmt 4.6, Leading zero omitted, Abs format (unit mm)*
G04 Created by KiCad (PCBNEW 5.0.2+dfsg1-1) date Wed 13 Jan 2021 03:08:11 PM CET*
%MOMM*%
%LPD*%
G01*
G04 APERTURE LIST*
G04 #@! TA.AperFunction,ComponentPad*
%ADD10R,1.700000X1.700000*%
G04 #@! TD*
G04 #@! TA.AperFunction,ComponentPad*
%ADD11O,1.108000X2.216000*%
G04 #@! TD*
G04 #@! TA.AperFunction,ComponentPad*
%ADD12C,0.650000*%
G04 #@! TD*
G04 #@! TA.AperFunction,ComponentPad*
%ADD13C,1.600000*%
G04 #@! TD*
G04 #@! TA.AperFunction,ComponentPad*
%ADD14R,1.600000X1.600000*%
G04 #@! TD*
G04 #@! TA.AperFunction,ComponentPad*
%ADD15O,1.700000X1.700000*%
G04 #@! TD*
G04 #@! TA.AperFunction,ComponentPad*
%ADD16C,1.500000*%
G04 #@! TD*
G04 #@! TA.AperFunction,ComponentPad*
%ADD17R,1.800000X1.800000*%
G04 #@! TD*
G04 #@! TA.AperFunction,ComponentPad*
%ADD18C,1.800000*%
G04 #@! TD*
G04 #@! TA.AperFunction,ComponentPad*
%ADD19C,8.600000*%
G04 #@! TD*
G04 #@! TA.AperFunction,ComponentPad*
%ADD20C,5.000000*%
G04 #@! TD*
G04 #@! TA.AperFunction,ComponentPad*
%ADD21C,3.316000*%
G04 #@! TD*
G04 #@! TA.AperFunction,ComponentPad*
%ADD22C,1.428000*%
G04 #@! TD*
G04 #@! TA.AperFunction,ViaPad*
%ADD23C,0.609600*%
G04 #@! TD*
G04 #@! TA.AperFunction,Conductor*
%ADD24C,0.600000*%
G04 #@! TD*
G04 #@! TA.AperFunction,Conductor*
%ADD25C,0.609600*%
G04 #@! TD*
G04 #@! TA.AperFunction,Conductor*
%ADD26C,0.304800*%
G04 #@! TD*
G04 #@! TA.AperFunction,Conductor*
%ADD27C,0.406400*%
G04 #@! TD*
G04 #@! TA.AperFunction,Conductor*
%ADD28C,0.254000*%
G04 #@! TD*
G04 #@! TA.AperFunction,Conductor*
%ADD29C,0.203200*%
G04 #@! TD*
G04 #@! TA.AperFunction,Conductor*
%ADD30C,0.152400*%
G04 #@! TD*
G04 APERTURE END LIST*
D10*
G04 #@! TO.P,J7,1*
G04 #@! TO.N,/COL0*
X179019200Y-56642000D03*
G04 #@! TD*
G04 #@! TO.P,J8,1*
G04 #@! TO.N,/COL1*
X176123600Y-56642000D03*
G04 #@! TD*
G04 #@! TO.P,J9,1*
G04 #@! TO.N,/COL2*
X118414800Y-53746400D03*
G04 #@! TD*
G04 #@! TO.P,J19,1*
G04 #@! TO.N,/ROW4*
X157835600Y-56642000D03*
G04 #@! TD*
G04 #@! TO.P,J11,1*
G04 #@! TO.N,/COL4*
X112776000Y-53746400D03*
G04 #@! TD*
G04 #@! TO.P,J12,1*
G04 #@! TO.N,/COL5*
X107594400Y-53746400D03*
G04 #@! TD*
G04 #@! TO.P,J13,1*
G04 #@! TO.N,/COL6*
X100228400Y-53746400D03*
G04 #@! TD*
G04 #@! TO.P,J14,1*
G04 #@! TO.N,/ROW0*
X169214800Y-56642000D03*
G04 #@! TD*
G04 #@! TO.P,J15,1*
G04 #@! TO.N,/ROW1*
X166370000Y-56642000D03*
G04 #@! TD*
G04 #@! TO.P,J16,1*
G04 #@! TO.N,/ROW2*
X163525200Y-56642000D03*
G04 #@! TD*
G04 #@! TO.P,J17,1*
G04 #@! TO.N,/ROW3*
X160680400Y-56642000D03*
G04 #@! TD*
G04 #@! TO.P,J18,1*
G04 #@! TO.N,/ROW5*
X121259600Y-53746400D03*
G04 #@! TD*
G04 #@! TO.P,J10,1*
G04 #@! TO.N,/COL3*
X115620800Y-53746400D03*
G04 #@! TD*
D11*
G04 #@! TO.P,J2,P4*
G04 #@! TO.N,Net-(J2-PadP1)*
X192462800Y-36901400D03*
G04 #@! TO.P,J2,P3*
X183812800Y-36901400D03*
G04 #@! TO.P,J2,P2*
X183812800Y-40281400D03*
G04 #@! TO.P,J2,P1*
X192462800Y-40281400D03*
D12*
G04 #@! TO.P,J2,B12*
G04 #@! TO.N,GND*
X191112800Y-39911400D03*
G04 #@! TO.P,J2,B9*
G04 #@! TO.N,+5V*
X190262800Y-39911400D03*
G04 #@! TO.P,J2,B8*
G04 #@! TO.N,SCK_OUT*
X189412800Y-39911400D03*
G04 #@! TO.P,J2,B7*
G04 #@! TO.N,OUTPUTC_USB_CONN_D-*
X188562800Y-39911400D03*
G04 #@! TO.P,J2,B6*
G04 #@! TO.N,OUTPUTC_USB_CONN_D+*
X187712800Y-39911400D03*
G04 #@! TO.P,J2,B5*
G04 #@! TO.N,Net-(J2-PadB5)*
X186862800Y-39911400D03*
G04 #@! TO.P,J2,B4*
G04 #@! TO.N,+5V*
X186012800Y-39911400D03*
G04 #@! TO.P,J2,B1*
G04 #@! TO.N,GND*
X185162800Y-39911400D03*
G04 #@! TO.P,J2,A12*
X185162800Y-41261400D03*
G04 #@! TO.P,J2,A9*
G04 #@! TO.N,+5V*
X186012800Y-41261400D03*
G04 #@! TO.P,J2,A8*
G04 #@! TO.N,MOSI_OUT*
X186862800Y-41261400D03*
G04 #@! TO.P,J2,A7*
G04 #@! TO.N,OUTPUTC_USB_CONN_D-*
X187712800Y-41261400D03*
G04 #@! TO.P,J2,A6*
G04 #@! TO.N,OUTPUTC_USB_CONN_D+*
X188562800Y-41261400D03*
G04 #@! TO.P,J2,A5*
G04 #@! TO.N,Net-(J2-PadA5)*
X189412800Y-41261400D03*
G04 #@! TO.P,J2,A4*
G04 #@! TO.N,+5V*
X190262800Y-41261400D03*
G04 #@! TO.P,J2,A1*
G04 #@! TO.N,GND*
X191112800Y-41261400D03*
G04 #@! TD*
D13*
G04 #@! TO.P,U5,20*
G04 #@! TO.N,SCK_OUT*
X133159500Y-35306000D03*
G04 #@! TO.P,U5,14*
G04 #@! TO.N,LED_BACKLIGHT_33V*
X133159500Y-50546000D03*
G04 #@! TO.P,U5,21*
G04 #@! TO.N,/COL0*
X130619500Y-35306000D03*
G04 #@! TO.P,U5,22*
G04 #@! TO.N,/COL1*
X128079500Y-35306000D03*
G04 #@! TO.P,U5,23*
G04 #@! TO.N,/ROW0*
X125539500Y-35306000D03*
G04 #@! TO.P,U5,24*
G04 #@! TO.N,/ROW1*
X122999500Y-35306000D03*
G04 #@! TO.P,U5,25*
G04 #@! TO.N,L5*
X120459500Y-35306000D03*
G04 #@! TO.P,U5,26*
G04 #@! TO.N,L4*
X117919500Y-35306000D03*
G04 #@! TO.P,U5,27*
G04 #@! TO.N,SCK_IN*
X115379500Y-35306000D03*
G04 #@! TO.P,U5,28*
G04 #@! TO.N,L3*
X112839500Y-35306000D03*
G04 #@! TO.P,U5,29*
G04 #@! TO.N,L2*
X110299500Y-35306000D03*
G04 #@! TO.P,U5,30*
G04 #@! TO.N,L1*
X107759500Y-35306000D03*
G04 #@! TO.P,U5,31*
G04 #@! TO.N,Net-(U5-Pad31)*
X105219500Y-35306000D03*
G04 #@! TO.P,U5,32*
G04 #@! TO.N,GND*
X102679500Y-35306000D03*
G04 #@! TO.P,U5,33*
G04 #@! TO.N,+5V*
X100139500Y-35306000D03*
G04 #@! TO.P,U5,34*
G04 #@! TO.N,Net-(U5-Pad34)*
X102679500Y-37846000D03*
G04 #@! TO.P,U5,13*
G04 #@! TO.N,MOSI_OUT*
X130619500Y-50546000D03*
G04 #@! TO.P,U5,12*
G04 #@! TO.N,/ROW2*
X128079500Y-50546000D03*
G04 #@! TO.P,U5,11*
G04 #@! TO.N,/ROW3*
X125539500Y-50546000D03*
G04 #@! TO.P,U5,10*
G04 #@! TO.N,/ROW4*
X122999500Y-50546000D03*
G04 #@! TO.P,U5,9*
G04 #@! TO.N,/ROW5*
X120459500Y-50546000D03*
G04 #@! TO.P,U5,8*
G04 #@! TO.N,/COL2*
X117919500Y-50546000D03*
G04 #@! TO.P,U5,7*
G04 #@! TO.N,/COL3*
X115379500Y-50546000D03*
G04 #@! TO.P,U5,6*
G04 #@! TO.N,/COL4*
X112839500Y-50546000D03*
G04 #@! TO.P,U5,5*
G04 #@! TO.N,/COL5*
X110299500Y-50546000D03*
G04 #@! TO.P,U5,4*
G04 #@! TO.N,Net-(U5-Pad4)*
X107759500Y-50546000D03*
G04 #@! TO.P,U5,3*
G04 #@! TO.N,/COL6*
X105219500Y-50546000D03*
G04 #@! TO.P,U5,2*
G04 #@! TO.N,MOSI_IN*
X102679500Y-50546000D03*
D14*
G04 #@! TO.P,U5,1*
G04 #@! TO.N,GND*
X100139500Y-50546000D03*
G04 #@! TD*
D10*
G04 #@! TO.P,J5,1*
G04 #@! TO.N,TEENSY_USB_D-*
X97599500Y-45402500D03*
G04 #@! TD*
G04 #@! TO.P,J6,1*
G04 #@! TO.N,TEENSY_USB_D+*
X97599500Y-42608500D03*
G04 #@! TD*
G04 #@! TO.P,J4,1*
G04 #@! TO.N,+5V*
X203047600Y-52171600D03*
D15*
G04 #@! TO.P,J4,2*
G04 #@! TO.N,GND*
X203047600Y-54711600D03*
G04 #@! TO.P,J4,3*
G04 #@! TO.N,Net-(J4-Pad3)*
X203047600Y-57251600D03*
G04 #@! TD*
D16*
G04 #@! TO.P,12MHZ1,1*
G04 #@! TO.N,Net-(12MHZ1-Pad1)*
X68012928Y-50925038D03*
G04 #@! TO.P,12MHZ1,2*
G04 #@! TO.N,Net-(12MHZ1-Pad2)*
X68012928Y-45925038D03*
G04 #@! TD*
D17*
G04 #@! TO.P,LED4,1*
G04 #@! TO.N,Net-(LED4-Pad1)*
X143510000Y-36068000D03*
D18*
G04 #@! TO.P,LED4,2*
G04 #@! TO.N,GND*
X146050000Y-36068000D03*
G04 #@! TD*
G04 #@! TO.P,LED1,2*
G04 #@! TO.N,GND*
X161861500Y-36131500D03*
D17*
G04 #@! TO.P,LED1,1*
G04 #@! TO.N,Net-(LED1-Pad1)*
X159321500Y-36131500D03*
G04 #@! TD*
G04 #@! TO.P,LED3,1*
G04 #@! TO.N,Net-(LED3-Pad1)*
X148653500Y-36195000D03*
D18*
G04 #@! TO.P,LED3,2*
G04 #@! TO.N,GND*
X151193500Y-36195000D03*
G04 #@! TD*
G04 #@! TO.P,LED5,2*
G04 #@! TO.N,GND*
X141033500Y-36195000D03*
D17*
G04 #@! TO.P,LED5,1*
G04 #@! TO.N,Net-(LED5-Pad1)*
X138493500Y-36195000D03*
G04 #@! TD*
G04 #@! TO.P,LED2,1*
G04 #@! TO.N,Net-(LED2-Pad1)*
X153987500Y-36131500D03*
D18*
G04 #@! TO.P,LED2,2*
G04 #@! TO.N,GND*
X156527500Y-36131500D03*
G04 #@! TD*
D19*
G04 #@! TO.P,H4,1*
G04 #@! TO.N,N/C*
X68732400Y-38455600D03*
G04 #@! TD*
D20*
G04 #@! TO.P,H2,1*
G04 #@! TO.N,N/C*
X188112400Y-55016400D03*
G04 #@! TD*
D19*
G04 #@! TO.P,H1,1*
G04 #@! TO.N,N/C*
X199847200Y-37998400D03*
G04 #@! TD*
D21*
G04 #@! TO.P,J3,S1*
G04 #@! TO.N,N/C*
X167026300Y-43805700D03*
G04 #@! TO.P,J3,S2*
X180166300Y-43805700D03*
D22*
G04 #@! TO.P,J3,3*
G04 #@! TO.N,OUTPUTA_USB_CONN_D+*
X174596300Y-46515700D03*
G04 #@! TO.P,J3,2*
G04 #@! TO.N,OUTPUTA_USB_CONN_D-*
X172596300Y-46515700D03*
G04 #@! TO.P,J3,4*
G04 #@! TO.N,GND*
X177096300Y-46515700D03*
G04 #@! TO.P,J3,1*
G04 #@! TO.N,+5V*
X170096300Y-46515700D03*
G04 #@! TD*
D12*
G04 #@! TO.P,J1,A1*
G04 #@! TO.N,GND*
X83353300Y-39407200D03*
G04 #@! TO.P,J1,A4*
G04 #@! TO.N,+5V*
X82503300Y-39407200D03*
G04 #@! TO.P,J1,A5*
G04 #@! TO.N,Net-(J1-PadA5)*
X81653300Y-39407200D03*
G04 #@! TO.P,J1,A6*
G04 #@! TO.N,INPUT_USB_CONN_D+*
X80803300Y-39407200D03*
G04 #@! TO.P,J1,A7*
G04 #@! TO.N,INPUT_USB_CONN_D-*
X79953300Y-39407200D03*
G04 #@! TO.P,J1,A8*
G04 #@! TO.N,MOSI_IN*
X79103300Y-39407200D03*
G04 #@! TO.P,J1,A9*
G04 #@! TO.N,+5V*
X78253300Y-39407200D03*
G04 #@! TO.P,J1,A12*
G04 #@! TO.N,GND*
X77403300Y-39407200D03*
G04 #@! TO.P,J1,B1*
X77403300Y-38057200D03*
G04 #@! TO.P,J1,B4*
G04 #@! TO.N,+5V*
X78253300Y-38057200D03*
G04 #@! TO.P,J1,B5*
G04 #@! TO.N,Net-(J1-PadB5)*
X79103300Y-38057200D03*
G04 #@! TO.P,J1,B6*
G04 #@! TO.N,INPUT_USB_CONN_D+*
X79953300Y-38057200D03*
G04 #@! TO.P,J1,B7*
G04 #@! TO.N,INPUT_USB_CONN_D-*
X80803300Y-38057200D03*
G04 #@! TO.P,J1,B8*
G04 #@! TO.N,SCK_IN*
X81653300Y-38057200D03*
G04 #@! TO.P,J1,B9*
G04 #@! TO.N,+5V*
X82503300Y-38057200D03*
G04 #@! TO.P,J1,B12*
G04 #@! TO.N,GND*
X83353300Y-38057200D03*
D11*
G04 #@! TO.P,J1,P1*
G04 #@! TO.N,Net-(J1-PadP1)*
X84703300Y-38427200D03*
G04 #@! TO.P,J1,P2*
X76053300Y-38427200D03*
G04 #@! TO.P,J1,P3*
X76053300Y-35047200D03*
G04 #@! TO.P,J1,P4*
X84703300Y-35047200D03*
G04 #@! TD*
D23*
G04 #@! TO.N,GND*
X197713600Y-51409600D03*
X76454000Y-45110400D03*
X190550800Y-50596800D03*
X192532000Y-45974000D03*
X185013600Y-48260000D03*
X124917200Y-39979600D03*
X104190800Y-48361600D03*
X81635600Y-42824400D03*
X75031600Y-54711600D03*
X88239600Y-55880000D03*
G04 #@! TO.N,SCK_IN*
X100990400Y-39827200D03*
G04 #@! TO.N,SCK_OUT*
X189230000Y-38303200D03*
G04 #@! TO.N,MOSI_OUT*
X180543200Y-55118000D03*
G04 #@! TO.N,OUTPUTA_USB_D+*
X74726800Y-50063399D03*
X82854800Y-46075600D03*
G04 #@! TO.N,OUTPUTA_USB_D-*
X74448413Y-49326800D03*
X84988400Y-42418000D03*
G04 #@! TO.N,OUTPUTC_USB_D-*
X74828400Y-50749200D03*
X84277200Y-46736000D03*
G04 #@! TO.N,OUTPUTC_USB_D+*
X74676000Y-51460400D03*
X82296000Y-47396400D03*
G04 #@! TO.N,TEENSY_USB_D-*
X74536300Y-52184300D03*
G04 #@! TO.N,TEENSY_USB_D+*
X74930000Y-53086000D03*
G04 #@! TD*
D24*
G04 #@! TO.N,/COL0*
X130619500Y-35306000D02*
X143065500Y-47752000D01*
X171407701Y-47834501D02*
X151568101Y-47834501D01*
X151568101Y-47834501D02*
X151485600Y-47752000D01*
X179019200Y-56896000D02*
X179019200Y-55446000D01*
X179019200Y-55446000D02*
X171407701Y-47834501D01*
X143065500Y-47752000D02*
X151485600Y-47752000D01*
X151485600Y-47752000D02*
X151952394Y-47752000D01*
G04 #@! TO.N,/COL1*
X128079500Y-35306000D02*
X141846300Y-49072800D01*
X166952000Y-49072800D02*
X149402800Y-49072800D01*
X174673600Y-56794400D02*
X166952000Y-49072800D01*
X176123600Y-56794400D02*
X174673600Y-56794400D01*
X141846300Y-49072800D02*
X149402800Y-49072800D01*
X149402800Y-49072800D02*
X151993600Y-49072800D01*
G04 #@! TO.N,/ROW0*
X125539500Y-36437370D02*
X139343330Y-50241200D01*
X125539500Y-35306000D02*
X125539500Y-36437370D01*
X139343330Y-50241200D02*
X149758400Y-50241200D01*
X149758400Y-50241200D02*
X151546871Y-50241200D01*
X164264000Y-50241200D02*
X162966400Y-50241200D01*
X169214800Y-55192000D02*
X164264000Y-50241200D01*
X169214800Y-56642000D02*
X169214800Y-55192000D01*
X163451200Y-50241200D02*
X162966400Y-50241200D01*
X162966400Y-50241200D02*
X149758400Y-50241200D01*
G04 #@! TO.N,/ROW1*
X138035230Y-51473100D02*
X151485600Y-51473100D01*
X122999500Y-36437370D02*
X138035230Y-51473100D01*
X122999500Y-35306000D02*
X122999500Y-36437370D01*
X166370000Y-55192000D02*
X162651100Y-51473100D01*
X166370000Y-56642000D02*
X166370000Y-55192000D01*
X161533500Y-51473100D02*
X160985200Y-51473100D01*
X162651100Y-51473100D02*
X160985200Y-51473100D01*
X160985200Y-51473100D02*
X151485600Y-51473100D01*
D25*
G04 #@! TO.N,/ROW2*
X128079500Y-50546000D02*
X130187669Y-52654169D01*
X130187669Y-52654169D02*
X150825169Y-52654169D01*
D24*
X159666569Y-52654169D02*
X150825169Y-52654169D01*
X160987369Y-52654169D02*
X159666569Y-52654169D01*
X163525200Y-55192000D02*
X160987369Y-52654169D01*
X163525200Y-56642000D02*
X163525200Y-55192000D01*
D25*
G04 #@! TO.N,/ROW3*
X128562079Y-53568579D02*
X150342579Y-53568579D01*
X125539500Y-50546000D02*
X128562079Y-53568579D01*
D24*
X160680400Y-55192000D02*
X159056979Y-53568579D01*
X160680400Y-56642000D02*
X160680400Y-55192000D01*
X159056979Y-53568579D02*
X157226000Y-53568579D01*
X157583779Y-53568579D02*
X157226000Y-53568579D01*
X157226000Y-53568579D02*
X150342579Y-53568579D01*
D25*
G04 #@! TO.N,/ROW4*
X126936489Y-54482989D02*
X149605989Y-54482989D01*
X122999500Y-50546000D02*
X126936489Y-54482989D01*
D24*
X154226589Y-54482989D02*
X149605989Y-54482989D01*
X156385600Y-56642000D02*
X154226589Y-54482989D01*
X157835600Y-56642000D02*
X156385600Y-56642000D01*
D26*
G04 #@! TO.N,GND*
X191112800Y-41261400D02*
X191112800Y-39911400D01*
X185162800Y-41261400D02*
X185162800Y-39911400D01*
D27*
G04 #@! TO.N,+5V*
X191162622Y-42620841D02*
X191242000Y-42620841D01*
X190262800Y-41261400D02*
X190262800Y-41721019D01*
X186012800Y-39451781D02*
X186012800Y-39911400D01*
X177946610Y-38665390D02*
X185226409Y-38665390D01*
X185226409Y-38665390D02*
X186012800Y-39451781D01*
X170096300Y-46515700D02*
X177946610Y-38665390D01*
X186386182Y-39078399D02*
X189846639Y-39078399D01*
X186012800Y-39451781D02*
X186386182Y-39078399D01*
X190279799Y-39894401D02*
X190262800Y-39911400D01*
X190279799Y-39511559D02*
X190279799Y-39894401D01*
X189846639Y-39078399D02*
X190279799Y-39511559D01*
X99339501Y-36105999D02*
X100139500Y-35306000D01*
X98634310Y-36811190D02*
X99339501Y-36105999D01*
X83289691Y-36811190D02*
X98634310Y-36811190D01*
X82503300Y-37597581D02*
X83289691Y-36811190D01*
D24*
X203047600Y-52171600D02*
X200713381Y-52171600D01*
X200713381Y-52171600D02*
X190754000Y-42212219D01*
D27*
X190262800Y-41721019D02*
X190754000Y-42212219D01*
X190754000Y-42212219D02*
X191162622Y-42620841D01*
D28*
X82503300Y-37597581D02*
X82503300Y-38057200D01*
X82206118Y-37300399D02*
X82503300Y-37597581D01*
X78550482Y-37300399D02*
X82206118Y-37300399D01*
X78253300Y-37597581D02*
X78550482Y-37300399D01*
X78253300Y-38057200D02*
X78253300Y-37597581D01*
D29*
G04 #@! TO.N,INPUT_USB_CONN_D+*
X80803300Y-39407200D02*
X80803300Y-39639674D01*
G04 #@! TO.N,INPUT_USB_CONN_D-*
X80803300Y-38324726D02*
X80803300Y-38057200D01*
X79953300Y-39174726D02*
X80803300Y-38324726D01*
X79953300Y-39407200D02*
X79953300Y-39174726D01*
D30*
G04 #@! TO.N,MOSI_IN*
X102679500Y-45302698D02*
X102679500Y-49414630D01*
X98754301Y-41377499D02*
X102679500Y-45302698D01*
X102679500Y-49414630D02*
X102679500Y-50546000D01*
X80613980Y-41377499D02*
X98754301Y-41377499D01*
X79103300Y-39866819D02*
X80613980Y-41377499D01*
X79103300Y-39407200D02*
X79103300Y-39866819D01*
D28*
G04 #@! TO.N,SCK_IN*
X110858300Y-39827200D02*
X115379500Y-35306000D01*
X100990400Y-39827200D02*
X110858300Y-39827200D01*
G04 #@! TO.N,SCK_OUT*
X133159500Y-35306000D02*
X136156700Y-38303200D01*
X136156700Y-38303200D02*
X167410706Y-38303200D01*
D29*
X171677906Y-34036000D02*
X183845200Y-34036000D01*
X167410706Y-38303200D02*
X171677906Y-34036000D01*
X183845200Y-34036000D02*
X184962800Y-34036000D01*
X184962800Y-34036000D02*
X189230000Y-38303200D01*
X189230000Y-38303200D02*
X189230000Y-38303200D01*
G04 #@! TO.N,OUTPUTC_USB_CONN_D+*
X188562800Y-40993874D02*
X188562800Y-41261400D01*
X187712800Y-40143874D02*
X188562800Y-40993874D01*
X187712800Y-39911400D02*
X187712800Y-40143874D01*
G04 #@! TO.N,MOSI_OUT*
X180543200Y-55118000D02*
X181356000Y-55118000D01*
X181965600Y-54508400D02*
X181864000Y-54610000D01*
X187066000Y-49408000D02*
X187045600Y-49428400D01*
X187269200Y-49204800D02*
X187045600Y-49428400D01*
D30*
X186862800Y-49611200D02*
X181660800Y-54813200D01*
X186862800Y-41261400D02*
X186862800Y-49611200D01*
D29*
X181356000Y-55118000D02*
X181660800Y-54813200D01*
X181660800Y-54813200D02*
X181965600Y-54508400D01*
D30*
G04 #@! TO.N,OUTPUTA_USB_D+*
X77495401Y-50063399D02*
X78536800Y-49022000D01*
X74726800Y-50063399D02*
X77495401Y-50063399D01*
X81483200Y-46075600D02*
X81483200Y-46075600D01*
X78536800Y-49022000D02*
X78384400Y-49174400D01*
X81483200Y-46075600D02*
X78536800Y-49022000D01*
X81483200Y-46075600D02*
X82854800Y-46075600D01*
X82854800Y-46075600D02*
X82854800Y-46075600D01*
G04 #@! TO.N,OUTPUTA_USB_D-*
X81432400Y-45313600D02*
X81432400Y-45313600D01*
X82092800Y-45313600D02*
X84988400Y-42418000D01*
X74448413Y-49326800D02*
X77419200Y-49326800D01*
X81432400Y-45313600D02*
X82092800Y-45313600D01*
X77419200Y-49326800D02*
X81432400Y-45313600D01*
G04 #@! TO.N,OUTPUTC_USB_D-*
X74828400Y-50749200D02*
X78003399Y-50749200D01*
X78003399Y-50749200D02*
X78130400Y-50749200D01*
X78130400Y-50547014D02*
X81941414Y-46736000D01*
X78130400Y-50749200D02*
X78130400Y-50547014D01*
X81941414Y-46736000D02*
X84277200Y-46736000D01*
X84277200Y-46736000D02*
X84277200Y-46736000D01*
G04 #@! TO.N,OUTPUTC_USB_D+*
X78232000Y-51460400D02*
X82296000Y-47396400D01*
X74676000Y-51460400D02*
X78232000Y-51460400D01*
X82296000Y-47396400D02*
X82296000Y-47396400D01*
D29*
G04 #@! TO.N,TEENSY_USB_D-*
X97599500Y-45402500D02*
X96546300Y-45402500D01*
X89104100Y-52184300D02*
X74536300Y-52184300D01*
D28*
X95885900Y-45402500D02*
X97599500Y-45402500D01*
X89104100Y-52184300D02*
X95885900Y-45402500D01*
D29*
G04 #@! TO.N,TEENSY_USB_D+*
X97599500Y-42608500D02*
X98652700Y-42608500D01*
X98652700Y-42608500D02*
X98855901Y-42811701D01*
D28*
X98703500Y-42608500D02*
X97599500Y-42608500D01*
X98881301Y-42786301D02*
X98703500Y-42608500D01*
X98881301Y-46597941D02*
X98881301Y-42786301D01*
X92393242Y-53086000D02*
X98881301Y-46597941D01*
X74930000Y-53086000D02*
X92393242Y-53086000D01*
G04 #@! TD*
G04 #@! TO.N,GND*
G36*
X189221844Y-42221400D02*
X189589050Y-42221400D01*
X189599428Y-42236930D01*
X189658493Y-42325327D01*
X189728477Y-42372089D01*
X189858308Y-42501920D01*
X189873250Y-42577037D01*
X190027741Y-42808249D01*
X199987120Y-52767628D01*
X200039284Y-52845697D01*
X200348562Y-53052350D01*
X200713381Y-53124917D01*
X200805467Y-53106600D01*
X201567067Y-53106600D01*
X201599443Y-53269365D01*
X201739791Y-53479409D01*
X201949835Y-53619757D01*
X202053308Y-53640339D01*
X201775955Y-53944676D01*
X201606124Y-54354710D01*
X201727445Y-54584600D01*
X202920600Y-54584600D01*
X202920600Y-54564600D01*
X203174600Y-54564600D01*
X203174600Y-54584600D01*
X203194600Y-54584600D01*
X203194600Y-54838600D01*
X203174600Y-54838600D01*
X203174600Y-54858600D01*
X202920600Y-54858600D01*
X202920600Y-54838600D01*
X201727445Y-54838600D01*
X201606124Y-55068490D01*
X201775955Y-55478524D01*
X202166242Y-55906783D01*
X202296078Y-55967757D01*
X201976975Y-56180975D01*
X201648761Y-56672182D01*
X201533508Y-57251600D01*
X201648761Y-57831018D01*
X201931990Y-58254900D01*
X197293533Y-58254900D01*
X196830809Y-57792177D01*
X196784752Y-57723248D01*
X196511694Y-57540796D01*
X196270903Y-57492900D01*
X196270901Y-57492900D01*
X196189600Y-57476728D01*
X196108299Y-57492900D01*
X190069459Y-57492900D01*
X190770124Y-56792235D01*
X191247400Y-55639990D01*
X191247400Y-54392810D01*
X190770124Y-53240565D01*
X189888235Y-52358676D01*
X188735990Y-51881400D01*
X187488810Y-51881400D01*
X186336565Y-52358676D01*
X185454676Y-53240565D01*
X184977400Y-54392810D01*
X184977400Y-55639990D01*
X185454676Y-56792235D01*
X186155341Y-57492900D01*
X180516461Y-57492900D01*
X180516640Y-57492000D01*
X180516640Y-56057800D01*
X180730138Y-56057800D01*
X181075554Y-55914724D01*
X181135678Y-55854600D01*
X181283460Y-55854600D01*
X181356000Y-55869029D01*
X181428540Y-55854600D01*
X181428544Y-55854600D01*
X181643407Y-55811861D01*
X181887058Y-55649058D01*
X181928151Y-55587558D01*
X182537751Y-54977958D01*
X182610085Y-54869703D01*
X187316167Y-50163622D01*
X187375546Y-50123946D01*
X187411892Y-50069551D01*
X187515158Y-50000551D01*
X187841351Y-49674358D01*
X187963061Y-49492206D01*
X188020229Y-49204801D01*
X187963061Y-48917394D01*
X187800258Y-48673742D01*
X187574000Y-48522561D01*
X187574000Y-42221400D01*
X187903756Y-42221400D01*
X188137800Y-42124456D01*
X188371844Y-42221400D01*
X188753756Y-42221400D01*
X188987800Y-42124456D01*
X189221844Y-42221400D01*
X189221844Y-42221400D01*
G37*
X189221844Y-42221400D02*
X189589050Y-42221400D01*
X189599428Y-42236930D01*
X189658493Y-42325327D01*
X189728477Y-42372089D01*
X189858308Y-42501920D01*
X189873250Y-42577037D01*
X190027741Y-42808249D01*
X199987120Y-52767628D01*
X200039284Y-52845697D01*
X200348562Y-53052350D01*
X200713381Y-53124917D01*
X200805467Y-53106600D01*
X201567067Y-53106600D01*
X201599443Y-53269365D01*
X201739791Y-53479409D01*
X201949835Y-53619757D01*
X202053308Y-53640339D01*
X201775955Y-53944676D01*
X201606124Y-54354710D01*
X201727445Y-54584600D01*
X202920600Y-54584600D01*
X202920600Y-54564600D01*
X203174600Y-54564600D01*
X203174600Y-54584600D01*
X203194600Y-54584600D01*
X203194600Y-54838600D01*
X203174600Y-54838600D01*
X203174600Y-54858600D01*
X202920600Y-54858600D01*
X202920600Y-54838600D01*
X201727445Y-54838600D01*
X201606124Y-55068490D01*
X201775955Y-55478524D01*
X202166242Y-55906783D01*
X202296078Y-55967757D01*
X201976975Y-56180975D01*
X201648761Y-56672182D01*
X201533508Y-57251600D01*
X201648761Y-57831018D01*
X201931990Y-58254900D01*
X197293533Y-58254900D01*
X196830809Y-57792177D01*
X196784752Y-57723248D01*
X196511694Y-57540796D01*
X196270903Y-57492900D01*
X196270901Y-57492900D01*
X196189600Y-57476728D01*
X196108299Y-57492900D01*
X190069459Y-57492900D01*
X190770124Y-56792235D01*
X191247400Y-55639990D01*
X191247400Y-54392810D01*
X190770124Y-53240565D01*
X189888235Y-52358676D01*
X188735990Y-51881400D01*
X187488810Y-51881400D01*
X186336565Y-52358676D01*
X185454676Y-53240565D01*
X184977400Y-54392810D01*
X184977400Y-55639990D01*
X185454676Y-56792235D01*
X186155341Y-57492900D01*
X180516461Y-57492900D01*
X180516640Y-57492000D01*
X180516640Y-56057800D01*
X180730138Y-56057800D01*
X181075554Y-55914724D01*
X181135678Y-55854600D01*
X181283460Y-55854600D01*
X181356000Y-55869029D01*
X181428540Y-55854600D01*
X181428544Y-55854600D01*
X181643407Y-55811861D01*
X181887058Y-55649058D01*
X181928151Y-55587558D01*
X182537751Y-54977958D01*
X182610085Y-54869703D01*
X187316167Y-50163622D01*
X187375546Y-50123946D01*
X187411892Y-50069551D01*
X187515158Y-50000551D01*
X187841351Y-49674358D01*
X187963061Y-49492206D01*
X188020229Y-49204801D01*
X187963061Y-48917394D01*
X187800258Y-48673742D01*
X187574000Y-48522561D01*
X187574000Y-42221400D01*
X187903756Y-42221400D01*
X188137800Y-42124456D01*
X188371844Y-42221400D01*
X188753756Y-42221400D01*
X188987800Y-42124456D01*
X189221844Y-42221400D01*
G36*
X74933287Y-34029276D02*
X74864300Y-34376098D01*
X74864300Y-35718301D01*
X74933287Y-36065123D01*
X75196079Y-36458421D01*
X75589376Y-36721213D01*
X75669749Y-36737200D01*
X75589377Y-36753187D01*
X75196080Y-37015979D01*
X74933287Y-37409276D01*
X74864300Y-37756098D01*
X74864300Y-39098301D01*
X74933287Y-39445123D01*
X75196079Y-39838421D01*
X75589376Y-40101213D01*
X76053300Y-40193493D01*
X76517223Y-40101213D01*
X76910521Y-39838421D01*
X77148227Y-39482668D01*
X77223695Y-39407200D01*
X77209553Y-39393058D01*
X77293300Y-39309310D01*
X77293300Y-39598156D01*
X77322194Y-39667911D01*
X76920230Y-40069875D01*
X76935579Y-40267027D01*
X77300224Y-40380566D01*
X77680562Y-40345917D01*
X77845762Y-40277489D01*
X78062344Y-40367200D01*
X78444256Y-40367200D01*
X78552370Y-40322418D01*
X78590555Y-40379565D01*
X78649934Y-40419241D01*
X80061558Y-41830866D01*
X80101234Y-41890245D01*
X80160613Y-41929921D01*
X80160615Y-41929923D01*
X80336482Y-42047434D01*
X80336483Y-42047434D01*
X80336484Y-42047435D01*
X80543934Y-42088699D01*
X80543937Y-42088699D01*
X80613979Y-42102631D01*
X80684021Y-42088699D01*
X84107569Y-42088699D01*
X84048600Y-42231062D01*
X84048600Y-42352011D01*
X81798212Y-44602400D01*
X81502442Y-44602400D01*
X81432400Y-44588468D01*
X81362358Y-44602400D01*
X81362354Y-44602400D01*
X81154904Y-44643664D01*
X81154902Y-44643665D01*
X81154903Y-44643665D01*
X80979035Y-44761176D01*
X80979033Y-44761178D01*
X80919654Y-44800854D01*
X80879978Y-44860233D01*
X77124612Y-48615600D01*
X75066291Y-48615600D01*
X74980767Y-48530076D01*
X74635351Y-48387000D01*
X74261475Y-48387000D01*
X73916059Y-48530076D01*
X73651689Y-48794446D01*
X73508613Y-49139862D01*
X73508613Y-49513738D01*
X73651689Y-49859154D01*
X73787000Y-49994465D01*
X73787000Y-50250337D01*
X73902402Y-50528942D01*
X73888600Y-50562262D01*
X73888600Y-50918722D01*
X73879276Y-50928046D01*
X73736200Y-51273462D01*
X73736200Y-51647338D01*
X73738842Y-51653717D01*
X73596500Y-51997362D01*
X73596500Y-52371238D01*
X73739576Y-52716654D01*
X73990200Y-52967278D01*
X73990200Y-53272938D01*
X74133276Y-53618354D01*
X74397646Y-53882724D01*
X74743062Y-54025800D01*
X75116938Y-54025800D01*
X75462354Y-53882724D01*
X75497078Y-53848000D01*
X92318199Y-53848000D01*
X92393242Y-53862927D01*
X92468285Y-53848000D01*
X92468290Y-53848000D01*
X92690559Y-53803788D01*
X92942613Y-53635371D01*
X92985125Y-53571747D01*
X95725122Y-50831750D01*
X98704500Y-50831750D01*
X98704500Y-51472310D01*
X98801173Y-51705699D01*
X98979802Y-51884327D01*
X99213191Y-51981000D01*
X99853750Y-51981000D01*
X100012500Y-51822250D01*
X100012500Y-50673000D01*
X98863250Y-50673000D01*
X98704500Y-50831750D01*
X95725122Y-50831750D01*
X96937182Y-49619690D01*
X98704500Y-49619690D01*
X98704500Y-50260250D01*
X98863250Y-50419000D01*
X100012500Y-50419000D01*
X100012500Y-49269750D01*
X99853750Y-49111000D01*
X99213191Y-49111000D01*
X98979802Y-49207673D01*
X98801173Y-49386301D01*
X98704500Y-49619690D01*
X96937182Y-49619690D01*
X99367051Y-47189822D01*
X99430672Y-47147312D01*
X99599089Y-46895258D01*
X99643301Y-46672989D01*
X99643301Y-46672985D01*
X99658228Y-46597942D01*
X99643301Y-46522899D01*
X99643301Y-43272287D01*
X101968300Y-45597287D01*
X101968301Y-49287356D01*
X101866638Y-49329466D01*
X101574500Y-49621604D01*
X101574500Y-49619690D01*
X101477827Y-49386301D01*
X101299198Y-49207673D01*
X101065809Y-49111000D01*
X100425250Y-49111000D01*
X100266500Y-49269750D01*
X100266500Y-50419000D01*
X100286500Y-50419000D01*
X100286500Y-50673000D01*
X100266500Y-50673000D01*
X100266500Y-51822250D01*
X100425250Y-51981000D01*
X101065809Y-51981000D01*
X101299198Y-51884327D01*
X101477827Y-51705699D01*
X101574500Y-51472310D01*
X101574500Y-51470396D01*
X101866638Y-51762534D01*
X102394061Y-51981000D01*
X102964939Y-51981000D01*
X103492362Y-51762534D01*
X103896034Y-51358862D01*
X103949500Y-51229784D01*
X104002966Y-51358862D01*
X104406638Y-51762534D01*
X104934061Y-51981000D01*
X105504939Y-51981000D01*
X106032362Y-51762534D01*
X106436034Y-51358862D01*
X106489500Y-51229784D01*
X106542966Y-51358862D01*
X106946638Y-51762534D01*
X107474061Y-51981000D01*
X108044939Y-51981000D01*
X108572362Y-51762534D01*
X108976034Y-51358862D01*
X109029500Y-51229784D01*
X109082966Y-51358862D01*
X109486638Y-51762534D01*
X110014061Y-51981000D01*
X110584939Y-51981000D01*
X111112362Y-51762534D01*
X111516034Y-51358862D01*
X111569500Y-51229784D01*
X111622966Y-51358862D01*
X112026638Y-51762534D01*
X112554061Y-51981000D01*
X113124939Y-51981000D01*
X113652362Y-51762534D01*
X114056034Y-51358862D01*
X114109500Y-51229784D01*
X114162966Y-51358862D01*
X114566638Y-51762534D01*
X115094061Y-51981000D01*
X115664939Y-51981000D01*
X116192362Y-51762534D01*
X116596034Y-51358862D01*
X116649500Y-51229784D01*
X116702966Y-51358862D01*
X117106638Y-51762534D01*
X117634061Y-51981000D01*
X118204939Y-51981000D01*
X118732362Y-51762534D01*
X119136034Y-51358862D01*
X119189500Y-51229784D01*
X119242966Y-51358862D01*
X119646638Y-51762534D01*
X120174061Y-51981000D01*
X120744939Y-51981000D01*
X121272362Y-51762534D01*
X121676034Y-51358862D01*
X121729500Y-51229784D01*
X121782966Y-51358862D01*
X122186638Y-51762534D01*
X122714061Y-51981000D01*
X123105423Y-51981000D01*
X125874122Y-54749700D01*
X122726547Y-54749700D01*
X122757040Y-54596400D01*
X122757040Y-52896400D01*
X122707757Y-52648635D01*
X122567409Y-52438591D01*
X122357365Y-52298243D01*
X122109600Y-52248960D01*
X120409600Y-52248960D01*
X120161835Y-52298243D01*
X119951791Y-52438591D01*
X119837200Y-52610087D01*
X119722609Y-52438591D01*
X119512565Y-52298243D01*
X119264800Y-52248960D01*
X117564800Y-52248960D01*
X117317035Y-52298243D01*
X117106991Y-52438591D01*
X117017800Y-52572074D01*
X116928609Y-52438591D01*
X116718565Y-52298243D01*
X116470800Y-52248960D01*
X114770800Y-52248960D01*
X114523035Y-52298243D01*
X114312991Y-52438591D01*
X114198400Y-52610087D01*
X114083809Y-52438591D01*
X113873765Y-52298243D01*
X113626000Y-52248960D01*
X111926000Y-52248960D01*
X111678235Y-52298243D01*
X111468191Y-52438591D01*
X111327843Y-52648635D01*
X111278560Y-52896400D01*
X111278560Y-54596400D01*
X111309053Y-54749700D01*
X109061347Y-54749700D01*
X109091840Y-54596400D01*
X109091840Y-52896400D01*
X109042557Y-52648635D01*
X108902209Y-52438591D01*
X108692165Y-52298243D01*
X108444400Y-52248960D01*
X106744400Y-52248960D01*
X106496635Y-52298243D01*
X106286591Y-52438591D01*
X106146243Y-52648635D01*
X106096960Y-52896400D01*
X106096960Y-54596400D01*
X106127453Y-54749700D01*
X101695347Y-54749700D01*
X101725840Y-54596400D01*
X101725840Y-52896400D01*
X101676557Y-52648635D01*
X101536209Y-52438591D01*
X101326165Y-52298243D01*
X101078400Y-52248960D01*
X99378400Y-52248960D01*
X99130635Y-52298243D01*
X98920591Y-52438591D01*
X98780243Y-52648635D01*
X98730960Y-52896400D01*
X98730960Y-54596400D01*
X98761453Y-54749700D01*
X90657703Y-54749700D01*
X90576400Y-54733528D01*
X90254305Y-54797596D01*
X90176357Y-54849680D01*
X89981248Y-54980048D01*
X89935193Y-55048974D01*
X87389668Y-57594500D01*
X67194733Y-57594500D01*
X64528700Y-54928468D01*
X64528700Y-50649544D01*
X66627928Y-50649544D01*
X66627928Y-51200532D01*
X66838781Y-51709578D01*
X67228388Y-52099185D01*
X67737434Y-52310038D01*
X68288422Y-52310038D01*
X68797468Y-52099185D01*
X69187075Y-51709578D01*
X69397928Y-51200532D01*
X69397928Y-50649544D01*
X69187075Y-50140498D01*
X68797468Y-49750891D01*
X68288422Y-49540038D01*
X67737434Y-49540038D01*
X67228388Y-49750891D01*
X66838781Y-50140498D01*
X66627928Y-50649544D01*
X64528700Y-50649544D01*
X64528700Y-45649544D01*
X66627928Y-45649544D01*
X66627928Y-46200532D01*
X66838781Y-46709578D01*
X67228388Y-47099185D01*
X67737434Y-47310038D01*
X68288422Y-47310038D01*
X68797468Y-47099185D01*
X69187075Y-46709578D01*
X69397928Y-46200532D01*
X69397928Y-45649544D01*
X69187075Y-45140498D01*
X68797468Y-44750891D01*
X68288422Y-44540038D01*
X67737434Y-44540038D01*
X67228388Y-44750891D01*
X66838781Y-45140498D01*
X66627928Y-45649544D01*
X64528700Y-45649544D01*
X64528700Y-41202747D01*
X64548709Y-41251053D01*
X65936947Y-42639291D01*
X67750768Y-43390600D01*
X69714032Y-43390600D01*
X71527853Y-42639291D01*
X72916091Y-41251053D01*
X73667400Y-39437232D01*
X73667400Y-37473968D01*
X72916091Y-35660147D01*
X71527853Y-34271909D01*
X70498410Y-33845500D01*
X75056082Y-33845500D01*
X74933287Y-34029276D01*
X74933287Y-34029276D01*
G37*
X74933287Y-34029276D02*
X74864300Y-34376098D01*
X74864300Y-35718301D01*
X74933287Y-36065123D01*
X75196079Y-36458421D01*
X75589376Y-36721213D01*
X75669749Y-36737200D01*
X75589377Y-36753187D01*
X75196080Y-37015979D01*
X74933287Y-37409276D01*
X74864300Y-37756098D01*
X74864300Y-39098301D01*
X74933287Y-39445123D01*
X75196079Y-39838421D01*
X75589376Y-40101213D01*
X76053300Y-40193493D01*
X76517223Y-40101213D01*
X76910521Y-39838421D01*
X77148227Y-39482668D01*
X77223695Y-39407200D01*
X77209553Y-39393058D01*
X77293300Y-39309310D01*
X77293300Y-39598156D01*
X77322194Y-39667911D01*
X76920230Y-40069875D01*
X76935579Y-40267027D01*
X77300224Y-40380566D01*
X77680562Y-40345917D01*
X77845762Y-40277489D01*
X78062344Y-40367200D01*
X78444256Y-40367200D01*
X78552370Y-40322418D01*
X78590555Y-40379565D01*
X78649934Y-40419241D01*
X80061558Y-41830866D01*
X80101234Y-41890245D01*
X80160613Y-41929921D01*
X80160615Y-41929923D01*
X80336482Y-42047434D01*
X80336483Y-42047434D01*
X80336484Y-42047435D01*
X80543934Y-42088699D01*
X80543937Y-42088699D01*
X80613979Y-42102631D01*
X80684021Y-42088699D01*
X84107569Y-42088699D01*
X84048600Y-42231062D01*
X84048600Y-42352011D01*
X81798212Y-44602400D01*
X81502442Y-44602400D01*
X81432400Y-44588468D01*
X81362358Y-44602400D01*
X81362354Y-44602400D01*
X81154904Y-44643664D01*
X81154902Y-44643665D01*
X81154903Y-44643665D01*
X80979035Y-44761176D01*
X80979033Y-44761178D01*
X80919654Y-44800854D01*
X80879978Y-44860233D01*
X77124612Y-48615600D01*
X75066291Y-48615600D01*
X74980767Y-48530076D01*
X74635351Y-48387000D01*
X74261475Y-48387000D01*
X73916059Y-48530076D01*
X73651689Y-48794446D01*
X73508613Y-49139862D01*
X73508613Y-49513738D01*
X73651689Y-49859154D01*
X73787000Y-49994465D01*
X73787000Y-50250337D01*
X73902402Y-50528942D01*
X73888600Y-50562262D01*
X73888600Y-50918722D01*
X73879276Y-50928046D01*
X73736200Y-51273462D01*
X73736200Y-51647338D01*
X73738842Y-51653717D01*
X73596500Y-51997362D01*
X73596500Y-52371238D01*
X73739576Y-52716654D01*
X73990200Y-52967278D01*
X73990200Y-53272938D01*
X74133276Y-53618354D01*
X74397646Y-53882724D01*
X74743062Y-54025800D01*
X75116938Y-54025800D01*
X75462354Y-53882724D01*
X75497078Y-53848000D01*
X92318199Y-53848000D01*
X92393242Y-53862927D01*
X92468285Y-53848000D01*
X92468290Y-53848000D01*
X92690559Y-53803788D01*
X92942613Y-53635371D01*
X92985125Y-53571747D01*
X95725122Y-50831750D01*
X98704500Y-50831750D01*
X98704500Y-51472310D01*
X98801173Y-51705699D01*
X98979802Y-51884327D01*
X99213191Y-51981000D01*
X99853750Y-51981000D01*
X100012500Y-51822250D01*
X100012500Y-50673000D01*
X98863250Y-50673000D01*
X98704500Y-50831750D01*
X95725122Y-50831750D01*
X96937182Y-49619690D01*
X98704500Y-49619690D01*
X98704500Y-50260250D01*
X98863250Y-50419000D01*
X100012500Y-50419000D01*
X100012500Y-49269750D01*
X99853750Y-49111000D01*
X99213191Y-49111000D01*
X98979802Y-49207673D01*
X98801173Y-49386301D01*
X98704500Y-49619690D01*
X96937182Y-49619690D01*
X99367051Y-47189822D01*
X99430672Y-47147312D01*
X99599089Y-46895258D01*
X99643301Y-46672989D01*
X99643301Y-46672985D01*
X99658228Y-46597942D01*
X99643301Y-46522899D01*
X99643301Y-43272287D01*
X101968300Y-45597287D01*
X101968301Y-49287356D01*
X101866638Y-49329466D01*
X101574500Y-49621604D01*
X101574500Y-49619690D01*
X101477827Y-49386301D01*
X101299198Y-49207673D01*
X101065809Y-49111000D01*
X100425250Y-49111000D01*
X100266500Y-49269750D01*
X100266500Y-50419000D01*
X100286500Y-50419000D01*
X100286500Y-50673000D01*
X100266500Y-50673000D01*
X100266500Y-51822250D01*
X100425250Y-51981000D01*
X101065809Y-51981000D01*
X101299198Y-51884327D01*
X101477827Y-51705699D01*
X101574500Y-51472310D01*
X101574500Y-51470396D01*
X101866638Y-51762534D01*
X102394061Y-51981000D01*
X102964939Y-51981000D01*
X103492362Y-51762534D01*
X103896034Y-51358862D01*
X103949500Y-51229784D01*
X104002966Y-51358862D01*
X104406638Y-51762534D01*
X104934061Y-51981000D01*
X105504939Y-51981000D01*
X106032362Y-51762534D01*
X106436034Y-51358862D01*
X106489500Y-51229784D01*
X106542966Y-51358862D01*
X106946638Y-51762534D01*
X107474061Y-51981000D01*
X108044939Y-51981000D01*
X108572362Y-51762534D01*
X108976034Y-51358862D01*
X109029500Y-51229784D01*
X109082966Y-51358862D01*
X109486638Y-51762534D01*
X110014061Y-51981000D01*
X110584939Y-51981000D01*
X111112362Y-51762534D01*
X111516034Y-51358862D01*
X111569500Y-51229784D01*
X111622966Y-51358862D01*
X112026638Y-51762534D01*
X112554061Y-51981000D01*
X113124939Y-51981000D01*
X113652362Y-51762534D01*
X114056034Y-51358862D01*
X114109500Y-51229784D01*
X114162966Y-51358862D01*
X114566638Y-51762534D01*
X115094061Y-51981000D01*
X115664939Y-51981000D01*
X116192362Y-51762534D01*
X116596034Y-51358862D01*
X116649500Y-51229784D01*
X116702966Y-51358862D01*
X117106638Y-51762534D01*
X117634061Y-51981000D01*
X118204939Y-51981000D01*
X118732362Y-51762534D01*
X119136034Y-51358862D01*
X119189500Y-51229784D01*
X119242966Y-51358862D01*
X119646638Y-51762534D01*
X120174061Y-51981000D01*
X120744939Y-51981000D01*
X121272362Y-51762534D01*
X121676034Y-51358862D01*
X121729500Y-51229784D01*
X121782966Y-51358862D01*
X122186638Y-51762534D01*
X122714061Y-51981000D01*
X123105423Y-51981000D01*
X125874122Y-54749700D01*
X122726547Y-54749700D01*
X122757040Y-54596400D01*
X122757040Y-52896400D01*
X122707757Y-52648635D01*
X122567409Y-52438591D01*
X122357365Y-52298243D01*
X122109600Y-52248960D01*
X120409600Y-52248960D01*
X120161835Y-52298243D01*
X119951791Y-52438591D01*
X119837200Y-52610087D01*
X119722609Y-52438591D01*
X119512565Y-52298243D01*
X119264800Y-52248960D01*
X117564800Y-52248960D01*
X117317035Y-52298243D01*
X117106991Y-52438591D01*
X117017800Y-52572074D01*
X116928609Y-52438591D01*
X116718565Y-52298243D01*
X116470800Y-52248960D01*
X114770800Y-52248960D01*
X114523035Y-52298243D01*
X114312991Y-52438591D01*
X114198400Y-52610087D01*
X114083809Y-52438591D01*
X113873765Y-52298243D01*
X113626000Y-52248960D01*
X111926000Y-52248960D01*
X111678235Y-52298243D01*
X111468191Y-52438591D01*
X111327843Y-52648635D01*
X111278560Y-52896400D01*
X111278560Y-54596400D01*
X111309053Y-54749700D01*
X109061347Y-54749700D01*
X109091840Y-54596400D01*
X109091840Y-52896400D01*
X109042557Y-52648635D01*
X108902209Y-52438591D01*
X108692165Y-52298243D01*
X108444400Y-52248960D01*
X106744400Y-52248960D01*
X106496635Y-52298243D01*
X106286591Y-52438591D01*
X106146243Y-52648635D01*
X106096960Y-52896400D01*
X106096960Y-54596400D01*
X106127453Y-54749700D01*
X101695347Y-54749700D01*
X101725840Y-54596400D01*
X101725840Y-52896400D01*
X101676557Y-52648635D01*
X101536209Y-52438591D01*
X101326165Y-52298243D01*
X101078400Y-52248960D01*
X99378400Y-52248960D01*
X99130635Y-52298243D01*
X98920591Y-52438591D01*
X98780243Y-52648635D01*
X98730960Y-52896400D01*
X98730960Y-54596400D01*
X98761453Y-54749700D01*
X90657703Y-54749700D01*
X90576400Y-54733528D01*
X90254305Y-54797596D01*
X90176357Y-54849680D01*
X89981248Y-54980048D01*
X89935193Y-55048974D01*
X87389668Y-57594500D01*
X67194733Y-57594500D01*
X64528700Y-54928468D01*
X64528700Y-50649544D01*
X66627928Y-50649544D01*
X66627928Y-51200532D01*
X66838781Y-51709578D01*
X67228388Y-52099185D01*
X67737434Y-52310038D01*
X68288422Y-52310038D01*
X68797468Y-52099185D01*
X69187075Y-51709578D01*
X69397928Y-51200532D01*
X69397928Y-50649544D01*
X69187075Y-50140498D01*
X68797468Y-49750891D01*
X68288422Y-49540038D01*
X67737434Y-49540038D01*
X67228388Y-49750891D01*
X66838781Y-50140498D01*
X66627928Y-50649544D01*
X64528700Y-50649544D01*
X64528700Y-45649544D01*
X66627928Y-45649544D01*
X66627928Y-46200532D01*
X66838781Y-46709578D01*
X67228388Y-47099185D01*
X67737434Y-47310038D01*
X68288422Y-47310038D01*
X68797468Y-47099185D01*
X69187075Y-46709578D01*
X69397928Y-46200532D01*
X69397928Y-45649544D01*
X69187075Y-45140498D01*
X68797468Y-44750891D01*
X68288422Y-44540038D01*
X67737434Y-44540038D01*
X67228388Y-44750891D01*
X66838781Y-45140498D01*
X66627928Y-45649544D01*
X64528700Y-45649544D01*
X64528700Y-41202747D01*
X64548709Y-41251053D01*
X65936947Y-42639291D01*
X67750768Y-43390600D01*
X69714032Y-43390600D01*
X71527853Y-42639291D01*
X72916091Y-41251053D01*
X73667400Y-39437232D01*
X73667400Y-37473968D01*
X72916091Y-35660147D01*
X71527853Y-34271909D01*
X70498410Y-33845500D01*
X75056082Y-33845500D01*
X74933287Y-34029276D01*
G36*
X182623800Y-39610298D02*
X182623800Y-40952501D01*
X182692787Y-41299323D01*
X182955579Y-41692621D01*
X183348876Y-41955413D01*
X183812800Y-42047693D01*
X184276723Y-41955413D01*
X184670021Y-41692621D01*
X184907727Y-41336868D01*
X184983195Y-41261400D01*
X184969053Y-41247258D01*
X185052800Y-41163510D01*
X185052800Y-41452356D01*
X185081694Y-41522111D01*
X184679730Y-41924075D01*
X184695079Y-42121227D01*
X185059724Y-42234766D01*
X185440062Y-42200117D01*
X185605262Y-42131689D01*
X185821844Y-42221400D01*
X186151600Y-42221400D01*
X186151601Y-49316610D01*
X181604297Y-53863915D01*
X181496042Y-53936249D01*
X181191242Y-54241049D01*
X181093285Y-54339007D01*
X181075554Y-54321276D01*
X180730138Y-54178200D01*
X180356262Y-54178200D01*
X180010846Y-54321276D01*
X179746476Y-54585646D01*
X179674522Y-54759358D01*
X179615231Y-54719741D01*
X172760189Y-47864700D01*
X172864633Y-47864700D01*
X173360447Y-47659327D01*
X173596300Y-47423474D01*
X173832153Y-47659327D01*
X174327967Y-47864700D01*
X174864633Y-47864700D01*
X175360447Y-47659327D01*
X175558650Y-47461124D01*
X176330481Y-47461124D01*
X176394043Y-47698340D01*
X176900076Y-47877059D01*
X177435983Y-47848523D01*
X177798557Y-47698340D01*
X177862119Y-47461124D01*
X177096300Y-46695305D01*
X176330481Y-47461124D01*
X175558650Y-47461124D01*
X175739927Y-47279847D01*
X175839611Y-47039188D01*
X175913660Y-47217957D01*
X176150876Y-47281519D01*
X176916695Y-46515700D01*
X177275905Y-46515700D01*
X178041724Y-47281519D01*
X178278940Y-47217957D01*
X178457659Y-46711924D01*
X178429123Y-46176017D01*
X178278940Y-45813443D01*
X178041724Y-45749881D01*
X177275905Y-46515700D01*
X176916695Y-46515700D01*
X176150876Y-45749881D01*
X175913660Y-45813443D01*
X175845501Y-46006431D01*
X175739927Y-45751553D01*
X175558650Y-45570276D01*
X176330481Y-45570276D01*
X177096300Y-46336095D01*
X177862119Y-45570276D01*
X177798557Y-45333060D01*
X177292524Y-45154341D01*
X176756617Y-45182877D01*
X176394043Y-45333060D01*
X176330481Y-45570276D01*
X175558650Y-45570276D01*
X175360447Y-45372073D01*
X174864633Y-45166700D01*
X174327967Y-45166700D01*
X173832153Y-45372073D01*
X173596300Y-45607926D01*
X173360447Y-45372073D01*
X172864633Y-45166700D01*
X172630693Y-45166700D01*
X174447799Y-43349594D01*
X177873300Y-43349594D01*
X177873300Y-44261806D01*
X178222388Y-45104580D01*
X178867420Y-45749612D01*
X179710194Y-46098700D01*
X180622406Y-46098700D01*
X181465180Y-45749612D01*
X182110212Y-45104580D01*
X182459300Y-44261806D01*
X182459300Y-43349594D01*
X182110212Y-42506820D01*
X181465180Y-41861788D01*
X180622406Y-41512700D01*
X179710194Y-41512700D01*
X178867420Y-41861788D01*
X178222388Y-42506820D01*
X177873300Y-43349594D01*
X174447799Y-43349594D01*
X178293804Y-39503590D01*
X182645025Y-39503590D01*
X182623800Y-39610298D01*
X182623800Y-39610298D01*
G37*
X182623800Y-39610298D02*
X182623800Y-40952501D01*
X182692787Y-41299323D01*
X182955579Y-41692621D01*
X183348876Y-41955413D01*
X183812800Y-42047693D01*
X184276723Y-41955413D01*
X184670021Y-41692621D01*
X184907727Y-41336868D01*
X184983195Y-41261400D01*
X184969053Y-41247258D01*
X185052800Y-41163510D01*
X185052800Y-41452356D01*
X185081694Y-41522111D01*
X184679730Y-41924075D01*
X184695079Y-42121227D01*
X185059724Y-42234766D01*
X185440062Y-42200117D01*
X185605262Y-42131689D01*
X185821844Y-42221400D01*
X186151600Y-42221400D01*
X186151601Y-49316610D01*
X181604297Y-53863915D01*
X181496042Y-53936249D01*
X181191242Y-54241049D01*
X181093285Y-54339007D01*
X181075554Y-54321276D01*
X180730138Y-54178200D01*
X180356262Y-54178200D01*
X180010846Y-54321276D01*
X179746476Y-54585646D01*
X179674522Y-54759358D01*
X179615231Y-54719741D01*
X172760189Y-47864700D01*
X172864633Y-47864700D01*
X173360447Y-47659327D01*
X173596300Y-47423474D01*
X173832153Y-47659327D01*
X174327967Y-47864700D01*
X174864633Y-47864700D01*
X175360447Y-47659327D01*
X175558650Y-47461124D01*
X176330481Y-47461124D01*
X176394043Y-47698340D01*
X176900076Y-47877059D01*
X177435983Y-47848523D01*
X177798557Y-47698340D01*
X177862119Y-47461124D01*
X177096300Y-46695305D01*
X176330481Y-47461124D01*
X175558650Y-47461124D01*
X175739927Y-47279847D01*
X175839611Y-47039188D01*
X175913660Y-47217957D01*
X176150876Y-47281519D01*
X176916695Y-46515700D01*
X177275905Y-46515700D01*
X178041724Y-47281519D01*
X178278940Y-47217957D01*
X178457659Y-46711924D01*
X178429123Y-46176017D01*
X178278940Y-45813443D01*
X178041724Y-45749881D01*
X177275905Y-46515700D01*
X176916695Y-46515700D01*
X176150876Y-45749881D01*
X175913660Y-45813443D01*
X175845501Y-46006431D01*
X175739927Y-45751553D01*
X175558650Y-45570276D01*
X176330481Y-45570276D01*
X177096300Y-46336095D01*
X177862119Y-45570276D01*
X177798557Y-45333060D01*
X177292524Y-45154341D01*
X176756617Y-45182877D01*
X176394043Y-45333060D01*
X176330481Y-45570276D01*
X175558650Y-45570276D01*
X175360447Y-45372073D01*
X174864633Y-45166700D01*
X174327967Y-45166700D01*
X173832153Y-45372073D01*
X173596300Y-45607926D01*
X173360447Y-45372073D01*
X172864633Y-45166700D01*
X172630693Y-45166700D01*
X174447799Y-43349594D01*
X177873300Y-43349594D01*
X177873300Y-44261806D01*
X178222388Y-45104580D01*
X178867420Y-45749612D01*
X179710194Y-46098700D01*
X180622406Y-46098700D01*
X181465180Y-45749612D01*
X182110212Y-45104580D01*
X182459300Y-44261806D01*
X182459300Y-43349594D01*
X182110212Y-42506820D01*
X181465180Y-41861788D01*
X180622406Y-41512700D01*
X179710194Y-41512700D01*
X178867420Y-41861788D01*
X178222388Y-42506820D01*
X177873300Y-43349594D01*
X174447799Y-43349594D01*
X178293804Y-39503590D01*
X182645025Y-39503590D01*
X182623800Y-39610298D01*
G36*
X167130997Y-37541200D02*
X162499273Y-37541200D01*
X162675648Y-37468143D01*
X162762054Y-37211659D01*
X161861500Y-36311105D01*
X161847358Y-36325248D01*
X161667753Y-36145643D01*
X161681895Y-36131500D01*
X162041105Y-36131500D01*
X162941659Y-37032054D01*
X163198143Y-36945648D01*
X163407958Y-36372164D01*
X163382339Y-35762040D01*
X163198143Y-35317352D01*
X162941659Y-35230946D01*
X162041105Y-36131500D01*
X161681895Y-36131500D01*
X161667753Y-36117358D01*
X161847358Y-35937753D01*
X161861500Y-35951895D01*
X162762054Y-35051341D01*
X162675648Y-34794857D01*
X162102164Y-34585042D01*
X161492040Y-34610661D01*
X161047352Y-34794857D01*
X160960947Y-35051339D01*
X160846390Y-34936782D01*
X160811558Y-34971614D01*
X160679309Y-34773691D01*
X160469265Y-34633343D01*
X160221500Y-34584060D01*
X158421500Y-34584060D01*
X158173735Y-34633343D01*
X157963691Y-34773691D01*
X157823343Y-34983735D01*
X157774060Y-35231500D01*
X157774060Y-35287004D01*
X157607659Y-35230946D01*
X156707105Y-36131500D01*
X157607659Y-37032054D01*
X157774060Y-36975996D01*
X157774060Y-37031500D01*
X157823343Y-37279265D01*
X157963691Y-37489309D01*
X158041351Y-37541200D01*
X157165273Y-37541200D01*
X157341648Y-37468143D01*
X157428054Y-37211659D01*
X156527500Y-36311105D01*
X156513358Y-36325248D01*
X156333753Y-36145643D01*
X156347895Y-36131500D01*
X156333753Y-36117358D01*
X156513358Y-35937753D01*
X156527500Y-35951895D01*
X157428054Y-35051341D01*
X157341648Y-34794857D01*
X156768164Y-34585042D01*
X156158040Y-34610661D01*
X155713352Y-34794857D01*
X155626947Y-35051339D01*
X155512390Y-34936782D01*
X155477558Y-34971614D01*
X155345309Y-34773691D01*
X155135265Y-34633343D01*
X154887500Y-34584060D01*
X153087500Y-34584060D01*
X152839735Y-34633343D01*
X152629691Y-34773691D01*
X152489343Y-34983735D01*
X152440060Y-35231500D01*
X152440060Y-35350504D01*
X152273659Y-35294446D01*
X151373105Y-36195000D01*
X152273659Y-37095554D01*
X152441551Y-37038994D01*
X152489343Y-37279265D01*
X152629691Y-37489309D01*
X152707351Y-37541200D01*
X151984575Y-37541200D01*
X152007648Y-37531643D01*
X152094054Y-37275159D01*
X151193500Y-36374605D01*
X151179358Y-36388748D01*
X150999753Y-36209143D01*
X151013895Y-36195000D01*
X150999753Y-36180858D01*
X151179358Y-36001253D01*
X151193500Y-36015395D01*
X152094054Y-35114841D01*
X152007648Y-34858357D01*
X151434164Y-34648542D01*
X150824040Y-34674161D01*
X150379352Y-34858357D01*
X150292947Y-35114839D01*
X150178390Y-35000282D01*
X150143558Y-35035114D01*
X150011309Y-34837191D01*
X149801265Y-34696843D01*
X149553500Y-34647560D01*
X147753500Y-34647560D01*
X147505735Y-34696843D01*
X147295691Y-34837191D01*
X147155343Y-35047235D01*
X147131352Y-35167848D01*
X147130159Y-35167446D01*
X146229605Y-36068000D01*
X146243748Y-36082143D01*
X146064143Y-36261748D01*
X146050000Y-36247605D01*
X146035858Y-36261748D01*
X145856253Y-36082143D01*
X145870395Y-36068000D01*
X145856253Y-36053858D01*
X146035858Y-35874253D01*
X146050000Y-35888395D01*
X146950554Y-34987841D01*
X146864148Y-34731357D01*
X146290664Y-34521542D01*
X145680540Y-34547161D01*
X145235852Y-34731357D01*
X145149447Y-34987839D01*
X145034890Y-34873282D01*
X145000058Y-34908114D01*
X144867809Y-34710191D01*
X144657765Y-34569843D01*
X144410000Y-34520560D01*
X142610000Y-34520560D01*
X142362235Y-34569843D01*
X142152191Y-34710191D01*
X142011843Y-34920235D01*
X141982838Y-35066054D01*
X141934053Y-35114839D01*
X141847648Y-34858357D01*
X141274164Y-34648542D01*
X140664040Y-34674161D01*
X140219352Y-34858357D01*
X140132947Y-35114839D01*
X140018390Y-35000282D01*
X139983558Y-35035114D01*
X139851309Y-34837191D01*
X139641265Y-34696843D01*
X139393500Y-34647560D01*
X137593500Y-34647560D01*
X137345735Y-34696843D01*
X137135691Y-34837191D01*
X136995343Y-35047235D01*
X136946060Y-35295000D01*
X136946060Y-37095000D01*
X136995343Y-37342765D01*
X137127934Y-37541200D01*
X136472331Y-37541200D01*
X134573432Y-35642302D01*
X134594500Y-35591439D01*
X134594500Y-35020561D01*
X134376034Y-34493138D01*
X133972362Y-34089466D01*
X133444939Y-33871000D01*
X132874061Y-33871000D01*
X132346638Y-34089466D01*
X131942966Y-34493138D01*
X131889500Y-34622216D01*
X131836034Y-34493138D01*
X131432362Y-34089466D01*
X130904939Y-33871000D01*
X130334061Y-33871000D01*
X129806638Y-34089466D01*
X129402966Y-34493138D01*
X129349500Y-34622216D01*
X129296034Y-34493138D01*
X128892362Y-34089466D01*
X128364939Y-33871000D01*
X127794061Y-33871000D01*
X127266638Y-34089466D01*
X126862966Y-34493138D01*
X126809500Y-34622216D01*
X126756034Y-34493138D01*
X126352362Y-34089466D01*
X125824939Y-33871000D01*
X125254061Y-33871000D01*
X124726638Y-34089466D01*
X124322966Y-34493138D01*
X124269500Y-34622216D01*
X124216034Y-34493138D01*
X123812362Y-34089466D01*
X123284939Y-33871000D01*
X122714061Y-33871000D01*
X122186638Y-34089466D01*
X121782966Y-34493138D01*
X121729500Y-34622216D01*
X121676034Y-34493138D01*
X121272362Y-34089466D01*
X120744939Y-33871000D01*
X120174061Y-33871000D01*
X119646638Y-34089466D01*
X119242966Y-34493138D01*
X119189500Y-34622216D01*
X119136034Y-34493138D01*
X118732362Y-34089466D01*
X118204939Y-33871000D01*
X117634061Y-33871000D01*
X117106638Y-34089466D01*
X116702966Y-34493138D01*
X116649500Y-34622216D01*
X116596034Y-34493138D01*
X116192362Y-34089466D01*
X115664939Y-33871000D01*
X115094061Y-33871000D01*
X114566638Y-34089466D01*
X114162966Y-34493138D01*
X114109500Y-34622216D01*
X114056034Y-34493138D01*
X113652362Y-34089466D01*
X113124939Y-33871000D01*
X112554061Y-33871000D01*
X112026638Y-34089466D01*
X111622966Y-34493138D01*
X111569500Y-34622216D01*
X111516034Y-34493138D01*
X111112362Y-34089466D01*
X110584939Y-33871000D01*
X110014061Y-33871000D01*
X109486638Y-34089466D01*
X109082966Y-34493138D01*
X109029500Y-34622216D01*
X108976034Y-34493138D01*
X108572362Y-34089466D01*
X108044939Y-33871000D01*
X107474061Y-33871000D01*
X106946638Y-34089466D01*
X106542966Y-34493138D01*
X106489500Y-34622216D01*
X106436034Y-34493138D01*
X106032362Y-34089466D01*
X105504939Y-33871000D01*
X104934061Y-33871000D01*
X104406638Y-34089466D01*
X104002966Y-34493138D01*
X103955975Y-34606583D01*
X103933364Y-34551995D01*
X103687245Y-34477861D01*
X102859105Y-35306000D01*
X103687245Y-36134139D01*
X103933364Y-36060005D01*
X103954374Y-36001552D01*
X104002966Y-36118862D01*
X104406638Y-36522534D01*
X104934061Y-36741000D01*
X105504939Y-36741000D01*
X106032362Y-36522534D01*
X106436034Y-36118862D01*
X106489500Y-35989784D01*
X106542966Y-36118862D01*
X106946638Y-36522534D01*
X107474061Y-36741000D01*
X108044939Y-36741000D01*
X108572362Y-36522534D01*
X108976034Y-36118862D01*
X109029500Y-35989784D01*
X109082966Y-36118862D01*
X109486638Y-36522534D01*
X110014061Y-36741000D01*
X110584939Y-36741000D01*
X111112362Y-36522534D01*
X111516034Y-36118862D01*
X111569500Y-35989784D01*
X111622966Y-36118862D01*
X112026638Y-36522534D01*
X112554061Y-36741000D01*
X112866869Y-36741000D01*
X110542670Y-39065200D01*
X103485926Y-39065200D01*
X103492362Y-39062534D01*
X103896034Y-38658862D01*
X104114500Y-38131439D01*
X104114500Y-37560561D01*
X103896034Y-37033138D01*
X103492362Y-36629466D01*
X103378917Y-36582475D01*
X103433505Y-36559864D01*
X103507639Y-36313745D01*
X102679500Y-35485605D01*
X101851361Y-36313745D01*
X101925495Y-36559864D01*
X101983948Y-36580874D01*
X101866638Y-36629466D01*
X101462966Y-37033138D01*
X101244500Y-37560561D01*
X101244500Y-38131439D01*
X101462966Y-38658862D01*
X101866638Y-39062534D01*
X101873074Y-39065200D01*
X101557478Y-39065200D01*
X101522754Y-39030476D01*
X101177338Y-38887400D01*
X100803462Y-38887400D01*
X100458046Y-39030476D01*
X100193676Y-39294846D01*
X100050600Y-39640262D01*
X100050600Y-40014138D01*
X100193676Y-40359554D01*
X100458046Y-40623924D01*
X100803462Y-40767000D01*
X101177338Y-40767000D01*
X101522754Y-40623924D01*
X101557478Y-40589200D01*
X110783257Y-40589200D01*
X110858300Y-40604127D01*
X110933343Y-40589200D01*
X110933348Y-40589200D01*
X111155617Y-40544988D01*
X111407671Y-40376571D01*
X111450183Y-40312947D01*
X115043199Y-36719932D01*
X115094061Y-36741000D01*
X115664939Y-36741000D01*
X116192362Y-36522534D01*
X116596034Y-36118862D01*
X116649500Y-35989784D01*
X116702966Y-36118862D01*
X117106638Y-36522534D01*
X117634061Y-36741000D01*
X118204939Y-36741000D01*
X118732362Y-36522534D01*
X119136034Y-36118862D01*
X119189500Y-35989784D01*
X119242966Y-36118862D01*
X119646638Y-36522534D01*
X120174061Y-36741000D01*
X120744939Y-36741000D01*
X121272362Y-36522534D01*
X121676034Y-36118862D01*
X121729500Y-35989784D01*
X121782966Y-36118862D01*
X122055356Y-36391252D01*
X122046183Y-36437370D01*
X122118750Y-36802188D01*
X122272342Y-37032054D01*
X122325404Y-37111467D01*
X122403470Y-37163629D01*
X136954209Y-51714369D01*
X134020527Y-51714369D01*
X134376034Y-51358862D01*
X134594500Y-50831439D01*
X134594500Y-50260561D01*
X134376034Y-49733138D01*
X133972362Y-49329466D01*
X133444939Y-49111000D01*
X132874061Y-49111000D01*
X132346638Y-49329466D01*
X131942966Y-49733138D01*
X131889500Y-49862216D01*
X131836034Y-49733138D01*
X131432362Y-49329466D01*
X130904939Y-49111000D01*
X130334061Y-49111000D01*
X129806638Y-49329466D01*
X129402966Y-49733138D01*
X129349500Y-49862216D01*
X129296034Y-49733138D01*
X128892362Y-49329466D01*
X128364939Y-49111000D01*
X127794061Y-49111000D01*
X127266638Y-49329466D01*
X126862966Y-49733138D01*
X126809500Y-49862216D01*
X126756034Y-49733138D01*
X126352362Y-49329466D01*
X125824939Y-49111000D01*
X125254061Y-49111000D01*
X124726638Y-49329466D01*
X124322966Y-49733138D01*
X124269500Y-49862216D01*
X124216034Y-49733138D01*
X123812362Y-49329466D01*
X123284939Y-49111000D01*
X122714061Y-49111000D01*
X122186638Y-49329466D01*
X121782966Y-49733138D01*
X121729500Y-49862216D01*
X121676034Y-49733138D01*
X121272362Y-49329466D01*
X120744939Y-49111000D01*
X120174061Y-49111000D01*
X119646638Y-49329466D01*
X119242966Y-49733138D01*
X119189500Y-49862216D01*
X119136034Y-49733138D01*
X118732362Y-49329466D01*
X118204939Y-49111000D01*
X117634061Y-49111000D01*
X117106638Y-49329466D01*
X116702966Y-49733138D01*
X116649500Y-49862216D01*
X116596034Y-49733138D01*
X116192362Y-49329466D01*
X115664939Y-49111000D01*
X115094061Y-49111000D01*
X114566638Y-49329466D01*
X114162966Y-49733138D01*
X114109500Y-49862216D01*
X114056034Y-49733138D01*
X113652362Y-49329466D01*
X113124939Y-49111000D01*
X112554061Y-49111000D01*
X112026638Y-49329466D01*
X111622966Y-49733138D01*
X111569500Y-49862216D01*
X111516034Y-49733138D01*
X111112362Y-49329466D01*
X110584939Y-49111000D01*
X110014061Y-49111000D01*
X109486638Y-49329466D01*
X109082966Y-49733138D01*
X109029500Y-49862216D01*
X108976034Y-49733138D01*
X108572362Y-49329466D01*
X108044939Y-49111000D01*
X107474061Y-49111000D01*
X106946638Y-49329466D01*
X106542966Y-49733138D01*
X106489500Y-49862216D01*
X106436034Y-49733138D01*
X106032362Y-49329466D01*
X105504939Y-49111000D01*
X104934061Y-49111000D01*
X104406638Y-49329466D01*
X104002966Y-49733138D01*
X103949500Y-49862216D01*
X103896034Y-49733138D01*
X103492362Y-49329466D01*
X103390700Y-49287356D01*
X103390700Y-45372740D01*
X103404632Y-45302698D01*
X103390700Y-45232656D01*
X103390700Y-45232652D01*
X103349436Y-45025202D01*
X103326732Y-44991224D01*
X103231924Y-44849333D01*
X103231920Y-44849329D01*
X103192245Y-44789952D01*
X103132869Y-44750278D01*
X99306724Y-40924134D01*
X99267047Y-40864753D01*
X99031797Y-40707563D01*
X98824347Y-40666299D01*
X98824342Y-40666299D01*
X98754301Y-40652367D01*
X98684260Y-40666299D01*
X80908569Y-40666299D01*
X80607437Y-40365168D01*
X80612344Y-40367200D01*
X80685138Y-40367200D01*
X80803300Y-40390704D01*
X80921462Y-40367200D01*
X80994256Y-40367200D01*
X81061510Y-40339343D01*
X81090707Y-40333535D01*
X81115459Y-40316996D01*
X81228300Y-40270256D01*
X81462344Y-40367200D01*
X81844256Y-40367200D01*
X82078300Y-40270256D01*
X82312344Y-40367200D01*
X82694256Y-40367200D01*
X82914418Y-40276006D01*
X83250224Y-40380566D01*
X83630562Y-40345917D01*
X83821021Y-40267027D01*
X83836370Y-40069875D01*
X83434406Y-39667911D01*
X83463300Y-39598156D01*
X83463300Y-39309310D01*
X83547048Y-39393058D01*
X83532905Y-39407200D01*
X83608375Y-39482670D01*
X83846079Y-39838421D01*
X84239376Y-40101213D01*
X84703300Y-40193493D01*
X85167223Y-40101213D01*
X85560521Y-39838421D01*
X85823313Y-39445124D01*
X85892300Y-39098302D01*
X85892300Y-37756098D01*
X85871075Y-37649390D01*
X98551761Y-37649390D01*
X98634310Y-37665810D01*
X98716859Y-37649390D01*
X98716864Y-37649390D01*
X98961359Y-37600757D01*
X99238618Y-37415498D01*
X99285382Y-37345512D01*
X99889894Y-36741000D01*
X100424939Y-36741000D01*
X100952362Y-36522534D01*
X101356034Y-36118862D01*
X101403025Y-36005417D01*
X101425636Y-36060005D01*
X101671755Y-36134139D01*
X102499895Y-35306000D01*
X101671755Y-34477861D01*
X101425636Y-34551995D01*
X101404626Y-34610448D01*
X101356034Y-34493138D01*
X101161151Y-34298255D01*
X101851361Y-34298255D01*
X102679500Y-35126395D01*
X103507639Y-34298255D01*
X103433505Y-34052136D01*
X102896277Y-33859035D01*
X102326046Y-33886222D01*
X101925495Y-34052136D01*
X101851361Y-34298255D01*
X101161151Y-34298255D01*
X100952362Y-34089466D01*
X100424939Y-33871000D01*
X99854061Y-33871000D01*
X99326638Y-34089466D01*
X98922966Y-34493138D01*
X98704500Y-35020561D01*
X98704500Y-35555606D01*
X98287117Y-35972990D01*
X85841640Y-35972990D01*
X85892300Y-35718302D01*
X85892300Y-34376098D01*
X85823313Y-34029276D01*
X85700518Y-33845500D01*
X170826696Y-33845500D01*
X167130997Y-37541200D01*
X167130997Y-37541200D01*
G37*
X167130997Y-37541200D02*
X162499273Y-37541200D01*
X162675648Y-37468143D01*
X162762054Y-37211659D01*
X161861500Y-36311105D01*
X161847358Y-36325248D01*
X161667753Y-36145643D01*
X161681895Y-36131500D01*
X162041105Y-36131500D01*
X162941659Y-37032054D01*
X163198143Y-36945648D01*
X163407958Y-36372164D01*
X163382339Y-35762040D01*
X163198143Y-35317352D01*
X162941659Y-35230946D01*
X162041105Y-36131500D01*
X161681895Y-36131500D01*
X161667753Y-36117358D01*
X161847358Y-35937753D01*
X161861500Y-35951895D01*
X162762054Y-35051341D01*
X162675648Y-34794857D01*
X162102164Y-34585042D01*
X161492040Y-34610661D01*
X161047352Y-34794857D01*
X160960947Y-35051339D01*
X160846390Y-34936782D01*
X160811558Y-34971614D01*
X160679309Y-34773691D01*
X160469265Y-34633343D01*
X160221500Y-34584060D01*
X158421500Y-34584060D01*
X158173735Y-34633343D01*
X157963691Y-34773691D01*
X157823343Y-34983735D01*
X157774060Y-35231500D01*
X157774060Y-35287004D01*
X157607659Y-35230946D01*
X156707105Y-36131500D01*
X157607659Y-37032054D01*
X157774060Y-36975996D01*
X157774060Y-37031500D01*
X157823343Y-37279265D01*
X157963691Y-37489309D01*
X158041351Y-37541200D01*
X157165273Y-37541200D01*
X157341648Y-37468143D01*
X157428054Y-37211659D01*
X156527500Y-36311105D01*
X156513358Y-36325248D01*
X156333753Y-36145643D01*
X156347895Y-36131500D01*
X156333753Y-36117358D01*
X156513358Y-35937753D01*
X156527500Y-35951895D01*
X157428054Y-35051341D01*
X157341648Y-34794857D01*
X156768164Y-34585042D01*
X156158040Y-34610661D01*
X155713352Y-34794857D01*
X155626947Y-35051339D01*
X155512390Y-34936782D01*
X155477558Y-34971614D01*
X155345309Y-34773691D01*
X155135265Y-34633343D01*
X154887500Y-34584060D01*
X153087500Y-34584060D01*
X152839735Y-34633343D01*
X152629691Y-34773691D01*
X152489343Y-34983735D01*
X152440060Y-35231500D01*
X152440060Y-35350504D01*
X152273659Y-35294446D01*
X151373105Y-36195000D01*
X152273659Y-37095554D01*
X152441551Y-37038994D01*
X152489343Y-37279265D01*
X152629691Y-37489309D01*
X152707351Y-37541200D01*
X151984575Y-37541200D01*
X152007648Y-37531643D01*
X152094054Y-37275159D01*
X151193500Y-36374605D01*
X151179358Y-36388748D01*
X150999753Y-36209143D01*
X151013895Y-36195000D01*
X150999753Y-36180858D01*
X151179358Y-36001253D01*
X151193500Y-36015395D01*
X152094054Y-35114841D01*
X152007648Y-34858357D01*
X151434164Y-34648542D01*
X150824040Y-34674161D01*
X150379352Y-34858357D01*
X150292947Y-35114839D01*
X150178390Y-35000282D01*
X150143558Y-35035114D01*
X150011309Y-34837191D01*
X149801265Y-34696843D01*
X149553500Y-34647560D01*
X147753500Y-34647560D01*
X147505735Y-34696843D01*
X147295691Y-34837191D01*
X147155343Y-35047235D01*
X147131352Y-35167848D01*
X147130159Y-35167446D01*
X146229605Y-36068000D01*
X146243748Y-36082143D01*
X146064143Y-36261748D01*
X146050000Y-36247605D01*
X146035858Y-36261748D01*
X145856253Y-36082143D01*
X145870395Y-36068000D01*
X145856253Y-36053858D01*
X146035858Y-35874253D01*
X146050000Y-35888395D01*
X146950554Y-34987841D01*
X146864148Y-34731357D01*
X146290664Y-34521542D01*
X145680540Y-34547161D01*
X145235852Y-34731357D01*
X145149447Y-34987839D01*
X145034890Y-34873282D01*
X145000058Y-34908114D01*
X144867809Y-34710191D01*
X144657765Y-34569843D01*
X144410000Y-34520560D01*
X142610000Y-34520560D01*
X142362235Y-34569843D01*
X142152191Y-34710191D01*
X142011843Y-34920235D01*
X141982838Y-35066054D01*
X141934053Y-35114839D01*
X141847648Y-34858357D01*
X141274164Y-34648542D01*
X140664040Y-34674161D01*
X140219352Y-34858357D01*
X140132947Y-35114839D01*
X140018390Y-35000282D01*
X139983558Y-35035114D01*
X139851309Y-34837191D01*
X139641265Y-34696843D01*
X139393500Y-34647560D01*
X137593500Y-34647560D01*
X137345735Y-34696843D01*
X137135691Y-34837191D01*
X136995343Y-35047235D01*
X136946060Y-35295000D01*
X136946060Y-37095000D01*
X136995343Y-37342765D01*
X137127934Y-37541200D01*
X136472331Y-37541200D01*
X134573432Y-35642302D01*
X134594500Y-35591439D01*
X134594500Y-35020561D01*
X134376034Y-34493138D01*
X133972362Y-34089466D01*
X133444939Y-33871000D01*
X132874061Y-33871000D01*
X132346638Y-34089466D01*
X131942966Y-34493138D01*
X131889500Y-34622216D01*
X131836034Y-34493138D01*
X131432362Y-34089466D01*
X130904939Y-33871000D01*
X130334061Y-33871000D01*
X129806638Y-34089466D01*
X129402966Y-34493138D01*
X129349500Y-34622216D01*
X129296034Y-34493138D01*
X128892362Y-34089466D01*
X128364939Y-33871000D01*
X127794061Y-33871000D01*
X127266638Y-34089466D01*
X126862966Y-34493138D01*
X126809500Y-34622216D01*
X126756034Y-34493138D01*
X126352362Y-34089466D01*
X125824939Y-33871000D01*
X125254061Y-33871000D01*
X124726638Y-34089466D01*
X124322966Y-34493138D01*
X124269500Y-34622216D01*
X124216034Y-34493138D01*
X123812362Y-34089466D01*
X123284939Y-33871000D01*
X122714061Y-33871000D01*
X122186638Y-34089466D01*
X121782966Y-34493138D01*
X121729500Y-34622216D01*
X121676034Y-34493138D01*
X121272362Y-34089466D01*
X120744939Y-33871000D01*
X120174061Y-33871000D01*
X119646638Y-34089466D01*
X119242966Y-34493138D01*
X119189500Y-34622216D01*
X119136034Y-34493138D01*
X118732362Y-34089466D01*
X118204939Y-33871000D01*
X117634061Y-33871000D01*
X117106638Y-34089466D01*
X116702966Y-34493138D01*
X116649500Y-34622216D01*
X116596034Y-34493138D01*
X116192362Y-34089466D01*
X115664939Y-33871000D01*
X115094061Y-33871000D01*
X114566638Y-34089466D01*
X114162966Y-34493138D01*
X114109500Y-34622216D01*
X114056034Y-34493138D01*
X113652362Y-34089466D01*
X113124939Y-33871000D01*
X112554061Y-33871000D01*
X112026638Y-34089466D01*
X111622966Y-34493138D01*
X111569500Y-34622216D01*
X111516034Y-34493138D01*
X111112362Y-34089466D01*
X110584939Y-33871000D01*
X110014061Y-33871000D01*
X109486638Y-34089466D01*
X109082966Y-34493138D01*
X109029500Y-34622216D01*
X108976034Y-34493138D01*
X108572362Y-34089466D01*
X108044939Y-33871000D01*
X107474061Y-33871000D01*
X106946638Y-34089466D01*
X106542966Y-34493138D01*
X106489500Y-34622216D01*
X106436034Y-34493138D01*
X106032362Y-34089466D01*
X105504939Y-33871000D01*
X104934061Y-33871000D01*
X104406638Y-34089466D01*
X104002966Y-34493138D01*
X103955975Y-34606583D01*
X103933364Y-34551995D01*
X103687245Y-34477861D01*
X102859105Y-35306000D01*
X103687245Y-36134139D01*
X103933364Y-36060005D01*
X103954374Y-36001552D01*
X104002966Y-36118862D01*
X104406638Y-36522534D01*
X104934061Y-36741000D01*
X105504939Y-36741000D01*
X106032362Y-36522534D01*
X106436034Y-36118862D01*
X106489500Y-35989784D01*
X106542966Y-36118862D01*
X106946638Y-36522534D01*
X107474061Y-36741000D01*
X108044939Y-36741000D01*
X108572362Y-36522534D01*
X108976034Y-36118862D01*
X109029500Y-35989784D01*
X109082966Y-36118862D01*
X109486638Y-36522534D01*
X110014061Y-36741000D01*
X110584939Y-36741000D01*
X111112362Y-36522534D01*
X111516034Y-36118862D01*
X111569500Y-35989784D01*
X111622966Y-36118862D01*
X112026638Y-36522534D01*
X112554061Y-36741000D01*
X112866869Y-36741000D01*
X110542670Y-39065200D01*
X103485926Y-39065200D01*
X103492362Y-39062534D01*
X103896034Y-38658862D01*
X104114500Y-38131439D01*
X104114500Y-37560561D01*
X103896034Y-37033138D01*
X103492362Y-36629466D01*
X103378917Y-36582475D01*
X103433505Y-36559864D01*
X103507639Y-36313745D01*
X102679500Y-35485605D01*
X101851361Y-36313745D01*
X101925495Y-36559864D01*
X101983948Y-36580874D01*
X101866638Y-36629466D01*
X101462966Y-37033138D01*
X101244500Y-37560561D01*
X101244500Y-38131439D01*
X101462966Y-38658862D01*
X101866638Y-39062534D01*
X101873074Y-39065200D01*
X101557478Y-39065200D01*
X101522754Y-39030476D01*
X101177338Y-38887400D01*
X100803462Y-38887400D01*
X100458046Y-39030476D01*
X100193676Y-39294846D01*
X100050600Y-39640262D01*
X100050600Y-40014138D01*
X100193676Y-40359554D01*
X100458046Y-40623924D01*
X100803462Y-40767000D01*
X101177338Y-40767000D01*
X101522754Y-40623924D01*
X101557478Y-40589200D01*
X110783257Y-40589200D01*
X110858300Y-40604127D01*
X110933343Y-40589200D01*
X110933348Y-40589200D01*
X111155617Y-40544988D01*
X111407671Y-40376571D01*
X111450183Y-40312947D01*
X115043199Y-36719932D01*
X115094061Y-36741000D01*
X115664939Y-36741000D01*
X116192362Y-36522534D01*
X116596034Y-36118862D01*
X116649500Y-35989784D01*
X116702966Y-36118862D01*
X117106638Y-36522534D01*
X117634061Y-36741000D01*
X118204939Y-36741000D01*
X118732362Y-36522534D01*
X119136034Y-36118862D01*
X119189500Y-35989784D01*
X119242966Y-36118862D01*
X119646638Y-36522534D01*
X120174061Y-36741000D01*
X120744939Y-36741000D01*
X121272362Y-36522534D01*
X121676034Y-36118862D01*
X121729500Y-35989784D01*
X121782966Y-36118862D01*
X122055356Y-36391252D01*
X122046183Y-36437370D01*
X122118750Y-36802188D01*
X122272342Y-37032054D01*
X122325404Y-37111467D01*
X122403470Y-37163629D01*
X136954209Y-51714369D01*
X134020527Y-51714369D01*
X134376034Y-51358862D01*
X134594500Y-50831439D01*
X134594500Y-50260561D01*
X134376034Y-49733138D01*
X133972362Y-49329466D01*
X133444939Y-49111000D01*
X132874061Y-49111000D01*
X132346638Y-49329466D01*
X131942966Y-49733138D01*
X131889500Y-49862216D01*
X131836034Y-49733138D01*
X131432362Y-49329466D01*
X130904939Y-49111000D01*
X130334061Y-49111000D01*
X129806638Y-49329466D01*
X129402966Y-49733138D01*
X129349500Y-49862216D01*
X129296034Y-49733138D01*
X128892362Y-49329466D01*
X128364939Y-49111000D01*
X127794061Y-49111000D01*
X127266638Y-49329466D01*
X126862966Y-49733138D01*
X126809500Y-49862216D01*
X126756034Y-49733138D01*
X126352362Y-49329466D01*
X125824939Y-49111000D01*
X125254061Y-49111000D01*
X124726638Y-49329466D01*
X124322966Y-49733138D01*
X124269500Y-49862216D01*
X124216034Y-49733138D01*
X123812362Y-49329466D01*
X123284939Y-49111000D01*
X122714061Y-49111000D01*
X122186638Y-49329466D01*
X121782966Y-49733138D01*
X121729500Y-49862216D01*
X121676034Y-49733138D01*
X121272362Y-49329466D01*
X120744939Y-49111000D01*
X120174061Y-49111000D01*
X119646638Y-49329466D01*
X119242966Y-49733138D01*
X119189500Y-49862216D01*
X119136034Y-49733138D01*
X118732362Y-49329466D01*
X118204939Y-49111000D01*
X117634061Y-49111000D01*
X117106638Y-49329466D01*
X116702966Y-49733138D01*
X116649500Y-49862216D01*
X116596034Y-49733138D01*
X116192362Y-49329466D01*
X115664939Y-49111000D01*
X115094061Y-49111000D01*
X114566638Y-49329466D01*
X114162966Y-49733138D01*
X114109500Y-49862216D01*
X114056034Y-49733138D01*
X113652362Y-49329466D01*
X113124939Y-49111000D01*
X112554061Y-49111000D01*
X112026638Y-49329466D01*
X111622966Y-49733138D01*
X111569500Y-49862216D01*
X111516034Y-49733138D01*
X111112362Y-49329466D01*
X110584939Y-49111000D01*
X110014061Y-49111000D01*
X109486638Y-49329466D01*
X109082966Y-49733138D01*
X109029500Y-49862216D01*
X108976034Y-49733138D01*
X108572362Y-49329466D01*
X108044939Y-49111000D01*
X107474061Y-49111000D01*
X106946638Y-49329466D01*
X106542966Y-49733138D01*
X106489500Y-49862216D01*
X106436034Y-49733138D01*
X106032362Y-49329466D01*
X105504939Y-49111000D01*
X104934061Y-49111000D01*
X104406638Y-49329466D01*
X104002966Y-49733138D01*
X103949500Y-49862216D01*
X103896034Y-49733138D01*
X103492362Y-49329466D01*
X103390700Y-49287356D01*
X103390700Y-45372740D01*
X103404632Y-45302698D01*
X103390700Y-45232656D01*
X103390700Y-45232652D01*
X103349436Y-45025202D01*
X103326732Y-44991224D01*
X103231924Y-44849333D01*
X103231920Y-44849329D01*
X103192245Y-44789952D01*
X103132869Y-44750278D01*
X99306724Y-40924134D01*
X99267047Y-40864753D01*
X99031797Y-40707563D01*
X98824347Y-40666299D01*
X98824342Y-40666299D01*
X98754301Y-40652367D01*
X98684260Y-40666299D01*
X80908569Y-40666299D01*
X80607437Y-40365168D01*
X80612344Y-40367200D01*
X80685138Y-40367200D01*
X80803300Y-40390704D01*
X80921462Y-40367200D01*
X80994256Y-40367200D01*
X81061510Y-40339343D01*
X81090707Y-40333535D01*
X81115459Y-40316996D01*
X81228300Y-40270256D01*
X81462344Y-40367200D01*
X81844256Y-40367200D01*
X82078300Y-40270256D01*
X82312344Y-40367200D01*
X82694256Y-40367200D01*
X82914418Y-40276006D01*
X83250224Y-40380566D01*
X83630562Y-40345917D01*
X83821021Y-40267027D01*
X83836370Y-40069875D01*
X83434406Y-39667911D01*
X83463300Y-39598156D01*
X83463300Y-39309310D01*
X83547048Y-39393058D01*
X83532905Y-39407200D01*
X83608375Y-39482670D01*
X83846079Y-39838421D01*
X84239376Y-40101213D01*
X84703300Y-40193493D01*
X85167223Y-40101213D01*
X85560521Y-39838421D01*
X85823313Y-39445124D01*
X85892300Y-39098302D01*
X85892300Y-37756098D01*
X85871075Y-37649390D01*
X98551761Y-37649390D01*
X98634310Y-37665810D01*
X98716859Y-37649390D01*
X98716864Y-37649390D01*
X98961359Y-37600757D01*
X99238618Y-37415498D01*
X99285382Y-37345512D01*
X99889894Y-36741000D01*
X100424939Y-36741000D01*
X100952362Y-36522534D01*
X101356034Y-36118862D01*
X101403025Y-36005417D01*
X101425636Y-36060005D01*
X101671755Y-36134139D01*
X102499895Y-35306000D01*
X101671755Y-34477861D01*
X101425636Y-34551995D01*
X101404626Y-34610448D01*
X101356034Y-34493138D01*
X101161151Y-34298255D01*
X101851361Y-34298255D01*
X102679500Y-35126395D01*
X103507639Y-34298255D01*
X103433505Y-34052136D01*
X102896277Y-33859035D01*
X102326046Y-33886222D01*
X101925495Y-34052136D01*
X101851361Y-34298255D01*
X101161151Y-34298255D01*
X100952362Y-34089466D01*
X100424939Y-33871000D01*
X99854061Y-33871000D01*
X99326638Y-34089466D01*
X98922966Y-34493138D01*
X98704500Y-35020561D01*
X98704500Y-35555606D01*
X98287117Y-35972990D01*
X85841640Y-35972990D01*
X85892300Y-35718302D01*
X85892300Y-34376098D01*
X85823313Y-34029276D01*
X85700518Y-33845500D01*
X170826696Y-33845500D01*
X167130997Y-37541200D01*
G36*
X191306548Y-41247258D02*
X191292405Y-41261400D01*
X191306548Y-41275543D01*
X191222800Y-41359290D01*
X191222800Y-41163510D01*
X191306548Y-41247258D01*
X191306548Y-41247258D01*
G37*
X191306548Y-41247258D02*
X191292405Y-41261400D01*
X191306548Y-41275543D01*
X191222800Y-41359290D01*
X191222800Y-41163510D01*
X191306548Y-41247258D01*
G36*
X185052800Y-40009290D02*
X185001800Y-39958290D01*
X185001800Y-39864510D01*
X185052800Y-39813510D01*
X185052800Y-40009290D01*
X185052800Y-40009290D01*
G37*
X185052800Y-40009290D02*
X185001800Y-39958290D01*
X185001800Y-39864510D01*
X185052800Y-39813510D01*
X185052800Y-40009290D01*
G36*
X191273800Y-39864510D02*
X191273800Y-39958290D01*
X191222800Y-40009290D01*
X191222800Y-39813510D01*
X191273800Y-39864510D01*
X191273800Y-39864510D01*
G37*
X191273800Y-39864510D02*
X191273800Y-39958290D01*
X191222800Y-40009290D01*
X191222800Y-39813510D01*
X191273800Y-39864510D01*
G36*
X83514300Y-38010310D02*
X83514300Y-38104090D01*
X83463300Y-38155090D01*
X83463300Y-37959310D01*
X83514300Y-38010310D01*
X83514300Y-38010310D01*
G37*
X83514300Y-38010310D02*
X83514300Y-38104090D01*
X83463300Y-38155090D01*
X83463300Y-37959310D01*
X83514300Y-38010310D01*
G36*
X77293300Y-38155090D02*
X77242300Y-38104090D01*
X77242300Y-38010310D01*
X77293300Y-37959310D01*
X77293300Y-38155090D01*
X77293300Y-38155090D01*
G37*
X77293300Y-38155090D02*
X77242300Y-38104090D01*
X77242300Y-38010310D01*
X77293300Y-37959310D01*
X77293300Y-38155090D01*
G36*
X141227248Y-36180858D02*
X141213105Y-36195000D01*
X141227248Y-36209143D01*
X141047643Y-36388748D01*
X141033500Y-36374605D01*
X141019358Y-36388748D01*
X140839753Y-36209143D01*
X140853895Y-36195000D01*
X140839753Y-36180858D01*
X141019358Y-36001253D01*
X141033500Y-36015395D01*
X141047643Y-36001253D01*
X141227248Y-36180858D01*
X141227248Y-36180858D01*
G37*
X141227248Y-36180858D02*
X141213105Y-36195000D01*
X141227248Y-36209143D01*
X141047643Y-36388748D01*
X141033500Y-36374605D01*
X141019358Y-36388748D01*
X140839753Y-36209143D01*
X140853895Y-36195000D01*
X140839753Y-36180858D01*
X141019358Y-36001253D01*
X141033500Y-36015395D01*
X141047643Y-36001253D01*
X141227248Y-36180858D01*
G04 #@! TD*
M02*
