G04 #@! TF.GenerationSoftware,KiCad,Pcbnew,5.0.2+dfsg1-1*
G04 #@! TF.CreationDate,2021-01-13T15:08:11+01:00*
G04 #@! TF.ProjectId,ErgoDOX,4572676f-444f-4582-9e6b-696361645f70,rev?*
G04 #@! TF.SameCoordinates,Original*
G04 #@! TF.FileFunction,Legend,Top*
G04 #@! TF.FilePolarity,Positive*
%FSLAX46Y46*%
G04 Gerber Fmt 4.6, Leading zero omitted, Abs format (unit mm)*
G04 Created by KiCad (PCBNEW 5.0.2+dfsg1-1) date Wed 13 Jan 2021 03:08:11 PM CET*
%MOMM*%
%LPD*%
G01*
G04 APERTURE LIST*
%ADD10C,0.304800*%
%ADD11C,0.120000*%
%ADD12C,0.200000*%
%ADD13C,0.150000*%
%ADD14C,0.100000*%
%ADD15C,0.015000*%
G04 APERTURE END LIST*
D10*
X139576628Y-48985714D02*
X139504057Y-49082476D01*
X139286342Y-49179238D01*
X139141200Y-49179238D01*
X138923485Y-49082476D01*
X138778342Y-48888952D01*
X138705771Y-48695428D01*
X138633200Y-48308380D01*
X138633200Y-48018095D01*
X138705771Y-47631047D01*
X138778342Y-47437523D01*
X138923485Y-47244000D01*
X139141200Y-47147238D01*
X139286342Y-47147238D01*
X139504057Y-47244000D01*
X139576628Y-47340761D01*
X140882914Y-47824571D02*
X140882914Y-49179238D01*
X140229771Y-47824571D02*
X140229771Y-48888952D01*
X140302342Y-49082476D01*
X140447485Y-49179238D01*
X140665200Y-49179238D01*
X140810342Y-49082476D01*
X140882914Y-48985714D01*
X141536057Y-49082476D02*
X141681200Y-49179238D01*
X141971485Y-49179238D01*
X142116628Y-49082476D01*
X142189200Y-48888952D01*
X142189200Y-48792190D01*
X142116628Y-48598666D01*
X141971485Y-48501904D01*
X141753771Y-48501904D01*
X141608628Y-48405142D01*
X141536057Y-48211619D01*
X141536057Y-48114857D01*
X141608628Y-47921333D01*
X141753771Y-47824571D01*
X141971485Y-47824571D01*
X142116628Y-47921333D01*
X142624628Y-47824571D02*
X143205200Y-47824571D01*
X142842342Y-47147238D02*
X142842342Y-48888952D01*
X142914914Y-49082476D01*
X143060057Y-49179238D01*
X143205200Y-49179238D01*
X143930914Y-49179238D02*
X143785771Y-49082476D01*
X143713200Y-48985714D01*
X143640628Y-48792190D01*
X143640628Y-48211619D01*
X143713200Y-48018095D01*
X143785771Y-47921333D01*
X143930914Y-47824571D01*
X144148628Y-47824571D01*
X144293771Y-47921333D01*
X144366342Y-48018095D01*
X144438914Y-48211619D01*
X144438914Y-48792190D01*
X144366342Y-48985714D01*
X144293771Y-49082476D01*
X144148628Y-49179238D01*
X143930914Y-49179238D01*
X145092057Y-49179238D02*
X145092057Y-47824571D01*
X145092057Y-48018095D02*
X145164628Y-47921333D01*
X145309771Y-47824571D01*
X145527485Y-47824571D01*
X145672628Y-47921333D01*
X145745200Y-48114857D01*
X145745200Y-49179238D01*
X145745200Y-48114857D02*
X145817771Y-47921333D01*
X145962914Y-47824571D01*
X146180628Y-47824571D01*
X146325771Y-47921333D01*
X146398342Y-48114857D01*
X146398342Y-49179238D01*
X148285200Y-49179238D02*
X148285200Y-47147238D01*
X149156057Y-49179238D02*
X148502914Y-48018095D01*
X149156057Y-47147238D02*
X148285200Y-48308380D01*
X150389771Y-49082476D02*
X150244628Y-49179238D01*
X149954342Y-49179238D01*
X149809200Y-49082476D01*
X149736628Y-48888952D01*
X149736628Y-48114857D01*
X149809200Y-47921333D01*
X149954342Y-47824571D01*
X150244628Y-47824571D01*
X150389771Y-47921333D01*
X150462342Y-48114857D01*
X150462342Y-48308380D01*
X149736628Y-48501904D01*
X150970342Y-47824571D02*
X151333200Y-49179238D01*
X151696057Y-47824571D02*
X151333200Y-49179238D01*
X151188057Y-49663047D01*
X151115485Y-49759809D01*
X150970342Y-49856571D01*
X152276628Y-49179238D02*
X152276628Y-47147238D01*
X152276628Y-47921333D02*
X152421771Y-47824571D01*
X152712057Y-47824571D01*
X152857200Y-47921333D01*
X152929771Y-48018095D01*
X153002342Y-48211619D01*
X153002342Y-48792190D01*
X152929771Y-48985714D01*
X152857200Y-49082476D01*
X152712057Y-49179238D01*
X152421771Y-49179238D01*
X152276628Y-49082476D01*
X153873200Y-49179238D02*
X153728057Y-49082476D01*
X153655485Y-48985714D01*
X153582914Y-48792190D01*
X153582914Y-48211619D01*
X153655485Y-48018095D01*
X153728057Y-47921333D01*
X153873200Y-47824571D01*
X154090914Y-47824571D01*
X154236057Y-47921333D01*
X154308628Y-48018095D01*
X154381200Y-48211619D01*
X154381200Y-48792190D01*
X154308628Y-48985714D01*
X154236057Y-49082476D01*
X154090914Y-49179238D01*
X153873200Y-49179238D01*
X155687485Y-49179238D02*
X155687485Y-48114857D01*
X155614914Y-47921333D01*
X155469771Y-47824571D01*
X155179485Y-47824571D01*
X155034342Y-47921333D01*
X155687485Y-49082476D02*
X155542342Y-49179238D01*
X155179485Y-49179238D01*
X155034342Y-49082476D01*
X154961771Y-48888952D01*
X154961771Y-48695428D01*
X155034342Y-48501904D01*
X155179485Y-48405142D01*
X155542342Y-48405142D01*
X155687485Y-48308380D01*
X156413200Y-49179238D02*
X156413200Y-47824571D01*
X156413200Y-48211619D02*
X156485771Y-48018095D01*
X156558342Y-47921333D01*
X156703485Y-47824571D01*
X156848628Y-47824571D01*
X158009771Y-49179238D02*
X158009771Y-47147238D01*
X158009771Y-49082476D02*
X157864628Y-49179238D01*
X157574342Y-49179238D01*
X157429200Y-49082476D01*
X157356628Y-48985714D01*
X157284057Y-48792190D01*
X157284057Y-48211619D01*
X157356628Y-48018095D01*
X157429200Y-47921333D01*
X157574342Y-47824571D01*
X157864628Y-47824571D01*
X158009771Y-47921333D01*
X159678914Y-47147238D02*
X160186914Y-49179238D01*
X160694914Y-47147238D01*
X162001200Y-49179238D02*
X161130342Y-49179238D01*
X161565771Y-49179238D02*
X161565771Y-47147238D01*
X161420628Y-47437523D01*
X161275485Y-47631047D01*
X161130342Y-47727809D01*
X148394057Y-52532038D02*
X147668342Y-52532038D01*
X147668342Y-50500038D01*
X149119771Y-52532038D02*
X148974628Y-52435276D01*
X148902057Y-52338514D01*
X148829485Y-52144990D01*
X148829485Y-51564419D01*
X148902057Y-51370895D01*
X148974628Y-51274133D01*
X149119771Y-51177371D01*
X149337485Y-51177371D01*
X149482628Y-51274133D01*
X149555200Y-51370895D01*
X149627771Y-51564419D01*
X149627771Y-52144990D01*
X149555200Y-52338514D01*
X149482628Y-52435276D01*
X149337485Y-52532038D01*
X149119771Y-52532038D01*
X150934057Y-51177371D02*
X150934057Y-52822323D01*
X150861485Y-53015847D01*
X150788914Y-53112609D01*
X150643771Y-53209371D01*
X150426057Y-53209371D01*
X150280914Y-53112609D01*
X150934057Y-52435276D02*
X150788914Y-52532038D01*
X150498628Y-52532038D01*
X150353485Y-52435276D01*
X150280914Y-52338514D01*
X150208342Y-52144990D01*
X150208342Y-51564419D01*
X150280914Y-51370895D01*
X150353485Y-51274133D01*
X150498628Y-51177371D01*
X150788914Y-51177371D01*
X150934057Y-51274133D01*
X151659771Y-52532038D02*
X151659771Y-51177371D01*
X151659771Y-50500038D02*
X151587200Y-50596800D01*
X151659771Y-50693561D01*
X151732342Y-50596800D01*
X151659771Y-50500038D01*
X151659771Y-50693561D01*
X153038628Y-52435276D02*
X152893485Y-52532038D01*
X152603200Y-52532038D01*
X152458057Y-52435276D01*
X152385485Y-52338514D01*
X152312914Y-52144990D01*
X152312914Y-51564419D01*
X152385485Y-51370895D01*
X152458057Y-51274133D01*
X152603200Y-51177371D01*
X152893485Y-51177371D01*
X153038628Y-51274133D01*
D11*
G04 #@! TO.C,J7*
X177689200Y-57972000D02*
X180349200Y-57972000D01*
X177689200Y-57912000D02*
X177689200Y-57972000D01*
X180349200Y-57912000D02*
X180349200Y-57972000D01*
X177689200Y-57912000D02*
X180349200Y-57912000D01*
X177689200Y-56642000D02*
X177689200Y-55312000D01*
X177689200Y-55312000D02*
X179019200Y-55312000D01*
G04 #@! TO.C,J8*
X174793600Y-55312000D02*
X176123600Y-55312000D01*
X174793600Y-56642000D02*
X174793600Y-55312000D01*
X174793600Y-57912000D02*
X177453600Y-57912000D01*
X177453600Y-57912000D02*
X177453600Y-57972000D01*
X174793600Y-57912000D02*
X174793600Y-57972000D01*
X174793600Y-57972000D02*
X177453600Y-57972000D01*
G04 #@! TO.C,J9*
X117084800Y-55076400D02*
X119744800Y-55076400D01*
X117084800Y-55016400D02*
X117084800Y-55076400D01*
X119744800Y-55016400D02*
X119744800Y-55076400D01*
X117084800Y-55016400D02*
X119744800Y-55016400D01*
X117084800Y-53746400D02*
X117084800Y-52416400D01*
X117084800Y-52416400D02*
X118414800Y-52416400D01*
G04 #@! TO.C,J19*
X156505600Y-55312000D02*
X157835600Y-55312000D01*
X156505600Y-56642000D02*
X156505600Y-55312000D01*
X156505600Y-57912000D02*
X159165600Y-57912000D01*
X159165600Y-57912000D02*
X159165600Y-57972000D01*
X156505600Y-57912000D02*
X156505600Y-57972000D01*
X156505600Y-57972000D02*
X159165600Y-57972000D01*
G04 #@! TO.C,J11*
X111446000Y-55076400D02*
X114106000Y-55076400D01*
X111446000Y-55016400D02*
X111446000Y-55076400D01*
X114106000Y-55016400D02*
X114106000Y-55076400D01*
X111446000Y-55016400D02*
X114106000Y-55016400D01*
X111446000Y-53746400D02*
X111446000Y-52416400D01*
X111446000Y-52416400D02*
X112776000Y-52416400D01*
G04 #@! TO.C,J12*
X106264400Y-52416400D02*
X107594400Y-52416400D01*
X106264400Y-53746400D02*
X106264400Y-52416400D01*
X106264400Y-55016400D02*
X108924400Y-55016400D01*
X108924400Y-55016400D02*
X108924400Y-55076400D01*
X106264400Y-55016400D02*
X106264400Y-55076400D01*
X106264400Y-55076400D02*
X108924400Y-55076400D01*
G04 #@! TO.C,J13*
X98898400Y-55076400D02*
X101558400Y-55076400D01*
X98898400Y-55016400D02*
X98898400Y-55076400D01*
X101558400Y-55016400D02*
X101558400Y-55076400D01*
X98898400Y-55016400D02*
X101558400Y-55016400D01*
X98898400Y-53746400D02*
X98898400Y-52416400D01*
X98898400Y-52416400D02*
X100228400Y-52416400D01*
G04 #@! TO.C,J14*
X167884800Y-55312000D02*
X169214800Y-55312000D01*
X167884800Y-56642000D02*
X167884800Y-55312000D01*
X167884800Y-57912000D02*
X170544800Y-57912000D01*
X170544800Y-57912000D02*
X170544800Y-57972000D01*
X167884800Y-57912000D02*
X167884800Y-57972000D01*
X167884800Y-57972000D02*
X170544800Y-57972000D01*
G04 #@! TO.C,J15*
X165040000Y-57972000D02*
X167700000Y-57972000D01*
X165040000Y-57912000D02*
X165040000Y-57972000D01*
X167700000Y-57912000D02*
X167700000Y-57972000D01*
X165040000Y-57912000D02*
X167700000Y-57912000D01*
X165040000Y-56642000D02*
X165040000Y-55312000D01*
X165040000Y-55312000D02*
X166370000Y-55312000D01*
G04 #@! TO.C,J16*
X162195200Y-55312000D02*
X163525200Y-55312000D01*
X162195200Y-56642000D02*
X162195200Y-55312000D01*
X162195200Y-57912000D02*
X164855200Y-57912000D01*
X164855200Y-57912000D02*
X164855200Y-57972000D01*
X162195200Y-57912000D02*
X162195200Y-57972000D01*
X162195200Y-57972000D02*
X164855200Y-57972000D01*
G04 #@! TO.C,J17*
X159350400Y-57972000D02*
X162010400Y-57972000D01*
X159350400Y-57912000D02*
X159350400Y-57972000D01*
X162010400Y-57912000D02*
X162010400Y-57972000D01*
X159350400Y-57912000D02*
X162010400Y-57912000D01*
X159350400Y-56642000D02*
X159350400Y-55312000D01*
X159350400Y-55312000D02*
X160680400Y-55312000D01*
G04 #@! TO.C,J18*
X119929600Y-52416400D02*
X121259600Y-52416400D01*
X119929600Y-53746400D02*
X119929600Y-52416400D01*
X119929600Y-55016400D02*
X122589600Y-55016400D01*
X122589600Y-55016400D02*
X122589600Y-55076400D01*
X119929600Y-55016400D02*
X119929600Y-55076400D01*
X119929600Y-55076400D02*
X122589600Y-55076400D01*
G04 #@! TO.C,J10*
X114290800Y-55076400D02*
X116950800Y-55076400D01*
X114290800Y-55016400D02*
X114290800Y-55076400D01*
X116950800Y-55016400D02*
X116950800Y-55076400D01*
X114290800Y-55016400D02*
X116950800Y-55016400D01*
X114290800Y-53746400D02*
X114290800Y-52416400D01*
X114290800Y-52416400D02*
X115620800Y-52416400D01*
D12*
G04 #@! TO.C,J2*
X183662800Y-35161400D02*
X183662800Y-35511400D01*
X192612800Y-35161400D02*
X183662800Y-35161400D01*
X192612800Y-35511400D02*
X192612800Y-35161400D01*
X192612800Y-41821400D02*
X183662800Y-41821400D01*
D13*
G04 #@! TO.C,U5*
X129899500Y-45176000D02*
X129399500Y-44676000D01*
X129349500Y-45176000D02*
X129899500Y-45176000D01*
X131899500Y-44676000D02*
X131399500Y-45176000D01*
X129399500Y-41176000D02*
X129899500Y-40676000D01*
X131399500Y-40676000D02*
X129899500Y-40676000D01*
X131899500Y-41176000D02*
X131399500Y-40676000D01*
X131649500Y-43676000D02*
X131649500Y-42176000D01*
X129649500Y-42176000D02*
X129649500Y-43676000D01*
X123649500Y-47926000D02*
X128649500Y-42926000D01*
X118649500Y-42926000D02*
X123649500Y-47926000D01*
X123649500Y-37926000D02*
X118649500Y-42926000D01*
X128649500Y-42926000D02*
X123649500Y-37926000D01*
X98869500Y-46736000D02*
X97599500Y-46736000D01*
X97599500Y-46736000D02*
X97599500Y-39116000D01*
X97599500Y-39116000D02*
X98869500Y-39116000D01*
X103949500Y-46736000D02*
X103949500Y-39116000D01*
X103949500Y-39116000D02*
X98869500Y-39116000D01*
X103949500Y-46736000D02*
X98869500Y-46736000D01*
X131899500Y-40676000D02*
X131889500Y-45176000D01*
X131889500Y-45176000D02*
X129349500Y-45176000D01*
X129349500Y-45176000D02*
X129349500Y-40676000D01*
X129349500Y-40676000D02*
X131889500Y-40676000D01*
X98869500Y-34036000D02*
X134429500Y-34036000D01*
X134429500Y-34036000D02*
X134429500Y-51816000D01*
X134429500Y-51816000D02*
X98869500Y-51816000D01*
X98869500Y-51816000D02*
X98869500Y-34036000D01*
D14*
G36*
X122836500Y-40347000D02*
X122582500Y-40093000D01*
X122963500Y-39839000D01*
X123217500Y-40093000D01*
X122836500Y-40347000D01*
G37*
X122836500Y-40347000D02*
X122582500Y-40093000D01*
X122963500Y-39839000D01*
X123217500Y-40093000D01*
X122836500Y-40347000D01*
G36*
X123217500Y-40728000D02*
X122963500Y-40474000D01*
X123344500Y-40220000D01*
X123598500Y-40474000D01*
X123217500Y-40728000D01*
G37*
X123217500Y-40728000D02*
X122963500Y-40474000D01*
X123344500Y-40220000D01*
X123598500Y-40474000D01*
X123217500Y-40728000D01*
G36*
X123852500Y-39585000D02*
X123598500Y-39331000D01*
X123979500Y-39077000D01*
X124233500Y-39331000D01*
X123852500Y-39585000D01*
G37*
X123852500Y-39585000D02*
X123598500Y-39331000D01*
X123979500Y-39077000D01*
X124233500Y-39331000D01*
X123852500Y-39585000D01*
G36*
X123090500Y-41490000D02*
X122836500Y-41236000D01*
X123217500Y-40982000D01*
X123471500Y-41236000D01*
X123090500Y-41490000D01*
G37*
X123090500Y-41490000D02*
X122836500Y-41236000D01*
X123217500Y-40982000D01*
X123471500Y-41236000D01*
X123090500Y-41490000D01*
G36*
X123344500Y-39966000D02*
X123090500Y-39712000D01*
X123471500Y-39458000D01*
X123725500Y-39712000D01*
X123344500Y-39966000D01*
G37*
X123344500Y-39966000D02*
X123090500Y-39712000D01*
X123471500Y-39458000D01*
X123725500Y-39712000D01*
X123344500Y-39966000D01*
G36*
X123471500Y-41871000D02*
X123217500Y-41617000D01*
X123598500Y-41363000D01*
X123852500Y-41617000D01*
X123471500Y-41871000D01*
G37*
X123471500Y-41871000D02*
X123217500Y-41617000D01*
X123598500Y-41363000D01*
X123852500Y-41617000D01*
X123471500Y-41871000D01*
G36*
X122709500Y-41109000D02*
X122455500Y-40855000D01*
X122836500Y-40601000D01*
X123090500Y-40855000D01*
X122709500Y-41109000D01*
G37*
X122709500Y-41109000D02*
X122455500Y-40855000D01*
X122836500Y-40601000D01*
X123090500Y-40855000D01*
X122709500Y-41109000D01*
G36*
X123725500Y-40347000D02*
X123471500Y-40093000D01*
X123852500Y-39839000D01*
X124106500Y-40093000D01*
X123725500Y-40347000D01*
G37*
X123725500Y-40347000D02*
X123471500Y-40093000D01*
X123852500Y-39839000D01*
X124106500Y-40093000D01*
X123725500Y-40347000D01*
D13*
X129649500Y-42176000D02*
G75*
G02X131649500Y-42176000I1000000J0D01*
G01*
X131649500Y-43676000D02*
G75*
G02X129649500Y-43676000I-1000000J0D01*
G01*
D11*
G04 #@! TO.C,J5*
X96269500Y-44072500D02*
X97599500Y-44072500D01*
X96269500Y-45402500D02*
X96269500Y-44072500D01*
X96269500Y-46672500D02*
X98929500Y-46672500D01*
X98929500Y-46672500D02*
X98929500Y-46732500D01*
X96269500Y-46672500D02*
X96269500Y-46732500D01*
X96269500Y-46732500D02*
X98929500Y-46732500D01*
G04 #@! TO.C,J6*
X96269500Y-43938500D02*
X98929500Y-43938500D01*
X96269500Y-43878500D02*
X96269500Y-43938500D01*
X98929500Y-43878500D02*
X98929500Y-43938500D01*
X96269500Y-43878500D02*
X98929500Y-43878500D01*
X96269500Y-42608500D02*
X96269500Y-41278500D01*
X96269500Y-41278500D02*
X97599500Y-41278500D01*
G04 #@! TO.C,C1*
X77688064Y-55833600D02*
X76483936Y-55833600D01*
X77688064Y-57653600D02*
X76483936Y-57653600D01*
G04 #@! TO.C,C2*
X201985200Y-48912864D02*
X201985200Y-47708736D01*
X203805200Y-48912864D02*
X203805200Y-47708736D01*
G04 #@! TO.C,J4*
X201717600Y-58581600D02*
X204377600Y-58581600D01*
X201717600Y-53441600D02*
X201717600Y-58581600D01*
X204377600Y-53441600D02*
X204377600Y-58581600D01*
X201717600Y-53441600D02*
X204377600Y-53441600D01*
X201717600Y-52171600D02*
X201717600Y-50841600D01*
X201717600Y-50841600D02*
X203047600Y-50841600D01*
G04 #@! TO.C,12MHZ1*
X65312928Y-50925038D02*
X65312928Y-45925038D01*
X70712928Y-50925038D02*
X70712928Y-45925038D01*
X70712928Y-50925038D02*
G75*
G02X65312928Y-50925038I-2700000J0D01*
G01*
X70712928Y-45925038D02*
G75*
G03X65312928Y-45925038I-2700000J0D01*
G01*
G04 #@! TO.C,D1*
X86796428Y-54981038D02*
X90681428Y-54981038D01*
X90681428Y-54981038D02*
X90681428Y-52711038D01*
X90681428Y-52711038D02*
X86796428Y-52711038D01*
G04 #@! TO.C,D2*
X86111428Y-52568038D02*
X89996428Y-52568038D01*
X86111428Y-50298038D02*
X86111428Y-52568038D01*
X89996428Y-50298038D02*
X86111428Y-50298038D01*
G04 #@! TO.C,D3*
X86796428Y-50155038D02*
X90681428Y-50155038D01*
X90681428Y-50155038D02*
X90681428Y-47885038D01*
X90681428Y-47885038D02*
X86796428Y-47885038D01*
G04 #@! TO.C,D4*
X86111428Y-47678538D02*
X89996428Y-47678538D01*
X86111428Y-45408538D02*
X86111428Y-47678538D01*
X89996428Y-45408538D02*
X86111428Y-45408538D01*
G04 #@! TO.C,D5*
X83748428Y-57965538D02*
X87633428Y-57965538D01*
X87633428Y-57965538D02*
X87633428Y-55695538D01*
X87633428Y-55695538D02*
X83748428Y-55695538D01*
G04 #@! TO.C,LED4*
X146452335Y-34989392D02*
G75*
G03X143220000Y-34832484I-1672335J-1078608D01*
G01*
X146452335Y-37146608D02*
G75*
G02X143220000Y-37303516I-1672335J1078608D01*
G01*
X145821130Y-34988163D02*
G75*
G03X143739039Y-34988000I-1041130J-1079837D01*
G01*
X145821130Y-37147837D02*
G75*
G02X143739039Y-37148000I-1041130J1079837D01*
G01*
X143220000Y-34832000D02*
X143220000Y-34988000D01*
X143220000Y-37148000D02*
X143220000Y-37304000D01*
G04 #@! TO.C,LED1*
X159031500Y-37211500D02*
X159031500Y-37367500D01*
X159031500Y-34895500D02*
X159031500Y-35051500D01*
X161632630Y-37211337D02*
G75*
G02X159550539Y-37211500I-1041130J1079837D01*
G01*
X161632630Y-35051663D02*
G75*
G03X159550539Y-35051500I-1041130J-1079837D01*
G01*
X162263835Y-37210108D02*
G75*
G02X159031500Y-37367016I-1672335J1078608D01*
G01*
X162263835Y-35052892D02*
G75*
G03X159031500Y-34895984I-1672335J-1078608D01*
G01*
G04 #@! TO.C,LED3*
X151595835Y-35116392D02*
G75*
G03X148363500Y-34959484I-1672335J-1078608D01*
G01*
X151595835Y-37273608D02*
G75*
G02X148363500Y-37430516I-1672335J1078608D01*
G01*
X150964630Y-35115163D02*
G75*
G03X148882539Y-35115000I-1041130J-1079837D01*
G01*
X150964630Y-37274837D02*
G75*
G02X148882539Y-37275000I-1041130J1079837D01*
G01*
X148363500Y-34959000D02*
X148363500Y-35115000D01*
X148363500Y-37275000D02*
X148363500Y-37431000D01*
G04 #@! TO.C,LED5*
X138203500Y-37275000D02*
X138203500Y-37431000D01*
X138203500Y-34959000D02*
X138203500Y-35115000D01*
X140804630Y-37274837D02*
G75*
G02X138722539Y-37275000I-1041130J1079837D01*
G01*
X140804630Y-35115163D02*
G75*
G03X138722539Y-35115000I-1041130J-1079837D01*
G01*
X141435835Y-37273608D02*
G75*
G02X138203500Y-37430516I-1672335J1078608D01*
G01*
X141435835Y-35116392D02*
G75*
G03X138203500Y-34959484I-1672335J-1078608D01*
G01*
G04 #@! TO.C,LED2*
X156929835Y-35052892D02*
G75*
G03X153697500Y-34895984I-1672335J-1078608D01*
G01*
X156929835Y-37210108D02*
G75*
G02X153697500Y-37367016I-1672335J1078608D01*
G01*
X156298630Y-35051663D02*
G75*
G03X154216539Y-35051500I-1041130J-1079837D01*
G01*
X156298630Y-37211337D02*
G75*
G02X154216539Y-37211500I-1041130J1079837D01*
G01*
X153697500Y-34895500D02*
X153697500Y-35051500D01*
X153697500Y-37211500D02*
X153697500Y-37367500D01*
D13*
G04 #@! TO.C,U6*
X200926114Y-48753955D02*
X200901114Y-48753955D01*
X200926114Y-52903955D02*
X200811114Y-52903955D01*
X192026114Y-52903955D02*
X192141114Y-52903955D01*
X192026114Y-48753955D02*
X192141114Y-48753955D01*
X200926114Y-48753955D02*
X200926114Y-52903955D01*
X192026114Y-48753955D02*
X192026114Y-52903955D01*
X200901114Y-48753955D02*
X200901114Y-47378955D01*
G04 #@! TO.C,U4*
X73811928Y-45527538D02*
X73811928Y-46007538D01*
X77961928Y-45527538D02*
X77961928Y-46007538D01*
X77961928Y-55687538D02*
X77961928Y-55207538D01*
X73811928Y-55687538D02*
X73811928Y-55207538D01*
X73811928Y-45527538D02*
X77961928Y-45527538D01*
X73811928Y-55687538D02*
X77961928Y-55687538D01*
X73811928Y-46007538D02*
X72686928Y-46007538D01*
D11*
G04 #@! TO.C,U1*
X80146800Y-43711700D02*
X80146800Y-41911700D01*
X76926800Y-41911700D02*
X76926800Y-44361700D01*
G04 #@! TO.C,U2*
X184622800Y-44667600D02*
X184622800Y-47117600D01*
X187842800Y-46467600D02*
X187842800Y-44667600D01*
G04 #@! TO.C,U3*
X172176800Y-49290400D02*
X172176800Y-51090400D01*
X175396800Y-51090400D02*
X175396800Y-48640400D01*
G04 #@! TO.C,R6*
X83727992Y-50523038D02*
X82523864Y-50523038D01*
X83727992Y-52343038D02*
X82523864Y-52343038D01*
G04 #@! TO.C,R1*
X82621800Y-42209636D02*
X82621800Y-43413764D01*
X80801800Y-42209636D02*
X80801800Y-43413764D01*
G04 #@! TO.C,R8*
X82575428Y-55845102D02*
X82575428Y-54640974D01*
X80755428Y-55845102D02*
X80755428Y-54640974D01*
G04 #@! TO.C,R2*
X75128800Y-41892136D02*
X75128800Y-43096264D01*
X73308800Y-41892136D02*
X73308800Y-43096264D01*
G04 #@! TO.C,R3*
X188726400Y-44660736D02*
X188726400Y-45864864D01*
X190546400Y-44660736D02*
X190546400Y-45864864D01*
G04 #@! TO.C,R4*
X184094800Y-44660736D02*
X184094800Y-45864864D01*
X182274800Y-44660736D02*
X182274800Y-45864864D01*
G04 #@! TO.C,R5*
X68805492Y-54206038D02*
X67601364Y-54206038D01*
X68805492Y-56026038D02*
X67601364Y-56026038D01*
G04 #@! TO.C,R7*
X83791492Y-49930038D02*
X82587364Y-49930038D01*
X83791492Y-48110038D02*
X82587364Y-48110038D01*
G04 #@! TO.C,R9*
X199738064Y-56341600D02*
X198533936Y-56341600D01*
X199738064Y-58161600D02*
X198533936Y-58161600D01*
G04 #@! TO.C,R10*
X158411500Y-41432564D02*
X158411500Y-40228436D01*
X160231500Y-41432564D02*
X160231500Y-40228436D01*
G04 #@! TO.C,R11*
X154834000Y-41432564D02*
X154834000Y-40228436D01*
X153014000Y-41432564D02*
X153014000Y-40228436D01*
G04 #@! TO.C,R12*
X147680000Y-41432564D02*
X147680000Y-40228436D01*
X149500000Y-41432564D02*
X149500000Y-40228436D01*
G04 #@! TO.C,R14*
X139467000Y-41432564D02*
X139467000Y-40228436D01*
X137647000Y-41432564D02*
X137647000Y-40228436D01*
G04 #@! TO.C,R13*
X142600000Y-41432564D02*
X142600000Y-40228436D01*
X144420000Y-41432564D02*
X144420000Y-40228436D01*
D12*
G04 #@! TO.C,J1*
X84853300Y-39967200D02*
X75903300Y-39967200D01*
X84853300Y-33657200D02*
X84853300Y-33307200D01*
X84853300Y-33307200D02*
X75903300Y-33307200D01*
X75903300Y-33307200D02*
X75903300Y-33657200D01*
G04 #@! TO.C,J7*
D13*
X178685866Y-53764380D02*
X178685866Y-54478666D01*
X178638247Y-54621523D01*
X178543009Y-54716761D01*
X178400152Y-54764380D01*
X178304914Y-54764380D01*
X179066819Y-53764380D02*
X179733485Y-53764380D01*
X179304914Y-54764380D01*
G04 #@! TO.C,J8*
X175790266Y-53764380D02*
X175790266Y-54478666D01*
X175742647Y-54621523D01*
X175647409Y-54716761D01*
X175504552Y-54764380D01*
X175409314Y-54764380D01*
X176409314Y-54192952D02*
X176314076Y-54145333D01*
X176266457Y-54097714D01*
X176218838Y-54002476D01*
X176218838Y-53954857D01*
X176266457Y-53859619D01*
X176314076Y-53812000D01*
X176409314Y-53764380D01*
X176599790Y-53764380D01*
X176695028Y-53812000D01*
X176742647Y-53859619D01*
X176790266Y-53954857D01*
X176790266Y-54002476D01*
X176742647Y-54097714D01*
X176695028Y-54145333D01*
X176599790Y-54192952D01*
X176409314Y-54192952D01*
X176314076Y-54240571D01*
X176266457Y-54288190D01*
X176218838Y-54383428D01*
X176218838Y-54573904D01*
X176266457Y-54669142D01*
X176314076Y-54716761D01*
X176409314Y-54764380D01*
X176599790Y-54764380D01*
X176695028Y-54716761D01*
X176742647Y-54669142D01*
X176790266Y-54573904D01*
X176790266Y-54383428D01*
X176742647Y-54288190D01*
X176695028Y-54240571D01*
X176599790Y-54192952D01*
G04 #@! TO.C,J9*
X118081466Y-50868780D02*
X118081466Y-51583066D01*
X118033847Y-51725923D01*
X117938609Y-51821161D01*
X117795752Y-51868780D01*
X117700514Y-51868780D01*
X118605276Y-51868780D02*
X118795752Y-51868780D01*
X118890990Y-51821161D01*
X118938609Y-51773542D01*
X119033847Y-51630685D01*
X119081466Y-51440209D01*
X119081466Y-51059257D01*
X119033847Y-50964019D01*
X118986228Y-50916400D01*
X118890990Y-50868780D01*
X118700514Y-50868780D01*
X118605276Y-50916400D01*
X118557657Y-50964019D01*
X118510038Y-51059257D01*
X118510038Y-51297352D01*
X118557657Y-51392590D01*
X118605276Y-51440209D01*
X118700514Y-51487828D01*
X118890990Y-51487828D01*
X118986228Y-51440209D01*
X119033847Y-51392590D01*
X119081466Y-51297352D01*
G04 #@! TO.C,J19*
X157026076Y-53764380D02*
X157026076Y-54478666D01*
X156978457Y-54621523D01*
X156883219Y-54716761D01*
X156740361Y-54764380D01*
X156645123Y-54764380D01*
X158026076Y-54764380D02*
X157454647Y-54764380D01*
X157740361Y-54764380D02*
X157740361Y-53764380D01*
X157645123Y-53907238D01*
X157549885Y-54002476D01*
X157454647Y-54050095D01*
X158502266Y-54764380D02*
X158692742Y-54764380D01*
X158787980Y-54716761D01*
X158835600Y-54669142D01*
X158930838Y-54526285D01*
X158978457Y-54335809D01*
X158978457Y-53954857D01*
X158930838Y-53859619D01*
X158883219Y-53812000D01*
X158787980Y-53764380D01*
X158597504Y-53764380D01*
X158502266Y-53812000D01*
X158454647Y-53859619D01*
X158407028Y-53954857D01*
X158407028Y-54192952D01*
X158454647Y-54288190D01*
X158502266Y-54335809D01*
X158597504Y-54383428D01*
X158787980Y-54383428D01*
X158883219Y-54335809D01*
X158930838Y-54288190D01*
X158978457Y-54192952D01*
G04 #@! TO.C,J11*
X111966476Y-50868780D02*
X111966476Y-51583066D01*
X111918857Y-51725923D01*
X111823619Y-51821161D01*
X111680761Y-51868780D01*
X111585523Y-51868780D01*
X112966476Y-51868780D02*
X112395047Y-51868780D01*
X112680761Y-51868780D02*
X112680761Y-50868780D01*
X112585523Y-51011638D01*
X112490285Y-51106876D01*
X112395047Y-51154495D01*
X113918857Y-51868780D02*
X113347428Y-51868780D01*
X113633142Y-51868780D02*
X113633142Y-50868780D01*
X113537904Y-51011638D01*
X113442666Y-51106876D01*
X113347428Y-51154495D01*
G04 #@! TO.C,J12*
X106784876Y-50868780D02*
X106784876Y-51583066D01*
X106737257Y-51725923D01*
X106642019Y-51821161D01*
X106499161Y-51868780D01*
X106403923Y-51868780D01*
X107784876Y-51868780D02*
X107213447Y-51868780D01*
X107499161Y-51868780D02*
X107499161Y-50868780D01*
X107403923Y-51011638D01*
X107308685Y-51106876D01*
X107213447Y-51154495D01*
X108165828Y-50964019D02*
X108213447Y-50916400D01*
X108308685Y-50868780D01*
X108546780Y-50868780D01*
X108642019Y-50916400D01*
X108689638Y-50964019D01*
X108737257Y-51059257D01*
X108737257Y-51154495D01*
X108689638Y-51297352D01*
X108118209Y-51868780D01*
X108737257Y-51868780D01*
G04 #@! TO.C,J13*
X99418876Y-50868780D02*
X99418876Y-51583066D01*
X99371257Y-51725923D01*
X99276019Y-51821161D01*
X99133161Y-51868780D01*
X99037923Y-51868780D01*
X100418876Y-51868780D02*
X99847447Y-51868780D01*
X100133161Y-51868780D02*
X100133161Y-50868780D01*
X100037923Y-51011638D01*
X99942685Y-51106876D01*
X99847447Y-51154495D01*
X100752209Y-50868780D02*
X101371257Y-50868780D01*
X101037923Y-51249733D01*
X101180780Y-51249733D01*
X101276019Y-51297352D01*
X101323638Y-51344971D01*
X101371257Y-51440209D01*
X101371257Y-51678304D01*
X101323638Y-51773542D01*
X101276019Y-51821161D01*
X101180780Y-51868780D01*
X100895066Y-51868780D01*
X100799828Y-51821161D01*
X100752209Y-51773542D01*
G04 #@! TO.C,J14*
X168405276Y-53764380D02*
X168405276Y-54478666D01*
X168357657Y-54621523D01*
X168262419Y-54716761D01*
X168119561Y-54764380D01*
X168024323Y-54764380D01*
X169405276Y-54764380D02*
X168833847Y-54764380D01*
X169119561Y-54764380D02*
X169119561Y-53764380D01*
X169024323Y-53907238D01*
X168929085Y-54002476D01*
X168833847Y-54050095D01*
X170262419Y-54097714D02*
X170262419Y-54764380D01*
X170024323Y-53716761D02*
X169786228Y-54431047D01*
X170405276Y-54431047D01*
G04 #@! TO.C,J15*
X165560476Y-53764380D02*
X165560476Y-54478666D01*
X165512857Y-54621523D01*
X165417619Y-54716761D01*
X165274761Y-54764380D01*
X165179523Y-54764380D01*
X166560476Y-54764380D02*
X165989047Y-54764380D01*
X166274761Y-54764380D02*
X166274761Y-53764380D01*
X166179523Y-53907238D01*
X166084285Y-54002476D01*
X165989047Y-54050095D01*
X167465238Y-53764380D02*
X166989047Y-53764380D01*
X166941428Y-54240571D01*
X166989047Y-54192952D01*
X167084285Y-54145333D01*
X167322380Y-54145333D01*
X167417619Y-54192952D01*
X167465238Y-54240571D01*
X167512857Y-54335809D01*
X167512857Y-54573904D01*
X167465238Y-54669142D01*
X167417619Y-54716761D01*
X167322380Y-54764380D01*
X167084285Y-54764380D01*
X166989047Y-54716761D01*
X166941428Y-54669142D01*
G04 #@! TO.C,J16*
X162715676Y-53764380D02*
X162715676Y-54478666D01*
X162668057Y-54621523D01*
X162572819Y-54716761D01*
X162429961Y-54764380D01*
X162334723Y-54764380D01*
X163715676Y-54764380D02*
X163144247Y-54764380D01*
X163429961Y-54764380D02*
X163429961Y-53764380D01*
X163334723Y-53907238D01*
X163239485Y-54002476D01*
X163144247Y-54050095D01*
X164572819Y-53764380D02*
X164382342Y-53764380D01*
X164287104Y-53812000D01*
X164239485Y-53859619D01*
X164144247Y-54002476D01*
X164096628Y-54192952D01*
X164096628Y-54573904D01*
X164144247Y-54669142D01*
X164191866Y-54716761D01*
X164287104Y-54764380D01*
X164477580Y-54764380D01*
X164572819Y-54716761D01*
X164620438Y-54669142D01*
X164668057Y-54573904D01*
X164668057Y-54335809D01*
X164620438Y-54240571D01*
X164572819Y-54192952D01*
X164477580Y-54145333D01*
X164287104Y-54145333D01*
X164191866Y-54192952D01*
X164144247Y-54240571D01*
X164096628Y-54335809D01*
G04 #@! TO.C,J17*
X159870876Y-53764380D02*
X159870876Y-54478666D01*
X159823257Y-54621523D01*
X159728019Y-54716761D01*
X159585161Y-54764380D01*
X159489923Y-54764380D01*
X160870876Y-54764380D02*
X160299447Y-54764380D01*
X160585161Y-54764380D02*
X160585161Y-53764380D01*
X160489923Y-53907238D01*
X160394685Y-54002476D01*
X160299447Y-54050095D01*
X161204209Y-53764380D02*
X161870876Y-53764380D01*
X161442304Y-54764380D01*
G04 #@! TO.C,J18*
X120450076Y-50868780D02*
X120450076Y-51583066D01*
X120402457Y-51725923D01*
X120307219Y-51821161D01*
X120164361Y-51868780D01*
X120069123Y-51868780D01*
X121450076Y-51868780D02*
X120878647Y-51868780D01*
X121164361Y-51868780D02*
X121164361Y-50868780D01*
X121069123Y-51011638D01*
X120973885Y-51106876D01*
X120878647Y-51154495D01*
X122021504Y-51297352D02*
X121926266Y-51249733D01*
X121878647Y-51202114D01*
X121831028Y-51106876D01*
X121831028Y-51059257D01*
X121878647Y-50964019D01*
X121926266Y-50916400D01*
X122021504Y-50868780D01*
X122211980Y-50868780D01*
X122307219Y-50916400D01*
X122354838Y-50964019D01*
X122402457Y-51059257D01*
X122402457Y-51106876D01*
X122354838Y-51202114D01*
X122307219Y-51249733D01*
X122211980Y-51297352D01*
X122021504Y-51297352D01*
X121926266Y-51344971D01*
X121878647Y-51392590D01*
X121831028Y-51487828D01*
X121831028Y-51678304D01*
X121878647Y-51773542D01*
X121926266Y-51821161D01*
X122021504Y-51868780D01*
X122211980Y-51868780D01*
X122307219Y-51821161D01*
X122354838Y-51773542D01*
X122402457Y-51678304D01*
X122402457Y-51487828D01*
X122354838Y-51392590D01*
X122307219Y-51344971D01*
X122211980Y-51297352D01*
G04 #@! TO.C,J10*
X114811276Y-50868780D02*
X114811276Y-51583066D01*
X114763657Y-51725923D01*
X114668419Y-51821161D01*
X114525561Y-51868780D01*
X114430323Y-51868780D01*
X115811276Y-51868780D02*
X115239847Y-51868780D01*
X115525561Y-51868780D02*
X115525561Y-50868780D01*
X115430323Y-51011638D01*
X115335085Y-51106876D01*
X115239847Y-51154495D01*
X116430323Y-50868780D02*
X116525561Y-50868780D01*
X116620800Y-50916400D01*
X116668419Y-50964019D01*
X116716038Y-51059257D01*
X116763657Y-51249733D01*
X116763657Y-51487828D01*
X116716038Y-51678304D01*
X116668419Y-51773542D01*
X116620800Y-51821161D01*
X116525561Y-51868780D01*
X116430323Y-51868780D01*
X116335085Y-51821161D01*
X116287466Y-51773542D01*
X116239847Y-51678304D01*
X116192228Y-51487828D01*
X116192228Y-51249733D01*
X116239847Y-51059257D01*
X116287466Y-50964019D01*
X116335085Y-50916400D01*
X116430323Y-50868780D01*
G04 #@! TO.C,J2*
D15*
X186763016Y-42225898D02*
X186763016Y-42940291D01*
X186715390Y-43083170D01*
X186620138Y-43178422D01*
X186477259Y-43226048D01*
X186382007Y-43226048D01*
X187191652Y-42321151D02*
X187239278Y-42273525D01*
X187334530Y-42225898D01*
X187572661Y-42225898D01*
X187667914Y-42273525D01*
X187715540Y-42321151D01*
X187763166Y-42416403D01*
X187763166Y-42511655D01*
X187715540Y-42654534D01*
X187144026Y-43226048D01*
X187763166Y-43226048D01*
G04 #@! TO.C,U5*
D13*
X109372495Y-40143180D02*
X109372495Y-40952704D01*
X109420114Y-41047942D01*
X109467733Y-41095561D01*
X109562971Y-41143180D01*
X109753447Y-41143180D01*
X109848685Y-41095561D01*
X109896304Y-41047942D01*
X109943923Y-40952704D01*
X109943923Y-40143180D01*
X110896304Y-40143180D02*
X110420114Y-40143180D01*
X110372495Y-40619371D01*
X110420114Y-40571752D01*
X110515352Y-40524133D01*
X110753447Y-40524133D01*
X110848685Y-40571752D01*
X110896304Y-40619371D01*
X110943923Y-40714609D01*
X110943923Y-40952704D01*
X110896304Y-41047942D01*
X110848685Y-41095561D01*
X110753447Y-41143180D01*
X110515352Y-41143180D01*
X110420114Y-41095561D01*
X110372495Y-41047942D01*
X119916166Y-43302666D02*
X119916166Y-42602666D01*
X120149500Y-43102666D01*
X120382833Y-42602666D01*
X120382833Y-43302666D01*
X120716166Y-43302666D02*
X120716166Y-42602666D01*
X121116166Y-43302666D02*
X120816166Y-42902666D01*
X121116166Y-42602666D02*
X120716166Y-43002666D01*
X121749500Y-43302666D02*
X121416166Y-43302666D01*
X121416166Y-42602666D01*
X121949500Y-42669333D02*
X121982833Y-42636000D01*
X122049500Y-42602666D01*
X122216166Y-42602666D01*
X122282833Y-42636000D01*
X122316166Y-42669333D01*
X122349500Y-42736000D01*
X122349500Y-42802666D01*
X122316166Y-42902666D01*
X121916166Y-43302666D01*
X122349500Y-43302666D01*
X122949500Y-42602666D02*
X122816166Y-42602666D01*
X122749500Y-42636000D01*
X122716166Y-42669333D01*
X122649500Y-42769333D01*
X122616166Y-42902666D01*
X122616166Y-43169333D01*
X122649500Y-43236000D01*
X122682833Y-43269333D01*
X122749500Y-43302666D01*
X122882833Y-43302666D01*
X122949500Y-43269333D01*
X122982833Y-43236000D01*
X123016166Y-43169333D01*
X123016166Y-43002666D01*
X122982833Y-42936000D01*
X122949500Y-42902666D01*
X122882833Y-42869333D01*
X122749500Y-42869333D01*
X122682833Y-42902666D01*
X122649500Y-42936000D01*
X122616166Y-43002666D01*
X123249500Y-42602666D02*
X123716166Y-42602666D01*
X123249500Y-43302666D01*
X123716166Y-43302666D01*
X124282833Y-42602666D02*
X124149500Y-42602666D01*
X124082833Y-42636000D01*
X124049500Y-42669333D01*
X123982833Y-42769333D01*
X123949500Y-42902666D01*
X123949500Y-43169333D01*
X123982833Y-43236000D01*
X124016166Y-43269333D01*
X124082833Y-43302666D01*
X124216166Y-43302666D01*
X124282833Y-43269333D01*
X124316166Y-43236000D01*
X124349500Y-43169333D01*
X124349500Y-43002666D01*
X124316166Y-42936000D01*
X124282833Y-42902666D01*
X124216166Y-42869333D01*
X124082833Y-42869333D01*
X124016166Y-42902666D01*
X123982833Y-42936000D01*
X123949500Y-43002666D01*
X124949500Y-42836000D02*
X124949500Y-43302666D01*
X124782833Y-42569333D02*
X124616166Y-43069333D01*
X125049500Y-43069333D01*
X125216166Y-42602666D02*
X125449500Y-43302666D01*
X125682833Y-42602666D01*
X126149500Y-42936000D02*
X125916166Y-42936000D01*
X125916166Y-43302666D02*
X125916166Y-42602666D01*
X126249500Y-42602666D01*
X126416166Y-42602666D02*
X126816166Y-42602666D01*
X126616166Y-43302666D02*
X126616166Y-42602666D01*
X127349500Y-42836000D02*
X127349500Y-43302666D01*
X127182833Y-42569333D02*
X127016166Y-43069333D01*
X127449500Y-43069333D01*
G04 #@! TO.C,J5*
X94789666Y-44854880D02*
X94789666Y-45569166D01*
X94742047Y-45712023D01*
X94646809Y-45807261D01*
X94503952Y-45854880D01*
X94408714Y-45854880D01*
X95742047Y-44854880D02*
X95265857Y-44854880D01*
X95218238Y-45331071D01*
X95265857Y-45283452D01*
X95361095Y-45235833D01*
X95599190Y-45235833D01*
X95694428Y-45283452D01*
X95742047Y-45331071D01*
X95789666Y-45426309D01*
X95789666Y-45664404D01*
X95742047Y-45759642D01*
X95694428Y-45807261D01*
X95599190Y-45854880D01*
X95361095Y-45854880D01*
X95265857Y-45807261D01*
X95218238Y-45759642D01*
G04 #@! TO.C,J6*
X94916666Y-41870380D02*
X94916666Y-42584666D01*
X94869047Y-42727523D01*
X94773809Y-42822761D01*
X94630952Y-42870380D01*
X94535714Y-42870380D01*
X95821428Y-41870380D02*
X95630952Y-41870380D01*
X95535714Y-41918000D01*
X95488095Y-41965619D01*
X95392857Y-42108476D01*
X95345238Y-42298952D01*
X95345238Y-42679904D01*
X95392857Y-42775142D01*
X95440476Y-42822761D01*
X95535714Y-42870380D01*
X95726190Y-42870380D01*
X95821428Y-42822761D01*
X95869047Y-42775142D01*
X95916666Y-42679904D01*
X95916666Y-42441809D01*
X95869047Y-42346571D01*
X95821428Y-42298952D01*
X95726190Y-42251333D01*
X95535714Y-42251333D01*
X95440476Y-42298952D01*
X95392857Y-42346571D01*
X95345238Y-42441809D01*
G04 #@! TO.C,C1*
X73798133Y-57303942D02*
X73750514Y-57351561D01*
X73607657Y-57399180D01*
X73512419Y-57399180D01*
X73369561Y-57351561D01*
X73274323Y-57256323D01*
X73226704Y-57161085D01*
X73179085Y-56970609D01*
X73179085Y-56827752D01*
X73226704Y-56637276D01*
X73274323Y-56542038D01*
X73369561Y-56446800D01*
X73512419Y-56399180D01*
X73607657Y-56399180D01*
X73750514Y-56446800D01*
X73798133Y-56494419D01*
X74750514Y-57399180D02*
X74179085Y-57399180D01*
X74464800Y-57399180D02*
X74464800Y-56399180D01*
X74369561Y-56542038D01*
X74274323Y-56637276D01*
X74179085Y-56684895D01*
G04 #@! TO.C,C2*
X204319142Y-45277066D02*
X204366761Y-45324685D01*
X204414380Y-45467542D01*
X204414380Y-45562780D01*
X204366761Y-45705638D01*
X204271523Y-45800876D01*
X204176285Y-45848495D01*
X203985809Y-45896114D01*
X203842952Y-45896114D01*
X203652476Y-45848495D01*
X203557238Y-45800876D01*
X203462000Y-45705638D01*
X203414380Y-45562780D01*
X203414380Y-45467542D01*
X203462000Y-45324685D01*
X203509619Y-45277066D01*
X203509619Y-44896114D02*
X203462000Y-44848495D01*
X203414380Y-44753257D01*
X203414380Y-44515161D01*
X203462000Y-44419923D01*
X203509619Y-44372304D01*
X203604857Y-44324685D01*
X203700095Y-44324685D01*
X203842952Y-44372304D01*
X204414380Y-44943733D01*
X204414380Y-44324685D01*
G04 #@! TO.C,J4*
X200484652Y-51988725D02*
X200484652Y-52703011D01*
X200437033Y-52845868D01*
X200341795Y-52941106D01*
X200198938Y-52988725D01*
X200103700Y-52988725D01*
X201389414Y-52322059D02*
X201389414Y-52988725D01*
X201151319Y-51941106D02*
X200913224Y-52655392D01*
X201532271Y-52655392D01*
G04 #@! TO.C,12MHZ1*
X64765308Y-50663133D02*
X64765308Y-51234561D01*
X64765308Y-50948847D02*
X63765308Y-50948847D01*
X63908166Y-51044085D01*
X64003404Y-51139323D01*
X64051023Y-51234561D01*
X63860547Y-50282180D02*
X63812928Y-50234561D01*
X63765308Y-50139323D01*
X63765308Y-49901228D01*
X63812928Y-49805990D01*
X63860547Y-49758371D01*
X63955785Y-49710752D01*
X64051023Y-49710752D01*
X64193880Y-49758371D01*
X64765308Y-50329799D01*
X64765308Y-49710752D01*
X64765308Y-49282180D02*
X63765308Y-49282180D01*
X64479594Y-48948847D01*
X63765308Y-48615514D01*
X64765308Y-48615514D01*
X64765308Y-48139323D02*
X63765308Y-48139323D01*
X64241499Y-48139323D02*
X64241499Y-47567895D01*
X64765308Y-47567895D02*
X63765308Y-47567895D01*
X63765308Y-47186942D02*
X63765308Y-46520276D01*
X64765308Y-47186942D01*
X64765308Y-46520276D01*
X64765308Y-45615514D02*
X64765308Y-46186942D01*
X64765308Y-45901228D02*
X63765308Y-45901228D01*
X63908166Y-45996466D01*
X64003404Y-46091704D01*
X64051023Y-46186942D01*
G04 #@! TO.C,D1*
X91870304Y-54655980D02*
X91870304Y-53655980D01*
X92108400Y-53655980D01*
X92251257Y-53703600D01*
X92346495Y-53798838D01*
X92394114Y-53894076D01*
X92441733Y-54084552D01*
X92441733Y-54227409D01*
X92394114Y-54417885D01*
X92346495Y-54513123D01*
X92251257Y-54608361D01*
X92108400Y-54655980D01*
X91870304Y-54655980D01*
X93394114Y-54655980D02*
X92822685Y-54655980D01*
X93108400Y-54655980D02*
X93108400Y-53655980D01*
X93013161Y-53798838D01*
X92917923Y-53894076D01*
X92822685Y-53941695D01*
G04 #@! TO.C,D2*
X90905104Y-51912780D02*
X90905104Y-50912780D01*
X91143200Y-50912780D01*
X91286057Y-50960400D01*
X91381295Y-51055638D01*
X91428914Y-51150876D01*
X91476533Y-51341352D01*
X91476533Y-51484209D01*
X91428914Y-51674685D01*
X91381295Y-51769923D01*
X91286057Y-51865161D01*
X91143200Y-51912780D01*
X90905104Y-51912780D01*
X91857485Y-51008019D02*
X91905104Y-50960400D01*
X92000342Y-50912780D01*
X92238438Y-50912780D01*
X92333676Y-50960400D01*
X92381295Y-51008019D01*
X92428914Y-51103257D01*
X92428914Y-51198495D01*
X92381295Y-51341352D01*
X91809866Y-51912780D01*
X92428914Y-51912780D01*
G04 #@! TO.C,D3*
X91159104Y-49474380D02*
X91159104Y-48474380D01*
X91397200Y-48474380D01*
X91540057Y-48522000D01*
X91635295Y-48617238D01*
X91682914Y-48712476D01*
X91730533Y-48902952D01*
X91730533Y-49045809D01*
X91682914Y-49236285D01*
X91635295Y-49331523D01*
X91540057Y-49426761D01*
X91397200Y-49474380D01*
X91159104Y-49474380D01*
X92063866Y-48474380D02*
X92682914Y-48474380D01*
X92349580Y-48855333D01*
X92492438Y-48855333D01*
X92587676Y-48902952D01*
X92635295Y-48950571D01*
X92682914Y-49045809D01*
X92682914Y-49283904D01*
X92635295Y-49379142D01*
X92587676Y-49426761D01*
X92492438Y-49474380D01*
X92206723Y-49474380D01*
X92111485Y-49426761D01*
X92063866Y-49379142D01*
G04 #@! TO.C,D4*
X90905104Y-46934380D02*
X90905104Y-45934380D01*
X91143200Y-45934380D01*
X91286057Y-45982000D01*
X91381295Y-46077238D01*
X91428914Y-46172476D01*
X91476533Y-46362952D01*
X91476533Y-46505809D01*
X91428914Y-46696285D01*
X91381295Y-46791523D01*
X91286057Y-46886761D01*
X91143200Y-46934380D01*
X90905104Y-46934380D01*
X92333676Y-46267714D02*
X92333676Y-46934380D01*
X92095580Y-45886761D02*
X91857485Y-46601047D01*
X92476533Y-46601047D01*
G04 #@! TO.C,D5*
X88365104Y-57500780D02*
X88365104Y-56500780D01*
X88603200Y-56500780D01*
X88746057Y-56548400D01*
X88841295Y-56643638D01*
X88888914Y-56738876D01*
X88936533Y-56929352D01*
X88936533Y-57072209D01*
X88888914Y-57262685D01*
X88841295Y-57357923D01*
X88746057Y-57453161D01*
X88603200Y-57500780D01*
X88365104Y-57500780D01*
X89841295Y-56500780D02*
X89365104Y-56500780D01*
X89317485Y-56976971D01*
X89365104Y-56929352D01*
X89460342Y-56881733D01*
X89698438Y-56881733D01*
X89793676Y-56929352D01*
X89841295Y-56976971D01*
X89888914Y-57072209D01*
X89888914Y-57310304D01*
X89841295Y-57405542D01*
X89793676Y-57453161D01*
X89698438Y-57500780D01*
X89460342Y-57500780D01*
X89365104Y-57453161D01*
X89317485Y-57405542D01*
G04 #@! TO.C,LED4*
X145994380Y-41759047D02*
X145994380Y-42235238D01*
X144994380Y-42235238D01*
X145470571Y-41425714D02*
X145470571Y-41092380D01*
X145994380Y-40949523D02*
X145994380Y-41425714D01*
X144994380Y-41425714D01*
X144994380Y-40949523D01*
X145994380Y-40520952D02*
X144994380Y-40520952D01*
X144994380Y-40282857D01*
X145042000Y-40140000D01*
X145137238Y-40044761D01*
X145232476Y-39997142D01*
X145422952Y-39949523D01*
X145565809Y-39949523D01*
X145756285Y-39997142D01*
X145851523Y-40044761D01*
X145946761Y-40140000D01*
X145994380Y-40282857D01*
X145994380Y-40520952D01*
X145327714Y-39092380D02*
X145994380Y-39092380D01*
X144946761Y-39330476D02*
X145661047Y-39568571D01*
X145661047Y-38949523D01*
G04 #@! TO.C,LED1*
X161894780Y-41657447D02*
X161894780Y-42133638D01*
X160894780Y-42133638D01*
X161370971Y-41324114D02*
X161370971Y-40990780D01*
X161894780Y-40847923D02*
X161894780Y-41324114D01*
X160894780Y-41324114D01*
X160894780Y-40847923D01*
X161894780Y-40419352D02*
X160894780Y-40419352D01*
X160894780Y-40181257D01*
X160942400Y-40038400D01*
X161037638Y-39943161D01*
X161132876Y-39895542D01*
X161323352Y-39847923D01*
X161466209Y-39847923D01*
X161656685Y-39895542D01*
X161751923Y-39943161D01*
X161847161Y-40038400D01*
X161894780Y-40181257D01*
X161894780Y-40419352D01*
X161894780Y-38895542D02*
X161894780Y-39466971D01*
X161894780Y-39181257D02*
X160894780Y-39181257D01*
X161037638Y-39276495D01*
X161132876Y-39371733D01*
X161180495Y-39466971D01*
G04 #@! TO.C,LED3*
X151125180Y-41759047D02*
X151125180Y-42235238D01*
X150125180Y-42235238D01*
X150601371Y-41425714D02*
X150601371Y-41092380D01*
X151125180Y-40949523D02*
X151125180Y-41425714D01*
X150125180Y-41425714D01*
X150125180Y-40949523D01*
X151125180Y-40520952D02*
X150125180Y-40520952D01*
X150125180Y-40282857D01*
X150172800Y-40140000D01*
X150268038Y-40044761D01*
X150363276Y-39997142D01*
X150553752Y-39949523D01*
X150696609Y-39949523D01*
X150887085Y-39997142D01*
X150982323Y-40044761D01*
X151077561Y-40140000D01*
X151125180Y-40282857D01*
X151125180Y-40520952D01*
X150125180Y-39616190D02*
X150125180Y-38997142D01*
X150506133Y-39330476D01*
X150506133Y-39187619D01*
X150553752Y-39092380D01*
X150601371Y-39044761D01*
X150696609Y-38997142D01*
X150934704Y-38997142D01*
X151029942Y-39044761D01*
X151077561Y-39092380D01*
X151125180Y-39187619D01*
X151125180Y-39473333D01*
X151077561Y-39568571D01*
X151029942Y-39616190D01*
G04 #@! TO.C,LED5*
X141168380Y-41759047D02*
X141168380Y-42235238D01*
X140168380Y-42235238D01*
X140644571Y-41425714D02*
X140644571Y-41092380D01*
X141168380Y-40949523D02*
X141168380Y-41425714D01*
X140168380Y-41425714D01*
X140168380Y-40949523D01*
X141168380Y-40520952D02*
X140168380Y-40520952D01*
X140168380Y-40282857D01*
X140216000Y-40140000D01*
X140311238Y-40044761D01*
X140406476Y-39997142D01*
X140596952Y-39949523D01*
X140739809Y-39949523D01*
X140930285Y-39997142D01*
X141025523Y-40044761D01*
X141120761Y-40140000D01*
X141168380Y-40282857D01*
X141168380Y-40520952D01*
X140168380Y-39044761D02*
X140168380Y-39520952D01*
X140644571Y-39568571D01*
X140596952Y-39520952D01*
X140549333Y-39425714D01*
X140549333Y-39187619D01*
X140596952Y-39092380D01*
X140644571Y-39044761D01*
X140739809Y-38997142D01*
X140977904Y-38997142D01*
X141073142Y-39044761D01*
X141120761Y-39092380D01*
X141168380Y-39187619D01*
X141168380Y-39425714D01*
X141120761Y-39520952D01*
X141073142Y-39568571D01*
G04 #@! TO.C,LED2*
X156967180Y-41555847D02*
X156967180Y-42032038D01*
X155967180Y-42032038D01*
X156443371Y-41222514D02*
X156443371Y-40889180D01*
X156967180Y-40746323D02*
X156967180Y-41222514D01*
X155967180Y-41222514D01*
X155967180Y-40746323D01*
X156967180Y-40317752D02*
X155967180Y-40317752D01*
X155967180Y-40079657D01*
X156014800Y-39936800D01*
X156110038Y-39841561D01*
X156205276Y-39793942D01*
X156395752Y-39746323D01*
X156538609Y-39746323D01*
X156729085Y-39793942D01*
X156824323Y-39841561D01*
X156919561Y-39936800D01*
X156967180Y-40079657D01*
X156967180Y-40317752D01*
X156062419Y-39365371D02*
X156014800Y-39317752D01*
X155967180Y-39222514D01*
X155967180Y-38984419D01*
X156014800Y-38889180D01*
X156062419Y-38841561D01*
X156157657Y-38793942D01*
X156252895Y-38793942D01*
X156395752Y-38841561D01*
X156967180Y-39412990D01*
X156967180Y-38793942D01*
G04 #@! TO.C,H4*
X71780495Y-34437580D02*
X71780495Y-33437580D01*
X71780495Y-33913771D02*
X72351923Y-33913771D01*
X72351923Y-34437580D02*
X72351923Y-33437580D01*
X73256685Y-33770914D02*
X73256685Y-34437580D01*
X73018590Y-33389961D02*
X72780495Y-34104247D01*
X73399542Y-34104247D01*
G04 #@! TO.C,H2*
X187350495Y-50168780D02*
X187350495Y-49168780D01*
X187350495Y-49644971D02*
X187921923Y-49644971D01*
X187921923Y-50168780D02*
X187921923Y-49168780D01*
X188350495Y-49264019D02*
X188398114Y-49216400D01*
X188493352Y-49168780D01*
X188731447Y-49168780D01*
X188826685Y-49216400D01*
X188874304Y-49264019D01*
X188921923Y-49359257D01*
X188921923Y-49454495D01*
X188874304Y-49597352D01*
X188302876Y-50168780D01*
X188921923Y-50168780D01*
G04 #@! TO.C,H1*
X202488895Y-43175180D02*
X202488895Y-42175180D01*
X202488895Y-42651371D02*
X203060323Y-42651371D01*
X203060323Y-43175180D02*
X203060323Y-42175180D01*
X204060323Y-43175180D02*
X203488895Y-43175180D01*
X203774609Y-43175180D02*
X203774609Y-42175180D01*
X203679371Y-42318038D01*
X203584133Y-42413276D01*
X203488895Y-42460895D01*
G04 #@! TO.C,U6*
X189545980Y-51917504D02*
X190355504Y-51917504D01*
X190450742Y-51869885D01*
X190498361Y-51822266D01*
X190545980Y-51727028D01*
X190545980Y-51536552D01*
X190498361Y-51441314D01*
X190450742Y-51393695D01*
X190355504Y-51346076D01*
X189545980Y-51346076D01*
X189545980Y-50441314D02*
X189545980Y-50631790D01*
X189593600Y-50727028D01*
X189641219Y-50774647D01*
X189784076Y-50869885D01*
X189974552Y-50917504D01*
X190355504Y-50917504D01*
X190450742Y-50869885D01*
X190498361Y-50822266D01*
X190545980Y-50727028D01*
X190545980Y-50536552D01*
X190498361Y-50441314D01*
X190450742Y-50393695D01*
X190355504Y-50346076D01*
X190117409Y-50346076D01*
X190022171Y-50393695D01*
X189974552Y-50441314D01*
X189926933Y-50536552D01*
X189926933Y-50727028D01*
X189974552Y-50822266D01*
X190022171Y-50869885D01*
X190117409Y-50917504D01*
G04 #@! TO.C,U4*
X75188523Y-49996418D02*
X75188523Y-50805942D01*
X75236142Y-50901180D01*
X75283761Y-50948799D01*
X75378999Y-50996418D01*
X75569475Y-50996418D01*
X75664713Y-50948799D01*
X75712332Y-50901180D01*
X75759951Y-50805942D01*
X75759951Y-49996418D01*
X76664713Y-50329752D02*
X76664713Y-50996418D01*
X76426618Y-49948799D02*
X76188523Y-50663085D01*
X76807570Y-50663085D01*
G04 #@! TO.C,U1*
X75550780Y-43687904D02*
X76360304Y-43687904D01*
X76455542Y-43640285D01*
X76503161Y-43592666D01*
X76550780Y-43497428D01*
X76550780Y-43306952D01*
X76503161Y-43211714D01*
X76455542Y-43164095D01*
X76360304Y-43116476D01*
X75550780Y-43116476D01*
X76550780Y-42116476D02*
X76550780Y-42687904D01*
X76550780Y-42402190D02*
X75550780Y-42402190D01*
X75693638Y-42497428D01*
X75788876Y-42592666D01*
X75836495Y-42687904D01*
G04 #@! TO.C,U2*
X185735980Y-49225104D02*
X186545504Y-49225104D01*
X186640742Y-49177485D01*
X186688361Y-49129866D01*
X186735980Y-49034628D01*
X186735980Y-48844152D01*
X186688361Y-48748914D01*
X186640742Y-48701295D01*
X186545504Y-48653676D01*
X185735980Y-48653676D01*
X185831219Y-48225104D02*
X185783600Y-48177485D01*
X185735980Y-48082247D01*
X185735980Y-47844152D01*
X185783600Y-47748914D01*
X185831219Y-47701295D01*
X185926457Y-47653676D01*
X186021695Y-47653676D01*
X186164552Y-47701295D01*
X186735980Y-48272723D01*
X186735980Y-47653676D01*
G04 #@! TO.C,U3*
X176139180Y-50952304D02*
X176948704Y-50952304D01*
X177043942Y-50904685D01*
X177091561Y-50857066D01*
X177139180Y-50761828D01*
X177139180Y-50571352D01*
X177091561Y-50476114D01*
X177043942Y-50428495D01*
X176948704Y-50380876D01*
X176139180Y-50380876D01*
X176139180Y-49999923D02*
X176139180Y-49380876D01*
X176520133Y-49714209D01*
X176520133Y-49571352D01*
X176567752Y-49476114D01*
X176615371Y-49428495D01*
X176710609Y-49380876D01*
X176948704Y-49380876D01*
X177043942Y-49428495D01*
X177091561Y-49476114D01*
X177139180Y-49571352D01*
X177139180Y-49857066D01*
X177091561Y-49952304D01*
X177043942Y-49999923D01*
G04 #@! TO.C,R6*
X84161333Y-53792380D02*
X83828000Y-53316190D01*
X83589904Y-53792380D02*
X83589904Y-52792380D01*
X83970857Y-52792380D01*
X84066095Y-52840000D01*
X84113714Y-52887619D01*
X84161333Y-52982857D01*
X84161333Y-53125714D01*
X84113714Y-53220952D01*
X84066095Y-53268571D01*
X83970857Y-53316190D01*
X83589904Y-53316190D01*
X85018476Y-52792380D02*
X84828000Y-52792380D01*
X84732761Y-52840000D01*
X84685142Y-52887619D01*
X84589904Y-53030476D01*
X84542285Y-53220952D01*
X84542285Y-53601904D01*
X84589904Y-53697142D01*
X84637523Y-53744761D01*
X84732761Y-53792380D01*
X84923238Y-53792380D01*
X85018476Y-53744761D01*
X85066095Y-53697142D01*
X85113714Y-53601904D01*
X85113714Y-53363809D01*
X85066095Y-53268571D01*
X85018476Y-53220952D01*
X84923238Y-53173333D01*
X84732761Y-53173333D01*
X84637523Y-53220952D01*
X84589904Y-53268571D01*
X84542285Y-53363809D01*
G04 #@! TO.C,R1*
X83984180Y-42978366D02*
X83507990Y-43311700D01*
X83984180Y-43549795D02*
X82984180Y-43549795D01*
X82984180Y-43168842D01*
X83031800Y-43073604D01*
X83079419Y-43025985D01*
X83174657Y-42978366D01*
X83317514Y-42978366D01*
X83412752Y-43025985D01*
X83460371Y-43073604D01*
X83507990Y-43168842D01*
X83507990Y-43549795D01*
X83984180Y-42025985D02*
X83984180Y-42597414D01*
X83984180Y-42311700D02*
X82984180Y-42311700D01*
X83127038Y-42406938D01*
X83222276Y-42502176D01*
X83269895Y-42597414D01*
G04 #@! TO.C,R8*
X80297808Y-55409704D02*
X79821618Y-55743038D01*
X80297808Y-55981133D02*
X79297808Y-55981133D01*
X79297808Y-55600180D01*
X79345428Y-55504942D01*
X79393047Y-55457323D01*
X79488285Y-55409704D01*
X79631142Y-55409704D01*
X79726380Y-55457323D01*
X79773999Y-55504942D01*
X79821618Y-55600180D01*
X79821618Y-55981133D01*
X79726380Y-54838276D02*
X79678761Y-54933514D01*
X79631142Y-54981133D01*
X79535904Y-55028752D01*
X79488285Y-55028752D01*
X79393047Y-54981133D01*
X79345428Y-54933514D01*
X79297808Y-54838276D01*
X79297808Y-54647799D01*
X79345428Y-54552561D01*
X79393047Y-54504942D01*
X79488285Y-54457323D01*
X79535904Y-54457323D01*
X79631142Y-54504942D01*
X79678761Y-54552561D01*
X79726380Y-54647799D01*
X79726380Y-54838276D01*
X79773999Y-54933514D01*
X79821618Y-54981133D01*
X79916856Y-55028752D01*
X80107332Y-55028752D01*
X80202570Y-54981133D01*
X80250189Y-54933514D01*
X80297808Y-54838276D01*
X80297808Y-54647799D01*
X80250189Y-54552561D01*
X80202570Y-54504942D01*
X80107332Y-54457323D01*
X79916856Y-54457323D01*
X79821618Y-54504942D01*
X79773999Y-54552561D01*
X79726380Y-54647799D01*
G04 #@! TO.C,R2*
X72791580Y-43600666D02*
X72315390Y-43934000D01*
X72791580Y-44172095D02*
X71791580Y-44172095D01*
X71791580Y-43791142D01*
X71839200Y-43695904D01*
X71886819Y-43648285D01*
X71982057Y-43600666D01*
X72124914Y-43600666D01*
X72220152Y-43648285D01*
X72267771Y-43695904D01*
X72315390Y-43791142D01*
X72315390Y-44172095D01*
X71886819Y-43219714D02*
X71839200Y-43172095D01*
X71791580Y-43076857D01*
X71791580Y-42838761D01*
X71839200Y-42743523D01*
X71886819Y-42695904D01*
X71982057Y-42648285D01*
X72077295Y-42648285D01*
X72220152Y-42695904D01*
X72791580Y-43267333D01*
X72791580Y-42648285D01*
G04 #@! TO.C,R3*
X190088780Y-48782266D02*
X189612590Y-49115600D01*
X190088780Y-49353695D02*
X189088780Y-49353695D01*
X189088780Y-48972742D01*
X189136400Y-48877504D01*
X189184019Y-48829885D01*
X189279257Y-48782266D01*
X189422114Y-48782266D01*
X189517352Y-48829885D01*
X189564971Y-48877504D01*
X189612590Y-48972742D01*
X189612590Y-49353695D01*
X189088780Y-48448933D02*
X189088780Y-47829885D01*
X189469733Y-48163219D01*
X189469733Y-48020361D01*
X189517352Y-47925123D01*
X189564971Y-47877504D01*
X189660209Y-47829885D01*
X189898304Y-47829885D01*
X189993542Y-47877504D01*
X190041161Y-47925123D01*
X190088780Y-48020361D01*
X190088780Y-48306076D01*
X190041161Y-48401314D01*
X189993542Y-48448933D01*
G04 #@! TO.C,R4*
X183484780Y-48629866D02*
X183008590Y-48963200D01*
X183484780Y-49201295D02*
X182484780Y-49201295D01*
X182484780Y-48820342D01*
X182532400Y-48725104D01*
X182580019Y-48677485D01*
X182675257Y-48629866D01*
X182818114Y-48629866D01*
X182913352Y-48677485D01*
X182960971Y-48725104D01*
X183008590Y-48820342D01*
X183008590Y-49201295D01*
X182818114Y-47772723D02*
X183484780Y-47772723D01*
X182437161Y-48010819D02*
X183151447Y-48248914D01*
X183151447Y-47629866D01*
G04 #@! TO.C,R5*
X68036761Y-57388418D02*
X67703428Y-56912228D01*
X67465332Y-57388418D02*
X67465332Y-56388418D01*
X67846285Y-56388418D01*
X67941523Y-56436038D01*
X67989142Y-56483657D01*
X68036761Y-56578895D01*
X68036761Y-56721752D01*
X67989142Y-56816990D01*
X67941523Y-56864609D01*
X67846285Y-56912228D01*
X67465332Y-56912228D01*
X68941523Y-56388418D02*
X68465332Y-56388418D01*
X68417713Y-56864609D01*
X68465332Y-56816990D01*
X68560570Y-56769371D01*
X68798666Y-56769371D01*
X68893904Y-56816990D01*
X68941523Y-56864609D01*
X68989142Y-56959847D01*
X68989142Y-57197942D01*
X68941523Y-57293180D01*
X68893904Y-57340799D01*
X68798666Y-57388418D01*
X68560570Y-57388418D01*
X68465332Y-57340799D01*
X68417713Y-57293180D01*
G04 #@! TO.C,R7*
X83297733Y-47747180D02*
X82964400Y-47270990D01*
X82726304Y-47747180D02*
X82726304Y-46747180D01*
X83107257Y-46747180D01*
X83202495Y-46794800D01*
X83250114Y-46842419D01*
X83297733Y-46937657D01*
X83297733Y-47080514D01*
X83250114Y-47175752D01*
X83202495Y-47223371D01*
X83107257Y-47270990D01*
X82726304Y-47270990D01*
X83631066Y-46747180D02*
X84297733Y-46747180D01*
X83869161Y-47747180D01*
G04 #@! TO.C,R9*
X199121733Y-55976780D02*
X198788400Y-55500590D01*
X198550304Y-55976780D02*
X198550304Y-54976780D01*
X198931257Y-54976780D01*
X199026495Y-55024400D01*
X199074114Y-55072019D01*
X199121733Y-55167257D01*
X199121733Y-55310114D01*
X199074114Y-55405352D01*
X199026495Y-55452971D01*
X198931257Y-55500590D01*
X198550304Y-55500590D01*
X199597923Y-55976780D02*
X199788400Y-55976780D01*
X199883638Y-55929161D01*
X199931257Y-55881542D01*
X200026495Y-55738685D01*
X200074114Y-55548209D01*
X200074114Y-55167257D01*
X200026495Y-55072019D01*
X199978876Y-55024400D01*
X199883638Y-54976780D01*
X199693161Y-54976780D01*
X199597923Y-55024400D01*
X199550304Y-55072019D01*
X199502685Y-55167257D01*
X199502685Y-55405352D01*
X199550304Y-55500590D01*
X199597923Y-55548209D01*
X199693161Y-55595828D01*
X199883638Y-55595828D01*
X199978876Y-55548209D01*
X200026495Y-55500590D01*
X200074114Y-55405352D01*
G04 #@! TO.C,R10*
X159811980Y-45397657D02*
X159335790Y-45730990D01*
X159811980Y-45969085D02*
X158811980Y-45969085D01*
X158811980Y-45588133D01*
X158859600Y-45492895D01*
X158907219Y-45445276D01*
X159002457Y-45397657D01*
X159145314Y-45397657D01*
X159240552Y-45445276D01*
X159288171Y-45492895D01*
X159335790Y-45588133D01*
X159335790Y-45969085D01*
X159811980Y-44445276D02*
X159811980Y-45016704D01*
X159811980Y-44730990D02*
X158811980Y-44730990D01*
X158954838Y-44826228D01*
X159050076Y-44921466D01*
X159097695Y-45016704D01*
X158811980Y-43826228D02*
X158811980Y-43730990D01*
X158859600Y-43635752D01*
X158907219Y-43588133D01*
X159002457Y-43540514D01*
X159192933Y-43492895D01*
X159431028Y-43492895D01*
X159621504Y-43540514D01*
X159716742Y-43588133D01*
X159764361Y-43635752D01*
X159811980Y-43730990D01*
X159811980Y-43826228D01*
X159764361Y-43921466D01*
X159716742Y-43969085D01*
X159621504Y-44016704D01*
X159431028Y-44064323D01*
X159192933Y-44064323D01*
X159002457Y-44016704D01*
X158907219Y-43969085D01*
X158859600Y-43921466D01*
X158811980Y-43826228D01*
G04 #@! TO.C,R11*
X154376380Y-45042057D02*
X153900190Y-45375390D01*
X154376380Y-45613485D02*
X153376380Y-45613485D01*
X153376380Y-45232533D01*
X153424000Y-45137295D01*
X153471619Y-45089676D01*
X153566857Y-45042057D01*
X153709714Y-45042057D01*
X153804952Y-45089676D01*
X153852571Y-45137295D01*
X153900190Y-45232533D01*
X153900190Y-45613485D01*
X154376380Y-44089676D02*
X154376380Y-44661104D01*
X154376380Y-44375390D02*
X153376380Y-44375390D01*
X153519238Y-44470628D01*
X153614476Y-44565866D01*
X153662095Y-44661104D01*
X154376380Y-43137295D02*
X154376380Y-43708723D01*
X154376380Y-43423009D02*
X153376380Y-43423009D01*
X153519238Y-43518247D01*
X153614476Y-43613485D01*
X153662095Y-43708723D01*
G04 #@! TO.C,R12*
X149042380Y-45296057D02*
X148566190Y-45629390D01*
X149042380Y-45867485D02*
X148042380Y-45867485D01*
X148042380Y-45486533D01*
X148090000Y-45391295D01*
X148137619Y-45343676D01*
X148232857Y-45296057D01*
X148375714Y-45296057D01*
X148470952Y-45343676D01*
X148518571Y-45391295D01*
X148566190Y-45486533D01*
X148566190Y-45867485D01*
X149042380Y-44343676D02*
X149042380Y-44915104D01*
X149042380Y-44629390D02*
X148042380Y-44629390D01*
X148185238Y-44724628D01*
X148280476Y-44819866D01*
X148328095Y-44915104D01*
X148137619Y-43962723D02*
X148090000Y-43915104D01*
X148042380Y-43819866D01*
X148042380Y-43581771D01*
X148090000Y-43486533D01*
X148137619Y-43438914D01*
X148232857Y-43391295D01*
X148328095Y-43391295D01*
X148470952Y-43438914D01*
X149042380Y-44010342D01*
X149042380Y-43391295D01*
G04 #@! TO.C,R14*
X138983980Y-45397657D02*
X138507790Y-45730990D01*
X138983980Y-45969085D02*
X137983980Y-45969085D01*
X137983980Y-45588133D01*
X138031600Y-45492895D01*
X138079219Y-45445276D01*
X138174457Y-45397657D01*
X138317314Y-45397657D01*
X138412552Y-45445276D01*
X138460171Y-45492895D01*
X138507790Y-45588133D01*
X138507790Y-45969085D01*
X138983980Y-44445276D02*
X138983980Y-45016704D01*
X138983980Y-44730990D02*
X137983980Y-44730990D01*
X138126838Y-44826228D01*
X138222076Y-44921466D01*
X138269695Y-45016704D01*
X138317314Y-43588133D02*
X138983980Y-43588133D01*
X137936361Y-43826228D02*
X138650647Y-44064323D01*
X138650647Y-43445276D01*
G04 #@! TO.C,R13*
X144063980Y-45296057D02*
X143587790Y-45629390D01*
X144063980Y-45867485D02*
X143063980Y-45867485D01*
X143063980Y-45486533D01*
X143111600Y-45391295D01*
X143159219Y-45343676D01*
X143254457Y-45296057D01*
X143397314Y-45296057D01*
X143492552Y-45343676D01*
X143540171Y-45391295D01*
X143587790Y-45486533D01*
X143587790Y-45867485D01*
X144063980Y-44343676D02*
X144063980Y-44915104D01*
X144063980Y-44629390D02*
X143063980Y-44629390D01*
X143206838Y-44724628D01*
X143302076Y-44819866D01*
X143349695Y-44915104D01*
X143063980Y-44010342D02*
X143063980Y-43391295D01*
X143444933Y-43724628D01*
X143444933Y-43581771D01*
X143492552Y-43486533D01*
X143540171Y-43438914D01*
X143635409Y-43391295D01*
X143873504Y-43391295D01*
X143968742Y-43438914D01*
X144016361Y-43486533D01*
X144063980Y-43581771D01*
X144063980Y-43867485D01*
X144016361Y-43962723D01*
X143968742Y-44010342D01*
G04 #@! TO.C,J1*
D15*
X81142341Y-41349913D02*
X81142341Y-42064306D01*
X81094715Y-42207185D01*
X80999463Y-42302437D01*
X80856584Y-42350063D01*
X80761332Y-42350063D01*
X82142491Y-42350063D02*
X81570977Y-42350063D01*
X81856734Y-42350063D02*
X81856734Y-41349913D01*
X81761482Y-41492792D01*
X81666229Y-41588044D01*
X81570977Y-41635670D01*
G04 #@! TD*
M02*
