G04 #@! TF.GenerationSoftware,KiCad,Pcbnew,5.0.2+dfsg1-1*
G04 #@! TF.CreationDate,2021-01-13T15:08:11+01:00*
G04 #@! TF.ProjectId,ErgoDOX,4572676f-444f-4582-9e6b-696361645f70,rev?*
G04 #@! TF.SameCoordinates,Original*
G04 #@! TF.FileFunction,Soldermask,Top*
G04 #@! TF.FilePolarity,Negative*
%FSLAX46Y46*%
G04 Gerber Fmt 4.6, Leading zero omitted, Abs format (unit mm)*
G04 Created by KiCad (PCBNEW 5.0.2+dfsg1-1) date Wed 13 Jan 2021 03:08:11 PM CET*
%MOMM*%
%LPD*%
G01*
G04 APERTURE LIST*
%ADD10C,0.150000*%
G04 APERTURE END LIST*
D10*
G36*
X201157798Y-56178917D02*
X201205764Y-56193467D01*
X201249967Y-56217095D01*
X201288710Y-56248890D01*
X201320505Y-56287633D01*
X201344133Y-56331836D01*
X201358683Y-56379802D01*
X201364200Y-56435820D01*
X201364200Y-58067380D01*
X201358683Y-58123398D01*
X201344133Y-58171364D01*
X201320505Y-58215567D01*
X201288710Y-58254310D01*
X201249967Y-58286105D01*
X201205764Y-58309733D01*
X201157798Y-58324283D01*
X201101780Y-58329800D01*
X199970220Y-58329800D01*
X199914202Y-58324283D01*
X199866236Y-58309733D01*
X199822033Y-58286105D01*
X199783290Y-58254310D01*
X199751495Y-58215567D01*
X199727867Y-58171364D01*
X199713317Y-58123398D01*
X199707800Y-58067380D01*
X199707800Y-56435820D01*
X199713317Y-56379802D01*
X199727867Y-56331836D01*
X199751495Y-56287633D01*
X199783290Y-56248890D01*
X199822033Y-56217095D01*
X199866236Y-56193467D01*
X199914202Y-56178917D01*
X199970220Y-56173400D01*
X201101780Y-56173400D01*
X201157798Y-56178917D01*
X201157798Y-56178917D01*
G37*
G36*
X198357798Y-56178917D02*
X198405764Y-56193467D01*
X198449967Y-56217095D01*
X198488710Y-56248890D01*
X198520505Y-56287633D01*
X198544133Y-56331836D01*
X198558683Y-56379802D01*
X198564200Y-56435820D01*
X198564200Y-58067380D01*
X198558683Y-58123398D01*
X198544133Y-58171364D01*
X198520505Y-58215567D01*
X198488710Y-58254310D01*
X198449967Y-58286105D01*
X198405764Y-58309733D01*
X198357798Y-58324283D01*
X198301780Y-58329800D01*
X197170220Y-58329800D01*
X197114202Y-58324283D01*
X197066236Y-58309733D01*
X197022033Y-58286105D01*
X196983290Y-58254310D01*
X196951495Y-58215567D01*
X196927867Y-58171364D01*
X196913317Y-58123398D01*
X196907800Y-58067380D01*
X196907800Y-56435820D01*
X196913317Y-56379802D01*
X196927867Y-56331836D01*
X196951495Y-56287633D01*
X196983290Y-56248890D01*
X197022033Y-56217095D01*
X197066236Y-56193467D01*
X197114202Y-56178917D01*
X197170220Y-56173400D01*
X198301780Y-56173400D01*
X198357798Y-56178917D01*
X198357798Y-56178917D01*
G37*
G36*
X203254059Y-56213639D02*
X203254062Y-56213640D01*
X203254063Y-56213640D01*
X203452592Y-56273863D01*
X203452594Y-56273864D01*
X203452597Y-56273865D01*
X203635558Y-56371659D01*
X203795928Y-56503272D01*
X203927541Y-56663642D01*
X204025335Y-56846603D01*
X204085561Y-57045141D01*
X204105895Y-57251600D01*
X204085561Y-57458059D01*
X204085560Y-57458062D01*
X204085560Y-57458063D01*
X204028454Y-57646318D01*
X204025335Y-57656597D01*
X203927541Y-57839558D01*
X203795928Y-57999928D01*
X203635558Y-58131541D01*
X203452597Y-58229335D01*
X203452594Y-58229336D01*
X203452592Y-58229337D01*
X203254063Y-58289560D01*
X203254062Y-58289560D01*
X203254059Y-58289561D01*
X203099334Y-58304800D01*
X202995866Y-58304800D01*
X202841141Y-58289561D01*
X202841138Y-58289560D01*
X202841137Y-58289560D01*
X202642608Y-58229337D01*
X202642606Y-58229336D01*
X202642603Y-58229335D01*
X202459642Y-58131541D01*
X202299272Y-57999928D01*
X202167659Y-57839558D01*
X202069865Y-57656597D01*
X202066747Y-57646318D01*
X202009640Y-57458063D01*
X202009640Y-57458062D01*
X202009639Y-57458059D01*
X201989305Y-57251600D01*
X202009639Y-57045141D01*
X202069865Y-56846603D01*
X202167659Y-56663642D01*
X202299272Y-56503272D01*
X202459642Y-56371659D01*
X202642603Y-56273865D01*
X202642606Y-56273864D01*
X202642608Y-56273863D01*
X202841137Y-56213640D01*
X202841138Y-56213640D01*
X202841141Y-56213639D01*
X202995866Y-56198400D01*
X203099334Y-56198400D01*
X203254059Y-56213639D01*
X203254059Y-56213639D01*
G37*
G36*
X84570226Y-55757855D02*
X84618192Y-55772405D01*
X84662395Y-55796033D01*
X84701138Y-55827828D01*
X84732933Y-55866571D01*
X84756561Y-55910774D01*
X84771111Y-55958740D01*
X84776628Y-56014758D01*
X84776628Y-57646318D01*
X84771111Y-57702336D01*
X84756561Y-57750302D01*
X84732933Y-57794505D01*
X84701138Y-57833248D01*
X84662395Y-57865043D01*
X84618192Y-57888671D01*
X84570226Y-57903221D01*
X84514208Y-57908738D01*
X83382648Y-57908738D01*
X83326630Y-57903221D01*
X83278664Y-57888671D01*
X83234461Y-57865043D01*
X83195718Y-57833248D01*
X83163923Y-57794505D01*
X83140295Y-57750302D01*
X83125745Y-57702336D01*
X83120228Y-57646318D01*
X83120228Y-56014758D01*
X83125745Y-55958740D01*
X83140295Y-55910774D01*
X83163923Y-55866571D01*
X83195718Y-55827828D01*
X83234461Y-55796033D01*
X83278664Y-55772405D01*
X83326630Y-55757855D01*
X83382648Y-55752338D01*
X84514208Y-55752338D01*
X84570226Y-55757855D01*
X84570226Y-55757855D01*
G37*
G36*
X87370226Y-55757855D02*
X87418192Y-55772405D01*
X87462395Y-55796033D01*
X87501138Y-55827828D01*
X87532933Y-55866571D01*
X87556561Y-55910774D01*
X87571111Y-55958740D01*
X87576628Y-56014758D01*
X87576628Y-57646318D01*
X87571111Y-57702336D01*
X87556561Y-57750302D01*
X87532933Y-57794505D01*
X87501138Y-57833248D01*
X87462395Y-57865043D01*
X87418192Y-57888671D01*
X87370226Y-57903221D01*
X87314208Y-57908738D01*
X86182648Y-57908738D01*
X86126630Y-57903221D01*
X86078664Y-57888671D01*
X86034461Y-57865043D01*
X85995718Y-57833248D01*
X85963923Y-57794505D01*
X85940295Y-57750302D01*
X85925745Y-57702336D01*
X85920228Y-57646318D01*
X85920228Y-56014758D01*
X85925745Y-55958740D01*
X85940295Y-55910774D01*
X85963923Y-55866571D01*
X85995718Y-55827828D01*
X86034461Y-55796033D01*
X86078664Y-55772405D01*
X86126630Y-55757855D01*
X86182648Y-55752338D01*
X87314208Y-55752338D01*
X87370226Y-55757855D01*
X87370226Y-55757855D01*
G37*
G36*
X79107798Y-55670917D02*
X79155764Y-55685467D01*
X79199967Y-55709095D01*
X79238710Y-55740890D01*
X79270505Y-55779633D01*
X79294133Y-55823836D01*
X79308683Y-55871802D01*
X79314200Y-55927820D01*
X79314200Y-57559380D01*
X79308683Y-57615398D01*
X79294133Y-57663364D01*
X79270505Y-57707567D01*
X79238710Y-57746310D01*
X79199967Y-57778105D01*
X79155764Y-57801733D01*
X79107798Y-57816283D01*
X79051780Y-57821800D01*
X77920220Y-57821800D01*
X77864202Y-57816283D01*
X77816236Y-57801733D01*
X77772033Y-57778105D01*
X77733290Y-57746310D01*
X77701495Y-57707567D01*
X77677867Y-57663364D01*
X77663317Y-57615398D01*
X77657800Y-57559380D01*
X77657800Y-55927820D01*
X77663317Y-55871802D01*
X77677867Y-55823836D01*
X77701495Y-55779633D01*
X77733290Y-55740890D01*
X77772033Y-55709095D01*
X77816236Y-55685467D01*
X77864202Y-55670917D01*
X77920220Y-55665400D01*
X79051780Y-55665400D01*
X79107798Y-55670917D01*
X79107798Y-55670917D01*
G37*
G36*
X76307798Y-55670917D02*
X76355764Y-55685467D01*
X76399967Y-55709095D01*
X76438710Y-55740890D01*
X76470505Y-55779633D01*
X76494133Y-55823836D01*
X76508683Y-55871802D01*
X76514200Y-55927820D01*
X76514200Y-57559380D01*
X76508683Y-57615398D01*
X76494133Y-57663364D01*
X76470505Y-57707567D01*
X76438710Y-57746310D01*
X76399967Y-57778105D01*
X76355764Y-57801733D01*
X76307798Y-57816283D01*
X76251780Y-57821800D01*
X75120220Y-57821800D01*
X75064202Y-57816283D01*
X75016236Y-57801733D01*
X74972033Y-57778105D01*
X74933290Y-57746310D01*
X74901495Y-57707567D01*
X74877867Y-57663364D01*
X74863317Y-57615398D01*
X74857800Y-57559380D01*
X74857800Y-55927820D01*
X74863317Y-55871802D01*
X74877867Y-55823836D01*
X74901495Y-55779633D01*
X74933290Y-55740890D01*
X74972033Y-55709095D01*
X75016236Y-55685467D01*
X75064202Y-55670917D01*
X75120220Y-55665400D01*
X76251780Y-55665400D01*
X76307798Y-55670917D01*
X76307798Y-55670917D01*
G37*
G36*
X188452960Y-52327983D02*
X188900894Y-52417082D01*
X189392846Y-52620855D01*
X189835590Y-52916687D01*
X190212113Y-53293210D01*
X190507945Y-53735954D01*
X190711718Y-54227906D01*
X190780601Y-54574208D01*
X190815600Y-54750157D01*
X190815600Y-55282643D01*
X190812235Y-55299558D01*
X190711718Y-55804894D01*
X190507945Y-56296846D01*
X190212113Y-56739590D01*
X189835590Y-57116113D01*
X189392846Y-57411945D01*
X188900894Y-57615718D01*
X188465434Y-57702336D01*
X188378643Y-57719600D01*
X187846157Y-57719600D01*
X187759366Y-57702336D01*
X187323906Y-57615718D01*
X186831954Y-57411945D01*
X186389210Y-57116113D01*
X186012687Y-56739590D01*
X185716855Y-56296846D01*
X185513082Y-55804894D01*
X185412565Y-55299558D01*
X185409200Y-55282643D01*
X185409200Y-54750157D01*
X185444199Y-54574208D01*
X185513082Y-54227906D01*
X185716855Y-53735954D01*
X186012687Y-53293210D01*
X186389210Y-52916687D01*
X186831954Y-52620855D01*
X187323906Y-52417082D01*
X187771840Y-52327983D01*
X187846157Y-52313200D01*
X188378643Y-52313200D01*
X188452960Y-52327983D01*
X188452960Y-52327983D01*
G37*
G36*
X177176800Y-57695200D02*
X175070400Y-57695200D01*
X175070400Y-55588800D01*
X177176800Y-55588800D01*
X177176800Y-57695200D01*
X177176800Y-57695200D01*
G37*
G36*
X180072400Y-57695200D02*
X177966000Y-57695200D01*
X177966000Y-55588800D01*
X180072400Y-55588800D01*
X180072400Y-57695200D01*
X180072400Y-57695200D01*
G37*
G36*
X158888800Y-57695200D02*
X156782400Y-57695200D01*
X156782400Y-55588800D01*
X158888800Y-55588800D01*
X158888800Y-57695200D01*
X158888800Y-57695200D01*
G37*
G36*
X170268000Y-57695200D02*
X168161600Y-57695200D01*
X168161600Y-55588800D01*
X170268000Y-55588800D01*
X170268000Y-57695200D01*
X170268000Y-57695200D01*
G37*
G36*
X167423200Y-57695200D02*
X165316800Y-57695200D01*
X165316800Y-55588800D01*
X167423200Y-55588800D01*
X167423200Y-57695200D01*
X167423200Y-57695200D01*
G37*
G36*
X164578400Y-57695200D02*
X162472000Y-57695200D01*
X162472000Y-55588800D01*
X164578400Y-55588800D01*
X164578400Y-57695200D01*
X164578400Y-57695200D01*
G37*
G36*
X161733600Y-57695200D02*
X159627200Y-57695200D01*
X159627200Y-55588800D01*
X161733600Y-55588800D01*
X161733600Y-57695200D01*
X161733600Y-57695200D01*
G37*
G36*
X82537226Y-55820355D02*
X82585192Y-55834905D01*
X82629395Y-55858533D01*
X82668138Y-55890328D01*
X82699933Y-55929071D01*
X82723561Y-55973274D01*
X82738111Y-56021240D01*
X82743628Y-56077258D01*
X82743628Y-57208818D01*
X82738111Y-57264836D01*
X82723561Y-57312802D01*
X82699933Y-57357005D01*
X82668138Y-57395748D01*
X82629395Y-57427543D01*
X82585192Y-57451171D01*
X82537226Y-57465721D01*
X82481208Y-57471238D01*
X80849648Y-57471238D01*
X80793630Y-57465721D01*
X80745664Y-57451171D01*
X80701461Y-57427543D01*
X80662718Y-57395748D01*
X80630923Y-57357005D01*
X80607295Y-57312802D01*
X80592745Y-57264836D01*
X80587228Y-57208818D01*
X80587228Y-56077258D01*
X80592745Y-56021240D01*
X80607295Y-55973274D01*
X80630923Y-55929071D01*
X80662718Y-55890328D01*
X80701461Y-55858533D01*
X80745664Y-55834905D01*
X80793630Y-55820355D01*
X80849648Y-55814838D01*
X82481208Y-55814838D01*
X82537226Y-55820355D01*
X82537226Y-55820355D01*
G37*
G36*
X67425226Y-54043355D02*
X67473192Y-54057905D01*
X67517395Y-54081533D01*
X67556138Y-54113328D01*
X67587933Y-54152071D01*
X67611561Y-54196274D01*
X67626111Y-54244240D01*
X67631628Y-54300258D01*
X67631628Y-55931818D01*
X67626111Y-55987836D01*
X67611561Y-56035802D01*
X67587933Y-56080005D01*
X67556138Y-56118748D01*
X67517395Y-56150543D01*
X67473192Y-56174171D01*
X67425226Y-56188721D01*
X67369208Y-56194238D01*
X66237648Y-56194238D01*
X66181630Y-56188721D01*
X66133664Y-56174171D01*
X66089461Y-56150543D01*
X66050718Y-56118748D01*
X66018923Y-56080005D01*
X65995295Y-56035802D01*
X65980745Y-55987836D01*
X65975228Y-55931818D01*
X65975228Y-54300258D01*
X65980745Y-54244240D01*
X65995295Y-54196274D01*
X66018923Y-54152071D01*
X66050718Y-54113328D01*
X66089461Y-54081533D01*
X66133664Y-54057905D01*
X66181630Y-54043355D01*
X66237648Y-54037838D01*
X67369208Y-54037838D01*
X67425226Y-54043355D01*
X67425226Y-54043355D01*
G37*
G36*
X70225226Y-54043355D02*
X70273192Y-54057905D01*
X70317395Y-54081533D01*
X70356138Y-54113328D01*
X70387933Y-54152071D01*
X70411561Y-54196274D01*
X70426111Y-54244240D01*
X70431628Y-54300258D01*
X70431628Y-55931818D01*
X70426111Y-55987836D01*
X70411561Y-56035802D01*
X70387933Y-56080005D01*
X70356138Y-56118748D01*
X70317395Y-56150543D01*
X70273192Y-56174171D01*
X70225226Y-56188721D01*
X70169208Y-56194238D01*
X69037648Y-56194238D01*
X68981630Y-56188721D01*
X68933664Y-56174171D01*
X68889461Y-56150543D01*
X68850718Y-56118748D01*
X68818923Y-56080005D01*
X68795295Y-56035802D01*
X68780745Y-55987836D01*
X68775228Y-55931818D01*
X68775228Y-54300258D01*
X68780745Y-54244240D01*
X68795295Y-54196274D01*
X68818923Y-54152071D01*
X68850718Y-54113328D01*
X68889461Y-54081533D01*
X68933664Y-54057905D01*
X68981630Y-54043355D01*
X69037648Y-54037838D01*
X70169208Y-54037838D01*
X70225226Y-54043355D01*
X70225226Y-54043355D01*
G37*
G36*
X203254059Y-53673639D02*
X203254062Y-53673640D01*
X203254063Y-53673640D01*
X203452592Y-53733863D01*
X203452594Y-53733864D01*
X203452597Y-53733865D01*
X203635558Y-53831659D01*
X203795928Y-53963272D01*
X203927541Y-54123642D01*
X204025335Y-54306603D01*
X204025336Y-54306606D01*
X204025337Y-54306608D01*
X204044299Y-54369118D01*
X204085561Y-54505141D01*
X204105895Y-54711600D01*
X204085561Y-54918059D01*
X204025335Y-55116597D01*
X203927541Y-55299558D01*
X203795928Y-55459928D01*
X203635558Y-55591541D01*
X203452597Y-55689335D01*
X203452594Y-55689336D01*
X203452592Y-55689337D01*
X203254063Y-55749560D01*
X203254062Y-55749560D01*
X203254059Y-55749561D01*
X203099334Y-55764800D01*
X202995866Y-55764800D01*
X202841141Y-55749561D01*
X202841138Y-55749560D01*
X202841137Y-55749560D01*
X202642608Y-55689337D01*
X202642606Y-55689336D01*
X202642603Y-55689335D01*
X202459642Y-55591541D01*
X202299272Y-55459928D01*
X202167659Y-55299558D01*
X202069865Y-55116597D01*
X202009639Y-54918059D01*
X201989305Y-54711600D01*
X202009639Y-54505141D01*
X202050901Y-54369118D01*
X202069863Y-54306608D01*
X202069864Y-54306606D01*
X202069865Y-54306603D01*
X202167659Y-54123642D01*
X202299272Y-53963272D01*
X202459642Y-53831659D01*
X202642603Y-53733865D01*
X202642606Y-53733864D01*
X202642608Y-53733863D01*
X202841137Y-53673640D01*
X202841138Y-53673640D01*
X202841141Y-53673639D01*
X202995866Y-53658400D01*
X203099334Y-53658400D01*
X203254059Y-53673639D01*
X203254059Y-53673639D01*
G37*
G36*
X74090128Y-55138238D02*
X72483728Y-55138238D01*
X72483728Y-46076838D01*
X74090128Y-46076838D01*
X74090128Y-55138238D01*
X74090128Y-55138238D01*
G37*
G36*
X79290128Y-55138238D02*
X77683728Y-55138238D01*
X77683728Y-46076838D01*
X79290128Y-46076838D01*
X79290128Y-55138238D01*
X79290128Y-55138238D01*
G37*
G36*
X87618226Y-52773355D02*
X87666192Y-52787905D01*
X87710395Y-52811533D01*
X87749138Y-52843328D01*
X87780933Y-52882071D01*
X87804561Y-52926274D01*
X87819111Y-52974240D01*
X87824628Y-53030258D01*
X87824628Y-54661818D01*
X87819111Y-54717836D01*
X87804561Y-54765802D01*
X87780933Y-54810005D01*
X87749138Y-54848748D01*
X87710395Y-54880543D01*
X87666192Y-54904171D01*
X87618226Y-54918721D01*
X87562208Y-54924238D01*
X86430648Y-54924238D01*
X86374630Y-54918721D01*
X86326664Y-54904171D01*
X86282461Y-54880543D01*
X86243718Y-54848748D01*
X86211923Y-54810005D01*
X86188295Y-54765802D01*
X86173745Y-54717836D01*
X86168228Y-54661818D01*
X86168228Y-53030258D01*
X86173745Y-52974240D01*
X86188295Y-52926274D01*
X86211923Y-52882071D01*
X86243718Y-52843328D01*
X86282461Y-52811533D01*
X86326664Y-52787905D01*
X86374630Y-52773355D01*
X86430648Y-52767838D01*
X87562208Y-52767838D01*
X87618226Y-52773355D01*
X87618226Y-52773355D01*
G37*
G36*
X90418226Y-52773355D02*
X90466192Y-52787905D01*
X90510395Y-52811533D01*
X90549138Y-52843328D01*
X90580933Y-52882071D01*
X90604561Y-52926274D01*
X90619111Y-52974240D01*
X90624628Y-53030258D01*
X90624628Y-54661818D01*
X90619111Y-54717836D01*
X90604561Y-54765802D01*
X90580933Y-54810005D01*
X90549138Y-54848748D01*
X90510395Y-54880543D01*
X90466192Y-54904171D01*
X90418226Y-54918721D01*
X90362208Y-54924238D01*
X89230648Y-54924238D01*
X89174630Y-54918721D01*
X89126664Y-54904171D01*
X89082461Y-54880543D01*
X89043718Y-54848748D01*
X89011923Y-54810005D01*
X88988295Y-54765802D01*
X88973745Y-54717836D01*
X88968228Y-54661818D01*
X88968228Y-53030258D01*
X88973745Y-52974240D01*
X88988295Y-52926274D01*
X89011923Y-52882071D01*
X89043718Y-52843328D01*
X89082461Y-52811533D01*
X89126664Y-52787905D01*
X89174630Y-52773355D01*
X89230648Y-52767838D01*
X90362208Y-52767838D01*
X90418226Y-52773355D01*
X90418226Y-52773355D01*
G37*
G36*
X101281600Y-54799600D02*
X99175200Y-54799600D01*
X99175200Y-52693200D01*
X101281600Y-52693200D01*
X101281600Y-54799600D01*
X101281600Y-54799600D01*
G37*
G36*
X119468000Y-54799600D02*
X117361600Y-54799600D01*
X117361600Y-52693200D01*
X119468000Y-52693200D01*
X119468000Y-54799600D01*
X119468000Y-54799600D01*
G37*
G36*
X113829200Y-54799600D02*
X111722800Y-54799600D01*
X111722800Y-52693200D01*
X113829200Y-52693200D01*
X113829200Y-54799600D01*
X113829200Y-54799600D01*
G37*
G36*
X108647600Y-54799600D02*
X106541200Y-54799600D01*
X106541200Y-52693200D01*
X108647600Y-52693200D01*
X108647600Y-54799600D01*
X108647600Y-54799600D01*
G37*
G36*
X116674000Y-54799600D02*
X114567600Y-54799600D01*
X114567600Y-52693200D01*
X116674000Y-52693200D01*
X116674000Y-54799600D01*
X116674000Y-54799600D01*
G37*
G36*
X122312800Y-54799600D02*
X120206400Y-54799600D01*
X120206400Y-52693200D01*
X122312800Y-52693200D01*
X122312800Y-54799600D01*
X122312800Y-54799600D01*
G37*
G36*
X82537226Y-53020355D02*
X82585192Y-53034905D01*
X82629395Y-53058533D01*
X82668138Y-53090328D01*
X82699933Y-53129071D01*
X82723561Y-53173274D01*
X82738111Y-53221240D01*
X82743628Y-53277258D01*
X82743628Y-54408818D01*
X82738111Y-54464836D01*
X82723561Y-54512802D01*
X82699933Y-54557005D01*
X82668138Y-54595748D01*
X82629395Y-54627543D01*
X82585192Y-54651171D01*
X82537226Y-54665721D01*
X82481208Y-54671238D01*
X80849648Y-54671238D01*
X80793630Y-54665721D01*
X80745664Y-54651171D01*
X80701461Y-54627543D01*
X80662718Y-54595748D01*
X80630923Y-54557005D01*
X80607295Y-54512802D01*
X80592745Y-54464836D01*
X80587228Y-54408818D01*
X80587228Y-53277258D01*
X80592745Y-53221240D01*
X80607295Y-53173274D01*
X80630923Y-53129071D01*
X80662718Y-53090328D01*
X80701461Y-53058533D01*
X80745664Y-53034905D01*
X80793630Y-53020355D01*
X80849648Y-53014838D01*
X82481208Y-53014838D01*
X82537226Y-53020355D01*
X82537226Y-53020355D01*
G37*
G36*
X200789314Y-54482155D02*
X199782914Y-54482155D01*
X199782914Y-52575755D01*
X200789314Y-52575755D01*
X200789314Y-54482155D01*
X200789314Y-54482155D01*
G37*
G36*
X199519314Y-54482155D02*
X198512914Y-54482155D01*
X198512914Y-52575755D01*
X199519314Y-52575755D01*
X199519314Y-54482155D01*
X199519314Y-54482155D01*
G37*
G36*
X198249314Y-54482155D02*
X197242914Y-54482155D01*
X197242914Y-52575755D01*
X198249314Y-52575755D01*
X198249314Y-54482155D01*
X198249314Y-54482155D01*
G37*
G36*
X196979314Y-54482155D02*
X195972914Y-54482155D01*
X195972914Y-52575755D01*
X196979314Y-52575755D01*
X196979314Y-54482155D01*
X196979314Y-54482155D01*
G37*
G36*
X194439314Y-54482155D02*
X193432914Y-54482155D01*
X193432914Y-52575755D01*
X194439314Y-52575755D01*
X194439314Y-54482155D01*
X194439314Y-54482155D01*
G37*
G36*
X195709314Y-54482155D02*
X194702914Y-54482155D01*
X194702914Y-52575755D01*
X195709314Y-52575755D01*
X195709314Y-54482155D01*
X195709314Y-54482155D01*
G37*
G36*
X193169314Y-54482155D02*
X192162914Y-54482155D01*
X192162914Y-52575755D01*
X193169314Y-52575755D01*
X193169314Y-54482155D01*
X193169314Y-54482155D01*
G37*
G36*
X204100800Y-53224800D02*
X201994400Y-53224800D01*
X201994400Y-51118400D01*
X204100800Y-51118400D01*
X204100800Y-53224800D01*
X204100800Y-53224800D01*
G37*
G36*
X85147726Y-50360355D02*
X85195692Y-50374905D01*
X85239895Y-50398533D01*
X85278638Y-50430328D01*
X85310433Y-50469071D01*
X85334061Y-50513274D01*
X85348611Y-50561240D01*
X85354128Y-50617258D01*
X85354128Y-52248818D01*
X85348611Y-52304836D01*
X85334061Y-52352802D01*
X85310433Y-52397005D01*
X85278638Y-52435748D01*
X85239895Y-52467543D01*
X85195692Y-52491171D01*
X85147726Y-52505721D01*
X85091708Y-52511238D01*
X83960148Y-52511238D01*
X83904130Y-52505721D01*
X83856164Y-52491171D01*
X83811961Y-52467543D01*
X83773218Y-52435748D01*
X83741423Y-52397005D01*
X83717795Y-52352802D01*
X83703245Y-52304836D01*
X83697728Y-52248818D01*
X83697728Y-50617258D01*
X83703245Y-50561240D01*
X83717795Y-50513274D01*
X83741423Y-50469071D01*
X83773218Y-50430328D01*
X83811961Y-50398533D01*
X83856164Y-50374905D01*
X83904130Y-50360355D01*
X83960148Y-50354838D01*
X85091708Y-50354838D01*
X85147726Y-50360355D01*
X85147726Y-50360355D01*
G37*
G36*
X87618226Y-50360355D02*
X87666192Y-50374905D01*
X87710395Y-50398533D01*
X87749138Y-50430328D01*
X87780933Y-50469071D01*
X87804561Y-50513274D01*
X87819111Y-50561240D01*
X87824628Y-50617258D01*
X87824628Y-52248818D01*
X87819111Y-52304836D01*
X87804561Y-52352802D01*
X87780933Y-52397005D01*
X87749138Y-52435748D01*
X87710395Y-52467543D01*
X87666192Y-52491171D01*
X87618226Y-52505721D01*
X87562208Y-52511238D01*
X86430648Y-52511238D01*
X86374630Y-52505721D01*
X86326664Y-52491171D01*
X86282461Y-52467543D01*
X86243718Y-52435748D01*
X86211923Y-52397005D01*
X86188295Y-52352802D01*
X86173745Y-52304836D01*
X86168228Y-52248818D01*
X86168228Y-50617258D01*
X86173745Y-50561240D01*
X86188295Y-50513274D01*
X86211923Y-50469071D01*
X86243718Y-50430328D01*
X86282461Y-50398533D01*
X86326664Y-50374905D01*
X86374630Y-50360355D01*
X86430648Y-50354838D01*
X87562208Y-50354838D01*
X87618226Y-50360355D01*
X87618226Y-50360355D01*
G37*
G36*
X90418226Y-50360355D02*
X90466192Y-50374905D01*
X90510395Y-50398533D01*
X90549138Y-50430328D01*
X90580933Y-50469071D01*
X90604561Y-50513274D01*
X90619111Y-50561240D01*
X90624628Y-50617258D01*
X90624628Y-52248818D01*
X90619111Y-52304836D01*
X90604561Y-52352802D01*
X90580933Y-52397005D01*
X90549138Y-52435748D01*
X90510395Y-52467543D01*
X90466192Y-52491171D01*
X90418226Y-52505721D01*
X90362208Y-52511238D01*
X89230648Y-52511238D01*
X89174630Y-52505721D01*
X89126664Y-52491171D01*
X89082461Y-52467543D01*
X89043718Y-52435748D01*
X89011923Y-52397005D01*
X88988295Y-52352802D01*
X88973745Y-52304836D01*
X88968228Y-52248818D01*
X88968228Y-50617258D01*
X88973745Y-50561240D01*
X88988295Y-50513274D01*
X89011923Y-50469071D01*
X89043718Y-50430328D01*
X89082461Y-50398533D01*
X89126664Y-50374905D01*
X89174630Y-50360355D01*
X89230648Y-50354838D01*
X90362208Y-50354838D01*
X90418226Y-50360355D01*
X90418226Y-50360355D01*
G37*
G36*
X82347726Y-50360355D02*
X82395692Y-50374905D01*
X82439895Y-50398533D01*
X82478638Y-50430328D01*
X82510433Y-50469071D01*
X82534061Y-50513274D01*
X82548611Y-50561240D01*
X82554128Y-50617258D01*
X82554128Y-52248818D01*
X82548611Y-52304836D01*
X82534061Y-52352802D01*
X82510433Y-52397005D01*
X82478638Y-52435748D01*
X82439895Y-52467543D01*
X82395692Y-52491171D01*
X82347726Y-52505721D01*
X82291708Y-52511238D01*
X81160148Y-52511238D01*
X81104130Y-52505721D01*
X81056164Y-52491171D01*
X81011961Y-52467543D01*
X80973218Y-52435748D01*
X80941423Y-52397005D01*
X80917795Y-52352802D01*
X80903245Y-52304836D01*
X80897728Y-52248818D01*
X80897728Y-50617258D01*
X80903245Y-50561240D01*
X80917795Y-50513274D01*
X80941423Y-50469071D01*
X80973218Y-50430328D01*
X81011961Y-50398533D01*
X81056164Y-50374905D01*
X81104130Y-50360355D01*
X81160148Y-50354838D01*
X82291708Y-50354838D01*
X82347726Y-50360355D01*
X82347726Y-50360355D01*
G37*
G36*
X175265000Y-52023600D02*
X172308600Y-52023600D01*
X172308600Y-50557200D01*
X175265000Y-50557200D01*
X175265000Y-52023600D01*
X175265000Y-52023600D01*
G37*
G36*
X68198888Y-49990153D02*
X68290966Y-50008469D01*
X68464437Y-50080323D01*
X68620558Y-50184639D01*
X68753327Y-50317408D01*
X68857643Y-50473529D01*
X68929497Y-50647000D01*
X68966128Y-50831156D01*
X68966128Y-51018920D01*
X68929497Y-51203076D01*
X68857643Y-51376547D01*
X68753327Y-51532668D01*
X68620558Y-51665437D01*
X68464437Y-51769753D01*
X68290966Y-51841607D01*
X68198888Y-51859922D01*
X68106811Y-51878238D01*
X67919045Y-51878238D01*
X67826968Y-51859922D01*
X67734890Y-51841607D01*
X67561419Y-51769753D01*
X67405298Y-51665437D01*
X67272529Y-51532668D01*
X67168213Y-51376547D01*
X67096359Y-51203076D01*
X67059728Y-51018920D01*
X67059728Y-50831156D01*
X67096359Y-50647000D01*
X67168213Y-50473529D01*
X67272529Y-50317408D01*
X67405298Y-50184639D01*
X67561419Y-50080323D01*
X67734890Y-50008469D01*
X67826968Y-49990154D01*
X67919045Y-49971838D01*
X68106811Y-49971838D01*
X68198888Y-49990153D01*
X68198888Y-49990153D01*
G37*
G36*
X133355215Y-49562076D02*
X133452123Y-49581352D01*
X133527746Y-49612676D01*
X133634692Y-49656975D01*
X133799006Y-49766766D01*
X133938734Y-49906494D01*
X134048525Y-50070808D01*
X134124148Y-50253378D01*
X134162700Y-50447192D01*
X134162700Y-50644808D01*
X134124148Y-50838622D01*
X134048525Y-51021192D01*
X133938734Y-51185506D01*
X133799006Y-51325234D01*
X133634692Y-51435025D01*
X133527746Y-51479324D01*
X133452123Y-51510648D01*
X133355215Y-51529924D01*
X133258308Y-51549200D01*
X133060692Y-51549200D01*
X132963785Y-51529924D01*
X132866877Y-51510648D01*
X132791254Y-51479324D01*
X132684308Y-51435025D01*
X132519994Y-51325234D01*
X132380266Y-51185506D01*
X132270475Y-51021192D01*
X132194852Y-50838622D01*
X132156300Y-50644808D01*
X132156300Y-50447192D01*
X132194852Y-50253378D01*
X132270475Y-50070808D01*
X132380266Y-49906494D01*
X132519994Y-49766766D01*
X132684308Y-49656975D01*
X132791254Y-49612676D01*
X132866877Y-49581352D01*
X132963785Y-49562076D01*
X133060692Y-49542800D01*
X133258308Y-49542800D01*
X133355215Y-49562076D01*
X133355215Y-49562076D01*
G37*
G36*
X115575215Y-49562076D02*
X115672123Y-49581352D01*
X115747746Y-49612676D01*
X115854692Y-49656975D01*
X116019006Y-49766766D01*
X116158734Y-49906494D01*
X116268525Y-50070808D01*
X116344148Y-50253378D01*
X116382700Y-50447192D01*
X116382700Y-50644808D01*
X116344148Y-50838622D01*
X116268525Y-51021192D01*
X116158734Y-51185506D01*
X116019006Y-51325234D01*
X115854692Y-51435025D01*
X115747746Y-51479324D01*
X115672123Y-51510648D01*
X115575215Y-51529924D01*
X115478308Y-51549200D01*
X115280692Y-51549200D01*
X115183785Y-51529924D01*
X115086877Y-51510648D01*
X115011254Y-51479324D01*
X114904308Y-51435025D01*
X114739994Y-51325234D01*
X114600266Y-51185506D01*
X114490475Y-51021192D01*
X114414852Y-50838622D01*
X114376300Y-50644808D01*
X114376300Y-50447192D01*
X114414852Y-50253378D01*
X114490475Y-50070808D01*
X114600266Y-49906494D01*
X114739994Y-49766766D01*
X114904308Y-49656975D01*
X115011254Y-49612676D01*
X115086877Y-49581352D01*
X115183785Y-49562076D01*
X115280692Y-49542800D01*
X115478308Y-49542800D01*
X115575215Y-49562076D01*
X115575215Y-49562076D01*
G37*
G36*
X113035215Y-49562076D02*
X113132123Y-49581352D01*
X113207746Y-49612676D01*
X113314692Y-49656975D01*
X113479006Y-49766766D01*
X113618734Y-49906494D01*
X113728525Y-50070808D01*
X113804148Y-50253378D01*
X113842700Y-50447192D01*
X113842700Y-50644808D01*
X113804148Y-50838622D01*
X113728525Y-51021192D01*
X113618734Y-51185506D01*
X113479006Y-51325234D01*
X113314692Y-51435025D01*
X113207746Y-51479324D01*
X113132123Y-51510648D01*
X113035215Y-51529924D01*
X112938308Y-51549200D01*
X112740692Y-51549200D01*
X112643785Y-51529924D01*
X112546877Y-51510648D01*
X112471254Y-51479324D01*
X112364308Y-51435025D01*
X112199994Y-51325234D01*
X112060266Y-51185506D01*
X111950475Y-51021192D01*
X111874852Y-50838622D01*
X111836300Y-50644808D01*
X111836300Y-50447192D01*
X111874852Y-50253378D01*
X111950475Y-50070808D01*
X112060266Y-49906494D01*
X112199994Y-49766766D01*
X112364308Y-49656975D01*
X112471254Y-49612676D01*
X112546877Y-49581352D01*
X112643785Y-49562076D01*
X112740692Y-49542800D01*
X112938308Y-49542800D01*
X113035215Y-49562076D01*
X113035215Y-49562076D01*
G37*
G36*
X102875215Y-49562076D02*
X102972123Y-49581352D01*
X103047746Y-49612676D01*
X103154692Y-49656975D01*
X103319006Y-49766766D01*
X103458734Y-49906494D01*
X103568525Y-50070808D01*
X103644148Y-50253378D01*
X103682700Y-50447192D01*
X103682700Y-50644808D01*
X103644148Y-50838622D01*
X103568525Y-51021192D01*
X103458734Y-51185506D01*
X103319006Y-51325234D01*
X103154692Y-51435025D01*
X103047746Y-51479324D01*
X102972123Y-51510648D01*
X102875215Y-51529924D01*
X102778308Y-51549200D01*
X102580692Y-51549200D01*
X102483785Y-51529924D01*
X102386877Y-51510648D01*
X102311254Y-51479324D01*
X102204308Y-51435025D01*
X102039994Y-51325234D01*
X101900266Y-51185506D01*
X101790475Y-51021192D01*
X101714852Y-50838622D01*
X101676300Y-50644808D01*
X101676300Y-50447192D01*
X101714852Y-50253378D01*
X101790475Y-50070808D01*
X101900266Y-49906494D01*
X102039994Y-49766766D01*
X102204308Y-49656975D01*
X102311254Y-49612676D01*
X102386877Y-49581352D01*
X102483785Y-49562076D01*
X102580692Y-49542800D01*
X102778308Y-49542800D01*
X102875215Y-49562076D01*
X102875215Y-49562076D01*
G37*
G36*
X105415215Y-49562076D02*
X105512123Y-49581352D01*
X105587746Y-49612676D01*
X105694692Y-49656975D01*
X105859006Y-49766766D01*
X105998734Y-49906494D01*
X106108525Y-50070808D01*
X106184148Y-50253378D01*
X106222700Y-50447192D01*
X106222700Y-50644808D01*
X106184148Y-50838622D01*
X106108525Y-51021192D01*
X105998734Y-51185506D01*
X105859006Y-51325234D01*
X105694692Y-51435025D01*
X105587746Y-51479324D01*
X105512123Y-51510648D01*
X105415215Y-51529924D01*
X105318308Y-51549200D01*
X105120692Y-51549200D01*
X105023785Y-51529924D01*
X104926877Y-51510648D01*
X104851254Y-51479324D01*
X104744308Y-51435025D01*
X104579994Y-51325234D01*
X104440266Y-51185506D01*
X104330475Y-51021192D01*
X104254852Y-50838622D01*
X104216300Y-50644808D01*
X104216300Y-50447192D01*
X104254852Y-50253378D01*
X104330475Y-50070808D01*
X104440266Y-49906494D01*
X104579994Y-49766766D01*
X104744308Y-49656975D01*
X104851254Y-49612676D01*
X104926877Y-49581352D01*
X105023785Y-49562076D01*
X105120692Y-49542800D01*
X105318308Y-49542800D01*
X105415215Y-49562076D01*
X105415215Y-49562076D01*
G37*
G36*
X110495215Y-49562076D02*
X110592123Y-49581352D01*
X110667746Y-49612676D01*
X110774692Y-49656975D01*
X110939006Y-49766766D01*
X111078734Y-49906494D01*
X111188525Y-50070808D01*
X111264148Y-50253378D01*
X111302700Y-50447192D01*
X111302700Y-50644808D01*
X111264148Y-50838622D01*
X111188525Y-51021192D01*
X111078734Y-51185506D01*
X110939006Y-51325234D01*
X110774692Y-51435025D01*
X110667746Y-51479324D01*
X110592123Y-51510648D01*
X110495215Y-51529924D01*
X110398308Y-51549200D01*
X110200692Y-51549200D01*
X110103785Y-51529924D01*
X110006877Y-51510648D01*
X109931254Y-51479324D01*
X109824308Y-51435025D01*
X109659994Y-51325234D01*
X109520266Y-51185506D01*
X109410475Y-51021192D01*
X109334852Y-50838622D01*
X109296300Y-50644808D01*
X109296300Y-50447192D01*
X109334852Y-50253378D01*
X109410475Y-50070808D01*
X109520266Y-49906494D01*
X109659994Y-49766766D01*
X109824308Y-49656975D01*
X109931254Y-49612676D01*
X110006877Y-49581352D01*
X110103785Y-49562076D01*
X110200692Y-49542800D01*
X110398308Y-49542800D01*
X110495215Y-49562076D01*
X110495215Y-49562076D01*
G37*
G36*
X101142700Y-51549200D02*
X99136300Y-51549200D01*
X99136300Y-49542800D01*
X101142700Y-49542800D01*
X101142700Y-51549200D01*
X101142700Y-51549200D01*
G37*
G36*
X128275215Y-49562076D02*
X128372123Y-49581352D01*
X128447746Y-49612676D01*
X128554692Y-49656975D01*
X128719006Y-49766766D01*
X128858734Y-49906494D01*
X128968525Y-50070808D01*
X129044148Y-50253378D01*
X129082700Y-50447192D01*
X129082700Y-50644808D01*
X129044148Y-50838622D01*
X128968525Y-51021192D01*
X128858734Y-51185506D01*
X128719006Y-51325234D01*
X128554692Y-51435025D01*
X128447746Y-51479324D01*
X128372123Y-51510648D01*
X128275215Y-51529924D01*
X128178308Y-51549200D01*
X127980692Y-51549200D01*
X127883785Y-51529924D01*
X127786877Y-51510648D01*
X127711254Y-51479324D01*
X127604308Y-51435025D01*
X127439994Y-51325234D01*
X127300266Y-51185506D01*
X127190475Y-51021192D01*
X127114852Y-50838622D01*
X127076300Y-50644808D01*
X127076300Y-50447192D01*
X127114852Y-50253378D01*
X127190475Y-50070808D01*
X127300266Y-49906494D01*
X127439994Y-49766766D01*
X127604308Y-49656975D01*
X127711254Y-49612676D01*
X127786877Y-49581352D01*
X127883785Y-49562076D01*
X127980692Y-49542800D01*
X128178308Y-49542800D01*
X128275215Y-49562076D01*
X128275215Y-49562076D01*
G37*
G36*
X130815215Y-49562076D02*
X130912123Y-49581352D01*
X130987746Y-49612676D01*
X131094692Y-49656975D01*
X131259006Y-49766766D01*
X131398734Y-49906494D01*
X131508525Y-50070808D01*
X131584148Y-50253378D01*
X131622700Y-50447192D01*
X131622700Y-50644808D01*
X131584148Y-50838622D01*
X131508525Y-51021192D01*
X131398734Y-51185506D01*
X131259006Y-51325234D01*
X131094692Y-51435025D01*
X130987746Y-51479324D01*
X130912123Y-51510648D01*
X130815215Y-51529924D01*
X130718308Y-51549200D01*
X130520692Y-51549200D01*
X130423785Y-51529924D01*
X130326877Y-51510648D01*
X130251254Y-51479324D01*
X130144308Y-51435025D01*
X129979994Y-51325234D01*
X129840266Y-51185506D01*
X129730475Y-51021192D01*
X129654852Y-50838622D01*
X129616300Y-50644808D01*
X129616300Y-50447192D01*
X129654852Y-50253378D01*
X129730475Y-50070808D01*
X129840266Y-49906494D01*
X129979994Y-49766766D01*
X130144308Y-49656975D01*
X130251254Y-49612676D01*
X130326877Y-49581352D01*
X130423785Y-49562076D01*
X130520692Y-49542800D01*
X130718308Y-49542800D01*
X130815215Y-49562076D01*
X130815215Y-49562076D01*
G37*
G36*
X107955215Y-49562076D02*
X108052123Y-49581352D01*
X108127746Y-49612676D01*
X108234692Y-49656975D01*
X108399006Y-49766766D01*
X108538734Y-49906494D01*
X108648525Y-50070808D01*
X108724148Y-50253378D01*
X108762700Y-50447192D01*
X108762700Y-50644808D01*
X108724148Y-50838622D01*
X108648525Y-51021192D01*
X108538734Y-51185506D01*
X108399006Y-51325234D01*
X108234692Y-51435025D01*
X108127746Y-51479324D01*
X108052123Y-51510648D01*
X107955215Y-51529924D01*
X107858308Y-51549200D01*
X107660692Y-51549200D01*
X107563785Y-51529924D01*
X107466877Y-51510648D01*
X107391254Y-51479324D01*
X107284308Y-51435025D01*
X107119994Y-51325234D01*
X106980266Y-51185506D01*
X106870475Y-51021192D01*
X106794852Y-50838622D01*
X106756300Y-50644808D01*
X106756300Y-50447192D01*
X106794852Y-50253378D01*
X106870475Y-50070808D01*
X106980266Y-49906494D01*
X107119994Y-49766766D01*
X107284308Y-49656975D01*
X107391254Y-49612676D01*
X107466877Y-49581352D01*
X107563785Y-49562076D01*
X107660692Y-49542800D01*
X107858308Y-49542800D01*
X107955215Y-49562076D01*
X107955215Y-49562076D01*
G37*
G36*
X120655215Y-49562076D02*
X120752123Y-49581352D01*
X120827746Y-49612676D01*
X120934692Y-49656975D01*
X121099006Y-49766766D01*
X121238734Y-49906494D01*
X121348525Y-50070808D01*
X121424148Y-50253378D01*
X121462700Y-50447192D01*
X121462700Y-50644808D01*
X121424148Y-50838622D01*
X121348525Y-51021192D01*
X121238734Y-51185506D01*
X121099006Y-51325234D01*
X120934692Y-51435025D01*
X120827746Y-51479324D01*
X120752123Y-51510648D01*
X120655215Y-51529924D01*
X120558308Y-51549200D01*
X120360692Y-51549200D01*
X120263785Y-51529924D01*
X120166877Y-51510648D01*
X120091254Y-51479324D01*
X119984308Y-51435025D01*
X119819994Y-51325234D01*
X119680266Y-51185506D01*
X119570475Y-51021192D01*
X119494852Y-50838622D01*
X119456300Y-50644808D01*
X119456300Y-50447192D01*
X119494852Y-50253378D01*
X119570475Y-50070808D01*
X119680266Y-49906494D01*
X119819994Y-49766766D01*
X119984308Y-49656975D01*
X120091254Y-49612676D01*
X120166877Y-49581352D01*
X120263785Y-49562076D01*
X120360692Y-49542800D01*
X120558308Y-49542800D01*
X120655215Y-49562076D01*
X120655215Y-49562076D01*
G37*
G36*
X118115215Y-49562076D02*
X118212123Y-49581352D01*
X118287746Y-49612676D01*
X118394692Y-49656975D01*
X118559006Y-49766766D01*
X118698734Y-49906494D01*
X118808525Y-50070808D01*
X118884148Y-50253378D01*
X118922700Y-50447192D01*
X118922700Y-50644808D01*
X118884148Y-50838622D01*
X118808525Y-51021192D01*
X118698734Y-51185506D01*
X118559006Y-51325234D01*
X118394692Y-51435025D01*
X118287746Y-51479324D01*
X118212123Y-51510648D01*
X118115215Y-51529924D01*
X118018308Y-51549200D01*
X117820692Y-51549200D01*
X117723785Y-51529924D01*
X117626877Y-51510648D01*
X117551254Y-51479324D01*
X117444308Y-51435025D01*
X117279994Y-51325234D01*
X117140266Y-51185506D01*
X117030475Y-51021192D01*
X116954852Y-50838622D01*
X116916300Y-50644808D01*
X116916300Y-50447192D01*
X116954852Y-50253378D01*
X117030475Y-50070808D01*
X117140266Y-49906494D01*
X117279994Y-49766766D01*
X117444308Y-49656975D01*
X117551254Y-49612676D01*
X117626877Y-49581352D01*
X117723785Y-49562076D01*
X117820692Y-49542800D01*
X118018308Y-49542800D01*
X118115215Y-49562076D01*
X118115215Y-49562076D01*
G37*
G36*
X125735215Y-49562076D02*
X125832123Y-49581352D01*
X125907746Y-49612676D01*
X126014692Y-49656975D01*
X126179006Y-49766766D01*
X126318734Y-49906494D01*
X126428525Y-50070808D01*
X126504148Y-50253378D01*
X126542700Y-50447192D01*
X126542700Y-50644808D01*
X126504148Y-50838622D01*
X126428525Y-51021192D01*
X126318734Y-51185506D01*
X126179006Y-51325234D01*
X126014692Y-51435025D01*
X125907746Y-51479324D01*
X125832123Y-51510648D01*
X125735215Y-51529924D01*
X125638308Y-51549200D01*
X125440692Y-51549200D01*
X125343785Y-51529924D01*
X125246877Y-51510648D01*
X125171254Y-51479324D01*
X125064308Y-51435025D01*
X124899994Y-51325234D01*
X124760266Y-51185506D01*
X124650475Y-51021192D01*
X124574852Y-50838622D01*
X124536300Y-50644808D01*
X124536300Y-50447192D01*
X124574852Y-50253378D01*
X124650475Y-50070808D01*
X124760266Y-49906494D01*
X124899994Y-49766766D01*
X125064308Y-49656975D01*
X125171254Y-49612676D01*
X125246877Y-49581352D01*
X125343785Y-49562076D01*
X125440692Y-49542800D01*
X125638308Y-49542800D01*
X125735215Y-49562076D01*
X125735215Y-49562076D01*
G37*
G36*
X123195215Y-49562076D02*
X123292123Y-49581352D01*
X123367746Y-49612676D01*
X123474692Y-49656975D01*
X123639006Y-49766766D01*
X123778734Y-49906494D01*
X123888525Y-50070808D01*
X123964148Y-50253378D01*
X124002700Y-50447192D01*
X124002700Y-50644808D01*
X123964148Y-50838622D01*
X123888525Y-51021192D01*
X123778734Y-51185506D01*
X123639006Y-51325234D01*
X123474692Y-51435025D01*
X123367746Y-51479324D01*
X123292123Y-51510648D01*
X123195215Y-51529924D01*
X123098308Y-51549200D01*
X122900692Y-51549200D01*
X122803785Y-51529924D01*
X122706877Y-51510648D01*
X122631254Y-51479324D01*
X122524308Y-51435025D01*
X122359994Y-51325234D01*
X122220266Y-51185506D01*
X122110475Y-51021192D01*
X122034852Y-50838622D01*
X121996300Y-50644808D01*
X121996300Y-50447192D01*
X122034852Y-50253378D01*
X122110475Y-50070808D01*
X122220266Y-49906494D01*
X122359994Y-49766766D01*
X122524308Y-49656975D01*
X122631254Y-49612676D01*
X122706877Y-49581352D01*
X122803785Y-49562076D01*
X122900692Y-49542800D01*
X123098308Y-49542800D01*
X123195215Y-49562076D01*
X123195215Y-49562076D01*
G37*
G36*
X203766998Y-48888117D02*
X203814964Y-48902667D01*
X203859167Y-48926295D01*
X203897910Y-48958090D01*
X203929705Y-48996833D01*
X203953333Y-49041036D01*
X203967883Y-49089002D01*
X203973400Y-49145020D01*
X203973400Y-50276580D01*
X203967883Y-50332598D01*
X203953333Y-50380564D01*
X203929705Y-50424767D01*
X203897910Y-50463510D01*
X203859167Y-50495305D01*
X203814964Y-50518933D01*
X203766998Y-50533483D01*
X203710980Y-50539000D01*
X202079420Y-50539000D01*
X202023402Y-50533483D01*
X201975436Y-50518933D01*
X201931233Y-50495305D01*
X201892490Y-50463510D01*
X201860695Y-50424767D01*
X201837067Y-50380564D01*
X201822517Y-50332598D01*
X201817000Y-50276580D01*
X201817000Y-49145020D01*
X201822517Y-49089002D01*
X201837067Y-49041036D01*
X201860695Y-48996833D01*
X201892490Y-48958090D01*
X201931233Y-48926295D01*
X201975436Y-48902667D01*
X202023402Y-48888117D01*
X202079420Y-48882600D01*
X203710980Y-48882600D01*
X203766998Y-48888117D01*
X203766998Y-48888117D01*
G37*
G36*
X90418226Y-47947355D02*
X90466192Y-47961905D01*
X90510395Y-47985533D01*
X90549138Y-48017328D01*
X90580933Y-48056071D01*
X90604561Y-48100274D01*
X90619111Y-48148240D01*
X90624628Y-48204258D01*
X90624628Y-49835818D01*
X90619111Y-49891836D01*
X90604561Y-49939802D01*
X90580933Y-49984005D01*
X90549138Y-50022748D01*
X90510395Y-50054543D01*
X90466192Y-50078171D01*
X90418226Y-50092721D01*
X90362208Y-50098238D01*
X89230648Y-50098238D01*
X89174630Y-50092721D01*
X89126664Y-50078171D01*
X89082461Y-50054543D01*
X89043718Y-50022748D01*
X89011923Y-49984005D01*
X88988295Y-49939802D01*
X88973745Y-49891836D01*
X88968228Y-49835818D01*
X88968228Y-48204258D01*
X88973745Y-48148240D01*
X88988295Y-48100274D01*
X89011923Y-48056071D01*
X89043718Y-48017328D01*
X89082461Y-47985533D01*
X89126664Y-47961905D01*
X89174630Y-47947355D01*
X89230648Y-47941838D01*
X90362208Y-47941838D01*
X90418226Y-47947355D01*
X90418226Y-47947355D01*
G37*
G36*
X85211226Y-47947355D02*
X85259192Y-47961905D01*
X85303395Y-47985533D01*
X85342138Y-48017328D01*
X85373933Y-48056071D01*
X85397561Y-48100274D01*
X85412111Y-48148240D01*
X85417628Y-48204258D01*
X85417628Y-49835818D01*
X85412111Y-49891836D01*
X85397561Y-49939802D01*
X85373933Y-49984005D01*
X85342138Y-50022748D01*
X85303395Y-50054543D01*
X85259192Y-50078171D01*
X85211226Y-50092721D01*
X85155208Y-50098238D01*
X84023648Y-50098238D01*
X83967630Y-50092721D01*
X83919664Y-50078171D01*
X83875461Y-50054543D01*
X83836718Y-50022748D01*
X83804923Y-49984005D01*
X83781295Y-49939802D01*
X83766745Y-49891836D01*
X83761228Y-49835818D01*
X83761228Y-48204258D01*
X83766745Y-48148240D01*
X83781295Y-48100274D01*
X83804923Y-48056071D01*
X83836718Y-48017328D01*
X83875461Y-47985533D01*
X83919664Y-47961905D01*
X83967630Y-47947355D01*
X84023648Y-47941838D01*
X85155208Y-47941838D01*
X85211226Y-47947355D01*
X85211226Y-47947355D01*
G37*
G36*
X82411226Y-47947355D02*
X82459192Y-47961905D01*
X82503395Y-47985533D01*
X82542138Y-48017328D01*
X82573933Y-48056071D01*
X82597561Y-48100274D01*
X82612111Y-48148240D01*
X82617628Y-48204258D01*
X82617628Y-49835818D01*
X82612111Y-49891836D01*
X82597561Y-49939802D01*
X82573933Y-49984005D01*
X82542138Y-50022748D01*
X82503395Y-50054543D01*
X82459192Y-50078171D01*
X82411226Y-50092721D01*
X82355208Y-50098238D01*
X81223648Y-50098238D01*
X81167630Y-50092721D01*
X81119664Y-50078171D01*
X81075461Y-50054543D01*
X81036718Y-50022748D01*
X81004923Y-49984005D01*
X80981295Y-49939802D01*
X80966745Y-49891836D01*
X80961228Y-49835818D01*
X80961228Y-48204258D01*
X80966745Y-48148240D01*
X80981295Y-48100274D01*
X81004923Y-48056071D01*
X81036718Y-48017328D01*
X81075461Y-47985533D01*
X81119664Y-47961905D01*
X81167630Y-47947355D01*
X81223648Y-47941838D01*
X82355208Y-47941838D01*
X82411226Y-47947355D01*
X82411226Y-47947355D01*
G37*
G36*
X87618226Y-47947355D02*
X87666192Y-47961905D01*
X87710395Y-47985533D01*
X87749138Y-48017328D01*
X87780933Y-48056071D01*
X87804561Y-48100274D01*
X87819111Y-48148240D01*
X87824628Y-48204258D01*
X87824628Y-49835818D01*
X87819111Y-49891836D01*
X87804561Y-49939802D01*
X87780933Y-49984005D01*
X87749138Y-50022748D01*
X87710395Y-50054543D01*
X87666192Y-50078171D01*
X87618226Y-50092721D01*
X87562208Y-50098238D01*
X86430648Y-50098238D01*
X86374630Y-50092721D01*
X86326664Y-50078171D01*
X86282461Y-50054543D01*
X86243718Y-50022748D01*
X86211923Y-49984005D01*
X86188295Y-49939802D01*
X86173745Y-49891836D01*
X86168228Y-49835818D01*
X86168228Y-48204258D01*
X86173745Y-48148240D01*
X86188295Y-48100274D01*
X86211923Y-48056071D01*
X86243718Y-48017328D01*
X86282461Y-47985533D01*
X86326664Y-47961905D01*
X86374630Y-47947355D01*
X86430648Y-47941838D01*
X87562208Y-47941838D01*
X87618226Y-47947355D01*
X87618226Y-47947355D01*
G37*
G36*
X175265000Y-49823600D02*
X172308600Y-49823600D01*
X172308600Y-48357200D01*
X175265000Y-48357200D01*
X175265000Y-49823600D01*
X175265000Y-49823600D01*
G37*
G36*
X194439314Y-49082155D02*
X193432914Y-49082155D01*
X193432914Y-47175755D01*
X194439314Y-47175755D01*
X194439314Y-49082155D01*
X194439314Y-49082155D01*
G37*
G36*
X200789314Y-49082155D02*
X199782914Y-49082155D01*
X199782914Y-47175755D01*
X200789314Y-47175755D01*
X200789314Y-49082155D01*
X200789314Y-49082155D01*
G37*
G36*
X199519314Y-49082155D02*
X198512914Y-49082155D01*
X198512914Y-47175755D01*
X199519314Y-47175755D01*
X199519314Y-49082155D01*
X199519314Y-49082155D01*
G37*
G36*
X196979314Y-49082155D02*
X195972914Y-49082155D01*
X195972914Y-47175755D01*
X196979314Y-47175755D01*
X196979314Y-49082155D01*
X196979314Y-49082155D01*
G37*
G36*
X195709314Y-49082155D02*
X194702914Y-49082155D01*
X194702914Y-47175755D01*
X195709314Y-47175755D01*
X195709314Y-49082155D01*
X195709314Y-49082155D01*
G37*
G36*
X193169314Y-49082155D02*
X192162914Y-49082155D01*
X192162914Y-47175755D01*
X193169314Y-47175755D01*
X193169314Y-49082155D01*
X193169314Y-49082155D01*
G37*
G36*
X198249314Y-49082155D02*
X197242914Y-49082155D01*
X197242914Y-47175755D01*
X198249314Y-47175755D01*
X198249314Y-49082155D01*
X198249314Y-49082155D01*
G37*
G36*
X203766998Y-46088117D02*
X203814964Y-46102667D01*
X203859167Y-46126295D01*
X203897910Y-46158090D01*
X203929705Y-46196833D01*
X203953333Y-46241036D01*
X203967883Y-46289002D01*
X203973400Y-46345020D01*
X203973400Y-47476580D01*
X203967883Y-47532598D01*
X203953333Y-47580564D01*
X203929705Y-47624767D01*
X203897910Y-47663510D01*
X203859167Y-47695305D01*
X203814964Y-47718933D01*
X203766998Y-47733483D01*
X203710980Y-47739000D01*
X202079420Y-47739000D01*
X202023402Y-47733483D01*
X201975436Y-47718933D01*
X201931233Y-47695305D01*
X201892490Y-47663510D01*
X201860695Y-47624767D01*
X201837067Y-47580564D01*
X201822517Y-47532598D01*
X201817000Y-47476580D01*
X201817000Y-46345020D01*
X201822517Y-46289002D01*
X201837067Y-46241036D01*
X201860695Y-46196833D01*
X201892490Y-46158090D01*
X201931233Y-46126295D01*
X201975436Y-46102667D01*
X202023402Y-46088117D01*
X202079420Y-46082600D01*
X203710980Y-46082600D01*
X203766998Y-46088117D01*
X203766998Y-46088117D01*
G37*
G36*
X87618226Y-45470855D02*
X87666192Y-45485405D01*
X87710395Y-45509033D01*
X87749138Y-45540828D01*
X87780933Y-45579571D01*
X87804561Y-45623774D01*
X87819111Y-45671740D01*
X87824628Y-45727758D01*
X87824628Y-47359318D01*
X87819111Y-47415336D01*
X87804561Y-47463302D01*
X87780933Y-47507505D01*
X87749138Y-47546248D01*
X87710395Y-47578043D01*
X87666192Y-47601671D01*
X87618226Y-47616221D01*
X87562208Y-47621738D01*
X86430648Y-47621738D01*
X86374630Y-47616221D01*
X86326664Y-47601671D01*
X86282461Y-47578043D01*
X86243718Y-47546248D01*
X86211923Y-47507505D01*
X86188295Y-47463302D01*
X86173745Y-47415336D01*
X86168228Y-47359318D01*
X86168228Y-45727758D01*
X86173745Y-45671740D01*
X86188295Y-45623774D01*
X86211923Y-45579571D01*
X86243718Y-45540828D01*
X86282461Y-45509033D01*
X86326664Y-45485405D01*
X86374630Y-45470855D01*
X86430648Y-45465338D01*
X87562208Y-45465338D01*
X87618226Y-45470855D01*
X87618226Y-45470855D01*
G37*
G36*
X90418226Y-45470855D02*
X90466192Y-45485405D01*
X90510395Y-45509033D01*
X90549138Y-45540828D01*
X90580933Y-45579571D01*
X90604561Y-45623774D01*
X90619111Y-45671740D01*
X90624628Y-45727758D01*
X90624628Y-47359318D01*
X90619111Y-47415336D01*
X90604561Y-47463302D01*
X90580933Y-47507505D01*
X90549138Y-47546248D01*
X90510395Y-47578043D01*
X90466192Y-47601671D01*
X90418226Y-47616221D01*
X90362208Y-47621738D01*
X89230648Y-47621738D01*
X89174630Y-47616221D01*
X89126664Y-47601671D01*
X89082461Y-47578043D01*
X89043718Y-47546248D01*
X89011923Y-47507505D01*
X88988295Y-47463302D01*
X88973745Y-47415336D01*
X88968228Y-47359318D01*
X88968228Y-45727758D01*
X88973745Y-45671740D01*
X88988295Y-45623774D01*
X89011923Y-45579571D01*
X89043718Y-45540828D01*
X89082461Y-45509033D01*
X89126664Y-45485405D01*
X89174630Y-45470855D01*
X89230648Y-45465338D01*
X90362208Y-45465338D01*
X90418226Y-45470855D01*
X90418226Y-45470855D01*
G37*
G36*
X190508198Y-45840117D02*
X190556164Y-45854667D01*
X190600367Y-45878295D01*
X190639110Y-45910090D01*
X190670905Y-45948833D01*
X190694533Y-45993036D01*
X190709083Y-46041002D01*
X190714600Y-46097020D01*
X190714600Y-47228580D01*
X190709083Y-47284598D01*
X190694533Y-47332564D01*
X190670905Y-47376767D01*
X190639110Y-47415510D01*
X190600367Y-47447305D01*
X190556164Y-47470933D01*
X190508198Y-47485483D01*
X190452180Y-47491000D01*
X188820620Y-47491000D01*
X188764602Y-47485483D01*
X188716636Y-47470933D01*
X188672433Y-47447305D01*
X188633690Y-47415510D01*
X188601895Y-47376767D01*
X188578267Y-47332564D01*
X188563717Y-47284598D01*
X188558200Y-47228580D01*
X188558200Y-46097020D01*
X188563717Y-46041002D01*
X188578267Y-45993036D01*
X188601895Y-45948833D01*
X188633690Y-45910090D01*
X188672433Y-45878295D01*
X188716636Y-45854667D01*
X188764602Y-45840117D01*
X188820620Y-45834600D01*
X190452180Y-45834600D01*
X190508198Y-45840117D01*
X190508198Y-45840117D01*
G37*
G36*
X184056598Y-45840117D02*
X184104564Y-45854667D01*
X184148767Y-45878295D01*
X184187510Y-45910090D01*
X184219305Y-45948833D01*
X184242933Y-45993036D01*
X184257483Y-46041002D01*
X184263000Y-46097020D01*
X184263000Y-47228580D01*
X184257483Y-47284598D01*
X184242933Y-47332564D01*
X184219305Y-47376767D01*
X184187510Y-47415510D01*
X184148767Y-47447305D01*
X184104564Y-47470933D01*
X184056598Y-47485483D01*
X184000580Y-47491000D01*
X182369020Y-47491000D01*
X182313002Y-47485483D01*
X182265036Y-47470933D01*
X182220833Y-47447305D01*
X182182090Y-47415510D01*
X182150295Y-47376767D01*
X182126667Y-47332564D01*
X182112117Y-47284598D01*
X182106600Y-47228580D01*
X182106600Y-46097020D01*
X182112117Y-46041002D01*
X182126667Y-45993036D01*
X182150295Y-45948833D01*
X182182090Y-45910090D01*
X182220833Y-45878295D01*
X182265036Y-45854667D01*
X182313002Y-45840117D01*
X182369020Y-45834600D01*
X184000580Y-45834600D01*
X184056598Y-45840117D01*
X184056598Y-45840117D01*
G37*
G36*
X177363837Y-45633747D02*
X177530756Y-45702887D01*
X177680984Y-45803266D01*
X177808734Y-45931016D01*
X177909113Y-46081244D01*
X177978253Y-46248163D01*
X178013500Y-46425362D01*
X178013500Y-46606038D01*
X177978253Y-46783237D01*
X177909113Y-46950156D01*
X177808734Y-47100384D01*
X177680984Y-47228134D01*
X177530756Y-47328513D01*
X177363837Y-47397653D01*
X177186638Y-47432900D01*
X177005962Y-47432900D01*
X176828763Y-47397653D01*
X176661844Y-47328513D01*
X176511616Y-47228134D01*
X176383866Y-47100384D01*
X176283487Y-46950156D01*
X176214347Y-46783237D01*
X176179100Y-46606038D01*
X176179100Y-46425362D01*
X176214347Y-46248163D01*
X176283487Y-46081244D01*
X176383866Y-45931016D01*
X176511616Y-45803266D01*
X176661844Y-45702887D01*
X176828763Y-45633747D01*
X177005962Y-45598500D01*
X177186638Y-45598500D01*
X177363837Y-45633747D01*
X177363837Y-45633747D01*
G37*
G36*
X172863837Y-45633747D02*
X173030756Y-45702887D01*
X173180984Y-45803266D01*
X173308734Y-45931016D01*
X173409113Y-46081244D01*
X173480815Y-46254348D01*
X173492366Y-46275959D01*
X173507912Y-46294901D01*
X173526854Y-46310447D01*
X173548465Y-46321998D01*
X173571914Y-46329111D01*
X173596300Y-46331513D01*
X173620686Y-46329111D01*
X173644135Y-46321998D01*
X173665746Y-46310447D01*
X173684688Y-46294901D01*
X173700234Y-46275959D01*
X173711785Y-46254348D01*
X173783487Y-46081244D01*
X173883866Y-45931016D01*
X174011616Y-45803266D01*
X174161844Y-45702887D01*
X174328763Y-45633747D01*
X174505962Y-45598500D01*
X174686638Y-45598500D01*
X174863837Y-45633747D01*
X175030756Y-45702887D01*
X175180984Y-45803266D01*
X175308734Y-45931016D01*
X175409113Y-46081244D01*
X175478253Y-46248163D01*
X175513500Y-46425362D01*
X175513500Y-46606038D01*
X175478253Y-46783237D01*
X175409113Y-46950156D01*
X175308734Y-47100384D01*
X175180984Y-47228134D01*
X175030756Y-47328513D01*
X174863837Y-47397653D01*
X174686638Y-47432900D01*
X174505962Y-47432900D01*
X174328763Y-47397653D01*
X174161844Y-47328513D01*
X174011616Y-47228134D01*
X173883866Y-47100384D01*
X173783487Y-46950156D01*
X173711785Y-46777052D01*
X173700234Y-46755441D01*
X173684688Y-46736499D01*
X173665746Y-46720953D01*
X173644135Y-46709402D01*
X173620686Y-46702289D01*
X173596300Y-46699887D01*
X173571914Y-46702289D01*
X173548465Y-46709402D01*
X173526854Y-46720953D01*
X173507912Y-46736499D01*
X173492366Y-46755441D01*
X173480815Y-46777052D01*
X173409113Y-46950156D01*
X173308734Y-47100384D01*
X173180984Y-47228134D01*
X173030756Y-47328513D01*
X172863837Y-47397653D01*
X172686638Y-47432900D01*
X172505962Y-47432900D01*
X172328763Y-47397653D01*
X172161844Y-47328513D01*
X172011616Y-47228134D01*
X171883866Y-47100384D01*
X171783487Y-46950156D01*
X171714347Y-46783237D01*
X171679100Y-46606038D01*
X171679100Y-46425362D01*
X171714347Y-46248163D01*
X171783487Y-46081244D01*
X171883866Y-45931016D01*
X172011616Y-45803266D01*
X172161844Y-45702887D01*
X172328763Y-45633747D01*
X172505962Y-45598500D01*
X172686638Y-45598500D01*
X172863837Y-45633747D01*
X172863837Y-45633747D01*
G37*
G36*
X170363837Y-45633747D02*
X170530756Y-45702887D01*
X170680984Y-45803266D01*
X170808734Y-45931016D01*
X170909113Y-46081244D01*
X170978253Y-46248163D01*
X171013500Y-46425362D01*
X171013500Y-46606038D01*
X170978253Y-46783237D01*
X170909113Y-46950156D01*
X170808734Y-47100384D01*
X170680984Y-47228134D01*
X170530756Y-47328513D01*
X170363837Y-47397653D01*
X170186638Y-47432900D01*
X170005962Y-47432900D01*
X169828763Y-47397653D01*
X169661844Y-47328513D01*
X169511616Y-47228134D01*
X169383866Y-47100384D01*
X169283487Y-46950156D01*
X169214347Y-46783237D01*
X169179100Y-46606038D01*
X169179100Y-46425362D01*
X169214347Y-46248163D01*
X169283487Y-46081244D01*
X169383866Y-45931016D01*
X169511616Y-45803266D01*
X169661844Y-45702887D01*
X169828763Y-45633747D01*
X170005962Y-45598500D01*
X170186638Y-45598500D01*
X170363837Y-45633747D01*
X170363837Y-45633747D01*
G37*
G36*
X187711000Y-47400800D02*
X184754600Y-47400800D01*
X184754600Y-45934400D01*
X187711000Y-45934400D01*
X187711000Y-47400800D01*
X187711000Y-47400800D01*
G37*
G36*
X68198888Y-44990154D02*
X68290966Y-45008469D01*
X68464437Y-45080323D01*
X68620558Y-45184639D01*
X68753327Y-45317408D01*
X68857643Y-45473529D01*
X68929497Y-45647000D01*
X68966128Y-45831156D01*
X68966128Y-46018920D01*
X68929497Y-46203076D01*
X68857643Y-46376547D01*
X68753327Y-46532668D01*
X68620558Y-46665437D01*
X68464437Y-46769753D01*
X68290966Y-46841607D01*
X68198888Y-46859922D01*
X68106811Y-46878238D01*
X67919045Y-46878238D01*
X67826968Y-46859922D01*
X67734890Y-46841607D01*
X67561419Y-46769753D01*
X67405298Y-46665437D01*
X67272529Y-46532668D01*
X67168213Y-46376547D01*
X67096359Y-46203076D01*
X67059728Y-46018920D01*
X67059728Y-45831156D01*
X67096359Y-45647000D01*
X67168213Y-45473529D01*
X67272529Y-45317408D01*
X67405298Y-45184639D01*
X67561419Y-45080323D01*
X67734890Y-45008469D01*
X67826968Y-44990153D01*
X67919045Y-44971838D01*
X68106811Y-44971838D01*
X68198888Y-44990154D01*
X68198888Y-44990154D01*
G37*
G36*
X98652700Y-46455700D02*
X96546300Y-46455700D01*
X96546300Y-44349300D01*
X98652700Y-44349300D01*
X98652700Y-46455700D01*
X98652700Y-46455700D01*
G37*
G36*
X167254668Y-41953462D02*
X167569192Y-42016024D01*
X167907909Y-42156326D01*
X168212746Y-42360011D01*
X168471989Y-42619254D01*
X168675674Y-42924091D01*
X168815976Y-43262808D01*
X168887500Y-43622388D01*
X168887500Y-43989012D01*
X168815976Y-44348592D01*
X168675674Y-44687309D01*
X168471989Y-44992146D01*
X168212746Y-45251389D01*
X167907909Y-45455074D01*
X167569192Y-45595376D01*
X167309657Y-45647000D01*
X167209614Y-45666900D01*
X166842986Y-45666900D01*
X166742943Y-45647000D01*
X166483408Y-45595376D01*
X166144691Y-45455074D01*
X165839854Y-45251389D01*
X165580611Y-44992146D01*
X165376926Y-44687309D01*
X165236624Y-44348592D01*
X165165100Y-43989012D01*
X165165100Y-43622388D01*
X165236624Y-43262808D01*
X165376926Y-42924091D01*
X165580611Y-42619254D01*
X165839854Y-42360011D01*
X166144691Y-42156326D01*
X166483408Y-42016024D01*
X166797932Y-41953462D01*
X166842986Y-41944500D01*
X167209614Y-41944500D01*
X167254668Y-41953462D01*
X167254668Y-41953462D01*
G37*
G36*
X180394668Y-41953462D02*
X180709192Y-42016024D01*
X181047909Y-42156326D01*
X181352746Y-42360011D01*
X181611989Y-42619254D01*
X181815674Y-42924091D01*
X181913082Y-43159253D01*
X181924628Y-43180855D01*
X181940174Y-43199797D01*
X181959116Y-43215343D01*
X181980727Y-43226894D01*
X182004176Y-43234007D01*
X182028562Y-43236409D01*
X182052948Y-43234007D01*
X182076397Y-43226894D01*
X182098008Y-43215343D01*
X182116950Y-43199797D01*
X182132496Y-43180855D01*
X182138802Y-43170333D01*
X182150293Y-43148834D01*
X182182090Y-43110090D01*
X182220833Y-43078295D01*
X182265036Y-43054667D01*
X182313002Y-43040117D01*
X182369020Y-43034600D01*
X184000580Y-43034600D01*
X184056598Y-43040117D01*
X184104564Y-43054667D01*
X184148767Y-43078295D01*
X184187510Y-43110090D01*
X184219305Y-43148833D01*
X184242933Y-43193036D01*
X184257483Y-43241002D01*
X184263000Y-43297020D01*
X184263000Y-44428580D01*
X184257483Y-44484598D01*
X184242933Y-44532564D01*
X184219305Y-44576767D01*
X184187510Y-44615510D01*
X184148767Y-44647305D01*
X184104564Y-44670933D01*
X184056598Y-44685483D01*
X184000580Y-44691000D01*
X182369020Y-44691000D01*
X182313002Y-44685483D01*
X182265036Y-44670933D01*
X182220833Y-44647305D01*
X182182090Y-44615510D01*
X182150295Y-44576767D01*
X182126666Y-44532562D01*
X182123703Y-44522794D01*
X182114326Y-44500156D01*
X182100712Y-44479781D01*
X182083384Y-44462454D01*
X182063010Y-44448840D01*
X182040371Y-44439463D01*
X182016337Y-44434683D01*
X181991833Y-44434683D01*
X181967799Y-44439464D01*
X181945161Y-44448841D01*
X181924786Y-44462455D01*
X181907459Y-44479783D01*
X181888605Y-44511240D01*
X181815674Y-44687309D01*
X181611989Y-44992146D01*
X181352746Y-45251389D01*
X181047909Y-45455074D01*
X180709192Y-45595376D01*
X180449657Y-45647000D01*
X180349614Y-45666900D01*
X179982986Y-45666900D01*
X179882943Y-45647000D01*
X179623408Y-45595376D01*
X179284691Y-45455074D01*
X178979854Y-45251389D01*
X178720611Y-44992146D01*
X178516926Y-44687309D01*
X178376624Y-44348592D01*
X178305100Y-43989012D01*
X178305100Y-43622388D01*
X178376624Y-43262808D01*
X178516926Y-42924091D01*
X178720611Y-42619254D01*
X178979854Y-42360011D01*
X179284691Y-42156326D01*
X179623408Y-42016024D01*
X179937932Y-41953462D01*
X179982986Y-41944500D01*
X180349614Y-41944500D01*
X180394668Y-41953462D01*
X180394668Y-41953462D01*
G37*
G36*
X187711000Y-45200800D02*
X184754600Y-45200800D01*
X184754600Y-43734400D01*
X187711000Y-43734400D01*
X187711000Y-45200800D01*
X187711000Y-45200800D01*
G37*
G36*
X82583598Y-43389016D02*
X82631564Y-43403566D01*
X82675767Y-43427194D01*
X82714510Y-43458989D01*
X82746305Y-43497732D01*
X82769933Y-43541935D01*
X82784483Y-43589901D01*
X82790000Y-43645919D01*
X82790000Y-44777479D01*
X82784483Y-44833497D01*
X82769933Y-44881463D01*
X82746305Y-44925666D01*
X82714510Y-44964409D01*
X82675767Y-44996204D01*
X82631564Y-45019832D01*
X82583598Y-45034382D01*
X82527580Y-45039899D01*
X80896020Y-45039899D01*
X80840002Y-45034382D01*
X80792036Y-45019832D01*
X80747833Y-44996204D01*
X80709090Y-44964409D01*
X80677295Y-44925666D01*
X80653667Y-44881463D01*
X80639117Y-44833497D01*
X80633600Y-44777479D01*
X80633600Y-43645919D01*
X80639117Y-43589901D01*
X80653667Y-43541935D01*
X80677295Y-43497732D01*
X80709090Y-43458989D01*
X80747833Y-43427194D01*
X80792036Y-43403566D01*
X80840002Y-43389016D01*
X80896020Y-43383499D01*
X82527580Y-43383499D01*
X82583598Y-43389016D01*
X82583598Y-43389016D01*
G37*
G36*
X75090598Y-43071516D02*
X75138564Y-43086066D01*
X75182767Y-43109694D01*
X75221510Y-43141489D01*
X75253305Y-43180232D01*
X75276933Y-43224435D01*
X75291483Y-43272401D01*
X75297000Y-43328419D01*
X75297000Y-44459979D01*
X75291483Y-44515997D01*
X75276933Y-44563963D01*
X75253305Y-44608166D01*
X75221510Y-44646909D01*
X75182767Y-44678704D01*
X75138564Y-44702332D01*
X75090598Y-44716882D01*
X75034580Y-44722399D01*
X73403020Y-44722399D01*
X73347002Y-44716882D01*
X73299036Y-44702332D01*
X73254833Y-44678704D01*
X73216090Y-44646909D01*
X73184295Y-44608166D01*
X73160667Y-44563963D01*
X73146117Y-44515997D01*
X73140600Y-44459979D01*
X73140600Y-43328419D01*
X73146117Y-43272401D01*
X73160667Y-43224435D01*
X73184295Y-43180232D01*
X73216090Y-43141489D01*
X73254833Y-43109694D01*
X73299036Y-43086066D01*
X73347002Y-43071516D01*
X73403020Y-43065999D01*
X75034580Y-43065999D01*
X75090598Y-43071516D01*
X75090598Y-43071516D01*
G37*
G36*
X190508198Y-43040117D02*
X190556164Y-43054667D01*
X190600367Y-43078295D01*
X190639110Y-43110090D01*
X190670905Y-43148833D01*
X190694533Y-43193036D01*
X190709083Y-43241002D01*
X190714600Y-43297020D01*
X190714600Y-44428580D01*
X190709083Y-44484598D01*
X190694533Y-44532564D01*
X190670905Y-44576767D01*
X190639110Y-44615510D01*
X190600367Y-44647305D01*
X190556164Y-44670933D01*
X190508198Y-44685483D01*
X190452180Y-44691000D01*
X188820620Y-44691000D01*
X188764602Y-44685483D01*
X188716636Y-44670933D01*
X188672433Y-44647305D01*
X188633690Y-44615510D01*
X188601895Y-44576767D01*
X188578267Y-44532564D01*
X188563717Y-44484598D01*
X188558200Y-44428580D01*
X188558200Y-43297020D01*
X188563717Y-43241002D01*
X188578267Y-43193036D01*
X188601895Y-43148833D01*
X188633690Y-43110090D01*
X188672433Y-43078295D01*
X188716636Y-43054667D01*
X188764602Y-43040117D01*
X188820620Y-43034600D01*
X190452180Y-43034600D01*
X190508198Y-43040117D01*
X190508198Y-43040117D01*
G37*
G36*
X80015000Y-44644900D02*
X77058600Y-44644900D01*
X77058600Y-43178500D01*
X80015000Y-43178500D01*
X80015000Y-44644900D01*
X80015000Y-44644900D01*
G37*
G36*
X98652700Y-43661700D02*
X96546300Y-43661700D01*
X96546300Y-41555300D01*
X98652700Y-41555300D01*
X98652700Y-43661700D01*
X98652700Y-43661700D01*
G37*
G36*
X144381798Y-41407817D02*
X144429764Y-41422367D01*
X144473967Y-41445995D01*
X144512710Y-41477790D01*
X144544505Y-41516533D01*
X144568133Y-41560736D01*
X144582683Y-41608702D01*
X144588200Y-41664720D01*
X144588200Y-42796280D01*
X144582683Y-42852298D01*
X144568133Y-42900264D01*
X144544505Y-42944467D01*
X144512710Y-42983210D01*
X144473967Y-43015005D01*
X144429764Y-43038633D01*
X144381798Y-43053183D01*
X144325780Y-43058700D01*
X142694220Y-43058700D01*
X142638202Y-43053183D01*
X142590236Y-43038633D01*
X142546033Y-43015005D01*
X142507290Y-42983210D01*
X142475495Y-42944467D01*
X142451867Y-42900264D01*
X142437317Y-42852298D01*
X142431800Y-42796280D01*
X142431800Y-41664720D01*
X142437317Y-41608702D01*
X142451867Y-41560736D01*
X142475495Y-41516533D01*
X142507290Y-41477790D01*
X142546033Y-41445995D01*
X142590236Y-41422367D01*
X142638202Y-41407817D01*
X142694220Y-41402300D01*
X144325780Y-41402300D01*
X144381798Y-41407817D01*
X144381798Y-41407817D01*
G37*
G36*
X160193298Y-41407817D02*
X160241264Y-41422367D01*
X160285467Y-41445995D01*
X160324210Y-41477790D01*
X160356005Y-41516533D01*
X160379633Y-41560736D01*
X160394183Y-41608702D01*
X160399700Y-41664720D01*
X160399700Y-42796280D01*
X160394183Y-42852298D01*
X160379633Y-42900264D01*
X160356005Y-42944467D01*
X160324210Y-42983210D01*
X160285467Y-43015005D01*
X160241264Y-43038633D01*
X160193298Y-43053183D01*
X160137280Y-43058700D01*
X158505720Y-43058700D01*
X158449702Y-43053183D01*
X158401736Y-43038633D01*
X158357533Y-43015005D01*
X158318790Y-42983210D01*
X158286995Y-42944467D01*
X158263367Y-42900264D01*
X158248817Y-42852298D01*
X158243300Y-42796280D01*
X158243300Y-41664720D01*
X158248817Y-41608702D01*
X158263367Y-41560736D01*
X158286995Y-41516533D01*
X158318790Y-41477790D01*
X158357533Y-41445995D01*
X158401736Y-41422367D01*
X158449702Y-41407817D01*
X158505720Y-41402300D01*
X160137280Y-41402300D01*
X160193298Y-41407817D01*
X160193298Y-41407817D01*
G37*
G36*
X154795798Y-41407817D02*
X154843764Y-41422367D01*
X154887967Y-41445995D01*
X154926710Y-41477790D01*
X154958505Y-41516533D01*
X154982133Y-41560736D01*
X154996683Y-41608702D01*
X155002200Y-41664720D01*
X155002200Y-42796280D01*
X154996683Y-42852298D01*
X154982133Y-42900264D01*
X154958505Y-42944467D01*
X154926710Y-42983210D01*
X154887967Y-43015005D01*
X154843764Y-43038633D01*
X154795798Y-43053183D01*
X154739780Y-43058700D01*
X153108220Y-43058700D01*
X153052202Y-43053183D01*
X153004236Y-43038633D01*
X152960033Y-43015005D01*
X152921290Y-42983210D01*
X152889495Y-42944467D01*
X152865867Y-42900264D01*
X152851317Y-42852298D01*
X152845800Y-42796280D01*
X152845800Y-41664720D01*
X152851317Y-41608702D01*
X152865867Y-41560736D01*
X152889495Y-41516533D01*
X152921290Y-41477790D01*
X152960033Y-41445995D01*
X153004236Y-41422367D01*
X153052202Y-41407817D01*
X153108220Y-41402300D01*
X154739780Y-41402300D01*
X154795798Y-41407817D01*
X154795798Y-41407817D01*
G37*
G36*
X149461798Y-41407817D02*
X149509764Y-41422367D01*
X149553967Y-41445995D01*
X149592710Y-41477790D01*
X149624505Y-41516533D01*
X149648133Y-41560736D01*
X149662683Y-41608702D01*
X149668200Y-41664720D01*
X149668200Y-42796280D01*
X149662683Y-42852298D01*
X149648133Y-42900264D01*
X149624505Y-42944467D01*
X149592710Y-42983210D01*
X149553967Y-43015005D01*
X149509764Y-43038633D01*
X149461798Y-43053183D01*
X149405780Y-43058700D01*
X147774220Y-43058700D01*
X147718202Y-43053183D01*
X147670236Y-43038633D01*
X147626033Y-43015005D01*
X147587290Y-42983210D01*
X147555495Y-42944467D01*
X147531867Y-42900264D01*
X147517317Y-42852298D01*
X147511800Y-42796280D01*
X147511800Y-41664720D01*
X147517317Y-41608702D01*
X147531867Y-41560736D01*
X147555495Y-41516533D01*
X147587290Y-41477790D01*
X147626033Y-41445995D01*
X147670236Y-41422367D01*
X147718202Y-41407817D01*
X147774220Y-41402300D01*
X149405780Y-41402300D01*
X149461798Y-41407817D01*
X149461798Y-41407817D01*
G37*
G36*
X139428798Y-41407817D02*
X139476764Y-41422367D01*
X139520967Y-41445995D01*
X139559710Y-41477790D01*
X139591505Y-41516533D01*
X139615133Y-41560736D01*
X139629683Y-41608702D01*
X139635200Y-41664720D01*
X139635200Y-42796280D01*
X139629683Y-42852298D01*
X139615133Y-42900264D01*
X139591505Y-42944467D01*
X139559710Y-42983210D01*
X139520967Y-43015005D01*
X139476764Y-43038633D01*
X139428798Y-43053183D01*
X139372780Y-43058700D01*
X137741220Y-43058700D01*
X137685202Y-43053183D01*
X137637236Y-43038633D01*
X137593033Y-43015005D01*
X137554290Y-42983210D01*
X137522495Y-42944467D01*
X137498867Y-42900264D01*
X137484317Y-42852298D01*
X137478800Y-42796280D01*
X137478800Y-41664720D01*
X137484317Y-41608702D01*
X137498867Y-41560736D01*
X137522495Y-41516533D01*
X137554290Y-41477790D01*
X137593033Y-41445995D01*
X137637236Y-41422367D01*
X137685202Y-41407817D01*
X137741220Y-41402300D01*
X139372780Y-41402300D01*
X139428798Y-41407817D01*
X139428798Y-41407817D01*
G37*
G36*
X70045934Y-34125455D02*
X70865464Y-34464915D01*
X71603026Y-34957738D01*
X72230262Y-35584974D01*
X72723085Y-36322536D01*
X73062545Y-37142066D01*
X73235600Y-38012072D01*
X73235600Y-38899128D01*
X73062545Y-39769134D01*
X72723085Y-40588664D01*
X72230262Y-41326226D01*
X71603026Y-41953462D01*
X70865464Y-42446285D01*
X70045934Y-42785745D01*
X69175928Y-42958800D01*
X68288872Y-42958800D01*
X67418866Y-42785745D01*
X66599336Y-42446285D01*
X65861774Y-41953462D01*
X65234538Y-41326226D01*
X64741715Y-40588664D01*
X64402255Y-39769134D01*
X64229200Y-38899128D01*
X64229200Y-38012072D01*
X64402255Y-37142066D01*
X64741715Y-36322536D01*
X65234538Y-35584974D01*
X65861774Y-34957738D01*
X66599336Y-34464915D01*
X67418866Y-34125455D01*
X68288872Y-33952400D01*
X69175928Y-33952400D01*
X70045934Y-34125455D01*
X70045934Y-34125455D01*
G37*
G36*
X201160734Y-33668255D02*
X201980264Y-34007715D01*
X202717826Y-34500538D01*
X203345062Y-35127774D01*
X203837885Y-35865336D01*
X204177345Y-36684866D01*
X204350400Y-37554872D01*
X204350400Y-38441928D01*
X204177345Y-39311934D01*
X203837885Y-40131464D01*
X203345062Y-40869026D01*
X202717826Y-41496262D01*
X201980264Y-41989085D01*
X201160734Y-42328545D01*
X200290728Y-42501600D01*
X199403672Y-42501600D01*
X198533666Y-42328545D01*
X197714136Y-41989085D01*
X196976574Y-41496262D01*
X196349338Y-40869026D01*
X195856515Y-40131464D01*
X195517055Y-39311934D01*
X195344000Y-38441928D01*
X195344000Y-37554872D01*
X195517055Y-36684866D01*
X195856515Y-35865336D01*
X196349338Y-35127774D01*
X196976574Y-34500538D01*
X197714136Y-34007715D01*
X198533666Y-33668255D01*
X199403672Y-33495200D01*
X200290728Y-33495200D01*
X201160734Y-33668255D01*
X201160734Y-33668255D01*
G37*
G36*
X80015000Y-42444900D02*
X77058600Y-42444900D01*
X77058600Y-40978500D01*
X80015000Y-40978500D01*
X80015000Y-42444900D01*
X80015000Y-42444900D01*
G37*
G36*
X82583598Y-40589018D02*
X82631564Y-40603568D01*
X82675767Y-40627196D01*
X82714510Y-40658991D01*
X82746305Y-40697734D01*
X82769933Y-40741937D01*
X82784483Y-40789903D01*
X82790000Y-40845921D01*
X82790000Y-41977481D01*
X82784483Y-42033499D01*
X82769933Y-42081465D01*
X82746305Y-42125668D01*
X82714510Y-42164411D01*
X82675767Y-42196206D01*
X82631564Y-42219834D01*
X82583598Y-42234384D01*
X82527580Y-42239901D01*
X80896020Y-42239901D01*
X80840002Y-42234384D01*
X80792036Y-42219834D01*
X80747833Y-42196206D01*
X80709090Y-42164411D01*
X80677295Y-42125668D01*
X80653667Y-42081465D01*
X80639117Y-42033499D01*
X80633600Y-41977481D01*
X80633600Y-40845921D01*
X80639117Y-40789903D01*
X80653667Y-40741937D01*
X80677295Y-40697734D01*
X80709090Y-40658991D01*
X80747833Y-40627196D01*
X80792036Y-40603568D01*
X80840002Y-40589018D01*
X80896020Y-40583501D01*
X82527580Y-40583501D01*
X82583598Y-40589018D01*
X82583598Y-40589018D01*
G37*
G36*
X75090598Y-40271518D02*
X75138564Y-40286068D01*
X75182767Y-40309696D01*
X75221510Y-40341491D01*
X75253305Y-40380234D01*
X75276933Y-40424437D01*
X75291483Y-40472403D01*
X75297000Y-40528421D01*
X75297000Y-41659981D01*
X75291483Y-41715999D01*
X75276933Y-41763965D01*
X75253305Y-41808168D01*
X75221510Y-41846911D01*
X75182767Y-41878706D01*
X75138564Y-41902334D01*
X75090598Y-41916884D01*
X75034580Y-41922401D01*
X73403020Y-41922401D01*
X73347002Y-41916884D01*
X73299036Y-41902334D01*
X73254833Y-41878706D01*
X73216090Y-41846911D01*
X73184295Y-41808168D01*
X73160667Y-41763965D01*
X73146117Y-41715999D01*
X73140600Y-41659981D01*
X73140600Y-40528421D01*
X73146117Y-40472403D01*
X73160667Y-40424437D01*
X73184295Y-40380234D01*
X73216090Y-40341491D01*
X73254833Y-40309696D01*
X73299036Y-40286068D01*
X73347002Y-40271518D01*
X73403020Y-40266001D01*
X75034580Y-40266001D01*
X75090598Y-40271518D01*
X75090598Y-40271518D01*
G37*
G36*
X192611235Y-38981156D02*
X192753971Y-39024454D01*
X192870465Y-39086723D01*
X192885513Y-39094766D01*
X192915547Y-39119414D01*
X193000812Y-39189388D01*
X193068911Y-39272369D01*
X193095434Y-39304687D01*
X193095435Y-39304689D01*
X193165746Y-39436229D01*
X193209044Y-39578965D01*
X193220000Y-39690206D01*
X193220000Y-40872594D01*
X193209044Y-40983835D01*
X193165746Y-41126571D01*
X193121484Y-41209377D01*
X193095434Y-41258113D01*
X193071176Y-41287671D01*
X193000810Y-41373414D01*
X192885513Y-41468034D01*
X192753970Y-41538346D01*
X192611234Y-41581644D01*
X192462800Y-41596263D01*
X192314365Y-41581644D01*
X192171629Y-41538346D01*
X192040089Y-41468035D01*
X192040087Y-41468034D01*
X191990717Y-41427517D01*
X191924786Y-41373410D01*
X191854425Y-41287673D01*
X191837098Y-41270345D01*
X191816724Y-41256731D01*
X191794085Y-41247354D01*
X191770051Y-41242573D01*
X191745547Y-41242573D01*
X191721513Y-41247353D01*
X191698874Y-41256730D01*
X191678500Y-41270344D01*
X191661172Y-41287671D01*
X191647558Y-41308045D01*
X191638181Y-41330684D01*
X191635200Y-41342584D01*
X191620702Y-41415471D01*
X191580886Y-41511596D01*
X191523078Y-41598111D01*
X191449511Y-41671678D01*
X191362996Y-41729486D01*
X191266871Y-41769302D01*
X191164825Y-41789600D01*
X191060775Y-41789600D01*
X190958729Y-41769302D01*
X190862604Y-41729486D01*
X190775974Y-41671601D01*
X190757246Y-41656231D01*
X190735635Y-41644680D01*
X190712186Y-41637567D01*
X190687800Y-41635165D01*
X190663414Y-41637567D01*
X190639965Y-41644680D01*
X190618354Y-41656231D01*
X190599626Y-41671601D01*
X190512996Y-41729486D01*
X190416871Y-41769302D01*
X190314825Y-41789600D01*
X190210775Y-41789600D01*
X190108729Y-41769302D01*
X190012604Y-41729486D01*
X189925974Y-41671601D01*
X189907246Y-41656231D01*
X189885635Y-41644680D01*
X189862186Y-41637567D01*
X189837800Y-41635165D01*
X189813414Y-41637567D01*
X189789965Y-41644680D01*
X189768354Y-41656231D01*
X189749626Y-41671601D01*
X189662996Y-41729486D01*
X189566871Y-41769302D01*
X189464825Y-41789600D01*
X189360775Y-41789600D01*
X189258729Y-41769302D01*
X189162604Y-41729486D01*
X189075974Y-41671601D01*
X189057246Y-41656231D01*
X189035635Y-41644680D01*
X189012186Y-41637567D01*
X188987800Y-41635165D01*
X188963414Y-41637567D01*
X188939965Y-41644680D01*
X188918354Y-41656231D01*
X188899626Y-41671601D01*
X188812996Y-41729486D01*
X188716871Y-41769302D01*
X188614825Y-41789600D01*
X188510775Y-41789600D01*
X188408729Y-41769302D01*
X188312604Y-41729486D01*
X188225974Y-41671601D01*
X188207246Y-41656231D01*
X188185635Y-41644680D01*
X188162186Y-41637567D01*
X188137800Y-41635165D01*
X188113414Y-41637567D01*
X188089965Y-41644680D01*
X188068354Y-41656231D01*
X188049626Y-41671601D01*
X187962996Y-41729486D01*
X187866871Y-41769302D01*
X187764825Y-41789600D01*
X187660775Y-41789600D01*
X187558729Y-41769302D01*
X187462604Y-41729486D01*
X187375974Y-41671601D01*
X187357246Y-41656231D01*
X187335635Y-41644680D01*
X187312186Y-41637567D01*
X187287800Y-41635165D01*
X187263414Y-41637567D01*
X187239965Y-41644680D01*
X187218354Y-41656231D01*
X187199626Y-41671601D01*
X187112996Y-41729486D01*
X187016871Y-41769302D01*
X186914825Y-41789600D01*
X186810775Y-41789600D01*
X186708729Y-41769302D01*
X186612604Y-41729486D01*
X186525974Y-41671601D01*
X186507246Y-41656231D01*
X186485635Y-41644680D01*
X186462186Y-41637567D01*
X186437800Y-41635165D01*
X186413414Y-41637567D01*
X186389965Y-41644680D01*
X186368354Y-41656231D01*
X186349626Y-41671601D01*
X186262996Y-41729486D01*
X186166871Y-41769302D01*
X186064825Y-41789600D01*
X185960775Y-41789600D01*
X185858729Y-41769302D01*
X185762604Y-41729486D01*
X185675974Y-41671601D01*
X185657246Y-41656231D01*
X185635635Y-41644680D01*
X185612186Y-41637567D01*
X185587800Y-41635165D01*
X185563414Y-41637567D01*
X185539965Y-41644680D01*
X185518354Y-41656231D01*
X185499626Y-41671601D01*
X185412996Y-41729486D01*
X185316871Y-41769302D01*
X185214825Y-41789600D01*
X185110775Y-41789600D01*
X185008729Y-41769302D01*
X184912604Y-41729486D01*
X184826089Y-41671678D01*
X184752522Y-41598111D01*
X184694714Y-41511596D01*
X184654898Y-41415471D01*
X184640400Y-41342584D01*
X184633287Y-41319135D01*
X184621736Y-41297524D01*
X184606190Y-41278582D01*
X184587248Y-41263037D01*
X184565637Y-41251486D01*
X184542188Y-41244373D01*
X184517802Y-41241971D01*
X184493415Y-41244373D01*
X184469966Y-41251486D01*
X184448355Y-41263037D01*
X184429413Y-41278583D01*
X184421175Y-41287673D01*
X184350812Y-41373412D01*
X184235513Y-41468034D01*
X184103970Y-41538346D01*
X183961234Y-41581644D01*
X183812800Y-41596263D01*
X183664365Y-41581644D01*
X183521629Y-41538346D01*
X183390089Y-41468035D01*
X183390087Y-41468034D01*
X183340717Y-41427517D01*
X183274786Y-41373410D01*
X183180166Y-41258113D01*
X183109854Y-41126570D01*
X183066556Y-40983834D01*
X183055600Y-40872593D01*
X183055600Y-40367365D01*
X184570000Y-40367365D01*
X184570000Y-40805435D01*
X184572402Y-40829821D01*
X184579515Y-40853270D01*
X184591066Y-40874881D01*
X184606612Y-40893823D01*
X184625554Y-40909369D01*
X184647165Y-40920920D01*
X184670614Y-40928033D01*
X184695000Y-40930435D01*
X184719386Y-40928033D01*
X184742835Y-40920920D01*
X184764446Y-40909369D01*
X184783388Y-40893823D01*
X184826089Y-40851122D01*
X184912604Y-40793314D01*
X185008729Y-40753498D01*
X185110775Y-40733200D01*
X185214825Y-40733200D01*
X185316871Y-40753498D01*
X185412996Y-40793314D01*
X185499626Y-40851199D01*
X185518354Y-40866569D01*
X185539965Y-40878120D01*
X185563414Y-40885233D01*
X185587800Y-40887635D01*
X185612186Y-40885233D01*
X185635635Y-40878120D01*
X185657246Y-40866569D01*
X185675974Y-40851199D01*
X185762604Y-40793314D01*
X185858729Y-40753498D01*
X185960775Y-40733200D01*
X186064825Y-40733200D01*
X186166871Y-40753498D01*
X186262996Y-40793314D01*
X186349626Y-40851199D01*
X186368354Y-40866569D01*
X186389965Y-40878120D01*
X186413414Y-40885233D01*
X186437800Y-40887635D01*
X186462186Y-40885233D01*
X186485635Y-40878120D01*
X186507246Y-40866569D01*
X186525974Y-40851199D01*
X186612604Y-40793314D01*
X186708729Y-40753498D01*
X186810775Y-40733200D01*
X186914825Y-40733200D01*
X187016871Y-40753498D01*
X187112996Y-40793314D01*
X187199626Y-40851199D01*
X187218354Y-40866569D01*
X187239965Y-40878120D01*
X187263414Y-40885233D01*
X187287800Y-40887635D01*
X187312186Y-40885233D01*
X187335635Y-40878120D01*
X187357246Y-40866569D01*
X187375974Y-40851199D01*
X187462604Y-40793314D01*
X187558729Y-40753498D01*
X187660775Y-40733200D01*
X187764825Y-40733200D01*
X187866871Y-40753498D01*
X187962996Y-40793314D01*
X188049626Y-40851199D01*
X188068354Y-40866569D01*
X188089965Y-40878120D01*
X188113414Y-40885233D01*
X188137800Y-40887635D01*
X188162186Y-40885233D01*
X188185635Y-40878120D01*
X188207246Y-40866569D01*
X188225974Y-40851199D01*
X188312604Y-40793314D01*
X188408729Y-40753498D01*
X188510775Y-40733200D01*
X188614825Y-40733200D01*
X188716871Y-40753498D01*
X188812996Y-40793314D01*
X188899626Y-40851199D01*
X188918354Y-40866569D01*
X188939965Y-40878120D01*
X188963414Y-40885233D01*
X188987800Y-40887635D01*
X189012186Y-40885233D01*
X189035635Y-40878120D01*
X189057246Y-40866569D01*
X189075974Y-40851199D01*
X189162604Y-40793314D01*
X189258729Y-40753498D01*
X189360775Y-40733200D01*
X189464825Y-40733200D01*
X189566871Y-40753498D01*
X189662996Y-40793314D01*
X189749626Y-40851199D01*
X189768354Y-40866569D01*
X189789965Y-40878120D01*
X189813414Y-40885233D01*
X189837800Y-40887635D01*
X189862186Y-40885233D01*
X189885635Y-40878120D01*
X189907246Y-40866569D01*
X189925974Y-40851199D01*
X190012604Y-40793314D01*
X190108729Y-40753498D01*
X190210775Y-40733200D01*
X190314825Y-40733200D01*
X190416871Y-40753498D01*
X190512996Y-40793314D01*
X190599626Y-40851199D01*
X190618354Y-40866569D01*
X190639965Y-40878120D01*
X190663414Y-40885233D01*
X190687800Y-40887635D01*
X190712186Y-40885233D01*
X190735635Y-40878120D01*
X190757246Y-40866569D01*
X190775974Y-40851199D01*
X190862604Y-40793314D01*
X190958729Y-40753498D01*
X191060775Y-40733200D01*
X191164825Y-40733200D01*
X191266871Y-40753498D01*
X191362996Y-40793314D01*
X191449511Y-40851122D01*
X191492212Y-40893823D01*
X191511154Y-40909369D01*
X191532765Y-40920920D01*
X191556214Y-40928033D01*
X191580600Y-40930435D01*
X191604986Y-40928033D01*
X191628435Y-40920920D01*
X191650046Y-40909369D01*
X191668988Y-40893823D01*
X191684534Y-40874881D01*
X191696085Y-40853270D01*
X191703198Y-40829821D01*
X191705600Y-40805435D01*
X191705600Y-40367365D01*
X191703198Y-40342979D01*
X191696085Y-40319530D01*
X191684534Y-40297919D01*
X191668988Y-40278977D01*
X191650046Y-40263431D01*
X191628435Y-40251880D01*
X191604986Y-40244767D01*
X191580600Y-40242365D01*
X191556214Y-40244767D01*
X191532765Y-40251880D01*
X191511154Y-40263431D01*
X191492212Y-40278977D01*
X191449511Y-40321678D01*
X191362996Y-40379486D01*
X191266871Y-40419302D01*
X191164825Y-40439600D01*
X191060775Y-40439600D01*
X190958729Y-40419302D01*
X190862604Y-40379486D01*
X190803514Y-40340003D01*
X190776092Y-40321680D01*
X190775974Y-40321601D01*
X190757246Y-40306231D01*
X190735635Y-40294680D01*
X190712186Y-40287567D01*
X190687800Y-40285165D01*
X190663414Y-40287567D01*
X190639965Y-40294680D01*
X190618354Y-40306231D01*
X190599626Y-40321601D01*
X190599508Y-40321680D01*
X190572086Y-40340003D01*
X190512996Y-40379486D01*
X190416871Y-40419302D01*
X190314825Y-40439600D01*
X190210775Y-40439600D01*
X190108729Y-40419302D01*
X190012604Y-40379486D01*
X189953514Y-40340003D01*
X189926092Y-40321680D01*
X189925974Y-40321601D01*
X189907246Y-40306231D01*
X189885635Y-40294680D01*
X189862186Y-40287567D01*
X189837800Y-40285165D01*
X189813414Y-40287567D01*
X189789965Y-40294680D01*
X189768354Y-40306231D01*
X189749626Y-40321601D01*
X189749508Y-40321680D01*
X189722086Y-40340003D01*
X189662996Y-40379486D01*
X189566871Y-40419302D01*
X189464825Y-40439600D01*
X189360775Y-40439600D01*
X189258729Y-40419302D01*
X189162604Y-40379486D01*
X189103514Y-40340003D01*
X189076092Y-40321680D01*
X189075974Y-40321601D01*
X189057246Y-40306231D01*
X189035635Y-40294680D01*
X189012186Y-40287567D01*
X188987800Y-40285165D01*
X188963414Y-40287567D01*
X188939965Y-40294680D01*
X188918354Y-40306231D01*
X188899626Y-40321601D01*
X188899508Y-40321680D01*
X188872086Y-40340003D01*
X188812996Y-40379486D01*
X188716871Y-40419302D01*
X188614825Y-40439600D01*
X188510775Y-40439600D01*
X188408729Y-40419302D01*
X188312604Y-40379486D01*
X188253514Y-40340003D01*
X188226092Y-40321680D01*
X188225974Y-40321601D01*
X188207246Y-40306231D01*
X188185635Y-40294680D01*
X188162186Y-40287567D01*
X188137800Y-40285165D01*
X188113414Y-40287567D01*
X188089965Y-40294680D01*
X188068354Y-40306231D01*
X188049626Y-40321601D01*
X188049508Y-40321680D01*
X188022086Y-40340003D01*
X187962996Y-40379486D01*
X187866871Y-40419302D01*
X187764825Y-40439600D01*
X187660775Y-40439600D01*
X187558729Y-40419302D01*
X187462604Y-40379486D01*
X187403514Y-40340003D01*
X187376092Y-40321680D01*
X187375974Y-40321601D01*
X187357246Y-40306231D01*
X187335635Y-40294680D01*
X187312186Y-40287567D01*
X187287800Y-40285165D01*
X187263414Y-40287567D01*
X187239965Y-40294680D01*
X187218354Y-40306231D01*
X187199626Y-40321601D01*
X187199508Y-40321680D01*
X187172086Y-40340003D01*
X187112996Y-40379486D01*
X187016871Y-40419302D01*
X186914825Y-40439600D01*
X186810775Y-40439600D01*
X186708729Y-40419302D01*
X186612604Y-40379486D01*
X186553514Y-40340003D01*
X186526092Y-40321680D01*
X186525974Y-40321601D01*
X186507246Y-40306231D01*
X186485635Y-40294680D01*
X186462186Y-40287567D01*
X186437800Y-40285165D01*
X186413414Y-40287567D01*
X186389965Y-40294680D01*
X186368354Y-40306231D01*
X186349626Y-40321601D01*
X186349508Y-40321680D01*
X186322086Y-40340003D01*
X186262996Y-40379486D01*
X186166871Y-40419302D01*
X186064825Y-40439600D01*
X185960775Y-40439600D01*
X185858729Y-40419302D01*
X185762604Y-40379486D01*
X185703514Y-40340003D01*
X185676092Y-40321680D01*
X185675974Y-40321601D01*
X185657246Y-40306231D01*
X185635635Y-40294680D01*
X185612186Y-40287567D01*
X185587800Y-40285165D01*
X185563414Y-40287567D01*
X185539965Y-40294680D01*
X185518354Y-40306231D01*
X185499626Y-40321601D01*
X185499508Y-40321680D01*
X185472086Y-40340003D01*
X185412996Y-40379486D01*
X185316871Y-40419302D01*
X185214825Y-40439600D01*
X185110775Y-40439600D01*
X185008729Y-40419302D01*
X184912604Y-40379486D01*
X184826089Y-40321678D01*
X184783388Y-40278977D01*
X184764446Y-40263431D01*
X184742835Y-40251880D01*
X184719386Y-40244767D01*
X184695000Y-40242365D01*
X184670614Y-40244767D01*
X184647165Y-40251880D01*
X184625554Y-40263431D01*
X184606612Y-40278977D01*
X184591066Y-40297919D01*
X184579515Y-40319530D01*
X184572402Y-40342979D01*
X184570000Y-40367365D01*
X183055600Y-40367365D01*
X183055601Y-39690206D01*
X183066557Y-39578965D01*
X183109855Y-39436229D01*
X183180166Y-39304689D01*
X183180167Y-39304687D01*
X183206690Y-39272369D01*
X183274789Y-39189388D01*
X183360054Y-39119414D01*
X183390088Y-39094766D01*
X183405136Y-39086723D01*
X183521630Y-39024454D01*
X183664366Y-38981156D01*
X183812800Y-38966537D01*
X183961235Y-38981156D01*
X184103971Y-39024454D01*
X184220465Y-39086723D01*
X184235513Y-39094766D01*
X184265547Y-39119414D01*
X184350812Y-39189388D01*
X184418911Y-39272369D01*
X184445434Y-39304687D01*
X184445435Y-39304689D01*
X184498472Y-39403912D01*
X184515746Y-39436230D01*
X184535430Y-39501120D01*
X184542541Y-39524562D01*
X184551919Y-39547201D01*
X184565533Y-39567575D01*
X184582860Y-39584902D01*
X184603234Y-39598516D01*
X184625873Y-39607894D01*
X184649907Y-39612674D01*
X184674411Y-39612674D01*
X184698445Y-39607894D01*
X184721084Y-39598516D01*
X184750547Y-39576664D01*
X184826089Y-39501122D01*
X184912604Y-39443314D01*
X185008729Y-39403498D01*
X185110775Y-39383200D01*
X185214825Y-39383200D01*
X185316871Y-39403498D01*
X185412996Y-39443314D01*
X185499626Y-39501199D01*
X185518354Y-39516569D01*
X185539965Y-39528120D01*
X185563414Y-39535233D01*
X185587800Y-39537635D01*
X185612186Y-39535233D01*
X185635635Y-39528120D01*
X185657246Y-39516569D01*
X185675974Y-39501199D01*
X185762604Y-39443314D01*
X185858729Y-39403498D01*
X185960775Y-39383200D01*
X186064825Y-39383200D01*
X186166871Y-39403498D01*
X186262996Y-39443314D01*
X186349626Y-39501199D01*
X186368354Y-39516569D01*
X186389965Y-39528120D01*
X186413414Y-39535233D01*
X186437800Y-39537635D01*
X186462186Y-39535233D01*
X186485635Y-39528120D01*
X186507246Y-39516569D01*
X186525974Y-39501199D01*
X186612604Y-39443314D01*
X186708729Y-39403498D01*
X186810775Y-39383200D01*
X186914825Y-39383200D01*
X187016871Y-39403498D01*
X187112996Y-39443314D01*
X187199626Y-39501199D01*
X187218354Y-39516569D01*
X187239965Y-39528120D01*
X187263414Y-39535233D01*
X187287800Y-39537635D01*
X187312186Y-39535233D01*
X187335635Y-39528120D01*
X187357246Y-39516569D01*
X187375974Y-39501199D01*
X187462604Y-39443314D01*
X187558729Y-39403498D01*
X187660775Y-39383200D01*
X187764825Y-39383200D01*
X187866871Y-39403498D01*
X187962996Y-39443314D01*
X188049626Y-39501199D01*
X188068354Y-39516569D01*
X188089965Y-39528120D01*
X188113414Y-39535233D01*
X188137800Y-39537635D01*
X188162186Y-39535233D01*
X188185635Y-39528120D01*
X188207246Y-39516569D01*
X188225974Y-39501199D01*
X188312604Y-39443314D01*
X188408729Y-39403498D01*
X188510775Y-39383200D01*
X188614825Y-39383200D01*
X188716871Y-39403498D01*
X188812996Y-39443314D01*
X188899626Y-39501199D01*
X188918354Y-39516569D01*
X188939965Y-39528120D01*
X188963414Y-39535233D01*
X188987800Y-39537635D01*
X189012186Y-39535233D01*
X189035635Y-39528120D01*
X189057246Y-39516569D01*
X189075974Y-39501199D01*
X189162604Y-39443314D01*
X189258729Y-39403498D01*
X189360775Y-39383200D01*
X189464825Y-39383200D01*
X189566871Y-39403498D01*
X189662996Y-39443314D01*
X189749626Y-39501199D01*
X189768354Y-39516569D01*
X189789965Y-39528120D01*
X189813414Y-39535233D01*
X189837800Y-39537635D01*
X189862186Y-39535233D01*
X189885635Y-39528120D01*
X189907246Y-39516569D01*
X189925974Y-39501199D01*
X190012604Y-39443314D01*
X190108729Y-39403498D01*
X190210775Y-39383200D01*
X190314825Y-39383200D01*
X190416871Y-39403498D01*
X190512996Y-39443314D01*
X190599626Y-39501199D01*
X190618354Y-39516569D01*
X190639965Y-39528120D01*
X190663414Y-39535233D01*
X190687800Y-39537635D01*
X190712186Y-39535233D01*
X190735635Y-39528120D01*
X190757246Y-39516569D01*
X190775974Y-39501199D01*
X190862604Y-39443314D01*
X190958729Y-39403498D01*
X191060775Y-39383200D01*
X191164825Y-39383200D01*
X191266871Y-39403498D01*
X191362996Y-39443314D01*
X191449511Y-39501122D01*
X191525054Y-39576665D01*
X191543996Y-39592211D01*
X191565607Y-39603762D01*
X191589056Y-39610875D01*
X191613442Y-39613277D01*
X191637828Y-39610875D01*
X191661277Y-39603762D01*
X191682888Y-39592211D01*
X191701830Y-39576665D01*
X191717376Y-39557723D01*
X191728927Y-39536112D01*
X191733060Y-39524562D01*
X191759855Y-39436229D01*
X191830166Y-39304689D01*
X191830167Y-39304687D01*
X191856690Y-39272369D01*
X191924789Y-39189388D01*
X192010054Y-39119414D01*
X192040088Y-39094766D01*
X192055136Y-39086723D01*
X192171630Y-39024454D01*
X192314366Y-38981156D01*
X192462800Y-38966537D01*
X192611235Y-38981156D01*
X192611235Y-38981156D01*
G37*
G36*
X154795798Y-38607817D02*
X154843764Y-38622367D01*
X154887967Y-38645995D01*
X154926710Y-38677790D01*
X154958505Y-38716533D01*
X154982133Y-38760736D01*
X154996683Y-38808702D01*
X155002200Y-38864720D01*
X155002200Y-39996280D01*
X154996683Y-40052298D01*
X154982133Y-40100264D01*
X154958505Y-40144467D01*
X154926710Y-40183210D01*
X154887967Y-40215005D01*
X154843764Y-40238633D01*
X154795798Y-40253183D01*
X154739780Y-40258700D01*
X153108220Y-40258700D01*
X153052202Y-40253183D01*
X153004236Y-40238633D01*
X152960033Y-40215005D01*
X152921290Y-40183210D01*
X152889495Y-40144467D01*
X152865867Y-40100264D01*
X152851317Y-40052298D01*
X152845800Y-39996280D01*
X152845800Y-38864720D01*
X152851317Y-38808702D01*
X152865867Y-38760736D01*
X152889495Y-38716533D01*
X152921290Y-38677790D01*
X152960033Y-38645995D01*
X153004236Y-38622367D01*
X153052202Y-38607817D01*
X153108220Y-38602300D01*
X154739780Y-38602300D01*
X154795798Y-38607817D01*
X154795798Y-38607817D01*
G37*
G36*
X139428798Y-38607817D02*
X139476764Y-38622367D01*
X139520967Y-38645995D01*
X139559710Y-38677790D01*
X139591505Y-38716533D01*
X139615133Y-38760736D01*
X139629683Y-38808702D01*
X139635200Y-38864720D01*
X139635200Y-39996280D01*
X139629683Y-40052298D01*
X139615133Y-40100264D01*
X139591505Y-40144467D01*
X139559710Y-40183210D01*
X139520967Y-40215005D01*
X139476764Y-40238633D01*
X139428798Y-40253183D01*
X139372780Y-40258700D01*
X137741220Y-40258700D01*
X137685202Y-40253183D01*
X137637236Y-40238633D01*
X137593033Y-40215005D01*
X137554290Y-40183210D01*
X137522495Y-40144467D01*
X137498867Y-40100264D01*
X137484317Y-40052298D01*
X137478800Y-39996280D01*
X137478800Y-38864720D01*
X137484317Y-38808702D01*
X137498867Y-38760736D01*
X137522495Y-38716533D01*
X137554290Y-38677790D01*
X137593033Y-38645995D01*
X137637236Y-38622367D01*
X137685202Y-38607817D01*
X137741220Y-38602300D01*
X139372780Y-38602300D01*
X139428798Y-38607817D01*
X139428798Y-38607817D01*
G37*
G36*
X149461798Y-38607817D02*
X149509764Y-38622367D01*
X149553967Y-38645995D01*
X149592710Y-38677790D01*
X149624505Y-38716533D01*
X149648133Y-38760736D01*
X149662683Y-38808702D01*
X149668200Y-38864720D01*
X149668200Y-39996280D01*
X149662683Y-40052298D01*
X149648133Y-40100264D01*
X149624505Y-40144467D01*
X149592710Y-40183210D01*
X149553967Y-40215005D01*
X149509764Y-40238633D01*
X149461798Y-40253183D01*
X149405780Y-40258700D01*
X147774220Y-40258700D01*
X147718202Y-40253183D01*
X147670236Y-40238633D01*
X147626033Y-40215005D01*
X147587290Y-40183210D01*
X147555495Y-40144467D01*
X147531867Y-40100264D01*
X147517317Y-40052298D01*
X147511800Y-39996280D01*
X147511800Y-38864720D01*
X147517317Y-38808702D01*
X147531867Y-38760736D01*
X147555495Y-38716533D01*
X147587290Y-38677790D01*
X147626033Y-38645995D01*
X147670236Y-38622367D01*
X147718202Y-38607817D01*
X147774220Y-38602300D01*
X149405780Y-38602300D01*
X149461798Y-38607817D01*
X149461798Y-38607817D01*
G37*
G36*
X160193298Y-38607817D02*
X160241264Y-38622367D01*
X160285467Y-38645995D01*
X160324210Y-38677790D01*
X160356005Y-38716533D01*
X160379633Y-38760736D01*
X160394183Y-38808702D01*
X160399700Y-38864720D01*
X160399700Y-39996280D01*
X160394183Y-40052298D01*
X160379633Y-40100264D01*
X160356005Y-40144467D01*
X160324210Y-40183210D01*
X160285467Y-40215005D01*
X160241264Y-40238633D01*
X160193298Y-40253183D01*
X160137280Y-40258700D01*
X158505720Y-40258700D01*
X158449702Y-40253183D01*
X158401736Y-40238633D01*
X158357533Y-40215005D01*
X158318790Y-40183210D01*
X158286995Y-40144467D01*
X158263367Y-40100264D01*
X158248817Y-40052298D01*
X158243300Y-39996280D01*
X158243300Y-38864720D01*
X158248817Y-38808702D01*
X158263367Y-38760736D01*
X158286995Y-38716533D01*
X158318790Y-38677790D01*
X158357533Y-38645995D01*
X158401736Y-38622367D01*
X158449702Y-38607817D01*
X158505720Y-38602300D01*
X160137280Y-38602300D01*
X160193298Y-38607817D01*
X160193298Y-38607817D01*
G37*
G36*
X144381798Y-38607817D02*
X144429764Y-38622367D01*
X144473967Y-38645995D01*
X144512710Y-38677790D01*
X144544505Y-38716533D01*
X144568133Y-38760736D01*
X144582683Y-38808702D01*
X144588200Y-38864720D01*
X144588200Y-39996280D01*
X144582683Y-40052298D01*
X144568133Y-40100264D01*
X144544505Y-40144467D01*
X144512710Y-40183210D01*
X144473967Y-40215005D01*
X144429764Y-40238633D01*
X144381798Y-40253183D01*
X144325780Y-40258700D01*
X142694220Y-40258700D01*
X142638202Y-40253183D01*
X142590236Y-40238633D01*
X142546033Y-40215005D01*
X142507290Y-40183210D01*
X142475495Y-40144467D01*
X142451867Y-40100264D01*
X142437317Y-40052298D01*
X142431800Y-39996280D01*
X142431800Y-38864720D01*
X142437317Y-38808702D01*
X142451867Y-38760736D01*
X142475495Y-38716533D01*
X142507290Y-38677790D01*
X142546033Y-38645995D01*
X142590236Y-38622367D01*
X142638202Y-38607817D01*
X142694220Y-38602300D01*
X144325780Y-38602300D01*
X144381798Y-38607817D01*
X144381798Y-38607817D01*
G37*
G36*
X84851735Y-37126956D02*
X84994471Y-37170254D01*
X85110965Y-37232523D01*
X85126013Y-37240566D01*
X85156047Y-37265214D01*
X85241312Y-37335188D01*
X85311286Y-37420453D01*
X85335934Y-37450487D01*
X85335935Y-37450489D01*
X85406246Y-37582029D01*
X85449544Y-37724765D01*
X85460500Y-37836006D01*
X85460500Y-39018394D01*
X85449544Y-39129635D01*
X85406246Y-39272371D01*
X85385098Y-39311935D01*
X85335934Y-39403913D01*
X85311676Y-39433471D01*
X85241310Y-39519214D01*
X85126013Y-39613834D01*
X84994470Y-39684146D01*
X84851734Y-39727444D01*
X84703300Y-39742063D01*
X84554865Y-39727444D01*
X84412129Y-39684146D01*
X84280589Y-39613835D01*
X84280587Y-39613834D01*
X84238097Y-39578963D01*
X84165286Y-39519210D01*
X84094925Y-39433473D01*
X84077598Y-39416145D01*
X84057224Y-39402531D01*
X84034585Y-39393154D01*
X84010551Y-39388373D01*
X83986047Y-39388373D01*
X83962013Y-39393153D01*
X83939374Y-39402530D01*
X83919000Y-39416144D01*
X83901672Y-39433471D01*
X83888058Y-39453845D01*
X83878681Y-39476484D01*
X83875700Y-39488384D01*
X83861202Y-39561271D01*
X83821386Y-39657396D01*
X83763578Y-39743911D01*
X83690011Y-39817478D01*
X83603496Y-39875286D01*
X83507371Y-39915102D01*
X83405325Y-39935400D01*
X83301275Y-39935400D01*
X83199229Y-39915102D01*
X83103104Y-39875286D01*
X83016474Y-39817401D01*
X82997746Y-39802031D01*
X82976135Y-39790480D01*
X82952686Y-39783367D01*
X82928300Y-39780965D01*
X82903914Y-39783367D01*
X82880465Y-39790480D01*
X82858854Y-39802031D01*
X82840126Y-39817401D01*
X82753496Y-39875286D01*
X82657371Y-39915102D01*
X82555325Y-39935400D01*
X82451275Y-39935400D01*
X82349229Y-39915102D01*
X82253104Y-39875286D01*
X82166474Y-39817401D01*
X82147746Y-39802031D01*
X82126135Y-39790480D01*
X82102686Y-39783367D01*
X82078300Y-39780965D01*
X82053914Y-39783367D01*
X82030465Y-39790480D01*
X82008854Y-39802031D01*
X81990126Y-39817401D01*
X81903496Y-39875286D01*
X81807371Y-39915102D01*
X81705325Y-39935400D01*
X81601275Y-39935400D01*
X81499229Y-39915102D01*
X81403104Y-39875286D01*
X81316474Y-39817401D01*
X81297746Y-39802031D01*
X81276135Y-39790480D01*
X81252686Y-39783367D01*
X81228300Y-39780965D01*
X81203914Y-39783367D01*
X81180465Y-39790480D01*
X81158854Y-39802031D01*
X81140126Y-39817401D01*
X81053496Y-39875286D01*
X80957371Y-39915102D01*
X80855325Y-39935400D01*
X80751275Y-39935400D01*
X80649229Y-39915102D01*
X80553104Y-39875286D01*
X80466474Y-39817401D01*
X80447746Y-39802031D01*
X80426135Y-39790480D01*
X80402686Y-39783367D01*
X80378300Y-39780965D01*
X80353914Y-39783367D01*
X80330465Y-39790480D01*
X80308854Y-39802031D01*
X80290126Y-39817401D01*
X80203496Y-39875286D01*
X80107371Y-39915102D01*
X80005325Y-39935400D01*
X79901275Y-39935400D01*
X79799229Y-39915102D01*
X79703104Y-39875286D01*
X79616474Y-39817401D01*
X79597746Y-39802031D01*
X79576135Y-39790480D01*
X79552686Y-39783367D01*
X79528300Y-39780965D01*
X79503914Y-39783367D01*
X79480465Y-39790480D01*
X79458854Y-39802031D01*
X79440126Y-39817401D01*
X79353496Y-39875286D01*
X79257371Y-39915102D01*
X79155325Y-39935400D01*
X79051275Y-39935400D01*
X78949229Y-39915102D01*
X78853104Y-39875286D01*
X78766474Y-39817401D01*
X78747746Y-39802031D01*
X78726135Y-39790480D01*
X78702686Y-39783367D01*
X78678300Y-39780965D01*
X78653914Y-39783367D01*
X78630465Y-39790480D01*
X78608854Y-39802031D01*
X78590126Y-39817401D01*
X78503496Y-39875286D01*
X78407371Y-39915102D01*
X78305325Y-39935400D01*
X78201275Y-39935400D01*
X78099229Y-39915102D01*
X78003104Y-39875286D01*
X77916474Y-39817401D01*
X77897746Y-39802031D01*
X77876135Y-39790480D01*
X77852686Y-39783367D01*
X77828300Y-39780965D01*
X77803914Y-39783367D01*
X77780465Y-39790480D01*
X77758854Y-39802031D01*
X77740126Y-39817401D01*
X77653496Y-39875286D01*
X77557371Y-39915102D01*
X77455325Y-39935400D01*
X77351275Y-39935400D01*
X77249229Y-39915102D01*
X77153104Y-39875286D01*
X77066589Y-39817478D01*
X76993022Y-39743911D01*
X76935214Y-39657396D01*
X76895398Y-39561271D01*
X76880900Y-39488384D01*
X76873787Y-39464935D01*
X76862236Y-39443324D01*
X76846690Y-39424382D01*
X76827748Y-39408837D01*
X76806137Y-39397286D01*
X76782688Y-39390173D01*
X76758302Y-39387771D01*
X76733915Y-39390173D01*
X76710466Y-39397286D01*
X76688855Y-39408837D01*
X76669913Y-39424383D01*
X76661675Y-39433473D01*
X76591312Y-39519212D01*
X76476013Y-39613834D01*
X76344470Y-39684146D01*
X76201734Y-39727444D01*
X76053300Y-39742063D01*
X75904865Y-39727444D01*
X75762129Y-39684146D01*
X75630589Y-39613835D01*
X75630587Y-39613834D01*
X75588097Y-39578963D01*
X75515286Y-39519210D01*
X75420666Y-39403913D01*
X75350354Y-39272370D01*
X75307056Y-39129634D01*
X75296100Y-39018393D01*
X75296100Y-38513165D01*
X76810500Y-38513165D01*
X76810500Y-38951235D01*
X76812902Y-38975621D01*
X76820015Y-38999070D01*
X76831566Y-39020681D01*
X76847112Y-39039623D01*
X76866054Y-39055169D01*
X76887665Y-39066720D01*
X76911114Y-39073833D01*
X76935500Y-39076235D01*
X76959886Y-39073833D01*
X76983335Y-39066720D01*
X77004946Y-39055169D01*
X77023888Y-39039623D01*
X77066589Y-38996922D01*
X77153104Y-38939114D01*
X77249229Y-38899298D01*
X77351275Y-38879000D01*
X77455325Y-38879000D01*
X77557371Y-38899298D01*
X77653496Y-38939114D01*
X77740126Y-38996999D01*
X77758854Y-39012369D01*
X77780465Y-39023920D01*
X77803914Y-39031033D01*
X77828300Y-39033435D01*
X77852686Y-39031033D01*
X77876135Y-39023920D01*
X77897746Y-39012369D01*
X77916474Y-38996999D01*
X78003104Y-38939114D01*
X78099229Y-38899298D01*
X78201275Y-38879000D01*
X78305325Y-38879000D01*
X78407371Y-38899298D01*
X78503496Y-38939114D01*
X78590126Y-38996999D01*
X78608854Y-39012369D01*
X78630465Y-39023920D01*
X78653914Y-39031033D01*
X78678300Y-39033435D01*
X78702686Y-39031033D01*
X78726135Y-39023920D01*
X78747746Y-39012369D01*
X78766474Y-38996999D01*
X78853104Y-38939114D01*
X78949229Y-38899298D01*
X79051275Y-38879000D01*
X79155325Y-38879000D01*
X79257371Y-38899298D01*
X79353496Y-38939114D01*
X79440126Y-38996999D01*
X79458854Y-39012369D01*
X79480465Y-39023920D01*
X79503914Y-39031033D01*
X79528300Y-39033435D01*
X79552686Y-39031033D01*
X79576135Y-39023920D01*
X79597746Y-39012369D01*
X79616474Y-38996999D01*
X79703104Y-38939114D01*
X79799229Y-38899298D01*
X79901275Y-38879000D01*
X80005325Y-38879000D01*
X80107371Y-38899298D01*
X80203496Y-38939114D01*
X80290126Y-38996999D01*
X80308854Y-39012369D01*
X80330465Y-39023920D01*
X80353914Y-39031033D01*
X80378300Y-39033435D01*
X80402686Y-39031033D01*
X80426135Y-39023920D01*
X80447746Y-39012369D01*
X80466474Y-38996999D01*
X80553104Y-38939114D01*
X80649229Y-38899298D01*
X80751275Y-38879000D01*
X80855325Y-38879000D01*
X80957371Y-38899298D01*
X81053496Y-38939114D01*
X81140126Y-38996999D01*
X81158854Y-39012369D01*
X81180465Y-39023920D01*
X81203914Y-39031033D01*
X81228300Y-39033435D01*
X81252686Y-39031033D01*
X81276135Y-39023920D01*
X81297746Y-39012369D01*
X81316474Y-38996999D01*
X81403104Y-38939114D01*
X81499229Y-38899298D01*
X81601275Y-38879000D01*
X81705325Y-38879000D01*
X81807371Y-38899298D01*
X81903496Y-38939114D01*
X81990126Y-38996999D01*
X82008854Y-39012369D01*
X82030465Y-39023920D01*
X82053914Y-39031033D01*
X82078300Y-39033435D01*
X82102686Y-39031033D01*
X82126135Y-39023920D01*
X82147746Y-39012369D01*
X82166474Y-38996999D01*
X82253104Y-38939114D01*
X82349229Y-38899298D01*
X82451275Y-38879000D01*
X82555325Y-38879000D01*
X82657371Y-38899298D01*
X82753496Y-38939114D01*
X82840126Y-38996999D01*
X82858854Y-39012369D01*
X82880465Y-39023920D01*
X82903914Y-39031033D01*
X82928300Y-39033435D01*
X82952686Y-39031033D01*
X82976135Y-39023920D01*
X82997746Y-39012369D01*
X83016474Y-38996999D01*
X83103104Y-38939114D01*
X83199229Y-38899298D01*
X83301275Y-38879000D01*
X83405325Y-38879000D01*
X83507371Y-38899298D01*
X83603496Y-38939114D01*
X83690011Y-38996922D01*
X83732712Y-39039623D01*
X83751654Y-39055169D01*
X83773265Y-39066720D01*
X83796714Y-39073833D01*
X83821100Y-39076235D01*
X83845486Y-39073833D01*
X83868935Y-39066720D01*
X83890546Y-39055169D01*
X83909488Y-39039623D01*
X83925034Y-39020681D01*
X83936585Y-38999070D01*
X83943698Y-38975621D01*
X83946100Y-38951235D01*
X83946100Y-38513165D01*
X83943698Y-38488779D01*
X83936585Y-38465330D01*
X83925034Y-38443719D01*
X83909488Y-38424777D01*
X83890546Y-38409231D01*
X83868935Y-38397680D01*
X83845486Y-38390567D01*
X83821100Y-38388165D01*
X83796714Y-38390567D01*
X83773265Y-38397680D01*
X83751654Y-38409231D01*
X83732712Y-38424777D01*
X83690011Y-38467478D01*
X83603496Y-38525286D01*
X83507371Y-38565102D01*
X83405325Y-38585400D01*
X83301275Y-38585400D01*
X83199229Y-38565102D01*
X83103104Y-38525286D01*
X83016474Y-38467401D01*
X82997746Y-38452031D01*
X82976135Y-38440480D01*
X82952686Y-38433367D01*
X82928300Y-38430965D01*
X82903914Y-38433367D01*
X82880465Y-38440480D01*
X82858854Y-38452031D01*
X82840126Y-38467401D01*
X82753496Y-38525286D01*
X82657371Y-38565102D01*
X82555325Y-38585400D01*
X82451275Y-38585400D01*
X82349229Y-38565102D01*
X82253104Y-38525286D01*
X82166474Y-38467401D01*
X82147746Y-38452031D01*
X82126135Y-38440480D01*
X82102686Y-38433367D01*
X82078300Y-38430965D01*
X82053914Y-38433367D01*
X82030465Y-38440480D01*
X82008854Y-38452031D01*
X81990126Y-38467401D01*
X81903496Y-38525286D01*
X81807371Y-38565102D01*
X81705325Y-38585400D01*
X81601275Y-38585400D01*
X81499229Y-38565102D01*
X81403104Y-38525286D01*
X81316474Y-38467401D01*
X81297746Y-38452031D01*
X81276135Y-38440480D01*
X81252686Y-38433367D01*
X81228300Y-38430965D01*
X81203914Y-38433367D01*
X81180465Y-38440480D01*
X81158854Y-38452031D01*
X81140126Y-38467401D01*
X81053496Y-38525286D01*
X80957371Y-38565102D01*
X80855325Y-38585400D01*
X80751275Y-38585400D01*
X80649229Y-38565102D01*
X80553104Y-38525286D01*
X80466474Y-38467401D01*
X80447746Y-38452031D01*
X80426135Y-38440480D01*
X80402686Y-38433367D01*
X80378300Y-38430965D01*
X80353914Y-38433367D01*
X80330465Y-38440480D01*
X80308854Y-38452031D01*
X80290126Y-38467401D01*
X80203496Y-38525286D01*
X80107371Y-38565102D01*
X80005325Y-38585400D01*
X79901275Y-38585400D01*
X79799229Y-38565102D01*
X79703104Y-38525286D01*
X79616474Y-38467401D01*
X79597746Y-38452031D01*
X79576135Y-38440480D01*
X79552686Y-38433367D01*
X79528300Y-38430965D01*
X79503914Y-38433367D01*
X79480465Y-38440480D01*
X79458854Y-38452031D01*
X79440126Y-38467401D01*
X79353496Y-38525286D01*
X79257371Y-38565102D01*
X79155325Y-38585400D01*
X79051275Y-38585400D01*
X78949229Y-38565102D01*
X78853104Y-38525286D01*
X78766474Y-38467401D01*
X78747746Y-38452031D01*
X78726135Y-38440480D01*
X78702686Y-38433367D01*
X78678300Y-38430965D01*
X78653914Y-38433367D01*
X78630465Y-38440480D01*
X78608854Y-38452031D01*
X78590126Y-38467401D01*
X78503496Y-38525286D01*
X78407371Y-38565102D01*
X78305325Y-38585400D01*
X78201275Y-38585400D01*
X78099229Y-38565102D01*
X78003104Y-38525286D01*
X77916474Y-38467401D01*
X77897746Y-38452031D01*
X77876135Y-38440480D01*
X77852686Y-38433367D01*
X77828300Y-38430965D01*
X77803914Y-38433367D01*
X77780465Y-38440480D01*
X77758854Y-38452031D01*
X77740126Y-38467401D01*
X77653496Y-38525286D01*
X77557371Y-38565102D01*
X77455325Y-38585400D01*
X77351275Y-38585400D01*
X77249229Y-38565102D01*
X77153104Y-38525286D01*
X77066589Y-38467478D01*
X77023888Y-38424777D01*
X77004946Y-38409231D01*
X76983335Y-38397680D01*
X76959886Y-38390567D01*
X76935500Y-38388165D01*
X76911114Y-38390567D01*
X76887665Y-38397680D01*
X76866054Y-38409231D01*
X76847112Y-38424777D01*
X76831566Y-38443719D01*
X76820015Y-38465330D01*
X76812902Y-38488779D01*
X76810500Y-38513165D01*
X75296100Y-38513165D01*
X75296101Y-37836006D01*
X75307057Y-37724765D01*
X75350355Y-37582029D01*
X75420666Y-37450489D01*
X75420667Y-37450487D01*
X75445315Y-37420453D01*
X75515289Y-37335188D01*
X75600554Y-37265214D01*
X75630588Y-37240566D01*
X75645636Y-37232523D01*
X75762130Y-37170254D01*
X75904866Y-37126956D01*
X76053300Y-37112337D01*
X76201735Y-37126956D01*
X76344471Y-37170254D01*
X76460965Y-37232523D01*
X76476013Y-37240566D01*
X76506047Y-37265214D01*
X76591312Y-37335188D01*
X76661286Y-37420453D01*
X76685934Y-37450487D01*
X76685935Y-37450489D01*
X76740931Y-37553377D01*
X76756246Y-37582030D01*
X76762861Y-37603837D01*
X76783041Y-37670362D01*
X76792419Y-37693001D01*
X76806033Y-37713375D01*
X76823360Y-37730702D01*
X76843734Y-37744316D01*
X76866373Y-37753694D01*
X76890407Y-37758474D01*
X76914911Y-37758474D01*
X76938945Y-37753694D01*
X76961584Y-37744316D01*
X76991047Y-37722464D01*
X77066589Y-37646922D01*
X77153104Y-37589114D01*
X77249229Y-37549298D01*
X77351275Y-37529000D01*
X77455325Y-37529000D01*
X77557371Y-37549298D01*
X77653496Y-37589114D01*
X77740126Y-37646999D01*
X77758854Y-37662369D01*
X77780465Y-37673920D01*
X77803914Y-37681033D01*
X77828300Y-37683435D01*
X77852686Y-37681033D01*
X77876135Y-37673920D01*
X77897746Y-37662369D01*
X77916474Y-37646999D01*
X78003104Y-37589114D01*
X78099229Y-37549298D01*
X78201275Y-37529000D01*
X78305325Y-37529000D01*
X78407371Y-37549298D01*
X78503496Y-37589114D01*
X78590126Y-37646999D01*
X78608854Y-37662369D01*
X78630465Y-37673920D01*
X78653914Y-37681033D01*
X78678300Y-37683435D01*
X78702686Y-37681033D01*
X78726135Y-37673920D01*
X78747746Y-37662369D01*
X78766474Y-37646999D01*
X78853104Y-37589114D01*
X78949229Y-37549298D01*
X79051275Y-37529000D01*
X79155325Y-37529000D01*
X79257371Y-37549298D01*
X79353496Y-37589114D01*
X79440126Y-37646999D01*
X79458854Y-37662369D01*
X79480465Y-37673920D01*
X79503914Y-37681033D01*
X79528300Y-37683435D01*
X79552686Y-37681033D01*
X79576135Y-37673920D01*
X79597746Y-37662369D01*
X79616474Y-37646999D01*
X79703104Y-37589114D01*
X79799229Y-37549298D01*
X79901275Y-37529000D01*
X80005325Y-37529000D01*
X80107371Y-37549298D01*
X80203496Y-37589114D01*
X80290126Y-37646999D01*
X80308854Y-37662369D01*
X80330465Y-37673920D01*
X80353914Y-37681033D01*
X80378300Y-37683435D01*
X80402686Y-37681033D01*
X80426135Y-37673920D01*
X80447746Y-37662369D01*
X80466474Y-37646999D01*
X80553104Y-37589114D01*
X80649229Y-37549298D01*
X80751275Y-37529000D01*
X80855325Y-37529000D01*
X80957371Y-37549298D01*
X81053496Y-37589114D01*
X81140126Y-37646999D01*
X81158854Y-37662369D01*
X81180465Y-37673920D01*
X81203914Y-37681033D01*
X81228300Y-37683435D01*
X81252686Y-37681033D01*
X81276135Y-37673920D01*
X81297746Y-37662369D01*
X81316474Y-37646999D01*
X81403104Y-37589114D01*
X81499229Y-37549298D01*
X81601275Y-37529000D01*
X81705325Y-37529000D01*
X81807371Y-37549298D01*
X81903496Y-37589114D01*
X81990126Y-37646999D01*
X82008854Y-37662369D01*
X82030465Y-37673920D01*
X82053914Y-37681033D01*
X82078300Y-37683435D01*
X82102686Y-37681033D01*
X82126135Y-37673920D01*
X82147746Y-37662369D01*
X82166474Y-37646999D01*
X82253104Y-37589114D01*
X82349229Y-37549298D01*
X82451275Y-37529000D01*
X82555325Y-37529000D01*
X82657371Y-37549298D01*
X82753496Y-37589114D01*
X82840126Y-37646999D01*
X82858854Y-37662369D01*
X82880465Y-37673920D01*
X82903914Y-37681033D01*
X82928300Y-37683435D01*
X82952686Y-37681033D01*
X82976135Y-37673920D01*
X82997746Y-37662369D01*
X83016474Y-37646999D01*
X83103104Y-37589114D01*
X83199229Y-37549298D01*
X83301275Y-37529000D01*
X83405325Y-37529000D01*
X83507371Y-37549298D01*
X83603496Y-37589114D01*
X83690011Y-37646922D01*
X83765554Y-37722465D01*
X83784496Y-37738011D01*
X83806107Y-37749562D01*
X83829556Y-37756675D01*
X83853942Y-37759077D01*
X83878328Y-37756675D01*
X83901777Y-37749562D01*
X83923388Y-37738011D01*
X83942330Y-37722465D01*
X83957876Y-37703523D01*
X83969427Y-37681912D01*
X83973560Y-37670362D01*
X84000355Y-37582029D01*
X84070666Y-37450489D01*
X84070667Y-37450487D01*
X84095315Y-37420453D01*
X84165289Y-37335188D01*
X84250554Y-37265214D01*
X84280588Y-37240566D01*
X84295636Y-37232523D01*
X84412130Y-37170254D01*
X84554866Y-37126956D01*
X84703300Y-37112337D01*
X84851735Y-37126956D01*
X84851735Y-37126956D01*
G37*
G36*
X102875215Y-36862076D02*
X102972123Y-36881352D01*
X103012915Y-36898249D01*
X103154692Y-36956975D01*
X103319006Y-37066766D01*
X103458734Y-37206494D01*
X103568525Y-37370808D01*
X103601529Y-37450487D01*
X103634051Y-37529000D01*
X103644148Y-37553378D01*
X103682700Y-37747192D01*
X103682700Y-37944808D01*
X103644148Y-38138622D01*
X103568525Y-38321192D01*
X103458734Y-38485506D01*
X103319006Y-38625234D01*
X103154692Y-38735025D01*
X103092620Y-38760736D01*
X102972123Y-38810648D01*
X102875215Y-38829924D01*
X102778308Y-38849200D01*
X102580692Y-38849200D01*
X102483785Y-38829924D01*
X102386877Y-38810648D01*
X102266380Y-38760736D01*
X102204308Y-38735025D01*
X102039994Y-38625234D01*
X101900266Y-38485506D01*
X101790475Y-38321192D01*
X101714852Y-38138622D01*
X101676300Y-37944808D01*
X101676300Y-37747192D01*
X101714852Y-37553378D01*
X101724950Y-37529000D01*
X101757471Y-37450487D01*
X101790475Y-37370808D01*
X101900266Y-37206494D01*
X102039994Y-37066766D01*
X102204308Y-36956975D01*
X102346085Y-36898249D01*
X102386877Y-36881352D01*
X102483785Y-36862076D01*
X102580692Y-36842800D01*
X102778308Y-36842800D01*
X102875215Y-36862076D01*
X102875215Y-36862076D01*
G37*
G36*
X192611235Y-35601156D02*
X192753971Y-35644454D01*
X192806326Y-35672439D01*
X192885513Y-35714766D01*
X192915547Y-35739414D01*
X193000812Y-35809388D01*
X193053187Y-35873209D01*
X193095434Y-35924687D01*
X193095435Y-35924689D01*
X193165746Y-36056229D01*
X193209044Y-36198965D01*
X193220000Y-36310206D01*
X193220000Y-37492594D01*
X193209044Y-37603835D01*
X193165746Y-37746571D01*
X193159061Y-37759077D01*
X193095434Y-37878113D01*
X193074903Y-37903130D01*
X193000810Y-37993414D01*
X192885513Y-38088034D01*
X192753970Y-38158346D01*
X192611234Y-38201644D01*
X192462800Y-38216263D01*
X192314365Y-38201644D01*
X192171629Y-38158346D01*
X192040089Y-38088035D01*
X192040087Y-38088034D01*
X192004931Y-38059182D01*
X191924786Y-37993410D01*
X191830166Y-37878113D01*
X191759854Y-37746570D01*
X191716556Y-37603834D01*
X191705600Y-37492593D01*
X191705601Y-36310206D01*
X191716557Y-36198965D01*
X191759855Y-36056229D01*
X191830166Y-35924689D01*
X191830167Y-35924687D01*
X191872414Y-35873209D01*
X191924789Y-35809388D01*
X192010054Y-35739414D01*
X192040088Y-35714766D01*
X192119275Y-35672439D01*
X192171630Y-35644454D01*
X192314366Y-35601156D01*
X192462800Y-35586537D01*
X192611235Y-35601156D01*
X192611235Y-35601156D01*
G37*
G36*
X183961235Y-35601156D02*
X184103971Y-35644454D01*
X184156326Y-35672439D01*
X184235513Y-35714766D01*
X184265547Y-35739414D01*
X184350812Y-35809388D01*
X184403187Y-35873209D01*
X184445434Y-35924687D01*
X184445435Y-35924689D01*
X184515746Y-36056229D01*
X184559044Y-36198965D01*
X184570000Y-36310206D01*
X184570000Y-37492594D01*
X184559044Y-37603835D01*
X184515746Y-37746571D01*
X184509061Y-37759077D01*
X184445434Y-37878113D01*
X184424903Y-37903130D01*
X184350810Y-37993414D01*
X184235513Y-38088034D01*
X184103970Y-38158346D01*
X183961234Y-38201644D01*
X183812800Y-38216263D01*
X183664365Y-38201644D01*
X183521629Y-38158346D01*
X183390089Y-38088035D01*
X183390087Y-38088034D01*
X183354931Y-38059182D01*
X183274786Y-37993410D01*
X183180166Y-37878113D01*
X183109854Y-37746570D01*
X183066556Y-37603834D01*
X183055600Y-37492593D01*
X183055601Y-36310206D01*
X183066557Y-36198965D01*
X183109855Y-36056229D01*
X183180166Y-35924689D01*
X183180167Y-35924687D01*
X183222414Y-35873209D01*
X183274789Y-35809388D01*
X183360054Y-35739414D01*
X183390088Y-35714766D01*
X183469275Y-35672439D01*
X183521630Y-35644454D01*
X183664366Y-35601156D01*
X183812800Y-35586537D01*
X183961235Y-35601156D01*
X183961235Y-35601156D01*
G37*
G36*
X151408724Y-35112998D02*
X151515292Y-35134195D01*
X151598453Y-35168642D01*
X151716060Y-35217356D01*
X151896751Y-35338090D01*
X152050410Y-35491749D01*
X152171144Y-35672440D01*
X152203120Y-35749637D01*
X152254305Y-35873208D01*
X152258117Y-35892371D01*
X152296700Y-36086343D01*
X152296700Y-36303657D01*
X152254305Y-36516791D01*
X152171144Y-36717560D01*
X152050410Y-36898251D01*
X151896751Y-37051910D01*
X151716060Y-37172644D01*
X151634331Y-37206497D01*
X151515292Y-37255805D01*
X151408724Y-37277002D01*
X151302157Y-37298200D01*
X151084843Y-37298200D01*
X150978276Y-37277002D01*
X150871708Y-37255805D01*
X150752669Y-37206497D01*
X150670940Y-37172644D01*
X150490249Y-37051910D01*
X150336590Y-36898251D01*
X150215856Y-36717560D01*
X150132695Y-36516791D01*
X150090300Y-36303657D01*
X150090300Y-36086343D01*
X150128883Y-35892371D01*
X150132695Y-35873208D01*
X150183880Y-35749637D01*
X150215856Y-35672440D01*
X150336590Y-35491749D01*
X150490249Y-35338090D01*
X150670940Y-35217356D01*
X150788547Y-35168642D01*
X150871708Y-35134195D01*
X150978276Y-35112997D01*
X151084843Y-35091800D01*
X151302157Y-35091800D01*
X151408724Y-35112998D01*
X151408724Y-35112998D01*
G37*
G36*
X139596700Y-37298200D02*
X137390300Y-37298200D01*
X137390300Y-35091800D01*
X139596700Y-35091800D01*
X139596700Y-37298200D01*
X139596700Y-37298200D01*
G37*
G36*
X141248724Y-35112998D02*
X141355292Y-35134195D01*
X141438453Y-35168642D01*
X141556060Y-35217356D01*
X141736751Y-35338090D01*
X141890410Y-35491749D01*
X142011144Y-35672440D01*
X142043120Y-35749637D01*
X142094305Y-35873208D01*
X142098117Y-35892371D01*
X142136700Y-36086343D01*
X142136700Y-36303657D01*
X142094305Y-36516791D01*
X142011144Y-36717560D01*
X141890410Y-36898251D01*
X141736751Y-37051910D01*
X141556060Y-37172644D01*
X141474331Y-37206497D01*
X141355292Y-37255805D01*
X141248724Y-37277002D01*
X141142157Y-37298200D01*
X140924843Y-37298200D01*
X140818276Y-37277002D01*
X140711708Y-37255805D01*
X140592669Y-37206497D01*
X140510940Y-37172644D01*
X140330249Y-37051910D01*
X140176590Y-36898251D01*
X140055856Y-36717560D01*
X139972695Y-36516791D01*
X139930300Y-36303657D01*
X139930300Y-36086343D01*
X139968883Y-35892371D01*
X139972695Y-35873208D01*
X140023880Y-35749637D01*
X140055856Y-35672440D01*
X140176590Y-35491749D01*
X140330249Y-35338090D01*
X140510940Y-35217356D01*
X140628547Y-35168642D01*
X140711708Y-35134195D01*
X140818276Y-35112997D01*
X140924843Y-35091800D01*
X141142157Y-35091800D01*
X141248724Y-35112998D01*
X141248724Y-35112998D01*
G37*
G36*
X149756700Y-37298200D02*
X147550300Y-37298200D01*
X147550300Y-35091800D01*
X149756700Y-35091800D01*
X149756700Y-37298200D01*
X149756700Y-37298200D01*
G37*
G36*
X156742724Y-35049497D02*
X156849292Y-35070695D01*
X156932453Y-35105142D01*
X157050060Y-35153856D01*
X157230751Y-35274590D01*
X157384410Y-35428249D01*
X157505144Y-35608940D01*
X157517344Y-35638394D01*
X157588305Y-35809708D01*
X157609503Y-35916276D01*
X157630700Y-36022843D01*
X157630700Y-36240157D01*
X157588305Y-36453291D01*
X157505144Y-36654060D01*
X157384410Y-36834751D01*
X157230751Y-36988410D01*
X157050060Y-37109144D01*
X156970581Y-37142065D01*
X156849292Y-37192305D01*
X156777958Y-37206494D01*
X156636157Y-37234700D01*
X156418843Y-37234700D01*
X156277042Y-37206494D01*
X156205708Y-37192305D01*
X156084419Y-37142065D01*
X156004940Y-37109144D01*
X155824249Y-36988410D01*
X155670590Y-36834751D01*
X155549856Y-36654060D01*
X155466695Y-36453291D01*
X155424300Y-36240157D01*
X155424300Y-36022843D01*
X155445497Y-35916276D01*
X155466695Y-35809708D01*
X155537656Y-35638394D01*
X155549856Y-35608940D01*
X155670590Y-35428249D01*
X155824249Y-35274590D01*
X156004940Y-35153856D01*
X156122547Y-35105142D01*
X156205708Y-35070695D01*
X156312276Y-35049497D01*
X156418843Y-35028300D01*
X156636157Y-35028300D01*
X156742724Y-35049497D01*
X156742724Y-35049497D01*
G37*
G36*
X162076724Y-35049497D02*
X162183292Y-35070695D01*
X162266453Y-35105142D01*
X162384060Y-35153856D01*
X162564751Y-35274590D01*
X162718410Y-35428249D01*
X162839144Y-35608940D01*
X162851344Y-35638394D01*
X162922305Y-35809708D01*
X162943503Y-35916276D01*
X162964700Y-36022843D01*
X162964700Y-36240157D01*
X162922305Y-36453291D01*
X162839144Y-36654060D01*
X162718410Y-36834751D01*
X162564751Y-36988410D01*
X162384060Y-37109144D01*
X162304581Y-37142065D01*
X162183292Y-37192305D01*
X162111958Y-37206494D01*
X161970157Y-37234700D01*
X161752843Y-37234700D01*
X161611042Y-37206494D01*
X161539708Y-37192305D01*
X161418419Y-37142065D01*
X161338940Y-37109144D01*
X161158249Y-36988410D01*
X161004590Y-36834751D01*
X160883856Y-36654060D01*
X160800695Y-36453291D01*
X160758300Y-36240157D01*
X160758300Y-36022843D01*
X160779497Y-35916276D01*
X160800695Y-35809708D01*
X160871656Y-35638394D01*
X160883856Y-35608940D01*
X161004590Y-35428249D01*
X161158249Y-35274590D01*
X161338940Y-35153856D01*
X161456547Y-35105142D01*
X161539708Y-35070695D01*
X161646276Y-35049497D01*
X161752843Y-35028300D01*
X161970157Y-35028300D01*
X162076724Y-35049497D01*
X162076724Y-35049497D01*
G37*
G36*
X160424700Y-37234700D02*
X158218300Y-37234700D01*
X158218300Y-35028300D01*
X160424700Y-35028300D01*
X160424700Y-37234700D01*
X160424700Y-37234700D01*
G37*
G36*
X155090700Y-37234700D02*
X152884300Y-37234700D01*
X152884300Y-35028300D01*
X155090700Y-35028300D01*
X155090700Y-37234700D01*
X155090700Y-37234700D01*
G37*
G36*
X144613200Y-37171200D02*
X142406800Y-37171200D01*
X142406800Y-34964800D01*
X144613200Y-34964800D01*
X144613200Y-37171200D01*
X144613200Y-37171200D01*
G37*
G36*
X146265224Y-34985998D02*
X146371792Y-35007195D01*
X146454953Y-35041642D01*
X146572560Y-35090356D01*
X146753251Y-35211090D01*
X146906910Y-35364749D01*
X147027644Y-35545440D01*
X147053946Y-35608939D01*
X147110805Y-35746208D01*
X147111487Y-35749636D01*
X147153200Y-35959343D01*
X147153200Y-36176657D01*
X147140569Y-36240156D01*
X147116321Y-36362063D01*
X147110805Y-36389791D01*
X147027644Y-36590560D01*
X146906910Y-36771251D01*
X146753251Y-36924910D01*
X146572560Y-37045644D01*
X146454953Y-37094358D01*
X146371792Y-37128805D01*
X146265224Y-37150002D01*
X146158657Y-37171200D01*
X145941343Y-37171200D01*
X145834776Y-37150003D01*
X145728208Y-37128805D01*
X145645047Y-37094358D01*
X145527440Y-37045644D01*
X145346749Y-36924910D01*
X145193090Y-36771251D01*
X145072356Y-36590560D01*
X144989195Y-36389791D01*
X144983680Y-36362063D01*
X144959431Y-36240156D01*
X144946800Y-36176657D01*
X144946800Y-35959343D01*
X144988513Y-35749636D01*
X144989195Y-35746208D01*
X145046054Y-35608939D01*
X145072356Y-35545440D01*
X145193090Y-35364749D01*
X145346749Y-35211090D01*
X145527440Y-35090356D01*
X145645047Y-35041642D01*
X145728208Y-35007195D01*
X145834776Y-34985997D01*
X145941343Y-34964800D01*
X146158657Y-34964800D01*
X146265224Y-34985998D01*
X146265224Y-34985998D01*
G37*
G36*
X84851735Y-33746956D02*
X84994471Y-33790254D01*
X85110965Y-33852523D01*
X85126013Y-33860566D01*
X85156047Y-33885214D01*
X85241312Y-33955188D01*
X85311286Y-34040453D01*
X85335934Y-34070487D01*
X85335935Y-34070489D01*
X85406246Y-34202029D01*
X85449544Y-34344765D01*
X85460500Y-34456006D01*
X85460500Y-35638394D01*
X85449544Y-35749635D01*
X85406246Y-35892371D01*
X85377844Y-35945506D01*
X85335934Y-36023913D01*
X85309413Y-36056229D01*
X85241310Y-36139214D01*
X85126013Y-36233834D01*
X84994470Y-36304146D01*
X84851734Y-36347444D01*
X84703300Y-36362063D01*
X84554865Y-36347444D01*
X84412129Y-36304146D01*
X84292416Y-36240157D01*
X84280587Y-36233834D01*
X84233297Y-36195024D01*
X84165286Y-36139210D01*
X84070666Y-36023913D01*
X84000354Y-35892370D01*
X83957056Y-35749634D01*
X83946100Y-35638393D01*
X83946101Y-34456006D01*
X83957057Y-34344765D01*
X84000355Y-34202029D01*
X84070666Y-34070489D01*
X84070667Y-34070487D01*
X84095315Y-34040453D01*
X84165289Y-33955188D01*
X84250554Y-33885214D01*
X84280588Y-33860566D01*
X84295636Y-33852523D01*
X84412130Y-33790254D01*
X84554866Y-33746956D01*
X84703300Y-33732337D01*
X84851735Y-33746956D01*
X84851735Y-33746956D01*
G37*
G36*
X76201735Y-33746956D02*
X76344471Y-33790254D01*
X76460965Y-33852523D01*
X76476013Y-33860566D01*
X76506047Y-33885214D01*
X76591312Y-33955188D01*
X76661286Y-34040453D01*
X76685934Y-34070487D01*
X76685935Y-34070489D01*
X76756246Y-34202029D01*
X76799544Y-34344765D01*
X76810500Y-34456006D01*
X76810500Y-35638394D01*
X76799544Y-35749635D01*
X76756246Y-35892371D01*
X76727844Y-35945506D01*
X76685934Y-36023913D01*
X76659413Y-36056229D01*
X76591310Y-36139214D01*
X76476013Y-36233834D01*
X76344470Y-36304146D01*
X76201734Y-36347444D01*
X76053300Y-36362063D01*
X75904865Y-36347444D01*
X75762129Y-36304146D01*
X75642416Y-36240157D01*
X75630587Y-36233834D01*
X75583297Y-36195024D01*
X75515286Y-36139210D01*
X75420666Y-36023913D01*
X75350354Y-35892370D01*
X75307056Y-35749634D01*
X75296100Y-35638393D01*
X75296101Y-34456006D01*
X75307057Y-34344765D01*
X75350355Y-34202029D01*
X75420666Y-34070489D01*
X75420667Y-34070487D01*
X75445315Y-34040453D01*
X75515289Y-33955188D01*
X75600554Y-33885214D01*
X75630588Y-33860566D01*
X75645636Y-33852523D01*
X75762130Y-33790254D01*
X75904866Y-33746956D01*
X76053300Y-33732337D01*
X76201735Y-33746956D01*
X76201735Y-33746956D01*
G37*
G36*
X130815215Y-34322076D02*
X130912123Y-34341352D01*
X130987746Y-34372676D01*
X131094692Y-34416975D01*
X131259006Y-34526766D01*
X131398734Y-34666494D01*
X131508525Y-34830808D01*
X131552824Y-34937754D01*
X131584148Y-35013377D01*
X131622700Y-35207193D01*
X131622700Y-35404807D01*
X131584148Y-35598623D01*
X131567674Y-35638394D01*
X131508525Y-35781192D01*
X131398734Y-35945506D01*
X131259006Y-36085234D01*
X131094692Y-36195025D01*
X131000999Y-36233834D01*
X130912123Y-36270648D01*
X130815215Y-36289924D01*
X130718308Y-36309200D01*
X130520692Y-36309200D01*
X130423785Y-36289924D01*
X130326877Y-36270648D01*
X130238001Y-36233834D01*
X130144308Y-36195025D01*
X129979994Y-36085234D01*
X129840266Y-35945506D01*
X129730475Y-35781192D01*
X129671326Y-35638394D01*
X129654852Y-35598623D01*
X129616300Y-35404807D01*
X129616300Y-35207193D01*
X129654852Y-35013377D01*
X129686177Y-34937754D01*
X129730475Y-34830808D01*
X129840266Y-34666494D01*
X129979994Y-34526766D01*
X130144308Y-34416975D01*
X130251254Y-34372676D01*
X130326877Y-34341352D01*
X130423785Y-34322076D01*
X130520692Y-34302800D01*
X130718308Y-34302800D01*
X130815215Y-34322076D01*
X130815215Y-34322076D01*
G37*
G36*
X128275215Y-34322076D02*
X128372123Y-34341352D01*
X128447746Y-34372676D01*
X128554692Y-34416975D01*
X128719006Y-34526766D01*
X128858734Y-34666494D01*
X128968525Y-34830808D01*
X129012824Y-34937754D01*
X129044148Y-35013377D01*
X129082700Y-35207193D01*
X129082700Y-35404807D01*
X129044148Y-35598623D01*
X129027674Y-35638394D01*
X128968525Y-35781192D01*
X128858734Y-35945506D01*
X128719006Y-36085234D01*
X128554692Y-36195025D01*
X128460999Y-36233834D01*
X128372123Y-36270648D01*
X128275215Y-36289924D01*
X128178308Y-36309200D01*
X127980692Y-36309200D01*
X127883785Y-36289924D01*
X127786877Y-36270648D01*
X127698001Y-36233834D01*
X127604308Y-36195025D01*
X127439994Y-36085234D01*
X127300266Y-35945506D01*
X127190475Y-35781192D01*
X127131326Y-35638394D01*
X127114852Y-35598623D01*
X127076300Y-35404807D01*
X127076300Y-35207193D01*
X127114852Y-35013377D01*
X127146177Y-34937754D01*
X127190475Y-34830808D01*
X127300266Y-34666494D01*
X127439994Y-34526766D01*
X127604308Y-34416975D01*
X127711254Y-34372676D01*
X127786877Y-34341352D01*
X127883785Y-34322076D01*
X127980692Y-34302800D01*
X128178308Y-34302800D01*
X128275215Y-34322076D01*
X128275215Y-34322076D01*
G37*
G36*
X125735215Y-34322076D02*
X125832123Y-34341352D01*
X125907746Y-34372676D01*
X126014692Y-34416975D01*
X126179006Y-34526766D01*
X126318734Y-34666494D01*
X126428525Y-34830808D01*
X126472824Y-34937754D01*
X126504148Y-35013377D01*
X126542700Y-35207193D01*
X126542700Y-35404807D01*
X126504148Y-35598623D01*
X126487674Y-35638394D01*
X126428525Y-35781192D01*
X126318734Y-35945506D01*
X126179006Y-36085234D01*
X126014692Y-36195025D01*
X125920999Y-36233834D01*
X125832123Y-36270648D01*
X125735215Y-36289924D01*
X125638308Y-36309200D01*
X125440692Y-36309200D01*
X125343785Y-36289924D01*
X125246877Y-36270648D01*
X125158001Y-36233834D01*
X125064308Y-36195025D01*
X124899994Y-36085234D01*
X124760266Y-35945506D01*
X124650475Y-35781192D01*
X124591326Y-35638394D01*
X124574852Y-35598623D01*
X124536300Y-35404807D01*
X124536300Y-35207193D01*
X124574852Y-35013377D01*
X124606177Y-34937754D01*
X124650475Y-34830808D01*
X124760266Y-34666494D01*
X124899994Y-34526766D01*
X125064308Y-34416975D01*
X125171254Y-34372676D01*
X125246877Y-34341352D01*
X125343785Y-34322076D01*
X125440692Y-34302800D01*
X125638308Y-34302800D01*
X125735215Y-34322076D01*
X125735215Y-34322076D01*
G37*
G36*
X123195215Y-34322076D02*
X123292123Y-34341352D01*
X123367746Y-34372676D01*
X123474692Y-34416975D01*
X123639006Y-34526766D01*
X123778734Y-34666494D01*
X123888525Y-34830808D01*
X123932824Y-34937754D01*
X123964148Y-35013377D01*
X124002700Y-35207193D01*
X124002700Y-35404807D01*
X123964148Y-35598623D01*
X123947674Y-35638394D01*
X123888525Y-35781192D01*
X123778734Y-35945506D01*
X123639006Y-36085234D01*
X123474692Y-36195025D01*
X123380999Y-36233834D01*
X123292123Y-36270648D01*
X123195215Y-36289924D01*
X123098308Y-36309200D01*
X122900692Y-36309200D01*
X122803785Y-36289924D01*
X122706877Y-36270648D01*
X122618001Y-36233834D01*
X122524308Y-36195025D01*
X122359994Y-36085234D01*
X122220266Y-35945506D01*
X122110475Y-35781192D01*
X122051326Y-35638394D01*
X122034852Y-35598623D01*
X121996300Y-35404807D01*
X121996300Y-35207193D01*
X122034852Y-35013377D01*
X122066177Y-34937754D01*
X122110475Y-34830808D01*
X122220266Y-34666494D01*
X122359994Y-34526766D01*
X122524308Y-34416975D01*
X122631254Y-34372676D01*
X122706877Y-34341352D01*
X122803785Y-34322076D01*
X122900692Y-34302800D01*
X123098308Y-34302800D01*
X123195215Y-34322076D01*
X123195215Y-34322076D01*
G37*
G36*
X120655215Y-34322076D02*
X120752123Y-34341352D01*
X120827746Y-34372676D01*
X120934692Y-34416975D01*
X121099006Y-34526766D01*
X121238734Y-34666494D01*
X121348525Y-34830808D01*
X121392824Y-34937754D01*
X121424148Y-35013377D01*
X121462700Y-35207193D01*
X121462700Y-35404807D01*
X121424148Y-35598623D01*
X121407674Y-35638394D01*
X121348525Y-35781192D01*
X121238734Y-35945506D01*
X121099006Y-36085234D01*
X120934692Y-36195025D01*
X120840999Y-36233834D01*
X120752123Y-36270648D01*
X120655215Y-36289924D01*
X120558308Y-36309200D01*
X120360692Y-36309200D01*
X120263785Y-36289924D01*
X120166877Y-36270648D01*
X120078001Y-36233834D01*
X119984308Y-36195025D01*
X119819994Y-36085234D01*
X119680266Y-35945506D01*
X119570475Y-35781192D01*
X119511326Y-35638394D01*
X119494852Y-35598623D01*
X119456300Y-35404807D01*
X119456300Y-35207193D01*
X119494852Y-35013377D01*
X119526176Y-34937754D01*
X119570475Y-34830808D01*
X119680266Y-34666494D01*
X119819994Y-34526766D01*
X119984308Y-34416975D01*
X120091254Y-34372676D01*
X120166877Y-34341352D01*
X120263785Y-34322076D01*
X120360692Y-34302800D01*
X120558308Y-34302800D01*
X120655215Y-34322076D01*
X120655215Y-34322076D01*
G37*
G36*
X118115215Y-34322076D02*
X118212123Y-34341352D01*
X118287746Y-34372676D01*
X118394692Y-34416975D01*
X118559006Y-34526766D01*
X118698734Y-34666494D01*
X118808525Y-34830808D01*
X118852824Y-34937754D01*
X118884148Y-35013377D01*
X118922700Y-35207193D01*
X118922700Y-35404807D01*
X118884148Y-35598623D01*
X118867674Y-35638394D01*
X118808525Y-35781192D01*
X118698734Y-35945506D01*
X118559006Y-36085234D01*
X118394692Y-36195025D01*
X118300999Y-36233834D01*
X118212123Y-36270648D01*
X118115215Y-36289924D01*
X118018308Y-36309200D01*
X117820692Y-36309200D01*
X117723785Y-36289924D01*
X117626877Y-36270648D01*
X117538001Y-36233834D01*
X117444308Y-36195025D01*
X117279994Y-36085234D01*
X117140266Y-35945506D01*
X117030475Y-35781192D01*
X116971326Y-35638394D01*
X116954852Y-35598623D01*
X116916300Y-35404807D01*
X116916300Y-35207193D01*
X116954852Y-35013377D01*
X116986176Y-34937754D01*
X117030475Y-34830808D01*
X117140266Y-34666494D01*
X117279994Y-34526766D01*
X117444308Y-34416975D01*
X117551254Y-34372676D01*
X117626877Y-34341352D01*
X117723785Y-34322076D01*
X117820692Y-34302800D01*
X118018308Y-34302800D01*
X118115215Y-34322076D01*
X118115215Y-34322076D01*
G37*
G36*
X115575215Y-34322076D02*
X115672123Y-34341352D01*
X115747746Y-34372676D01*
X115854692Y-34416975D01*
X116019006Y-34526766D01*
X116158734Y-34666494D01*
X116268525Y-34830808D01*
X116312824Y-34937754D01*
X116344148Y-35013377D01*
X116382700Y-35207193D01*
X116382700Y-35404807D01*
X116344148Y-35598623D01*
X116327674Y-35638394D01*
X116268525Y-35781192D01*
X116158734Y-35945506D01*
X116019006Y-36085234D01*
X115854692Y-36195025D01*
X115760999Y-36233834D01*
X115672123Y-36270648D01*
X115575215Y-36289924D01*
X115478308Y-36309200D01*
X115280692Y-36309200D01*
X115183785Y-36289924D01*
X115086877Y-36270648D01*
X114998001Y-36233834D01*
X114904308Y-36195025D01*
X114739994Y-36085234D01*
X114600266Y-35945506D01*
X114490475Y-35781192D01*
X114431326Y-35638394D01*
X114414852Y-35598623D01*
X114376300Y-35404807D01*
X114376300Y-35207193D01*
X114414852Y-35013377D01*
X114446176Y-34937754D01*
X114490475Y-34830808D01*
X114600266Y-34666494D01*
X114739994Y-34526766D01*
X114904308Y-34416975D01*
X115011254Y-34372676D01*
X115086877Y-34341352D01*
X115183785Y-34322076D01*
X115280692Y-34302800D01*
X115478308Y-34302800D01*
X115575215Y-34322076D01*
X115575215Y-34322076D01*
G37*
G36*
X113035215Y-34322076D02*
X113132123Y-34341352D01*
X113207746Y-34372676D01*
X113314692Y-34416975D01*
X113479006Y-34526766D01*
X113618734Y-34666494D01*
X113728525Y-34830808D01*
X113772824Y-34937754D01*
X113804148Y-35013377D01*
X113842700Y-35207193D01*
X113842700Y-35404807D01*
X113804148Y-35598623D01*
X113787674Y-35638394D01*
X113728525Y-35781192D01*
X113618734Y-35945506D01*
X113479006Y-36085234D01*
X113314692Y-36195025D01*
X113220999Y-36233834D01*
X113132123Y-36270648D01*
X113035215Y-36289924D01*
X112938308Y-36309200D01*
X112740692Y-36309200D01*
X112643785Y-36289924D01*
X112546877Y-36270648D01*
X112458001Y-36233834D01*
X112364308Y-36195025D01*
X112199994Y-36085234D01*
X112060266Y-35945506D01*
X111950475Y-35781192D01*
X111891326Y-35638394D01*
X111874852Y-35598623D01*
X111836300Y-35404807D01*
X111836300Y-35207193D01*
X111874852Y-35013377D01*
X111906176Y-34937754D01*
X111950475Y-34830808D01*
X112060266Y-34666494D01*
X112199994Y-34526766D01*
X112364308Y-34416975D01*
X112471254Y-34372676D01*
X112546877Y-34341352D01*
X112643785Y-34322076D01*
X112740692Y-34302800D01*
X112938308Y-34302800D01*
X113035215Y-34322076D01*
X113035215Y-34322076D01*
G37*
G36*
X110495215Y-34322076D02*
X110592123Y-34341352D01*
X110667746Y-34372676D01*
X110774692Y-34416975D01*
X110939006Y-34526766D01*
X111078734Y-34666494D01*
X111188525Y-34830808D01*
X111232824Y-34937754D01*
X111264148Y-35013377D01*
X111302700Y-35207193D01*
X111302700Y-35404807D01*
X111264148Y-35598623D01*
X111247674Y-35638394D01*
X111188525Y-35781192D01*
X111078734Y-35945506D01*
X110939006Y-36085234D01*
X110774692Y-36195025D01*
X110680999Y-36233834D01*
X110592123Y-36270648D01*
X110495215Y-36289924D01*
X110398308Y-36309200D01*
X110200692Y-36309200D01*
X110103785Y-36289924D01*
X110006877Y-36270648D01*
X109918001Y-36233834D01*
X109824308Y-36195025D01*
X109659994Y-36085234D01*
X109520266Y-35945506D01*
X109410475Y-35781192D01*
X109351326Y-35638394D01*
X109334852Y-35598623D01*
X109296300Y-35404807D01*
X109296300Y-35207193D01*
X109334852Y-35013377D01*
X109366176Y-34937754D01*
X109410475Y-34830808D01*
X109520266Y-34666494D01*
X109659994Y-34526766D01*
X109824308Y-34416975D01*
X109931254Y-34372676D01*
X110006877Y-34341352D01*
X110103785Y-34322076D01*
X110200692Y-34302800D01*
X110398308Y-34302800D01*
X110495215Y-34322076D01*
X110495215Y-34322076D01*
G37*
G36*
X107955215Y-34322076D02*
X108052123Y-34341352D01*
X108127746Y-34372676D01*
X108234692Y-34416975D01*
X108399006Y-34526766D01*
X108538734Y-34666494D01*
X108648525Y-34830808D01*
X108692824Y-34937754D01*
X108724148Y-35013377D01*
X108762700Y-35207193D01*
X108762700Y-35404807D01*
X108724148Y-35598623D01*
X108707674Y-35638394D01*
X108648525Y-35781192D01*
X108538734Y-35945506D01*
X108399006Y-36085234D01*
X108234692Y-36195025D01*
X108140999Y-36233834D01*
X108052123Y-36270648D01*
X107955215Y-36289924D01*
X107858308Y-36309200D01*
X107660692Y-36309200D01*
X107563785Y-36289924D01*
X107466877Y-36270648D01*
X107378001Y-36233834D01*
X107284308Y-36195025D01*
X107119994Y-36085234D01*
X106980266Y-35945506D01*
X106870475Y-35781192D01*
X106811326Y-35638394D01*
X106794852Y-35598623D01*
X106756300Y-35404807D01*
X106756300Y-35207193D01*
X106794852Y-35013377D01*
X106826176Y-34937754D01*
X106870475Y-34830808D01*
X106980266Y-34666494D01*
X107119994Y-34526766D01*
X107284308Y-34416975D01*
X107391254Y-34372676D01*
X107466877Y-34341352D01*
X107563785Y-34322076D01*
X107660692Y-34302800D01*
X107858308Y-34302800D01*
X107955215Y-34322076D01*
X107955215Y-34322076D01*
G37*
G36*
X105415215Y-34322076D02*
X105512123Y-34341352D01*
X105587746Y-34372676D01*
X105694692Y-34416975D01*
X105859006Y-34526766D01*
X105998734Y-34666494D01*
X106108525Y-34830808D01*
X106152824Y-34937754D01*
X106184148Y-35013377D01*
X106222700Y-35207193D01*
X106222700Y-35404807D01*
X106184148Y-35598623D01*
X106167674Y-35638394D01*
X106108525Y-35781192D01*
X105998734Y-35945506D01*
X105859006Y-36085234D01*
X105694692Y-36195025D01*
X105600999Y-36233834D01*
X105512123Y-36270648D01*
X105415215Y-36289924D01*
X105318308Y-36309200D01*
X105120692Y-36309200D01*
X105023785Y-36289924D01*
X104926877Y-36270648D01*
X104838001Y-36233834D01*
X104744308Y-36195025D01*
X104579994Y-36085234D01*
X104440266Y-35945506D01*
X104330475Y-35781192D01*
X104271326Y-35638394D01*
X104254852Y-35598623D01*
X104216300Y-35404807D01*
X104216300Y-35207193D01*
X104254852Y-35013377D01*
X104286176Y-34937754D01*
X104330475Y-34830808D01*
X104440266Y-34666494D01*
X104579994Y-34526766D01*
X104744308Y-34416975D01*
X104851254Y-34372676D01*
X104926877Y-34341352D01*
X105023785Y-34322076D01*
X105120692Y-34302800D01*
X105318308Y-34302800D01*
X105415215Y-34322076D01*
X105415215Y-34322076D01*
G37*
G36*
X102875215Y-34322076D02*
X102972123Y-34341352D01*
X103047746Y-34372676D01*
X103154692Y-34416975D01*
X103319006Y-34526766D01*
X103458734Y-34666494D01*
X103568525Y-34830808D01*
X103612824Y-34937754D01*
X103644148Y-35013377D01*
X103682700Y-35207193D01*
X103682700Y-35404807D01*
X103644148Y-35598623D01*
X103627674Y-35638394D01*
X103568525Y-35781192D01*
X103458734Y-35945506D01*
X103319006Y-36085234D01*
X103154692Y-36195025D01*
X103060999Y-36233834D01*
X102972123Y-36270648D01*
X102875215Y-36289924D01*
X102778308Y-36309200D01*
X102580692Y-36309200D01*
X102483785Y-36289924D01*
X102386877Y-36270648D01*
X102298001Y-36233834D01*
X102204308Y-36195025D01*
X102039994Y-36085234D01*
X101900266Y-35945506D01*
X101790475Y-35781192D01*
X101731326Y-35638394D01*
X101714852Y-35598623D01*
X101676300Y-35404807D01*
X101676300Y-35207193D01*
X101714852Y-35013377D01*
X101746176Y-34937754D01*
X101790475Y-34830808D01*
X101900266Y-34666494D01*
X102039994Y-34526766D01*
X102204308Y-34416975D01*
X102311254Y-34372676D01*
X102386877Y-34341352D01*
X102483785Y-34322076D01*
X102580692Y-34302800D01*
X102778308Y-34302800D01*
X102875215Y-34322076D01*
X102875215Y-34322076D01*
G37*
G36*
X100335215Y-34322076D02*
X100432123Y-34341352D01*
X100507746Y-34372676D01*
X100614692Y-34416975D01*
X100779006Y-34526766D01*
X100918734Y-34666494D01*
X101028525Y-34830808D01*
X101072824Y-34937754D01*
X101104148Y-35013377D01*
X101142700Y-35207193D01*
X101142700Y-35404807D01*
X101104148Y-35598623D01*
X101087674Y-35638394D01*
X101028525Y-35781192D01*
X100918734Y-35945506D01*
X100779006Y-36085234D01*
X100614692Y-36195025D01*
X100520999Y-36233834D01*
X100432123Y-36270648D01*
X100335215Y-36289924D01*
X100238308Y-36309200D01*
X100040692Y-36309200D01*
X99943785Y-36289924D01*
X99846877Y-36270648D01*
X99758001Y-36233834D01*
X99664308Y-36195025D01*
X99499994Y-36085234D01*
X99360266Y-35945506D01*
X99250475Y-35781192D01*
X99191326Y-35638394D01*
X99174852Y-35598623D01*
X99136300Y-35404807D01*
X99136300Y-35207193D01*
X99174852Y-35013377D01*
X99206176Y-34937754D01*
X99250475Y-34830808D01*
X99360266Y-34666494D01*
X99499994Y-34526766D01*
X99664308Y-34416975D01*
X99771254Y-34372676D01*
X99846877Y-34341352D01*
X99943785Y-34322076D01*
X100040692Y-34302800D01*
X100238308Y-34302800D01*
X100335215Y-34322076D01*
X100335215Y-34322076D01*
G37*
G36*
X133355215Y-34322076D02*
X133452123Y-34341352D01*
X133527746Y-34372676D01*
X133634692Y-34416975D01*
X133799006Y-34526766D01*
X133938734Y-34666494D01*
X134048525Y-34830808D01*
X134092824Y-34937754D01*
X134124148Y-35013377D01*
X134162700Y-35207193D01*
X134162700Y-35404807D01*
X134124148Y-35598623D01*
X134107674Y-35638394D01*
X134048525Y-35781192D01*
X133938734Y-35945506D01*
X133799006Y-36085234D01*
X133634692Y-36195025D01*
X133540999Y-36233834D01*
X133452123Y-36270648D01*
X133355215Y-36289924D01*
X133258308Y-36309200D01*
X133060692Y-36309200D01*
X132963785Y-36289924D01*
X132866877Y-36270648D01*
X132778001Y-36233834D01*
X132684308Y-36195025D01*
X132519994Y-36085234D01*
X132380266Y-35945506D01*
X132270475Y-35781192D01*
X132211326Y-35638394D01*
X132194852Y-35598623D01*
X132156300Y-35404807D01*
X132156300Y-35207193D01*
X132194852Y-35013377D01*
X132226177Y-34937754D01*
X132270475Y-34830808D01*
X132380266Y-34666494D01*
X132519994Y-34526766D01*
X132684308Y-34416975D01*
X132791254Y-34372676D01*
X132866877Y-34341352D01*
X132963785Y-34322076D01*
X133060692Y-34302800D01*
X133258308Y-34302800D01*
X133355215Y-34322076D01*
X133355215Y-34322076D01*
G37*
M02*
