M48
;DRILL file {KiCad 5.0.2+dfsg1-1} date Wed 13 Jan 2021 03:08:46 PM CET
;FORMAT={-:-/ absolute / inch / decimal}
FMAT,2
INCH,TZ
T1C0.0120
T2C0.0157
T3C0.0236
T4C0.0315
T5C0.0354
T6C0.0362
T7C0.0394
T8C0.0433
T9C0.0906
T10C0.1693
%
G90
G05
T1
X2.931Y-1.942
X2.9345Y-2.0545
X2.94Y-2.026
X2.942Y-1.971
X2.946Y-1.998
X2.95Y-2.09
X2.954Y-2.154
X3.01Y-1.776
X3.214Y-1.686
X3.24Y-1.866
X3.262Y-1.814
X3.318Y-1.84
X3.346Y-1.67
X3.474Y-2.2
X3.976Y-1.568
X4.102Y-1.904
X4.918Y-1.574
X7.108Y-2.17
X7.284Y-1.9
X7.45Y-1.508
X7.502Y-1.992
X7.58Y-1.81
X7.784Y-2.024
T2
X3.0474Y-1.4983
X3.0474Y-1.5515
X3.0808Y-1.4983
X3.0808Y-1.5515
X3.1143Y-1.4983
X3.1143Y-1.5515
X3.1478Y-1.4983
X3.1478Y-1.5515
X3.1812Y-1.4983
X3.1812Y-1.5515
X3.2147Y-1.4983
X3.2147Y-1.5515
X3.2482Y-1.4983
X3.2482Y-1.5515
X3.2816Y-1.4983
X3.2816Y-1.5515
X7.2899Y-1.5713
X7.2899Y-1.6245
X7.3233Y-1.5713
X7.3233Y-1.6245
X7.3568Y-1.5713
X7.3568Y-1.6245
X7.3903Y-1.5713
X7.3903Y-1.6245
X7.4237Y-1.5713
X7.4237Y-1.6245
X7.4572Y-1.5713
X7.4572Y-1.6245
X7.4907Y-1.5713
X7.4907Y-1.6245
X7.5241Y-1.5713
X7.5241Y-1.6245
T4
X2.6777Y-1.8081
X2.6777Y-2.0049
T5
X5.65Y-1.42
X5.75Y-1.42
X6.2725Y-1.4225
X6.3725Y-1.4225
X6.0625Y-1.4225
X6.1625Y-1.4225
X5.8525Y-1.425
X5.9525Y-1.425
X5.4525Y-1.425
X5.5525Y-1.425
T6
X6.6967Y-1.8313
X6.7951Y-1.8313
X6.8739Y-1.8313
X6.9723Y-1.8313
T7
X6.326Y-2.23
X3.8425Y-1.6775
X3.8425Y-1.7875
X6.934Y-2.23
X6.438Y-2.23
X4.236Y-2.116
X6.55Y-2.23
X6.662Y-2.23
X7.994Y-2.054
X7.994Y-2.154
X7.994Y-2.254
X4.552Y-2.116
X7.048Y-2.23
X6.214Y-2.23
X4.44Y-2.116
X3.946Y-2.116
X4.774Y-2.116
X4.662Y-2.116
T8
X3.9425Y-1.39
X3.9425Y-1.99
X4.0425Y-1.39
X4.0425Y-1.49
X4.0425Y-1.99
X4.1425Y-1.39
X4.1425Y-1.99
X4.2425Y-1.39
X4.2425Y-1.99
X4.3425Y-1.39
X4.3425Y-1.99
X4.4425Y-1.39
X4.4425Y-1.99
X4.5425Y-1.39
X4.5425Y-1.99
X4.6425Y-1.39
X4.6425Y-1.99
X4.7425Y-1.39
X4.7425Y-1.99
X4.8425Y-1.39
X4.8425Y-1.99
X4.9425Y-1.39
X4.9425Y-1.99
X5.0425Y-1.39
X5.0425Y-1.99
X5.1425Y-1.39
X5.1425Y-1.99
X5.2425Y-1.39
X5.2425Y-1.99
T9
X6.5758Y-1.7246
X7.0932Y-1.7246
T10
X7.406Y-2.166
X7.868Y-1.496
X2.706Y-1.514
T3
X2.9942Y-1.3956G85X2.9942Y-1.3641
G05
X2.9942Y-1.5424G85X2.9942Y-1.4834
G05
X3.3348Y-1.3956G85X3.3348Y-1.3641
G05
X3.3348Y-1.5424G85X3.3348Y-1.4834
G05
X7.2367Y-1.4686G85X7.2367Y-1.4371
G05
X7.2367Y-1.6154G85X7.2367Y-1.5564
G05
X7.5773Y-1.4686G85X7.5773Y-1.4371
G05
X7.5773Y-1.6154G85X7.5773Y-1.5564
G05
T0
M30
