G04 #@! TF.GenerationSoftware,KiCad,Pcbnew,5.0.2+dfsg1-1*
G04 #@! TF.CreationDate,2021-01-12T18:46:28+01:00*
G04 #@! TF.ProjectId,ErgoDOX,4572676f-444f-4582-9e6b-696361645f70,rev?*
G04 #@! TF.SameCoordinates,Original*
G04 #@! TF.FileFunction,Other,Comment*
%FSLAX46Y46*%
G04 Gerber Fmt 4.6, Leading zero omitted, Abs format (unit mm)*
G04 Created by KiCad (PCBNEW 5.0.2+dfsg1-1) date Tue 12 Jan 2021 06:46:28 PM CET*
%MOMM*%
%LPD*%
G01*
G04 APERTURE LIST*
%ADD10C,0.150000*%
%ADD11C,0.381000*%
G04 APERTURE END LIST*
D10*
G04 #@! TO.C,H6*
X143187200Y-91846400D02*
G75*
G03X143187200Y-91846400I-4300000J0D01*
G01*
G04 #@! TO.C,H13*
X72786500Y-145224500D02*
G75*
G03X72786500Y-145224500I-3000000J0D01*
G01*
G04 #@! TO.C,H12*
X82946500Y-166814500D02*
G75*
G03X82946500Y-166814500I-3000000J0D01*
G01*
G04 #@! TO.C,H11*
X68405000Y-147256500D02*
G75*
G03X68405000Y-147256500I-3000000J0D01*
G01*
G04 #@! TO.C,H14*
X78374500Y-168973500D02*
G75*
G03X78374500Y-168973500I-3000000J0D01*
G01*
G04 #@! TO.C,H10*
X97853000Y-160274000D02*
G75*
G03X97853000Y-160274000I-4000000J0D01*
G01*
G04 #@! TO.C,H9*
X87820000Y-138620500D02*
G75*
G03X87820000Y-138620500I-4000000J0D01*
G01*
G04 #@! TO.C,H8*
X55562000Y-153733500D02*
G75*
G03X55562000Y-153733500I-4000000J0D01*
G01*
G04 #@! TO.C,H7*
X65595000Y-175323500D02*
G75*
G03X65595000Y-175323500I-4000000J0D01*
G01*
D11*
G04 #@! TO.C,SX1:8*
X74208072Y-152870700D02*
X68840820Y-141360592D01*
X85718180Y-147503448D02*
X74208072Y-152870700D01*
X80350928Y-135993340D02*
X85718180Y-147503448D01*
X68840820Y-141360592D02*
X80350928Y-135993340D01*
G04 #@! TO.C,SX1:7*
X51576440Y-149412392D02*
X63086548Y-144045140D01*
X63086548Y-144045140D02*
X68453800Y-155555248D01*
X68453800Y-155555248D02*
X56943692Y-160922500D01*
X56943692Y-160922500D02*
X51576440Y-149412392D01*
G04 #@! TO.C,SX0:11*
X71135808Y-161309520D02*
X76503060Y-172819628D01*
X59625700Y-166676772D02*
X71135808Y-161309520D01*
X64992952Y-178186880D02*
X59625700Y-166676772D01*
X76503060Y-172819628D02*
X64992952Y-178186880D01*
G04 #@! TO.C,SX0:10*
X93769980Y-164770368D02*
X82259872Y-170137620D01*
X82259872Y-170137620D02*
X76892620Y-158627512D01*
X76892620Y-158627512D02*
X88402728Y-153260260D01*
X88402728Y-153260260D02*
X93769980Y-164770368D01*
G04 #@! TO.C,SW1:9*
X104140000Y-146377660D02*
X104140000Y-133677660D01*
X116840000Y-146377660D02*
X104140000Y-146377660D01*
X116840000Y-133677660D02*
X116840000Y-146377660D01*
X104140000Y-133677660D02*
X116840000Y-133677660D01*
G04 #@! TO.C,SW0:10*
X89741540Y-156136908D02*
X78231432Y-161504160D01*
X84374288Y-144626800D02*
X89741540Y-156136908D01*
X72864180Y-149994052D02*
X84374288Y-144626800D01*
X78231432Y-161504160D02*
X72864180Y-149994052D01*
G04 #@! TO.C,SW1:13*
X180340000Y-136852660D02*
X193040000Y-136852660D01*
X193040000Y-136852660D02*
X193040000Y-149552660D01*
X193040000Y-149552660D02*
X180340000Y-149552660D01*
X180340000Y-149552660D02*
X180340000Y-136852660D01*
G04 #@! TO.C,SW2:13*
X180340000Y-117802660D02*
X197802500Y-117802660D01*
X197802500Y-117802660D02*
X197802500Y-130502660D01*
X197802500Y-130502660D02*
X180340000Y-130502660D01*
X180340000Y-130502660D02*
X180340000Y-117802660D01*
G04 #@! TO.C,SW3:13*
X180340000Y-111452660D02*
X180340000Y-98752660D01*
X197802500Y-111452660D02*
X180340000Y-111452660D01*
X197802500Y-98752660D02*
X197802500Y-111452660D01*
X180340000Y-98752660D02*
X197802500Y-98752660D01*
G04 #@! TO.C,SW4:13*
X180340000Y-92402660D02*
X180340000Y-79702660D01*
X197802500Y-92402660D02*
X180340000Y-92402660D01*
X197802500Y-79702660D02*
X197802500Y-92402660D01*
X180340000Y-79702660D02*
X197802500Y-79702660D01*
G04 #@! TO.C,SW5:13*
X180340000Y-60655200D02*
X197802500Y-60655200D01*
X197802500Y-60655200D02*
X197802500Y-73355200D01*
X197802500Y-73355200D02*
X180340000Y-73355200D01*
X180340000Y-73355200D02*
X180340000Y-60655200D01*
D10*
G04 #@! TO.C,H5*
X204769500Y-140843000D02*
G75*
G03X204769500Y-140843000I-4300000J0D01*
G01*
G04 #@! TO.C,H4*
X73032400Y-38455600D02*
G75*
G03X73032400Y-38455600I-4300000J0D01*
G01*
G04 #@! TO.C,H3*
X101074000Y-138430000D02*
G75*
G03X101074000Y-138430000I-4300000J0D01*
G01*
G04 #@! TO.C,H2*
X79674500Y-102870000D02*
G75*
G03X79674500Y-102870000I-4300000J0D01*
G01*
G04 #@! TO.C,H1*
X204502800Y-41198800D02*
G75*
G03X204502800Y-41198800I-4300000J0D01*
G01*
D11*
G04 #@! TO.C,SW5:8*
X85090000Y-71450200D02*
X85090000Y-58750200D01*
X97790000Y-71450200D02*
X85090000Y-71450200D01*
X97790000Y-58750200D02*
X97790000Y-71450200D01*
X85090000Y-58750200D02*
X97790000Y-58750200D01*
G04 #@! TO.C,SW4:11*
X142240000Y-89227660D02*
X142240000Y-76527660D01*
X154940000Y-89227660D02*
X142240000Y-89227660D01*
X154940000Y-76527660D02*
X154940000Y-89227660D01*
X142240000Y-76527660D02*
X154940000Y-76527660D01*
G04 #@! TO.C,SW0:11*
X72477160Y-164188708D02*
X60967052Y-169555960D01*
X67109908Y-152678600D02*
X72477160Y-164188708D01*
X55599800Y-158045852D02*
X67109908Y-152678600D01*
X60967052Y-169555960D02*
X55599800Y-158045852D01*
G04 #@! TO.C,SW1:10*
X123190000Y-144780000D02*
X123190000Y-132080000D01*
X135890000Y-144780000D02*
X123190000Y-144780000D01*
X135890000Y-132080000D02*
X135890000Y-144780000D01*
X123190000Y-132080000D02*
X135890000Y-132080000D01*
G04 #@! TO.C,SW1:12*
X161290000Y-149552660D02*
X161290000Y-136852660D01*
X173990000Y-149552660D02*
X161290000Y-149552660D01*
X173990000Y-136852660D02*
X173990000Y-149552660D01*
X161290000Y-136852660D02*
X173990000Y-136852660D01*
G04 #@! TO.C,SW2:8*
X85090000Y-128597660D02*
X85090000Y-115897660D01*
X97790000Y-128597660D02*
X85090000Y-128597660D01*
X97790000Y-115897660D02*
X97790000Y-128597660D01*
X85090000Y-115897660D02*
X97790000Y-115897660D01*
G04 #@! TO.C,SW2:9*
X104140000Y-127327660D02*
X104140000Y-114627660D01*
X116840000Y-127327660D02*
X104140000Y-127327660D01*
X116840000Y-114627660D02*
X116840000Y-127327660D01*
X104140000Y-114627660D02*
X116840000Y-114627660D01*
G04 #@! TO.C,SW2:10*
X123190000Y-125730000D02*
X123190000Y-113030000D01*
X135890000Y-125730000D02*
X123190000Y-125730000D01*
X135890000Y-113030000D02*
X135890000Y-125730000D01*
X123190000Y-113030000D02*
X135890000Y-113030000D01*
G04 #@! TO.C,SW2:11*
X142240000Y-127327660D02*
X142240000Y-114627660D01*
X154940000Y-127327660D02*
X142240000Y-127327660D01*
X154940000Y-114627660D02*
X154940000Y-127327660D01*
X142240000Y-114627660D02*
X154940000Y-114627660D01*
G04 #@! TO.C,SW2:12*
X161290000Y-130502660D02*
X161290000Y-117802660D01*
X173990000Y-130502660D02*
X161290000Y-130502660D01*
X173990000Y-117802660D02*
X173990000Y-130502660D01*
X161290000Y-117802660D02*
X173990000Y-117802660D01*
G04 #@! TO.C,SW3:8*
X85090000Y-109547660D02*
X85090000Y-96847660D01*
X97790000Y-109547660D02*
X85090000Y-109547660D01*
X97790000Y-96847660D02*
X97790000Y-109547660D01*
X85090000Y-96847660D02*
X97790000Y-96847660D01*
G04 #@! TO.C,SW3:9*
X104140000Y-108277660D02*
X104140000Y-95577660D01*
X116840000Y-108277660D02*
X104140000Y-108277660D01*
X116840000Y-95577660D02*
X116840000Y-108277660D01*
X104140000Y-95577660D02*
X116840000Y-95577660D01*
G04 #@! TO.C,SW3:10*
X123190000Y-106680000D02*
X123190000Y-93980000D01*
X135890000Y-106680000D02*
X123190000Y-106680000D01*
X135890000Y-93980000D02*
X135890000Y-106680000D01*
X123190000Y-93980000D02*
X135890000Y-93980000D01*
G04 #@! TO.C,SW3:11*
X142240000Y-108277660D02*
X142240000Y-95577660D01*
X154940000Y-108277660D02*
X142240000Y-108277660D01*
X154940000Y-95577660D02*
X154940000Y-108277660D01*
X142240000Y-95577660D02*
X154940000Y-95577660D01*
G04 #@! TO.C,SW4:9*
X104140000Y-89227660D02*
X104140000Y-76527660D01*
X116840000Y-89227660D02*
X104140000Y-89227660D01*
X116840000Y-76527660D02*
X116840000Y-89227660D01*
X104140000Y-76527660D02*
X116840000Y-76527660D01*
G04 #@! TO.C,SW4:10*
X123190000Y-87630000D02*
X123190000Y-74930000D01*
X135890000Y-87630000D02*
X123190000Y-87630000D01*
X135890000Y-74930000D02*
X135890000Y-87630000D01*
X123190000Y-74930000D02*
X135890000Y-74930000D01*
G04 #@! TO.C,SW4:12*
X161290000Y-92402660D02*
X161290000Y-79702660D01*
X173990000Y-92402660D02*
X161290000Y-92402660D01*
X173990000Y-79702660D02*
X173990000Y-92402660D01*
X161290000Y-79702660D02*
X173990000Y-79702660D01*
G04 #@! TO.C,SW1:11*
X142240000Y-146377660D02*
X142240000Y-133677660D01*
X154940000Y-146377660D02*
X142240000Y-146377660D01*
X154940000Y-133677660D02*
X154940000Y-146377660D01*
X142240000Y-133677660D02*
X154940000Y-133677660D01*
G04 #@! TO.C,SW5:9*
X104140000Y-70177660D02*
X104140000Y-57477660D01*
X116840000Y-70177660D02*
X104140000Y-70177660D01*
X116840000Y-57477660D02*
X116840000Y-70177660D01*
X104140000Y-57477660D02*
X116840000Y-57477660D01*
G04 #@! TO.C,SW5:10*
X123190000Y-68580000D02*
X123190000Y-55880000D01*
X135890000Y-68580000D02*
X123190000Y-68580000D01*
X135890000Y-55880000D02*
X135890000Y-68580000D01*
X123190000Y-55880000D02*
X135890000Y-55880000D01*
G04 #@! TO.C,SW5:11*
X142240000Y-70177660D02*
X142240000Y-57477660D01*
X154940000Y-70177660D02*
X142240000Y-70177660D01*
X154940000Y-57477660D02*
X154940000Y-70177660D01*
X142240000Y-57477660D02*
X154940000Y-57477660D01*
G04 #@! TO.C,SW5:12*
X161290000Y-73355200D02*
X161290000Y-60655200D01*
X173990000Y-73355200D02*
X161290000Y-73355200D01*
X173990000Y-60655200D02*
X173990000Y-73355200D01*
X161290000Y-60655200D02*
X173990000Y-60655200D01*
G04 #@! TO.C,SW0:8*
X48891892Y-143658120D02*
X43524640Y-132148012D01*
X60402000Y-138290868D02*
X48891892Y-143658120D01*
X55034748Y-126780760D02*
X60402000Y-138290868D01*
X43524640Y-132148012D02*
X55034748Y-126780760D01*
G04 #@! TO.C,SW0:7*
X31627512Y-151707380D02*
X26260260Y-140197272D01*
X43137620Y-146340128D02*
X31627512Y-151707380D01*
X37770368Y-134830020D02*
X43137620Y-146340128D01*
X26260260Y-140197272D02*
X37770368Y-134830020D01*
G04 #@! TO.C,SW0:12*
X47728572Y-186238680D02*
X42361320Y-174728572D01*
X59238680Y-180871428D02*
X47728572Y-186238680D01*
X53871428Y-169361320D02*
X59238680Y-180871428D01*
X42361320Y-174728572D02*
X53871428Y-169361320D01*
G04 #@! TO.C,SW0:9*
X39676772Y-168971760D02*
X34309520Y-157461652D01*
X51186880Y-163604508D02*
X39676772Y-168971760D01*
X45819628Y-152094400D02*
X51186880Y-163604508D01*
X34309520Y-157461652D02*
X45819628Y-152094400D01*
G04 #@! TO.C,SW4:8*
X85090000Y-90497660D02*
X85090000Y-77797660D01*
X97790000Y-90497660D02*
X85090000Y-90497660D01*
X97790000Y-77797660D02*
X97790000Y-90497660D01*
X85090000Y-77797660D02*
X97790000Y-77797660D01*
G04 #@! TO.C,SW2:7*
X78740000Y-123835160D02*
X66040000Y-123835160D01*
X78740000Y-111135160D02*
X78740000Y-123835160D01*
X66040000Y-111135160D02*
X78740000Y-111135160D01*
X66040000Y-123835160D02*
X66040000Y-111135160D01*
G04 #@! TO.C,SW4:7*
X78740000Y-95260160D02*
X66040000Y-95260160D01*
X78740000Y-82560160D02*
X78740000Y-95260160D01*
X66040000Y-82560160D02*
X78740000Y-82560160D01*
X66040000Y-95260160D02*
X66040000Y-82560160D01*
G04 #@! TO.C,SW5:7*
X66040000Y-71450200D02*
X66040000Y-58750200D01*
X78740000Y-71450200D02*
X66040000Y-71450200D01*
X78740000Y-58750200D02*
X78740000Y-71450200D01*
X66040000Y-58750200D02*
X78740000Y-58750200D01*
G04 #@! TO.C,SW3:12*
X161290000Y-111452660D02*
X161290000Y-98752660D01*
X173990000Y-111452660D02*
X161290000Y-111452660D01*
X173990000Y-98752660D02*
X173990000Y-111452660D01*
X161290000Y-98752660D02*
X173990000Y-98752660D01*
G04 #@! TD*
M02*
